<?xml version="1.0" encoding="utf-8"?>
<!-- Generator: Adobe Illustrator 13.0.0, SVG Export Plug-In . SVG Version: 6.00 Build 14948)  -->
<!DOCTYPE svg PUBLIC "-//W3C//DTD SVG 1.1//EN" "http://www.w3.org/Graphics/SVG/1.1/DTD/svg11.dtd">
<svg version="1.1" xmlns="http://www.w3.org/2000/svg" xmlns:xlink="http://www.w3.org/1999/xlink" x="0px" y="0px" width="390px"
	 height="150px" viewBox="0 0 390 150" enable-background="new 0 0 390 150" xml:space="preserve">
<g id="Guides">
</g>
<g id="sponsor-logo_championsuk">
	<polygon fill="#EB008B" points="204.1,98.5 200.5,98.5 200.5,95.7 210.9,95.7 210.9,98.5 207.3,98.5 207.3,112.6 204.1,112.6 	"/>
	<polygon fill="#EB008B" points="211.7,95.7 214.8,95.7 214.8,102.3 219.1,102.3 219.1,95.7 222.3,95.7 222.3,112.6 219.1,112.6 
		219.1,104.9 214.8,104.9 214.8,112.6 211.7,112.6 	"/>
	<polygon fill="#EB008B" points="223.3,95.7 232.1,95.7 232.1,98.5 226.5,98.5 226.5,102.4 231.7,102.4 231.7,105.1 226.5,105.1 
		226.5,109.8 232.2,109.8 232.2,112.6 223.3,112.6 	"/>
	<g>
		<path fill="#EB008B" d="M242.9,110.2c1.6,0,2.2-0.7,2.2-2.7c0-2.2-0.7-2.7-2.6-2.7h-1v5.4H242.9z M242.6,102.5
			c1.6,0,2.1-0.6,2.1-2.4c0-1.7-0.5-2.2-2.2-2.2h-1v4.6H242.6z M238.5,95.7h5.1c2.9,0,4.3,1.3,4.3,4.1c0,2.3-0.7,3.5-2.1,3.7
			c1.6,0.2,2.5,1.6,2.5,3.9c0,3.6-1.5,5.2-4.7,5.2h-5.2V95.7z"/>
		<path fill="#EB008B" d="M253.9,102.8c1.8,0,2.4-0.6,2.4-2.5c0-1.8-0.8-2.3-2.7-2.3H252v4.8H253.9z M249,95.7h5.7
			c3.4,0,4.8,1.3,4.8,4.5c0,2.2-0.8,3.5-2.4,3.7c2.3,0.6,2.3,1.8,2.3,4l0.1,2.3c0.1,1.1,0.2,1.9,0.9,2.5h-3.8
			c-0.2-0.7-0.3-1.6-0.3-2.6l0-1.8v-0.4c0-2.2-0.9-2.6-3.2-2.6H252v7.5h-3V95.7z"/>
		<path fill="#EB008B" d="M266.9,105.8l-1.4-7.1l-1.3,7.1H266.9z M263.4,95.7h4.2l3.9,17h-3.4l-0.8-4.3h-3.6l-0.8,4.3h-3.2
			L263.4,95.7z"/>
		<polygon fill="#EB008B" points="271.5,95.7 274.8,95.7 279.2,107.5 279.1,95.7 282.1,95.7 282.1,112.6 278.8,112.6 274.4,100.7 
			274.5,112.6 271.5,112.6 		"/>
		<path fill="#EB008B" d="M287.5,110.1c1.1,0,1.8-0.1,2.2-0.7c0.7-1.1,0.8-2.9,0.8-5.5c0-2.7-0.1-4.4-1-5.3
			c-0.4-0.5-1.1-0.5-2.1-0.5h-1.4v12H287.5z M283,95.7h5.1c1.8,0,3.1,0.2,4,1.1c1.4,1.4,1.6,3.4,1.6,6.3c0,3.3,0,5.8-1.1,7.7
			c-1,1.7-2.5,1.9-5.2,1.9H283V95.7z"/>
		<path fill="#EB008B" d="M305,105.8l-1.4-7.1l-1.3,7.1H305z M301.5,95.7h4.2l3.9,17h-3.4l-0.8-4.3h-3.6l-0.8,4.3h-3.2L301.5,95.7z"
			/>
		<path fill="#EB008B" d="M317.8,110.8c-0.7,1.6-1.7,2.3-3.7,2.3c-3.9,0-4.8-2.9-4.8-9.4c0-3.1,0.3-5.2,1.1-6.4c0.9-1.4,2.3-2,4.5-2
			c3.6,0,5.3,1.7,5.3,5.3v0.4h-3v-0.2c0-2-0.8-3.1-2.3-3.1c-2.4,0-2.4,2-2.4,6.7c0,4.2,0.3,6,2.2,6c1.7,0,2.3-1.1,2.3-3.8v-0.6h-2.2
			v-2.7h5.2v9.3H318L317.8,110.8z"/>
		<polygon fill="#EB008B" points="321.4,95.7 330.1,95.7 330.1,98.5 324.5,98.5 324.5,102.4 329.7,102.4 329.7,105.1 324.5,105.1 
			324.5,109.8 330.3,109.8 330.3,112.6 321.4,112.6 		"/>
		<polygon fill="#EB008B" points="331.2,95.7 334.4,95.7 338.8,107.5 338.8,95.7 341.7,95.7 341.7,112.6 338.5,112.6 334.1,100.7 
			334.2,112.6 331.2,112.6 		"/>
		<path fill="#EB008B" d="M352.9,106.6c0,0.2,0,0.4,0,0.7c0,3.9-1.6,5.8-5,5.8c-1.6,0-2.7-0.4-3.6-1.3c-1.4-1.5-1.6-3.9-1.6-7.8
			c0-3.2,0.2-5.4,0.9-6.5c0.9-1.6,2.2-2.2,4.3-2.2c3.5,0,4.9,1.7,4.9,5.7h-3.1v-0.4c0-1.8-0.6-2.7-1.8-2.7c-2,0-2,1.8-2,6.1
			c0,4.7,0,6.6,1.9,6.6c1.5,0,1.9-1.1,1.9-3.7v-0.2H352.9z"/>
		<polygon fill="#EB008B" points="356.8,105.4 352.3,95.7 355.8,95.7 358.4,102.1 360.9,95.7 364.4,95.7 360,105.4 360,112.6 
			356.8,112.6 		"/>
		<path fill="#231F20" d="M305.7,71.5c-1.2-1.5-1.8-3.4-1.8-5.6c0-0.6,0.1-1.3,0.2-2c0.1-0.7,0.3-1.3,0.5-1.8
			c0.2-0.5,0.6-1.2,1.1-1.9l0.1-0.2h-0.9l0,0c-0.9,1.1-1.5,2.1-1.9,3c-0.4,0.9-0.5,1.8-0.5,2.8c0,0.9,0.2,1.9,0.5,2.8
			c0.2,0.6,0.4,1,0.7,1.4c0.2,0.3,0.6,0.8,1,1.4l0.2,0.3h1L305.7,71.5z"/>
		<path fill="#231F20" d="M311.5,61.5v4.9c0,0.7-0.1,1.1-0.2,1.4c-0.1,0.3-0.3,0.5-0.5,0.7c-0.4,0.4-1,0.5-1.7,0.5
			c-0.5,0-0.9-0.1-1.3-0.3c-0.4-0.2-0.6-0.4-0.8-0.7c-0.2-0.3-0.3-0.8-0.3-1.6v-4.9h-1.4v4.9c0,0.7,0,1.2,0.1,1.5
			c0.1,0.3,0.2,0.6,0.4,0.8c0.1,0.2,0.3,0.4,0.5,0.6c0.7,0.6,1.6,0.9,2.7,0.9c1.1,0,2-0.3,2.7-0.9c0.2-0.2,0.4-0.4,0.5-0.6
			c0.1-0.2,0.3-0.5,0.4-0.9c0.1-0.3,0.1-0.8,0.1-1.5v-4.9H311.5z"/>
		<polygon fill="#231F20" points="316.5,65.7 320.2,61.5 318.4,61.5 315,65.2 315,61.5 313.6,61.5 313.6,70.2 315,70.2 315,66.2 
			319.2,70.2 321.2,70.2 		"/>
		<path fill="#231F20" d="M323.2,63.1c-0.2-0.6-0.4-1-0.7-1.4c-0.2-0.4-0.6-0.8-1-1.3l-0.2-0.3h-0.9l0.1,0.2c0.4,0.6,0.8,1.2,1,1.7
			c0.2,0.6,0.4,1.2,0.6,1.9c0.1,0.7,0.2,1.3,0.2,2c0,0.6-0.1,1.2-0.2,1.9c-0.1,0.7-0.3,1.3-0.5,1.8c-0.2,0.5-0.6,1.2-1.1,2l-0.1,0.2
			h0.9l0,0c0.6-0.8,1.1-1.4,1.3-1.8c0.2-0.4,0.4-0.9,0.6-1.3c0.3-0.9,0.5-1.8,0.5-2.7C323.8,64.9,323.6,64,323.2,63.1"/>
		<path fill="#231F20" d="M327.5,74.4V61.6h2.9c1.5,0,2.7,0.4,3.5,1.1c0.8,0.8,1.3,1.8,1.3,3.1c0,1.3-0.4,2.3-1.2,3.1
			c-0.8,0.8-1.8,1.2-3,1.2c-0.5,0-1.1-0.1-1.8-0.4v4.5H327.5z M330.4,63.2h-1.2v5.2c0.5,0.3,1.1,0.4,1.6,0.4c0.8,0,1.4-0.3,1.9-0.8
			c0.5-0.5,0.7-1.2,0.7-2.1c0-0.6-0.1-1-0.4-1.5c-0.2-0.4-0.6-0.7-1-0.9C331.7,63.3,331.1,63.2,330.4,63.2"/>
		<rect x="336.6" y="57.2" fill="#231F20" width="1.7" height="12.9"/>
	</g>
	<g>
		<path fill="#231F20" d="M346.5,68.1v1.7c-0.8,0.3-1.7,0.5-2.5,0.5c-1.3,0-2.4-0.4-3.2-1.2c-0.8-0.8-1.2-1.8-1.2-3.2
			c0-1.3,0.4-2.4,1.2-3.2c0.8-0.8,1.8-1.2,3-1.2c0.4,0,0.8,0,1.2,0.1c0.3,0.1,0.8,0.2,1.3,0.5v1.8c-0.8-0.5-1.6-0.8-2.4-0.8
			c-0.8,0-1.4,0.3-1.9,0.8c-0.5,0.5-0.7,1.2-0.7,2c0,0.9,0.3,1.6,0.8,2.1c0.5,0.5,1.2,0.8,2.1,0.8C345,68.7,345.7,68.5,346.5,68.1"
			/>
		<path fill="#231F20" d="M51.4,61.5v10h-1.4c-0.6-2.6-1.7-4.6-3.4-6.1c-1.7-1.5-3.7-2.3-6-2.3c-2.8,0-5.1,1.1-6.9,3.3
			c-1.8,2.2-2.6,5-2.6,8.5c0,3.8,1,7.2,3.1,10c2.1,2.8,4.6,4.2,7.5,4.2c1.9,0,3.8-0.5,5.7-1.6c1.9-1,3.5-2.5,4.8-4.3v2.1
			c-3.1,4.2-7.2,6.2-12.5,6.2c-4.2,0-7.6-1.3-10.2-4c-2.6-2.6-4-6.1-4-10.3c0-4.3,1.4-8,4.3-11.1c2.8-3,6.3-4.6,10.3-4.6
			c1.8,0,3.8,0.4,6,1.1c1,0.3,1.6,0.5,2,0.5c0.8,0,1.4-0.5,1.9-1.6H51.4z"/>
	</g>
	<g>
		<path fill="#231F20" d="M76.2,84.7v-14c0-1.9-0.5-3.4-1.6-4.5c-1-1.1-2.4-1.7-4.1-1.7c-1.6,0-3,0.4-4.3,1.2
			c-1.3,0.8-2.6,2.2-4,4.1v15.5c0,1.5,0.3,2.5,1,3c0.7,0.5,1.9,0.8,3.7,0.8v1.3H51.9v-1.3c2.2-0.1,3.5-0.4,4.1-1.1
			c0.6-0.7,0.9-2.1,0.9-4.4V47c0-1.7-0.3-2.9-0.9-3.4c-0.6-0.6-2-0.8-4.1-0.8v-1.3l9.1-1h1.3v26.7c1.8-2.1,3.5-3.5,4.9-4.4
			c1.5-0.8,3.1-1.3,5-1.3c2.8,0,5,0.9,6.8,2.7c1.8,1.8,2.6,4.1,2.6,7.1v12.5c0,2.2,0.3,3.7,0.9,4.4c0.6,0.7,1.8,1.1,3.7,1.1v1.3
			H71.5v-1.3c1.9,0,3.2-0.3,3.8-0.9C75.9,87.7,76.2,86.5,76.2,84.7"/>
		<path fill="#231F20" d="M95.4,91.4c-2.2,0-4.1-0.7-5.7-2.2c-1.6-1.5-2.4-3.2-2.4-5.3c0-2,0.7-3.6,2-4.9c1.4-1.3,4.1-2.5,8.3-3.7
			c2.6-0.7,4.4-1.3,5.3-1.9v-2.1c0-2.1-0.6-3.7-1.7-5c-1.1-1.3-2.7-1.9-4.6-1.9c-1.7,0-3.3,0.5-4.6,1.6c-1.3,1.1-2.3,2.6-2.8,4.4
			l-1.4-0.4c0.6-2.6,1.8-4.7,3.7-6.3s4.1-2.4,6.7-2.4c3,0,5.5,0.9,7.4,2.7c1.9,1.8,2.8,4.4,2.8,7.6V84c0,1.7,0.1,2.9,0.3,3.5
			c0.2,0.6,0.6,0.9,1.3,0.9c0.4,0,0.8-0.2,1.1-0.5c0.3-0.4,0.6-1.1,0.9-2.2h1.3c-0.1,1.8-0.7,3.2-1.7,4.2c-1,1-2.2,1.6-3.8,1.6
			c-2.3,0-3.9-1.3-4.8-4c-1.4,1.5-2.6,2.6-3.7,3.2C98.1,91.2,96.8,91.4,95.4,91.4 M103,84.8v-9.6c-0.8,0.3-2,0.8-3.5,1.3
			c-2.8,1-4.6,1.9-5.4,2.9c-0.8,0.9-1.2,2.2-1.2,3.8c0,1.4,0.4,2.6,1.3,3.6c0.8,1,1.8,1.5,3,1.5c1.1,0,2.2-0.4,3.3-1
			C101.6,86.7,102.5,85.8,103,84.8"/>
		<path fill="#231F20" d="M123.9,61.5v5.9h0.2c1.2-1.8,2.7-3.2,4.5-4.3c1.8-1.1,3.7-1.6,5.5-1.6c2.1,0,3.9,0.6,5.5,1.7
			c1.6,1.1,2.7,2.7,3.4,4.6c3-4.2,6.5-6.3,10.4-6.3c2.8,0,5,0.8,6.8,2.5s2.7,4,2.7,7v14.2c0,1.5,0.3,2.6,1,3.1
			c0.7,0.5,1.9,0.8,3.7,0.8v1.4h-14.9v-1.4c2.1,0,3.4-0.3,3.9-1c0.6-0.7,0.9-2.1,0.9-4.4V70.4c0-1.8-0.5-3.2-1.6-4.3
			c-1.1-1-2.6-1.6-4.5-1.6c-3,0-5.6,1.8-8,5.4v15.1c0,1.6,0.3,2.6,1,3.2c0.7,0.6,1.9,0.8,3.7,0.8v1.4h-14.8v-1.4c2.1,0,3.4-0.3,4-1
			c0.5-0.7,0.8-2.1,0.8-4.4V70.7c0-1.9-0.6-3.4-1.7-4.5c-1.1-1.1-2.6-1.7-4.3-1.7c-1.5,0-3,0.5-4.5,1.5c-1.5,1-2.7,2.3-3.6,4v15.3
			c0,1.4,0.3,2.5,1.1,3c0.7,0.6,1.9,0.8,3.7,0.8v1.3h-15v-1.4c2.1,0,3.4-0.3,4-1c0.6-0.6,0.8-1.8,0.8-3.6V67.8
			c0-1.5-0.3-2.5-0.9-3.2c-0.6-0.7-1.6-1-3-1h-1.8v-1.3l9.7-0.9H123.9z"/>
		<path fill="#231F20" d="M175.9,61.5v4.8c1.8-1.7,3.4-3,4.9-3.7c1.5-0.7,3.1-1.1,4.9-1.1c3.7,0,6.7,1.4,9.1,4.2
			c2.4,2.8,3.6,6.3,3.6,10.5c0,4.4-1.3,8-4,10.9c-2.7,2.9-6,4.3-10,4.3c-2.8,0-5.6-1.1-8.5-3.3v18.6c0,1.9,0.3,3.2,1,3.8
			c0.7,0.6,1.9,0.9,3.7,0.9v1.3h-15.1v-1.3c1.9,0,3.3-0.3,3.9-0.8c0.7-0.5,1-1.6,1-3.1V68.1c0-1.9-0.3-3.1-0.9-3.6
			c-0.6-0.5-1.9-0.8-4.1-0.8v-1.3l9-0.9H175.9z M175.9,68.4v17.7c2.2,2.3,4.8,3.5,7.8,3.5c2.5,0,4.6-1.2,6.3-3.5
			c1.7-2.4,2.6-5.3,2.6-8.8c0-3.8-0.9-6.9-2.6-9.4c-1.7-2.5-3.9-3.7-6.5-3.7C180.9,64.2,178.4,65.6,175.9,68.4"/>
		<path fill="#231F20" d="M245,76.5c0,4.3-1.5,7.8-4.4,10.6c-2.9,2.8-6.6,4.3-11,4.3s-8.1-1.4-11-4.3c-2.9-2.8-4.4-6.4-4.4-10.6
			c0-4.3,1.5-7.9,4.4-10.7c2.9-2.8,6.6-4.3,11.1-4.3c4.4,0,8.1,1.4,11.1,4.3C243.6,68.7,245,72.2,245,76.5 M239.2,76.5
			c0-4-0.9-7.3-2.6-9.7c-1.7-2.5-4-3.7-7-3.7c-3,0-5.3,1.2-7,3.6c-1.7,2.4-2.6,5.7-2.6,9.8c0,4.1,0.8,7.3,2.5,9.7
			c1.7,2.4,4,3.6,7,3.6s5.3-1.2,7-3.7C238.3,83.8,239.2,80.5,239.2,76.5"/>
		<path fill="#231F20" d="M254.7,61.5v5.6c3.3-3.8,6.7-5.6,10.2-5.6c2.7,0,5,0.9,6.8,2.8c1.8,1.9,2.7,4.3,2.7,7.3v12.8
			c0,1.9,0.3,3.2,1,3.9c0.6,0.6,1.9,0.9,3.8,0.9v1.3h-15.1v-1.3c1.9,0,3.2-0.2,3.8-0.7c0.7-0.5,1-1.4,1-2.8V70.9
			c0-2-0.6-3.5-1.8-4.7c-1.2-1.2-2.7-1.8-4.5-1.8c-2.6,0-5.3,1.8-8,5.5v13.8c0,2.3,0.3,3.8,0.9,4.5c0.6,0.6,1.9,1,3.8,1v1.3h-14.9
			v-1.3c2.2,0,3.5-0.3,4-1c0.5-0.7,0.7-2.1,0.7-4.4V67.9c0-1.7-0.3-2.8-0.9-3.3c-0.6-0.5-1.9-0.8-3.8-0.8v-1.3l8.8-0.9H254.7z"/>
		<path fill="#231F20" d="M297.9,61.5v8.7h-1.6c-0.3-2.2-1-3.9-2.3-5.2c-1.3-1.3-2.9-1.9-4.7-1.9c-1.4,0-2.5,0.4-3.4,1.1
			c-0.9,0.7-1.3,1.6-1.3,2.8c0,1.1,0.4,2.1,1.2,3c0.8,0.9,2.5,1.9,5.2,3.1c3.4,1.6,5.7,3,6.8,4.5s1.7,3.1,1.7,5.1
			c0,2.4-0.9,4.4-2.6,6.1c-1.8,1.7-3.9,2.6-6.3,2.6c-1.2,0-2.9-0.5-4.9-1.4c-1.1-0.5-1.9-0.7-2.2-0.7c-0.5,0-0.9,0.2-1.2,0.5
			c-0.3,0.4-0.5,0.8-0.6,1.4h-1.4v-9.6h1.4c0.5,2.5,1.6,4.5,3.3,6c1.7,1.5,3.6,2.2,5.8,2.2c1.4,0,2.6-0.5,3.5-1.4
			c1-0.9,1.4-2.1,1.4-3.5c0-1.3-0.4-2.5-1.3-3.5c-0.9-1-2.8-2.1-5.7-3.4c-3.3-1.4-5.4-2.8-6.5-4c-1-1.2-1.6-2.7-1.6-4.5
			c0-2.2,0.8-4.1,2.5-5.7c1.7-1.6,3.7-2.4,6.1-2.4c1.1,0,2.3,0.3,3.5,0.8c0.9,0.4,1.6,0.5,2.2,0.5c0.8,0,1.3-0.4,1.7-1.3H297.9z"/>
		<path fill="#EB008B" d="M194,41.9c0.1-2.7,1.3-5,1.3-5c-1.3,8.5,6.5,8.4,11.7,10.2c4,1.4,6.6,2.9,7.8,6.8c0,0,0,0,0,0l0,0
			c0.5,1.8,0.6,3.8-0.2,5.9c0-4.7-4.6-6.8-9.2-8.2c-0.2-0.1-0.4-0.1-0.5-0.2c-2.6-0.8-5.1-1.4-6.7-2.2c-0.5-0.3-1-0.6-1.4-0.9
			c-0.4-0.3-0.8-0.7-1.1-1.1C194.2,45.7,193.8,43.7,194,41.9"/>
		<path fill="#EB008B" d="M195.2,49.6c0.3,0.4,0.6,0.7,1,1c0.4,0.3,0.9,0.6,1.4,0.9c1.6,0.8,4,1.4,6.5,2.1c0.2,0.1,0.4,0.1,0.5,0.2
			c4.1,1.3,8.2,3.1,8.8,7c0.1,1.1-0.1,2.2-0.5,3.4c0-4.1-4-5.8-7.9-7.1c-0.2-0.1-0.3-0.1-0.5-0.1c-2.2-0.7-4.4-1.2-5.8-1.9
			c-0.5-0.2-0.9-0.5-1.2-0.8c-0.4-0.3-0.7-0.6-1-0.9C195.6,52.1,195.2,50.9,195.2,49.6"/>
		<path fill="#EB008B" d="M211.8,64.5c-0.3-1.8-1.5-3-3.2-3.9c-1.1-0.6-2.3-1-3.5-1.4c-0.1,0-0.3-0.1-0.4-0.1
			c-0.2-0.1-0.3-0.1-0.5-0.2c-0.3-0.1-0.7-0.2-1-0.3c-1.3-0.4-2.6-0.7-3.4-1.2c-0.4-0.2-0.7-0.4-1.1-0.7c-0.3-0.2-0.6-0.5-0.8-0.8
			c0.1,0.9,0.4,2.1,1.1,2.9c0.1,0.1,0.2,0.2,0.3,0.4c0.1,0.1,0.2,0.2,0.4,0.3c0.3,0.2,0.6,0.4,0.9,0.6c0.6,0.3,1.5,0.6,2.5,0.9
			c0.6,0.2,1.2,0.4,1.9,0.5c0.1,0,0.2,0.1,0.4,0.1c0.2,0.1,0.3,0.1,0.5,0.2c0.1,0,0.1,0,0.2,0.1c0.1,0,0.2,0.1,0.3,0.1
			c0.1,0,0.1,0.1,0.2,0.1c0.1,0,0.2,0.1,0.3,0.1c0.1,0,0.2,0.1,0.2,0.1c0.1,0,0.2,0.1,0.2,0.1c0.1,0,0.2,0.1,0.3,0.1
			c0.1,0,0.1,0.1,0.2,0.1c0.3,0.1,0.5,0.3,0.7,0.4c0.3,0.2,0.5,0.3,0.8,0.5c0,0,0,0,0,0c0.1,0.1,0.2,0.2,0.3,0.3c0,0,0,0,0,0
			c0.1,0.1,0.2,0.2,0.3,0.3h0c0.5,0.5,0.9,1,1.1,1.7c0.1,0.3,0.2,0.7,0.2,1.1C211.7,66.2,211.9,65.3,211.8,64.5"/>
		<path fill="#EB008B" d="M209.8,88.4c-0.7-0.5-1-1.6-1-3.1V67.5v-1.9c-0.2-0.2-0.4-0.3-0.7-0.4c-0.8-0.4-1.7-0.7-2.5-1
			c-0.1,0-0.2-0.1-0.3-0.1c-0.1,0-0.2-0.1-0.4-0.1c-0.2-0.1-0.5-0.1-0.7-0.2c-0.3-0.1-0.5-0.2-0.8-0.2c-0.7-0.2-1.2-0.4-1.7-0.6
			c-0.3-0.2-0.5-0.3-0.8-0.5c-0.2-0.2-0.4-0.4-0.6-0.5c0,0.7,0.3,1.5,0.8,2.1c0.1,0.1,0.2,0.2,0.2,0.3c0.1,0.1,0.2,0.2,0.3,0.2
			c0.2,0.2,0.4,0.3,0.7,0.4c0.3,0.1,0.6,0.3,1,0.4v20c0,1.6-0.3,2.6-1,3.1c-0.6,0.5-2.1,0.8-4.4,0.8v1.3h15.4v-1.3
			C211.7,89.2,210.5,89,209.8,88.4"/>
	</g>
</g>
</svg>
