<?xml version="1.0" encoding="utf-8"?>
<!-- Generator: Adobe Illustrator 13.0.0, SVG Export Plug-In . SVG Version: 6.00 Build 14948)  -->
<!DOCTYPE svg PUBLIC "-//W3C//DTD SVG 1.1//EN" "http://www.w3.org/Graphics/SVG/1.1/DTD/svg11.dtd">
<svg version="1.1" id="sponosr-logo_cartwright-king"
	 xmlns="http://www.w3.org/2000/svg" xmlns:xlink="http://www.w3.org/1999/xlink" x="0px" y="0px" width="390px" height="150px"
	 viewBox="0 0 390 150" enable-background="new 0 0 390 150" xml:space="preserve">
<g>
	<path fill="#1D1D1B" d="M185.8,77.1h4.2V48.5h-4.2V77.1z M185.6,40.4h4.7v-4.7h-4.7V40.4z M207.6,73.3c-6.2,0-7.1-5.3-7.1-10.7
		c0-5.3,0.9-10.7,7.1-10.7c6.2,0,7.1,5.3,7.1,10.7C214.7,67.9,213.8,73.3,207.6,73.3 M214.8,51.9c-2.3-3-4.9-3.7-8-3.7
		c-2.9,0-5.4,1-6.9,2.5c-2.8,2.8-3.5,7.3-3.5,11.9c0,4.6,0.6,9.1,3.5,11.9c1.5,1.5,4,2.6,6.9,2.6c3.1,0,5.7-0.8,8-3.7v4.5
		c0,4.9-2.3,8.8-7.8,8.8c-3.3,0-4.7-1-6.8-2.8l-2.7,2.7c3,2.7,5.4,3.8,9.7,3.8c7.5,0,11.9-5.2,11.9-12.2V48.5h-4.1V51.9z M267,51.9
		v-3.2H261v-8.9h-4.2v8.9h-3.6v3.2h3.6v17.5c0,4.2,2.4,7.7,7.3,7.7h3v-3.6h-2.2c-2.7,0-3.9-1.6-3.9-4.2V51.9H267z M166.9,52v-3.5
		h-4.2v28.6h4.2V59.6c0-4.4,2.7-7.7,6.8-7.7c2.2,0,3.4,0.5,4.9,2.1l3.1-3.1c-2-2-4.1-2.7-6.8-2.7C171.5,48.2,168.4,49.6,166.9,52
		 M82.9,52v-3.5h-4.2v28.6h4.2V59.6c0-4.4,2.7-7.7,6.8-7.7c2.2,0,3.4,0.5,4.9,2.1l3.1-3.1c-2-2-4.1-2.7-6.8-2.7
		C87.5,48.2,84.4,49.6,82.9,52 M29.4,39.4c5.2,0,8.7,3.3,9.8,8.4h4.5c-1.4-7.8-6.9-12.3-14.3-12.3c-4.1,0-7.8,1.5-10.5,4.3
		c-3.9,3.9-3.9,8-3.9,16.7c0,8.8,0,12.8,3.9,16.7c2.8,2.8,6.5,4.3,10.5,4.3c7.4,0,13-4.5,14.3-12.3h-4.4c-1.1,5.1-4.7,8.4-9.9,8.4
		c-2.7,0-5.3-1-7.1-2.9c-2.6-2.7-2.9-5.5-2.9-14.2c0-8.6,0.3-11.5,2.9-14.2C24.1,40.4,26.7,39.4,29.4,39.4 M147.2,71.5l-7.5-22.9
		h-3.6l-7.5,22.9l-6.5-22.9h-4.5l9,28.6h3.9l7.4-22.2l7.5,22.2h3.9l9-28.6h-4.5L147.2,71.5z M67.1,67c0,2.4-0.5,4-1.4,4.9
		c-1.8,1.7-3.9,1.9-6.4,1.9c-4.5,0-6.5-1.6-6.5-4.9c0-3.3,2.1-5,6.4-5h8V67z M59.8,48.2c-4.6,0-7.5,0.9-10.1,4.2l2.8,2.6
		c1.7-2.4,3.5-3.2,7.2-3.2c5.2,0,7.3,2.1,7.3,6.3v2.7h-8.6c-6.4,0-9.8,3.3-9.8,8.2c0,2.3,0.8,4.4,2.1,5.8c1.8,1.9,4.1,2.6,8,2.6
		c3.8,0,5.9-0.8,8.2-3.1v2.7h4.2V57.7C71.2,51.5,67.5,48.2,59.8,48.2 M238.7,48.2c-3.2,0-5.9,1.1-8,3.5V35.8h-4.2v41.3h4.2V59.4
		c0-4.9,2.8-7.5,7.1-7.5c4.3,0,6.9,2.6,6.9,7.5v17.7h4.2V58.7C248.9,52.3,245.1,48.2,238.7,48.2 M108.2,39.8H104v8.9h-3.6v3.2h3.6
		v17.5c0,4.2,2.4,7.7,7.3,7.7h3v-3.6h-2.2c-2.7,0-3.9-1.6-3.9-4.2V51.9h6.1v-3.2h-6.1V39.8z"/>
	<path fill="#B5144F" d="M363.8,73.3c-6.2,0-7.1-5.3-7.1-10.7c0-5.3,0.9-10.7,7.1-10.7c6.2,0,7.1,5.3,7.1,10.7
		C370.8,67.9,370,73.3,363.8,73.3 M370.9,48.5v3.4c-2.3-3-4.9-3.7-8-3.7c-2.9,0-5.4,1-6.9,2.5c-2.8,2.8-3.5,7.3-3.5,11.9
		c0,4.6,0.6,9.1,3.5,11.9c1.5,1.5,4,2.6,6.9,2.6c3.1,0,5.7-0.8,8-3.7v4.5c0,4.9-2.3,8.8-7.8,8.8c-3.3,0-4.7-1-6.8-2.8l-2.7,2.7
		c3,2.7,5.4,3.8,9.7,3.8c7.5,0,11.9-5.2,11.9-12.2V48.5H370.9z M311.9,40.4h4.7v-4.7h-4.7V40.4z M336,48.2c-3.2,0-6,1.2-8,3.5v-3.1
		h-4.2v28.6h4.2V59.5c0-5,2.8-7.6,7.1-7.6c4.3,0,7,2.6,7,7.6v17.6h4.2V58.8c0-3.3-0.9-6-3-8C341.6,49.1,339.1,48.2,336,48.2
		 M305.4,35.8h-5.4l-19.2,23.7V35.8h-4.4v41.3h4.4V65.5l8.7-10.5l12.6,22h5.2l-14.8-25.4L305.4,35.8z M312.1,77.1h4.2V48.5h-4.2
		V77.1z"/>
	<path fill="#1D1D1B" d="M217,101.9h4v12.6h1.5v-12.6h4v-1.3H217V101.9z M202.3,114.5h1.5v-13.9h-1.5V114.5z M293.2,107.9
		c-0.6-0.5-1.2-0.8-2.5-1l-1.5-0.2c-0.7-0.1-1.4-0.4-1.9-0.8c-0.4-0.4-0.6-0.9-0.6-1.6c0-1.5,1.1-2.6,2.9-2.6c1.5,0,2.4,0.4,3.2,1.2
		l1-1c-1.2-1.1-2.4-1.5-4.1-1.5c-2.7,0-4.4,1.6-4.4,3.9c0,1.1,0.4,2,1.1,2.6c0.6,0.5,1.5,0.9,2.5,1.1l1.6,0.3c1,0.2,1.4,0.3,1.8,0.7
		c0.4,0.4,0.7,1,0.7,1.7c0,1.6-1.2,2.6-3.3,2.6c-1.6,0-2.6-0.4-3.8-1.5l-1,1c1.3,1.3,2.7,1.8,4.8,1.8c2.9,0,4.8-1.5,4.8-3.9
		C294.4,109.5,294,108.6,293.2,107.9 M183.9,101.8c1.7,0,2.9,1.1,3.3,2.8h1.5c-0.5-2.6-2.3-4.1-4.8-4.1c-1.4,0-2.6,0.5-3.5,1.4
		c-1.3,1.3-1.3,2.7-1.3,5.6c0,2.9,0,4.3,1.3,5.6c0.9,0.9,2.2,1.4,3.5,1.4c2.5,0,4.4-1.5,4.8-4.1h-1.5c-0.4,1.7-1.6,2.8-3.3,2.8
		c-0.9,0-1.8-0.3-2.4-1c-0.9-0.9-1-1.9-1-4.8c0-2.9,0.1-3.9,1-4.8C182.1,102.1,183,101.8,183.9,101.8 M264,107v-5.1h3.7
		c1.6,0,2.8,0.9,2.8,2.6c0,1.7-1.1,2.5-2.8,2.5H264z M272,104.5c0-2.4-1.7-3.9-4.1-3.9h-5.3v13.9h1.5v-6.2h3.3l3.2,6.2h1.7l-3.3-6.3
		C270.8,107.8,272,106.5,272,104.5 M246.3,112.3c-0.6,0.6-1.5,1-2.4,1c-0.9,0-1.8-0.4-2.4-1c-0.9-0.9-1-1.8-1-4.7
		c0-2.9,0.1-3.8,1-4.7c0.6-0.6,1.5-1,2.4-1c0.9,0,1.8,0.4,2.4,1c0.9,0.9,1,1.8,1,4.7C247.2,110.4,247.1,111.4,246.3,112.3
		 M243.9,100.5c-1.4,0-2.6,0.5-3.5,1.4c-1.3,1.3-1.3,2.7-1.3,5.6c0,2.9,0,4.3,1.3,5.6c0.9,0.9,2.2,1.4,3.5,1.4
		c1.4,0,2.6-0.5,3.5-1.4c1.3-1.3,1.3-2.7,1.3-5.6c0-2.9,0-4.3-1.3-5.6C246.5,101,245.2,100.5,243.9,100.5 M101.5,106.9l-1.5-0.2
		c-0.7-0.1-1.4-0.4-1.9-0.8c-0.4-0.4-0.6-0.9-0.6-1.6c0-1.5,1.1-2.6,2.9-2.6c1.5,0,2.4,0.4,3.2,1.2l1-1c-1.2-1.1-2.4-1.5-4.1-1.5
		c-2.7,0-4.4,1.6-4.4,3.9c0,1.1,0.3,2,1.1,2.6c0.6,0.5,1.5,0.9,2.5,1.1l1.6,0.3c1,0.2,1.4,0.3,1.8,0.7c0.4,0.4,0.7,1,0.7,1.7
		c0,1.6-1.2,2.6-3.3,2.6c-1.6,0-2.6-0.4-3.8-1.5l-1,1c1.3,1.3,2.7,1.8,4.7,1.8c2.9,0,4.8-1.5,4.8-3.9c0-1.2-0.4-2.1-1.2-2.8
		C103.4,107.4,102.8,107.1,101.5,106.9 M163.7,114.5h1.5v-13.9h-1.5V114.5z M125.6,112.3c-0.6,0.6-1.5,1-2.4,1c-0.9,0-1.8-0.4-2.4-1
		c-0.9-0.9-1-1.8-1-4.7c0-2.9,0.1-3.8,1-4.7c0.6-0.6,1.5-1,2.4-1c0.9,0,1.8,0.4,2.4,1c0.9,0.9,1,1.8,1,4.7
		C126.6,110.4,126.5,111.4,125.6,112.3 M123.2,100.5c-1.4,0-2.6,0.5-3.5,1.4c-1.3,1.3-1.3,2.7-1.3,5.6c0,2.9,0,4.3,1.3,5.6
		c0.9,0.9,2.2,1.4,3.5,1.4c1.4,0,2.6-0.5,3.5-1.4c1.3-1.3,1.3-2.7,1.3-5.6c0-2.9,0-4.3-1.3-5.6C125.8,101,124.6,100.5,123.2,100.5
		 M143.4,100.6h-1.5v13.9h8.6v-1.3h-7.1V100.6z"/>
	<rect x="15" y="102.9" fill="#B5144F" width="65.6" height="9.2"/>
	<rect x="309.4" y="102.9" fill="#B5144F" width="65.6" height="9.2"/>
</g>
</svg>
