<?xml version="1.0" encoding="utf-8"?>
<!-- Generator: Adobe Illustrator 13.0.0, SVG Export Plug-In . SVG Version: 6.00 Build 14948)  -->
<!DOCTYPE svg PUBLIC "-//W3C//DTD SVG 1.1//EN" "http://www.w3.org/Graphics/SVG/1.1/DTD/svg11.dtd">
<svg version="1.1" id="sponsor-logo_university-birmingham-sport"
	 xmlns="http://www.w3.org/2000/svg" xmlns:xlink="http://www.w3.org/1999/xlink" x="0px" y="0px" width="390px" height="150px"
	 viewBox="0 0 390 150" enable-background="new 0 0 390 150" xml:space="preserve">
<path fill="#231F20" d="M179.3,107.3c-3.4,2.9-8,2.9-9.3,2.9c-1.7,0-7.1-0.1-11-4.2c-0.5-0.5-1-1.2-1.4-1.8l4.4-3.1
	c1.2,1.8,3.6,4.2,8.8,4.2c0.2,0,1.2,0,2.1-0.2c0.6-0.1,3.4-0.9,3.4-3.5c0-0.3,0-1-0.5-1.7c-1-1.3-3.5-1.6-4.9-2l-3.4-0.8
	c-1.4-0.3-3-0.6-4.3-1.3c-1.3-0.7-4-2.5-4-6.6c0-0.6,0.1-2.5,1.1-4.2c1.3-2.2,4.4-4.6,10.1-4.6c2.5,0,7.5,0.4,11.4,5.7l-4.4,3.2
	c-0.9-1.4-2.9-4.2-7.3-4.2c-0.3,0-3.8,0-5,2.2c-0.2,0.4-0.3,0.8-0.3,1.3c0,0.5,0.1,0.9,0.4,1.3c0.7,1.2,2.2,1.5,4.9,2.1l2.9,0.6
	c2.7,0.6,5.7,1.4,7.5,3.6c0.8,0.9,1.6,2.2,1.6,4.8C182.1,103.7,181.3,105.7,179.3,107.3"/>
<path fill="#231F20" d="M202.1,98.3c-2.4,1.6-5.1,1.6-7.9,1.6h-4.1v9.6h-5.3V81.2h9.5c0.7,0,1.4,0,2,0c1.2,0.1,4.8,0.3,7.3,3.3
	c2,2.4,2.1,5,2.1,6.1C205.8,95.1,203.5,97.4,202.1,98.3 M199.7,87.9c-1.2-2.1-3.6-2.1-5.6-2.1h-4v9.8h3.8c0.4,0,0.8,0,1.1,0
	c2.7-0.1,3.9-1,4.6-2.1c0.3-0.5,0.8-1.5,0.8-3C200.4,89.6,200.2,88.7,199.7,87.9z"/>
<path fill="#231F20" d="M230.7,106.2c-0.6,0.7-2.3,2.3-4.8,3.2c-0.9,0.3-2.5,0.8-4.9,0.8c-4,0-7.1-1.3-9.7-4.4
	c-2.6-3-3.8-6.5-3.8-10.5c0-0.9,0-3.1,0.8-5.5c1.8-5.7,6.7-9.4,12.7-9.4c5.5,0,8.7,3,10,4.5c1.5,1.7,3.6,5,3.5,10.4
	C234.6,97.2,234.4,102.2,230.7,106.2 M227.6,89.1c-1.5-2.4-3.7-3.7-6.6-3.7c-1.8,0-3,0.6-3.6,0.8c-2,1.1-4.5,3.7-4.5,9
	c0,1.1,0,6.3,4,8.9c1.7,1.1,3.4,1.2,4.2,1.2c0.6,0,1.8,0,3.2-0.7c2.1-1,4.8-3.4,4.9-8.7C229.3,93.6,228.9,91.1,227.6,89.1z"/>
<path fill="#231F20" d="M252.8,109.5L247.3,99h-4.8v10.5h-5.2V81.2h11.6c1.3,0,5.1,0.1,7.6,3.4c1.6,2.2,1.7,4.6,1.7,5.5
	c0,0.4,0,1.8-0.5,3.2c-0.4,1.2-1.8,3.6-5,4.6l6.3,11.5H252.8 M251,86.7c-0.9-0.6-2-0.8-4.2-0.8h-4.3v8.8h1.9c3.1,0,5,0,6.3-0.7
	c0.8-0.4,2.1-1.5,2.1-3.8C252.8,89.5,252.7,87.8,251,86.7z"/>
<polyline fill="#231F20" points="272.5,86 272.5,109.5 267.2,109.5 267.2,86 259.5,86 259.5,81.2 280.3,81.2 280.3,86 272.5,86 "/>
<path fill="#231F20" d="M195.4,61.7v-7.6h1.4c2.9,0,4.4,1,4.4,4c0,2.6-1.5,3.6-4.6,3.6H195.4 M205,67.9c-1.6-2.9-2.4-5.6-5.8-5.7
	c3.6-0.5,5.3-2.2,5.3-4.5c0-3.6-3.3-4.4-6.1-4.4h-8.5v0.4h0.3c2.4,0,2.4,1.7,2.4,6.2v5.3c0,4.6-0.1,6.3-2.4,6.3h-0.3v0.4h8.2v-0.4
	h-0.2c-2.4,0-2.5-1.7-2.5-6.5v-2.3c0.3,0,1.2,0,1.2,0c2.1,0,2.6,0.5,3.8,2.6c0.7,1.3,1.5,3.8,3.4,6.5l4.6,0l0-0.4
	C207.2,71.3,206.3,70.1,205,67.9"/>
<path fill="#231F20" d="M253.4,34.8v-7.6h1.4c2.9,0,4.4,1,4.4,4c0,2.6-1.5,3.6-4.6,3.6H253.4 M263,40.9c-1.6-2.9-2.4-5.6-5.8-5.7
	c3.6-0.5,5.3-2.2,5.3-4.5c0-3.5-3.3-4.4-6.1-4.4h-8.5v0.4h0.2c2.4,0,2.4,1.7,2.4,6.2v5.3c0,4.5-0.1,6.2-2.4,6.2h-0.2v0.4h8.3v-0.4
	h-0.2c-2.4,0-2.5-1.8-2.5-6.5v-2.3h1c0.1,0,0.1,0,0.2,0c2.1,0,2.7,0.5,3.9,2.6c0.7,1.3,1.5,3.8,3.3,6.5h5.1v-0.4h-0.1
	C265.2,44.4,264.3,43.2,263,40.9"/>
<path fill="#231F20" d="M280.3,62.8c2.1,0.1,2.9,0.8,2.9,2.7v2.2c0,2.4-1.6,3.6-4,3.6c-3.7,0-6.3-3.1-6.3-8.5c0-5.9,2.6-9.2,6.1-9.2
	c3.1,0,5.6,2,6.1,5.5h0.4v-5.9h-0.4c-0.2,0.4-0.4,0.6-0.8,0.6c-1,0-2.7-1.1-5.2-1.1c-5.4,0-9.6,4.1-9.6,10c0,5.3,3.6,9.4,8.9,9.4
	c2.2,0,3.9-0.6,5.8-1.4c0.6-0.3,1.2-0.6,1.8-0.4c-0.1-0.9-0.1-1.6-0.1-2.1V66c0-2.4,0.2-3,2.7-3.2v-0.4h-8.3V62.8"/>
<path fill="#231F20" d="M274.3,45.2c3.9,0,6.3-2.4,6.3-5.6c0-3.9-2.9-4.8-5.9-6.2c-2.3-1.1-3.8-2-3.8-3.9c0-1.6,1.5-2.7,3.3-2.7
	c2.6,0,4.5,1.7,5,4.8h0.3v-5.4h-0.4c-0.1,0.5-0.3,0.8-0.7,0.8c-0.8,0-1.8-1-4.4-1c-3,0-5.6,2.2-5.6,4.9c0,3.2,2.1,4.2,5.6,5.9
	c2.4,1.1,3.9,2.1,3.9,4.2c0,2.1-1.4,3.4-3.8,3.4c-3.2,0-4.9-2.1-5.6-5.6H268v6h0.4c0.1-0.5,0.3-0.7,0.7-0.7
	C270.1,44,271.3,45.2,274.3,45.2"/>
<path fill="#231F20" d="M239.7,44c-3.7,0-3.9-0.3-3.9-4.7v-3.6c3.2,0.1,4.3,0.6,4.5,3.4h0.4v-7.3h-0.4c-0.1,2.6-1.2,3.1-4.5,3.1
	v-7.7h2.7c3.5,0,5.1,0.6,5.7,3.6h0.4l-0.2-4.5h-14.2v0.4h0.2c2.4,0,2.4,1.7,2.4,6.2v5.3c0,4.5-0.1,6.2-2.4,6.2h-0.2v0.4h15.5
	l0.2-5.6h-0.4C245,42.7,243.3,44,239.7,44"/>
<path fill="#231F20" d="M260.2,53.6c2.3,0.1,2.7,1.5,2.7,4.9v8.1l-10.7-13.4h-5.1v0.4c2.4,0.1,2.7,1.6,2.7,4.7v8.1
	c0,3.4-0.5,4.9-2.7,4.9v0.4h6.5v-0.4c-2.3-0.1-2.8-1.5-2.8-4.9v-9.9l12.3,15.4h0.8V58.6c0-3.4,0.5-4.9,2.8-4.9v-0.4h-6.5V53.6"/>
<path fill="#231F20" d="M236,53.6h0.2c2.4,0,2.4,1.7,2.4,6.2v5.3c0,4.6,0,6.2-2.4,6.2H236v0.4h8.3v-0.4H244c-2.4,0-2.4-1.7-2.4-6.5
	v-4.7c0-4.8,0-6.5,2.4-6.5h0.3v-0.4H236V53.6"/>
<path fill="#231F20" d="M302.3,53.6h0.2c2.4,0,2.4,1.7,2.4,6.2v1.8h-9.3v-1.5c0-4.7,0.1-6.5,2.5-6.5h0.2v-0.4h-8.2v0.4h0.2
	c2.4,0,2.4,1.7,2.4,6.2v5.3c0,4.6-0.1,6.2-2.4,6.2h-0.2v0.4h8.2v-0.4h-0.2c-2.4,0-2.5-1.7-2.5-6.5v-2.4h9.3v2.6
	c0,4.6-0.1,6.2-2.4,6.2h-0.2v0.4h8.2v-0.4h-0.2c-2.4,0-2.4-1.7-2.4-6.2v-5.3c0-4.5,0.1-6.2,2.4-6.2h0.2v-0.4h-8.2V53.6"/>
<path fill="#231F20" d="M354.5,53.6h0.3v-0.4l-5.4,0l-6,14l-5.6-14h-5.9v0.4c1.4,0.1,2.1,0.2,2.3,0.9c0.3,0.6,0.4,2.6,0.4,5.9v6
	c0,3.4-0.4,4.9-2.8,4.9v0.4l6.8,0v-0.4c-2.7-0.1-3.1-1.5-3.1-4.9V55.8l6.4,16h0.5l6.8-15.8v8.9c0,4.7,0,6.4-2.7,6.4v0.4h8.3v-0.4
	h-0.3c-2.4,0-2.4-1.7-2.4-6.5v-4.7C352,55.4,352,53.6,354.5,53.6"/>
<path fill="#231F20" d="M336.7,29.3c0.4,0,0.5,0,0.9,0.1v-0.5c-0.3-0.1-0.9-0.2-1.1-0.2c-3.5,0-5.6,2.4-5.6,5.3
	c0,3.6,2.4,5.7,6.1,5.7c3.7,0,6.5-3,6.5-6.8c0-4.1-3.1-7.1-8.1-7.1c-7.8,0-12.8,6.1-14.9,9.8l-3.6-6.3c-0.3-0.6-0.4-1.3-0.4-1.5
	c0-0.8,0.6-1.1,1.9-1.2v-0.4H311v0.4c1.4,0.1,1.9,1.3,3,3.1l4.1,7.2v2.5c0,3.6-0.3,5-2.4,5h-0.2v0.4h8.3v-0.4h-0.2
	c-2.1,0-2.4-1.3-2.4-5v-2.9c1.9-3.1,6.9-9.8,14.1-9.8c3.6,0,5.9,1.8,5.9,6.3c0,4.1-1.6,6.2-4,6.2c-2.5,0-3.8-1.9-3.8-5.2
	C333.3,31,335.1,29.3,336.7,29.3"/>
<path fill="#231F20" d="M185.2,44.4c-2.3-0.1-2.7-1.5-2.7-5v-9.9L194.8,45h0.8V31.6c0-3.4,0.5-4.9,2.7-5v-0.4h-6.5v0.4
	c2.3,0.1,2.8,1.5,2.8,5v8l-10.7-13.4h-5.1v0.4c2.4,0.1,2.7,1.6,2.7,4.8v8c0,3.4-0.5,4.9-2.8,5v0.4h6.5V44.4"/>
<path fill="#231F20" d="M292.1,44.4h-0.3c-2.4,0-2.4-1.8-2.4-6.5v-4.8c0-4.7,0-6.5,2.4-6.5h0.3v-0.4h-8.3v0.4h0.2
	c2.4,0,2.4,1.7,2.4,6.2v5.3c0,4.5,0,6.2-2.4,6.2h-0.2v0.4h8.3V44.4"/>
<path fill="#231F20" d="M350.7,39h-0.2c-2.1,0-2.1-1-2.1-4.6v-1.5c2.1,0.1,2.6,0.5,2.7,2.4h0.4v-5.2h-0.4c-0.1,1.7-0.5,2.1-2.7,2.2
	V27h1.4c2.4,0,3.5,0.3,3.9,2.4h0.4l-0.1-3.1h-9.6v0.4h0.1c1.7,0,1.8,1,1.8,4.3v3.9c0,3.2-0.1,4.2-1.8,4.2h-0.1v0.5h6.3V39"/>
<path fill="#231F20" d="M213.2,29.9l5.9,15.3h0.6l5.2-13.4c1.2-3.1,2.1-4.7,4.1-5.1v-0.4h-6.6v0.4c1.6,0.1,2.2,0.6,2.2,1.9
	c0,0.8-0.3,2.1-0.9,3.7l-3.1,8l-4-10c-0.4-1.1-0.5-1.9-0.5-2.1c0-1,0.7-1.4,2.2-1.6v-0.4h-8.1v0.4C211.8,26.7,212.3,27.7,213.2,29.9
	"/>
<path fill="#231F20" d="M298.9,27.2h1.4v11c0,4.5-0.1,6.2-2.4,6.2h-0.3v0.4h8.4v-0.4h-0.2c-2.4,0-2.4-1.7-2.4-6.2v-11h1.4
	c3.3,0,4.1,0.9,4.8,4.5h0.4v-5.4h-16.1v5.4h0.4C294.9,28.1,295.7,27.2,298.9,27.2"/>
<path fill="#231F20" d="M170.9,26.7c2.3,0.1,2.7,1.5,2.7,5v6c0,0.5,0,1.6-0.1,2.2c-0.3,2.4-1.9,4.2-4.7,4.2c-3.5,0-4.6-1.9-5-3.9
	c-0.2-0.8-0.1-1.6-0.1-2.3v-5c0-4.5,0.1-6.2,2.4-6.2h0.3v-0.4h-8.2v0.4h0.2c2.4,0,2.5,1.8,2.5,6.5v4.8c0,2.6,0.4,4,1.5,5.2
	c1.2,1.3,3.5,2.1,5.4,2.1c4.9,0,6.5-2.7,6.8-5.4c0.1-0.8,0.1-1.7,0.1-2.4v-5.8c0-3.4,0.5-4.9,2.8-5v-0.4h-6.5V26.7"/>
<path fill="#231F20" d="M200.5,26.7h0.2c2.4,0,2.4,1.7,2.4,6.2v5.3c0,4.5,0,6.2-2.4,6.2h-0.2v0.4h8.3v-0.4h-0.2
	c-2.4,0-2.4-1.8-2.4-6.5v-4.8c0-4.7,0-6.5,2.4-6.5h0.2v-0.4h-8.3V26.7"/>
<path fill="#231F20" d="M166.5,70.9c-2.5,0-2.7-0.8-2.7-4.3v-4h2.5c3.1,0,5,1.1,5,4.1C171.3,69.6,169.7,70.9,166.5,70.9 M165.1,54.1
	c3,0,4.5,1.1,4.5,3.8c0,2.8-1.6,3.8-4.6,3.9c-0.1,0-1,0-1.3,0v-7.6H165.1z M168.3,61.9c3.2-0.7,4.5-2.4,4.5-4.3c0-2.8-2.4-4.3-6-4.3
	h-8.6v0.4h0.2c2.4,0,2.4,1.7,2.4,6.2v5.3c0,4.6-0.1,6.3-2.4,6.3h-0.2v0.4h8.4c2,0,3.5,0,5.1-0.8c1.6-0.7,2.8-2.3,2.8-4.2
	C174.5,64.1,172.4,61.9,168.3,61.9"/>
<path fill="#231F20" d="M178,53.6h0.2c2.4,0,2.4,1.7,2.4,6.2v5.3c0,4.6,0,6.2-2.4,6.2H178v0.4h8.3v-0.4h-0.2c-2.4,0-2.4-1.7-2.4-6.5
	v-4.7c0-4.7,0-6.5,2.4-6.5h0.2v-0.4H178V53.6"/>
<path fill="#231F20" d="M221.1,67.1l-5.6-13.9h-5.8v0.4c1.4,0.1,2.1,0.2,2.3,0.9c0.3,0.6,0.4,2.6,0.4,5.9v6c0,3.4-0.4,4.9-2.8,4.9
	l0,0.4l6.8,0v-0.4c-2.7-0.1-3.1-1.5-3.1-4.9V55.8l6.4,15.9h0.5l6.8-15.6v8.9c0,4.7,0,6.4-2.7,6.4v0.4h8.3v-0.4h-0.2
	c-2.4,0-2.4-1.7-2.4-6.5v-4.7c0-4.8,0-6.5,2.4-6.5h0.2v-0.4l-5.3,0L221.1,67.1"/>
<path fill="#231F20" d="M317.4,64.1l2.7-6.7l2.6,6.7H317.4 M327.1,66.7l-5.6-13.9h-0.6l-5.1,12.6c-1.3,3.1-2.4,5.9-4.3,6l0,0.4h6.3
	l0-0.4c-1.3-0.1-2.3-0.8-2.3-1.9c0-0.8,0.5-2,1.2-3.7L317,65h6.1l1,2.5c0.4,1.1,0.6,1.8,0.6,2.3c0,0.9-0.8,1.4-2.3,1.5l0,0.4h8.2
	l0-0.4C328.9,71.3,328,68.9,327.1,66.7"/>
<path fill="#E8CF00" d="M132,35.8c-0.3,0.8-0.3,1.6,0.1,2.4c0.2,0.4,0.4,0.8,0.6,1.1c0.3,0.4,0.5,0.7,0.8,1.1c1.3,1.7,1.4,3.4,1,5.4
	l0.3,0.1c0.1-0.2,0.2-0.4,0.3-0.6c0.4-1.2,0.3-2.3,0.1-3.3c-0.3-1-0.7-2-0.9-3.2c-0.1-1-0.3-2-0.3-2.9c0-0.9,0.2-1.7,0.8-2.6
	c0.2-0.4,0.4-0.6,0.8-1c0.2-0.2,0.5-0.4,0.7-0.5c0.3-0.1,0.6-0.3,0.8-0.4c0.2-0.2,0.5-0.3,0.7-0.4c0.2-0.1,0.5-0.2,0.7-0.4
	c0.7-0.5,1.2-0.9,1.7-1.8c0.4-0.7,0.5-1.1,0.6-1.9c0-0.6,0.1-1.1,0.2-1.6c0.1-0.5,0.2-1,0.4-1.5c0.5-1.5,1.4-2.3,2.9-2.9l0.1,0.1
	l0.1,0c0.1-0.1,0.1,0.1,0.1,0.1l-0.1,0.1c-0.1,0-0.2,0.1-0.2,0.1c-0.2,0.2-0.3,0.4-0.4,0.6c-0.1,0.2-0.1,0.4-0.2,0.7
	c0,0.1-0.1,0.2-0.1,0.4c0,0.1,0,0.2,0,0.3c0,0.6,0,1.1,0,1.6c0.1,0.3,0.3,0.6,0.4,0.9c0.1,0.3,0.2,0.6,0.3,1
	c0.2,1.3,0.2,2.1-0.3,3.3c-0.5,1.1-0.9,1.8-1.8,2.6c-0.3,0.2-0.5,0.4-0.7,0.6c-0.2,0.2-0.4,0.4-0.6,0.7c-0.9,1.2-1.6,2.5-1,4
	c0.1,0.5,0.2,0.9,0.3,1.5c0.1,0.4,0.2,0.8,0.4,1.1l0.4-0.1v-0.9c0-1.8,0.8-3,2.3-4.2c0.3-0.2,0.5-0.3,0.8-0.5
	c-0.1,0.2-0.2,0.4-0.3,0.6c-0.1,0.3-0.1,0.4-0.2,0.7c0,0.1,0,0.3,0,0.6v0.6c0,1,0.2,1.7,0.5,2.5c0.3,0.7,0.6,1.4,1,2.3
	c0.2,0.5,0.3,0.9,0.4,1.3c0.1,0.4,0.1,0.9,0.2,1.4c0.6,2.3,0.3,3.8-0.6,6c-1.7,4.1-4.5,6.5-8.9,7.3c-0.9,0.2-1.5,0.3-2.4,0.2
	c-1.5,0-2.3-0.2-3.8-0.2c-1.5-0.1-2.4-0.1-3.8,0.6c-0.1,0.1-0.2,0.1-0.3,0.2c-0.1,0.1-0.2,0.2-0.3,0.2c-0.2,0.2-0.4,0.5-0.5,0.7
	c-0.1,0.3-0.1,0.5-0.2,0.8c-0.2,0.5-0.2,0.9-0.2,1.4c0,0.3,0,0.5,0,0.8c0,0.3,0.1,0.5,0.1,0.8c0.7,1.9,1.5,2.9,3.2,3.9
	c1,0.6,1.5,1,2.4,1.8c0.4,0.4,0.8,0.7,1.1,1c0.5,0.5,1,0.9,1.1,1.1c0.6,0.9,1.2,1.6,1.7,2.4c0.5,0.8,0.9,1.7,1.2,2.7
	c0.4,1.5,0.8,2.7,1,4c0.2,1.2,0.3,2.5,0.1,4c-0.4,3.8-1.7,6-4.6,8.5c-0.4,0.4-0.8,0.6-1.3,0.9c-0.6,0.4-1.2,0.5-1.8,0.7
	c-0.6,0.2-1.2,0.3-1.9,0.6c-0.3,0.2-0.6,0.3-1,0.4c-1.6,0.2-2.8-0.3-4-1.3l-0.2-0.2l-0.1,0.2c-0.1,0.2-0.2,0.3-0.3,0.4l-0.1,0.2
	c0.1,0.2,0.1,0.4-0.1,0.6l-0.3,0.4c-0.7,0.3-1.3,0.6-2.1,0.6c-0.8-0.2-1.4-0.5-2-0.9c-0.3-0.2-0.5-0.5-0.8-0.8
	c-0.3-0.3-0.5-0.6-0.8-0.9c-0.8-1-1.6-1.8-2.3-2.6l-0.3-0.4V92c0,0.8,0,1.3,0,2.2c0,1.5-0.1,2.5-0.4,3.8l-0.1,0.2l0.2,0
	c0.3,0,0.6-0.1,1-0.1c0.5-0.1,0.7,0.2,0.5,0.6c0,0.2-0.1,0.3-0.2,0.5c-0.1,0.2-0.1,0.3-0.2,0.5c-0.1,0.3,0,0.7,0.3,1
	c0.1,0.1,0.1,0.1,0.1,0.2v0.1l0.3,0.1c0.1,0,0.2,0.1,0.3,0.1c0.5,0.1,1,0.1,1.4,0c0.4-0.1,0.8-0.2,1.4-0.2c0.9-0.1,1.6-0.2,2.3-0.2
	c0.7,0,1.3,0.2,2,0.7c0.6,0.5,0.9,1,0.9,1.9c0,0.5-0.1,0.8-0.1,1.4c0,0.3,0,0.5,0,0.8l0.1,0.2c0.1,0.1,0.1,0.2,0.1,0.3
	c-0.3,0.8-0.2,1.5,0.4,2.1l0.3,0.2c0.1,0.1,0.2,0.2,0.3,0.2c0.2,0.1,0.4,0.2,0.7,0.2c0.7,0,1,0.1,1.7,0.1c0.2,0,0.3,0.1,0.3,0.2
	l0.1,0.2l0.1,0c0.3,0,0.6,0.2,0.6,0.6c-0.1,0.5-0.2,0.9-0.4,1.2c-0.3,0.6-0.9,0.7-1.6,0.7l-0.2,0l0,0.2c-0.2,1.3,0,2,0.4,3.1
	c0.3,0.8,0.7,1.2,1.4,1.7c0.2,0.1,0.3,0.3,0.1,0.5c0,0.2,0,0.2,0,0.3c0,0.3-0.2,0.4-0.5,0.6c-0.3,0.5-0.6,0.7-1,1
	c-0.3,0.5-0.5,0.8-0.9,0.8l-0.2,0.1l0.1,0.2c0.1,0.2,0.2,0.5,0.2,0.8c0,0.1,0,0.1,0.1,0.2l0.1,0.2c0,0.1,0.1,0.2,0.1,0.3
	c0.3,1.6,0,2.6-0.8,4c0,0-0.1,0.1-0.1,0.1c-0.1,0-0.2,0-0.4,0l-0.1,0l0,0.1c-0.1,1-0.3,1.8-1.1,2.4l-0.2,0.1c0,0.4-0.6,0.4-0.6,0.1
	c0-0.5-0.1-0.9-0.2-1.3l-0.1-0.4l-0.4,0.1c0,0.1,0,0.3,0,0.4c0.1,0.3,0.1,0.5,0.1,0.8c0,0.2,0.1,0.5,0.1,0.7c0,0.4-0.1,0.8-0.4,1.3
	c-0.2,0.3-0.3,0.5-0.6,0.7c-0.5,0.4-0.9,0.6-1.6,0.6c-0.2,0-0.5-0.1-0.7-0.2l-0.1-0.1l-0.1,0.1c-0.2,0.2-0.4,0.3-0.7,0.5
	c-0.2,0.1-0.3,0.2-0.5,0.3c-0.2,0.1-0.3,0.2-0.5,0.3c-0.7,0.6-1.1,1.1-1.4,2c-0.1,0.2-0.3,0.3-0.5,0.1c-0.1,0-0.1-0.1-0.1-0.2
	c0-0.2-0.1-0.3-0.2-0.5c-0.1-0.1-0.1-0.3-0.1-0.4c-0.1-0.6-0.2-1-0.3-1.6l-0.1-0.1l-0.2-0.1c-0.1,0-0.1-0.1-0.2-0.2l-0.1-0.2
	l-0.1,0.2c-0.5,0.7-1,1.1-1.9,1.2c-0.2,0-0.3,0-0.4-0.1c-0.1,0-0.3-0.1-0.4-0.2l-0.2-0.1l-0.1,0.2c-0.2,0.3-0.4,0.5-0.7,0.7
	c-0.3,0.2-0.7,0.3-1.1,0.5c-0.4,0.3-0.7,0.5-1,0.9l-0.3,0.4c-0.1,0.2-0.2,0.3-0.2,0.5c-0.1,0.2-0.1,0.3-0.2,0.5
	c0,0.2-0.1,0.4-0.1,0.6c0,0.2-0.1,0.4-0.1,0.7c0,0.1-0.1,0.2-0.2,0.2l-0.1,0c-0.1,0.1-0.2,0-0.3-0.1c-0.1-0.1-0.1-0.2-0.2-0.3
	c0-0.1-0.1-0.2-0.1-0.3c-0.1-0.6-0.2-1-0.3-1.6c-0.1-0.7-0.1-1.4-0.1-2.1c0-0.6,0.1-1.2,0.4-1.8l0.2-0.3l-0.3,0.1
	c-0.1,0-0.2,0-0.3,0.1c-0.6,0.1-1-0.2-1.4-0.6l-0.1-0.1l-0.1,0.1c-0.2,0.1-0.3,0.2-0.6,0.3c-0.3,0.1-0.5,0.1-0.8,0.3
	c-1,0.4-1.6,1-1.8,2c0,0.1,0,0.2-0.1,0.3c0,0.1,0,0.2,0,0.3l-0.1,0.2c0,0.1,0,0.1,0,0.2c-0.1,0.1-0.2,0.1-0.2,0s0-0.1,0-0.2
	c-0.1-0.1-0.1-0.2-0.1-0.2c0-0.1,0-0.1,0-0.2c-0.4-1.8-0.6-3.1,0.2-4.7c0.1-0.1,0.1-0.2,0.2-0.3c0.1-0.1,0.2-0.2,0.2-0.3
	c0.2-0.3,0.5-0.5,0.7-0.7l0.1-0.2c0-0.5,0-0.9,0.3-1.4c0.2-0.5,0.3-0.7,0.5-1.1l0.2-0.3h-0.3c-0.4,0-0.7,0-1.1,0.2
	c-0.4,0.1-0.9,0.2-1.3,0.3c-0.4,0.1-0.8,0.4-0.8,0.9c0,0.1-0.1,0.1-0.2,0.1c-0.1,0-0.2-0.1-0.1-0.2c0.1-0.3,0.1-0.5,0.2-0.7
	c0-0.2,0-0.3,0-0.4c0,0,0-0.1,0-0.1c0.1-0.1,0.1-0.2,0.1-0.2c0.1-0.2,0.1-0.4,0.1-0.5c0-0.2,0.1-0.3,0.1-0.5
	c0.3-0.6,0.5-1.1,0.8-1.6c0.3-0.5,0.5-0.9,1.1-1.3c0.5-0.4,0.9-0.6,1.5-0.7c0.3,0,0.4,0.1,0.5,0.3l0.1,0.4l0.2-0.3
	c0.9-1.6,2.2-2.7,3.8-2.2c0.9,0.3,1.4,0.7,1.9,1.2c0.3,0.3,0.5,0.5,0.8,0.8c0.3,0.3,0.7,0.5,1.1,0.7l0.2,0.1l0.2-0.4
	c0-0.1,0.1-0.2,0.1-0.3l0.1-0.2c0-0.9-0.2-1.5-0.2-2.4c0-3-1.3-4.7-3.1-7.1c-0.6-0.8-0.9-1.4-1.3-2c-0.8-0.8-1.7-1.2-2.9-1.6
	c-1.5-0.5-2.8-0.8-4-1.2c-1.2-0.4-2.3-1-3.5-2c-2.9-2.6-4.4-5.3-3.9-9.1l-0.4-0.1c-0.5,1.3-1.3,2.3-2.8,2.7
	c-0.7,0.1-1.1,0.2-1.8,0.2l-0.3,0l0.5,0.9c0.8,1.4,0.6,2.5,0.2,4.1c-0.2,0.9-0.6,1.4-1.3,2l-0.3,0.3c-0.1,0.1-0.2,0.2-0.3,0.2
	c-0.2,0.1-0.4,0.2-0.7,0.3c-0.2,0.1-0.4,0.1-0.6,0.1l-0.3,0l0.1,0.2c0.3,0.5,0.4,1,0.5,1.7c0.1,0.7,0,1.3-0.2,1.9
	c-0.2,0.6-0.4,1.2-0.7,1.9c-0.1,0.4-0.3,0.6-0.4,0.9c-0.2,0.3-0.3,0.5-0.6,0.9c-0.3,0.5-0.6,0.8-0.9,1.1c-0.4,0.3-0.8,0.6-1.2,1
	c-0.1,0-0.2-0.1-0.1-0.1c0.4-1.4,0.1-2.4-0.7-3.2l-0.3-0.4l0,0.5c0,0.2,0,0.3,0,0.5c0,0.5-0.1,0.7-0.2,1.1c0,0.2-0.1,0.3-0.1,0.5
	l-0.1,0.2l-0.9,1.8c-0.7,1-1.2,1.6-2.2,2.2c-0.4,0.2-0.6,0.3-1,0.3l-0.2,0.1c-0.3,0.4-0.9,0.1-0.7-0.4c0.2-0.5,0.3-0.9,0.1-1.4
	c0-0.1-0.1-0.3-0.1-0.4c-0.1-0.1-0.1-0.2-0.2-0.3l-0.3-0.6l-0.1,0.5c-0.5,1.6-1.6,2.3-3.3,3l-0.2,0.1c-0.4,0-0.6,0.1-1,0.1
	c-0.5,0.1-0.8,0-1.2-0.2c-0.2-0.1-0.4-0.2-0.6-0.3c-0.2-0.1-0.4-0.2-0.7-0.2l-0.1,0c-0.3,0.4-0.6,0.7-1,0.8c-0.1,0-0.3,0.1-0.5,0.1
	c-0.2,0-0.3,0-0.5,0.1c-0.3,0.1-0.7,0.2-0.9,0.6c-0.1,0.2-0.2,0.3-0.3,0.6c-0.1,0.2-0.1,0.4-0.2,0.6c0,0.2-0.1,0.4-0.1,0.6
	c0,0.1-0.1,0.2-0.2,0.2c-0.1,0-0.1,0-0.2-0.1l-0.2-0.2c-0.1-0.1-0.1-0.1-0.1-0.1c-0.3-0.4-0.5-0.8-0.7-1.1c-0.2-0.4-0.3-0.7-0.4-1.2
	l-0.2-0.9c0-0.6,0-1.1,0.1-1.5l0-0.2l-0.2,0c0,0-0.1,0-0.1,0c-0.3-0.1-0.4-0.1-0.6-0.2c-0.3-0.1-0.5-0.3-0.7-0.5l-0.1-0.1l-0.1,0.1
	c-0.2,0.2-0.5,0.3-0.9,0.3c-0.2,0-0.4,0-0.5,0.1c-0.2,0.1-0.4,0.1-0.5,0.3c-0.2,0.2-0.4,0.3-0.5,0.4c-0.2,0.1-0.4,0.2-0.5,0.3
	c-0.4,0.2-0.7,0.5-0.9,1c0,0.1-0.1,0.1-0.1,0.2l-0.1,0.2c-0.1,0.1-0.2,0.3-0.2,0.6c-0.1,0-0.1,0-0.1,0c0-0.2,0-0.4,0-0.6
	c-0.1-0.2-0.2-0.4-0.3-0.6c-0.1-0.2-0.2-0.3-0.3-0.6c-0.6-1.6-0.4-3.1,0.5-4.4l0-0.2c-0.1-0.2-0.2-0.4-0.2-0.6c0-0.5,0-0.8,0.2-1.3
	c0.1-0.4,0.2-0.6,0.4-0.9l0.1-0.1l-0.1-0.1c-0.1-0.1-0.3-0.2-0.3-0.3l-0.1-0.2l-0.2,0.2c-0.1,0.1-0.1,0.1-0.3,0.1
	c-0.2,0-0.4,0.1-0.6,0.1c-0.2,0-0.4,0.1-0.6,0.2c-0.6,0.3-1.1,0.5-1.6,0.7c-0.5,0.3-0.9,0.7-1.1,1.3l-0.2-0.2c0-0.1,0.1-0.2,0.1-0.2
	c0-0.8-0.1-1.5-0.1-2.1c0-0.6,0.1-1.2,0.5-1.8c0.9-1.4,1.6-2.2,3.2-2.6c0.1,0,0.3,0,0.4,0l0.1,0.1c0.2-0.2,0.2-0.4,0.3-0.5l0-0.2
	l-0.1-0.4c0-0.1,0-0.2-0.1-0.4c0-0.3,0.1-0.6,0.1-0.8c0.1-0.3,0.2-0.5,0.4-0.8l0.1-0.2l-0.2-0.1c-0.2-0.1-0.5-0.1-0.8-0.1h-0.8
	c-0.7,0-1,0.1-1.7,0.3c0.4-1,0.8-1.4,1.7-1.9c1.4-0.9,2.5-1.1,4.2-1c0.2,0,0.3,0.1,0.3,0.2l0.1,0.2l0.2-0.1c0.8-0.4,1.3-0.6,2.2-0.7
	c0.8,0,1.3,0,2,0.3c0.3,0.1,0.5,0.3,0.7,0.4c0.2,0.1,0.4,0.3,0.6,0.5c0.1,0.2,0.2,0.3,0.2,0.4c0.1,0.2,0.1,0.3,0.2,0.5
	c0,0.1,0.1,0.1,0.1,0.2c0.2,0.2,0.2,0.3,0.3,0.5c0.1,0.1,0.1,0.2,0.2,0.4c0.1,0.2,0.2,0.3,0.3,0.4c0.1,0.1,0.2,0.2,0.4,0.4l0.1,0.1
	c0.3,0.2,0.5,0.4,0.8,0.5c0.3,0.1,0.5,0.2,0.9,0.4c0.4,0,0.7,0,1-0.1c0.1-0.1,0.3-0.1,0.4-0.2c0.1-0.1,0.3-0.2,0.4-0.2
	c0.4-0.3,0.8-0.5,1.1-0.7c0.3-0.2,0.7-0.5,1-1c1.2-1.8,1.9-3,2.2-5.1c0.2-1.2,0.1-2,0.1-3.2c0-0.9-0.1-1.4-0.1-2.3
	c0-1-0.1-1.9-0.2-2.7c-0.1-0.8-0.1-1.6-0.1-2.5c0-0.2,0-0.5,0-0.7c0-0.1,0-0.2,0.1-0.2l0-0.2c0.5-1,0.7-1.5,1.1-2.4
	c1.5-2.7,4-3.9,7.1-3.7c0.9,0.1,1.7,0.3,2.5,0.5c0.8,0.2,1.5,0.5,2.3,0.7c1.5,0.4,3,0.6,4.6-0.2c0.1,0,0.2,0,0.3-0.2
	c0,0,0-0.1,0.1-0.1l0.1-0.2l-0.3,0c-0.7-0.1-1.4-0.1-2.2-0.1c-0.7,0-1.5-0.1-2.3-0.4c-0.7-0.2-1.1-0.6-1.5-1c-0.4-0.4-0.8-1-1.3-1.5
	c-0.4-0.4-0.7-0.9-0.8-1.3l-0.2-0.6L82.1,74c-0.1,0.2-0.1,0.5-0.2,0.7c-0.4,1.3-1,1.9-2.2,2.5c-0.2,0.1-0.3-0.1-0.3-0.2
	c0-0.1,0-0.1,0-0.1c0.3-2-0.6-3.5-2.2-4.5L77,72.2l-0.1,0.2c-0.4,1.1-1.1,2.1-2.2,2.8c-0.5,0.3-0.9,0.4-1.3,0.5
	c-0.2,0.1-0.5,0.1-0.7,0.2c-0.2,0.1-0.5,0.2-0.7,0.4c-0.1,0-0.1,0-0.1,0l-0.2-0.1l-0.1,0.2c-0.7,1.1-1.3,1.7-2.5,2
	c-0.1,0-0.1,0-0.2,0l-0.2,0c-0.1,0-0.3,0-0.4,0.1c-0.1,0-0.2,0-0.2-0.1l-0.1-0.3l-0.2,0.3c-0.3,0.4-0.7,0.8-1.1,1.2
	c-0.4,0.4-0.9,0.7-1.4,1.1c-0.1,0.1-0.2,0.1-0.3,0.2l-0.2,0.1c-0.1,0-0.1,0.1-0.2,0.1c-0.1,0.1-0.2,0.1-0.3,0l-0.2,0
	c-0.1,0.1-0.3,0.2-0.4,0.4c-0.3,0.2-0.5,0.3-0.8,0.5l-0.2,0c-0.1,0-0.2,0-0.3,0.1c-0.1,0-0.1,0-0.1,0C62,82.2,62,82.2,62,82.2
	c0.1-0.4,0.1-0.8,0.1-1.1L61.7,81c-0.1,0.2-0.2,0.4-0.2,0.6c-0.3,0.3-0.4,0.6-0.7,1c-0.3,0.6-0.7,0.9-1.3,1.3
	c-0.4,0.3-0.7,0.4-1.1,0.5l-0.3,0.1c-0.1,0-0.2,0-0.3,0.1c-0.2,0-0.3-0.3-0.1-0.4L58,84c0.3-0.6,0.5-0.9,0.5-1.5l0-0.6l-0.4,0.5
	c-0.4,0.6-0.9,1-1.7,1.3C55.9,83.9,55.6,84,55,84c-0.3,0-0.5-0.3-0.5-0.7l0-0.1l-0.4-0.1c-0.1,0.1-0.1,0.2-0.2,0.4
	c-0.1,0.1-0.1,0.2-0.2,0.2c0,0.1-0.1,0.1-0.2,0.2c-0.3,0.3-0.5,0.4-0.9,0.5l-0.2,0c-0.8,0-1.4,0-2.1-0.4c-0.4-0.2-0.7-0.4-1-0.7
	l-0.1-0.1l-0.1,0.1c-0.2,0.2-0.4,0.3-0.7,0.6c-0.2,0.2-0.4,0.4-0.7,0.7c-0.2,0.2-0.3,0.4-0.5,0.6c-0.2,0.2-0.3,0.4-0.5,0.6
	c-0.3,0.4-0.4,0.9-0.2,1.5c-0.1-0.1-0.2-0.2-0.2-0.4c0-0.1-0.1-0.2-0.3-0.2L46,86.7c-0.1-0.1-0.1-0.2-0.2-0.3
	c-0.1-0.2-0.2-0.4-0.3-0.6c-0.1-0.2-0.2-0.4-0.2-0.6c-0.1-0.3-0.1-0.5-0.2-0.8c0-0.2,0-0.5,0-0.8l0.1-0.7L44.8,83
	c-0.3,0.1-0.6,0.1-1,0.1c-0.3,0-0.5-0.1-0.7-0.2c-0.2-0.1-0.4-0.2-0.7-0.4c-0.3-0.2-0.5-0.3-0.6-0.6l-0.1-0.1l-0.2,0
	c-0.3,0.1-0.7,0.2-1.1,0.3c-0.2,0.1-0.4,0.1-0.5,0.2c-0.2,0.1-0.3,0.2-0.5,0.4c-0.2,0.2-0.3,0.3-0.5,0.5c-0.1,0.2-0.3,0.3-0.4,0.5
	c-0.2,0.4-0.4,0.7-0.4,1.3l-0.1,0.2c-0.1-0.3-0.2-0.5-0.3-0.8c-0.1-0.3-0.1-0.5-0.2-0.9c-0.1-1.3-0.1-2.2,0.6-3.2
	c0.2-0.2,0.3-0.4,0.4-0.6c0.1-0.2,0.3-0.3,0.5-0.5c0.1-0.1,0.2-0.2,0.2-0.2l0.2-0.2c0.1-0.1,0.2-0.3,0.4-0.4l0.8-0.5l-0.6,0
	c-0.1,0-0.3-0.1-0.4-0.2c-0.4-0.7-0.5-1.3-0.2-2.1l0.1-0.4l-0.4,0.1c-0.4,0.1-0.7,0.4-0.9,0.8c-0.1,0.1-0.2,0.1-0.3,0.1
	c-0.1-0.1-0.1-0.2-0.1-0.3c0.1-0.1,0.1-0.2,0.2-0.3c0.4-1.5,1-2.5,2.4-3.1c0.3-0.1,0.7-0.3,1-0.4l0.1-0.1c0.4-0.2,0.5-0.4,0.6-0.6
	c0.1-0.1,0.1-0.2,0.2-0.3c0.1-0.1,0.1-0.1,0.2-0.2c1.1-0.7,1.8-1,3.1-1c0.3,0,0.4,0,0.7,0c0.7,0,1.1,0.1,1.7,0.1l0.2,0
	c0.3,0.1,0.5,0.1,0.8,0.3l0.1,0.1c0.1,0,0.1,0.1,0.2,0.1c0.6,0.2,1.1,0.4,1.6,0.6c0.5,0.2,1,0.3,1.7,0.3c0.4,0,0.7-0.1,1-0.2
	c0.1-0.1,0.2-0.1,0.4-0.2c0.1,0,0.3-0.1,0.4-0.1c0.3-0.1,0.4-0.2,0.6-0.3c0.1-0.1,0.3-0.1,0.5-0.2c0.3-0.2,0.6-0.4,0.9-0.5
	c0.3-0.1,0.6-0.2,0.9-0.4l0.1,0c0.6-0.5,0.9-0.9,1.3-1.3c0.3-0.4,0.7-0.9,1.1-1.4c0.8-1,1-1.3,1.9-2.2c0.1-0.1,0.3-0.2,0.5-0.4
	l-0.2-0.3c-0.5,0.3-0.9,0.6-1.3,0.9c-0.4,0.3-0.8,0.5-1.4,0.8c-1.3,0.5-2.3,0.4-3.5,0.1c-0.6-0.1-1.1-0.3-1.7-0.4
	c-0.6-0.1-1.3-0.2-2-0.1c-0.4,0-0.7,0-1,0.1c-0.3,0.1-0.6,0.1-1,0.3c-0.1,0.1-0.2,0-0.2-0.1c0-0.1,0-0.2,0.1-0.2
	c0.2-0.2,0.3-0.4,0.4-0.5c0.1-0.1,0.2-0.3,0.3-0.4c0.9-0.8,1.5-1.2,2.6-1.5c0.5-0.1,1-0.2,1.4-0.3c0.4-0.1,0.8-0.2,1.4-0.2
	c0.3-0.1,0.4-0.1,0.7-0.2c1.1-0.4,1.6-1.1,2.1-2l0.1-0.2l-0.3,0c-0.3,0-0.5-0.1-0.7-0.2l-0.1-0.1l-0.1,0.1c-0.1,0.1-0.2,0.2-0.4,0.2
	c0,0-0.1,0-0.1,0c-0.1,0-0.1,0-0.2,0c-1.1,0-1.9-0.4-2.8-0.9c-0.4-0.2-0.8-0.5-1.3-0.8c-0.5-0.3-0.9-0.5-1.5-0.7
	c-0.4-0.1-0.8-0.3-1.1-0.4c-0.4-0.1-0.8-0.2-1.2,0l0-0.1c-0.1-0.1,0-0.2,0-0.3c1.1-0.8,2-1.4,3.1-1.7l-0.1-0.4
	c-2.2,0.2-3.7-0.1-5.2-1.5c-0.1-0.1-0.1-0.1-0.1-0.1c0.1-0.3,0.1-0.4,0.1-0.4c0.2-0.1,0.3-0.2,0.4-0.3l-0.2-0.3
	c-0.6,0.2-1.3,0.2-2,0.1c-0.5-0.1-0.8-0.3-1.1-0.6c-0.1-0.2-0.3-0.3-0.5-0.5c-0.2-0.2-0.4-0.4-0.6-0.5c-0.4-0.2-0.4-0.5-0.2-0.6
	l0.2-0.1l-0.1-0.2c-0.2-0.3-0.3-0.7-0.5-1.1l-0.1-0.1l-0.2,0c-0.5,0.2-1.1,0.2-1.7,0c-0.4-0.1-0.5-0.2-0.8-0.4
	c-0.3-0.1-0.5-0.4-0.7-0.5c-0.3-0.2-0.6-0.3-0.9,0c-0.1,0.1-0.2,0.1-0.3,0c-0.1-0.1-0.1-0.2,0-0.4c0.1-0.1,0.2-0.2,0.3-0.3
	c0.5-0.9,0.8-1.5,1.6-2.1c0.3-0.2,0.7-0.3,1-0.4l0.2,0L41,43.7c-0.1-0.2-0.1-0.4-0.2-0.6c0-0.2,0-0.5,0-0.7l0-0.1l-0.1,0
	c-0.2,0-0.3-0.1-0.5-0.2c-0.2-0.1-0.4-0.2-0.6-0.3c-0.4-0.2-0.8-0.4-1.3-0.6c-0.5-0.1-0.9-0.3-1.3-0.3c-0.4-0.1-0.8,0-1.3,0.2
	c-0.1,0-0.2-0.1-0.1-0.2c0.2-0.3,0.3-0.5,0.4-0.8c0.1-0.2,0.2-0.4,0.4-0.6c0.6-0.6,1-0.9,1.8-1.2c0.7-0.2,1.1-0.4,1.7-0.1
	c0.3,0.1,0.4,0.2,0.7,0.2l0.4,0.1l-0.2-0.4c-0.2-0.4-0.2-0.6-0.2-1.1c0-0.3,0-0.5,0.1-0.8c0-0.3,0.1-0.5,0.2-0.7
	c0.1-0.2,0.2-0.5,0.4-0.7l0-0.2c-0.2-0.4-0.4-0.7-0.7-0.9c-0.1-0.1-0.2-0.2-0.3-0.3c-0.1-0.1-0.2-0.2-0.4-0.2
	c-0.3-0.1-0.4-0.3-0.6-0.4c-0.2-0.1-0.5-0.2-0.8-0.3c-0.1,0-0.1-0.1-0.1-0.2c0-0.1,0.1-0.1,0.2-0.1l0.2,0c0.3-0.1,0.5-0.2,0.7-0.2
	c0.2-0.1,0.4-0.1,0.6-0.2c0.4,0,0.7-0.2,1-0.2c0.3-0.1,0.6-0.1,0.9,0c1.4,0.3,2.3,0.5,2.9,1.6l0.1,0.1l0.1,0c0.1,0,0.1,0,0.2,0h0.2
	l0-0.2c0-0.4,0-0.7,0.1-1.2c0-0.3,0.1-0.4,0.3-0.6c0.1-0.1,0.1-0.2,0.2-0.3l0.3-0.3l0.1-0.1l-0.1-0.1c-0.1-0.2-0.3-0.4-0.4-0.5
	c-0.1-0.2-0.3-0.4-0.4-0.5c-0.3-0.3-0.7-0.5-1.2-0.4l-0.1,0c-0.1,0-0.1,0-0.2,0c-0.1,0-0.2,0-0.2-0.1c0-0.1,0-0.2,0.1-0.2
	c0,0,0.1,0,0.2-0.1l0.3-0.1c0.2-0.1,0.4-0.2,0.6-0.3c0.3-0.2,0.6-0.4,1-0.4c0.5-0.1,1-0.1,1.4-0.1c0.4,0,0.8,0.1,1.3,0.3
	c0.9,0.4,1.5,1,1.7,2l0.1,0.1c0.8,0.3,1.4,0.5,2.2,0.9l0.3,0.2c0.1,0.1,0.2,0.1,0.3,0.2c0.9,0.9,1.2,1.7,1.2,3
	c0,0.5,0.1,0.7,0.1,1.1c0,0.3,0,0.5-0.1,0.7c0,0.2-0.1,0.5-0.1,0.8c-0.1,0.7-0.3,2.4-0.6,3.6c0,0.3,0,0.5,0,0.8c0,0.1,0,0.2,0,0.3
	c0,0.1,0,0.2,0.1,0.3c0.5,1,1.3,1.2,2.2,1.5c0.1,0.1,0.2,0.2,0.3,0.2h0.8c0.5,0,0.8,0,1.2,0c0.4,0,0.7,0.1,1.2,0.2
	c0.5,0.2,0.9,0.4,1.3,0.6c0.4,0.2,0.7,0.5,1.1,0.7c0.8,0.5,1.5,0.9,2.7,0.9c0.5-0.1,0.8-0.1,1.2-0.2c0.3,0,0.7,0,1.1,0
	c0.4,0.1,0.7,0.1,1,0.2c0.3,0.1,0.6,0.2,1,0.4c0.1,0,0.1,0.1,0.2,0.1c0.1,0.1,0.1,0.1,0.2,0.2c0.1,0.1,0.2,0.2,0.3,0.3
	c0.1,0.1,0.1,0.1,0.1,0.2l0,0.4l0.3-0.2c1.1-0.8,2.1-1.5,3.7-1.8c0.3-0.1,0.6-0.1,0.9-0.1c0.2-0.1,0.3-0.1,0.4-0.2
	c0.2-0.1,0.3-0.2,0.3-0.3l0.1-0.1c0,0,0.1-0.1,0.1-0.1l0.3-0.2c0.1,0,0.1-0.1,0.2-0.1l0.1-0.1c0,0,0-0.1,0.1-0.1
	c0.1-0.1,0.3-0.3,0.4-0.4l0.2-0.2c0.2-0.3,0.4-0.6,0.5-0.9c0.1-0.9-0.4-1.9-1.2-2.2c-0.6-0.2-1.1-0.2-1.6,0c-0.5,0.1-1,0.4-1.5,0.5
	c-0.4,0.3-0.7,0.5-1.1,0.8c-0.2,0.1-0.4,0.2-0.5,0.4c-0.1,0.1-0.3,0.2-0.5,0.4c-0.8,0.3-1.5,0.5-2.4,0.6c-0.4-0.1-0.8-0.1-1.1-0.3
	c-0.3-0.1-0.7-0.3-1.1-0.4c-0.2-0.1-0.3-0.2-0.3-0.3c-0.3-0.3-0.6-0.5-0.8-0.7c-0.2-0.2-0.5-0.4-0.7-0.7c-1.2-1.4-1.2-2.8-0.9-4.7
	c0.1-0.4,0.2-0.8,0.3-1.1c0.1-0.4,0.2-0.8,0.1-1.2c0-0.2-0.1-0.3-0.1-0.5c0-0.1-0.1-0.3-0.2-0.4c0-0.1,0-0.1,0-0.2l0-0.2l-0.2,0
	c-1.2-0.3-2.3-1.1-3.5-2.1c-0.3-0.2-0.6-0.5-0.9-0.7c-0.3-0.2-0.6-0.5-0.9-0.6c-0.5-0.3-1-0.4-1.5-0.4c0.2-0.1,0.4-0.3,0.6-0.4
	c0.8-0.4,1.9-0.8,3.2-0.7c0.5,0.1,0.9,0.3,1.2,0.4c0.2,0.1,0.4,0.2,0.6,0.3c0.2,0.1,0.4,0.2,0.6,0.3l0.4,0.1l-0.2-0.4
	c-0.1-0.2-0.2-0.5-0.3-0.8c-0.3-0.7-0.3-1.3-0.3-1.8c0.1-0.6,0.2-1.2,0.3-1.8l0-0.2l-0.2,0c-0.1,0-0.2-0.1-0.3-0.2
	c0-0.1-0.1-0.1-0.1-0.2c-0.8-1.1-0.8-2.2-0.2-3.4c0.1-0.1,0.2-0.2,0.3-0.3c0.1-0.1,0.1-0.1,0.2-0.2c0.1-0.1,0.2-0.2,0.3-0.2
	c0.8-0.5,1.5-0.9,2.3-1c0.2,0,0.7,0,0.8,0c1.8,0,2.7,0,4.5,0c1.5,0,2.4-0.3,3.7-1.1c0.5-0.3,0.8-0.5,1.1-0.8
	c0.3-0.2,0.6-0.5,1.1-0.6c0.7-0.3,1.3-0.4,1.9-0.4c0.6-0.1,1.2,0,2,0c2.2,0,3.6-0.1,5.6-1.1c0.7-0.4,1.2-0.7,1.8-0.9
	c0.6-0.3,1.1-0.4,1.9-0.6c0.5-0.1,0.7-0.1,1.2-0.1c0.6,0,1.6-0.2,2.2-0.2c0.8-0.1,1.6,0.1,2.2,0.4l0.1,0c0.1,0,0.2,0.2,0.1,0.3
	c-0.2,0.2-0.4,0.4-0.5,0.6c-0.1,0.2-0.2,0.4-0.4,0.6c-0.3,0.5-0.4,0.9-0.4,1.4c0,0.5,0,0.9,0,1.4l0,0.5l0.3-0.4
	c0.5-0.6,0.8-1.2,1.1-2.1c0.1-0.2,0.2-0.2,0.3-0.2c0.1,0,0.2,0.2,0.2,0.3L96,15.8c0.1,0.5,0.2,0.8,0.3,1.3l0,0.3l0.2-0.1
	c0.4-0.2,0.8-0.4,1.4-0.6c2.2-0.4,3.5-0.5,5.7-0.3c1.7,0.1,2.7-0.2,4.2-0.9c1.2-0.6,1.6-0.9,2.8-1.4c0.8-0.6,1.5-0.8,2.2-1
	c0.7-0.2,1.5-0.2,2.5-0.5c0.1,0,0.1,0,0.1,0l0.1,0c0.1,0,0.2,0,0.2,0.1c0,0.5,0,0.9,0,1.3c0,0.4-0.1,0.7-0.2,1.1l-0.1,0.4l0.7-0.2
	c1.1-0.4,1.8-0.5,3-0.6c0.5,0,0.7,0.6,0.3,0.8l-0.1,0.2c0,0,0,0.1-0.1,0.1c-1.1,1.1-1,2.4-0.7,3.7c0.2,0.7,0.4,1.3,0.6,2
	c0.2,0.7,0.3,1.4,0.2,2.1c-0.1,0.6-0.3,1-0.5,1.6c-0.2,0.4-0.4,0.6-0.6,1c0,0.1-0.1,0.1-0.1,0.2l-0.1,0.1l0.1,0.1
	c0.7,0.8,1.3,1.4,1.8,2.5c0.4,0.8,0.6,1.4,0.8,2.1c0.2,0.7,0.4,1.4,0.7,2.2c0.2,0.5,0.4,0.8,0.7,1.1c0.1,0.2,0.2,0.3,0.4,0.5
	c0.1,0.2,0.2,0.4,0.3,0.6c0.1,0.2,0.2,0.4,0.2,0.5c0.1,0.2,0.1,0.3,0.2,0.5c0.5,1.5,0.5,2.4,0.3,4c0,0.1-0.1,0.2-0.3,0.2l-0.1,0.1
	c-0.2,0.2-0.5,0-0.4-0.3c0.8-2.4-2.2-3.5-4.4-4.3l-0.6-0.2l0.4,0.5c0.2,0.2,0.3,0.5,0.5,0.8c0.5,1,0.5,1.7,0.5,2.8
	c0,0.8,0,1.3,0,2.1c0,1,0,1.7,0.6,2.6c0.1,0.1,0.1,0.2,0.2,0.3c0.1,0.1,0.1,0.2,0.2,0.3c0.2,0.2,0.3,0.2,0.5,0.3c0.1,0,0.2,0,0.3,0
	h0.3c0.1,0,0.1,0,0.2,0l0.2,0c0.2-0.3,0.3-0.3,0.5-0.2c0.1,0.1,0.2,0.2,0.1,0.4c-1,1.9-3.6,2.2-5.4,1l-0.2-0.1l-0.1,0.2
	c-0.4,0.9-0.4,1.4-0.4,2.3c0,0.5,0.1,0.8,0.2,1.3c0.5,2.2,0.8,3.5,0.6,5.7c0,0.1-0.1,0.2-0.2,0.2l-0.5,0c0,0-0.1,0-0.1,0l-0.1,0
	c-0.1,0-0.2-0.1-0.4-0.1c-1.6,0-2.8-1-3.5-2.5l-0.3-0.7l-0.1,0.7c-0.1,1.5-0.7,2.6-1.9,3.5c-0.6,0.4-0.9,0.7-1.4,1.3
	c-0.1,0.3-0.3,0.5-0.4,0.7c-0.1,0.2-0.2,0.5-0.3,0.7c-0.1,0.5-0.1,0.9,0.1,1.5c0.1,0.3-0.3,0.6-0.5,0.3c-1.2-0.3-1.8-1-2.2-2
	c-0.3-0.9-0.4-1.7-0.2-2.5l0.1-0.5l-0.4,0.3c-0.3,0.2-0.7,0.4-1.1,0.6c-0.1,0.2-0.2,0.3-0.3,0.4c-0.1,0.1-0.1,0.2-0.2,0.4
	c-0.1,0.3-0.1,0.5-0.2,0.6c0,0.2,0,0.4,0,0.7c0.1,0.3,0,0.5-0.1,0.6l-0.1,0.2c0.4,1.3,1.1,2.5,1.9,3.8c0.9,1.5,1.7,2.6,2.3,3.8
	c0.6,1.2,1.2,2.4,1.7,4.1c0.5,1.6,0.8,2.8,1.1,4.1c0.3,1.3,0.4,2.5,0.4,4.1c0,0.4,0,0.7,0.1,1l0,0.5l0.3-0.4
	c0.3-0.4,0.9-0.7,1.4-0.6c0.3,0,0.5,0.2,0.8,0.3c0.4,0.2,0.7,0.3,1.1,0.4c1.2,0.5,2,1.1,2.7,1.9c0.4,0.4,0.7,0.8,1.1,1.2
	c0.4,0.4,0.8,0.9,1.3,1.3c1.2,1.1,2,1.8,3.6,2.4c0.2,0.1,0.4,0.2,0.6,0.3c0.2,0.1,0.4,0.2,0.7,0.3c1.6,0.6,3.2,1,4.6-0.1
	c1.5-1.1,2.1-2.2,2.6-4c0.1-0.4,0.2-0.7,0.3-1c0.1-0.3,0.2-0.7,0.2-1.1c0-0.5,0-0.8-0.1-1.1c-0.1-0.3-0.2-0.6-0.2-1.1
	c-0.1-1.2-2.2-5.5-3.3-7.1c-0.6-0.9-1.2-1.6-1.9-2.2c-0.7-0.6-1.3-1.2-2-1.7c-1.3-1.1-2.5-2.2-3.4-4c-0.2-0.4-0.3-0.7-0.4-1
	c-0.1-0.3-0.2-0.7-0.3-1.1c-0.2-1.1-0.3-1.7-0.2-2.8c0-0.4,0-0.6,0.1-1c0-0.3,0.1-0.6,0.1-0.9c0-0.3,0.1-0.5,0.2-0.8
	c0.7-1.7,1.3-2.7,2.7-3.7c0.7-2.8,2-4.5,4.5-5.7c0.6-0.3,1.2-0.6,1.7-0.9c0.5-0.3,1-0.7,1.4-1.3c0.1-0.1,0.1-0.2,0.2-0.3l0.1-0.3
	c0.5-1,0.5-1.8,0.2-2.8c-0.2-0.8-0.3-1.3-0.5-2.1c-0.5-1.6-0.5-2.8,0.2-4.3c0.2-0.5,0.3-0.7,0.6-1.1C131.7,36,131.9,35.9,132,35.8"
	/>
<path fill="#C2564E" d="M143.9,35.2l0.1-0.1c0,0,0.1-0.1,0.1-0.1l-0.1,0.1C144,35.1,144,35.1,143.9,35.2L143.9,35.2"/>
<path fill="none" stroke="#0066B0" stroke-width="0.932" stroke-miterlimit="3.864" d="M91.9,32.6c0.2-0.1,0.3-0.2,0.3-0.4
	c0.2-0.8,0-1.7-0.7-2.1c-0.7-0.4-1.4-0.5-2.1-0.4c-1.3,0.6-2.6,1-3.7,0.6c-0.5-0.1-0.8-0.2-1.4-0.3c-1.3-0.3-1.7-1.3-3-1.6
	c-0.9-0.3-1.7-0.2-2.5-0.1c0.8,0.3,1.6,0.9,2.3,1.7c1.3,1.4,2.5,2.4,4.4,2.4c1.1,0,1.7-0.1,2.8-0.2c1.1-0.2,1.8-0.5,2.8-0.1
	c0.1,0.1,0.2,0.1,0.4,0.2C91.8,32.4,91.9,32.5,91.9,32.6z"/>
<path fill="none" stroke="#0066B0" stroke-width="0.932" stroke-miterlimit="3.864" d="M46,28.7c0.3,0.5,0.5,1.1,1.1,1.6
	c0.7,0.5,1.4,0.5,2.1,0.2l0.1-0.1c-0.1-0.7-0.5-1.1-1.2-1.4C47.4,28.6,46.8,28.6,46,28.7z"/>
<path fill="none" stroke="#0066B0" stroke-width="0.932" stroke-miterlimit="3.864" d="M39.5,32.3c0.2,0,0.3,0.1,0.5,0.2
	c0.4,0.2,0.6,0.4,0.9,0.6c0.4,0.3,0.6,0.6,0.9,1c0.2,0.2,0.3,0.5,0.6,0.6c0.1,0,0.2,0,0.3,0c0.5,0,1-0.2,1-0.6c0-0.1,0-0.2,0.1-0.2
	c0,0-0.1-0.1-0.1-0.1c-0.5-0.9-1.2-1.2-2.2-1.4c-0.7-0.1-1-0.2-1.7-0.1C39.8,32.2,39.6,32.3,39.5,32.3z"/>
<g>
	<path fill="none" stroke="#0066B0" stroke-width="0.932" stroke-miterlimit="3.864" d="M36.3,40.4c0.9-0.3,2-0.2,2.8,0.4
		c0.7,0.4,1.6,1,1.8-0.2c0.1-0.7-1.3-1.3-1.9-1.4C38,39.1,37.1,39.8,36.3,40.4"/>
	<path fill="#231F20" d="M43,49.2c-0.3-0.4-0.3-1.1-0.8-1c-0.5,0.1-1,0.1-1.5-0.1c-0.7-0.3-1.5-1.2-2.3-0.9c-1.4,0.4-0.2-1.3,0-1.7
		c0.5-0.8,1.4-1.5,2.4-1.8c-0.2-0.4,0-1.3-0.5-1.5c-0.5-0.2-1-0.5-1.5-0.8c-0.6-0.2-1.2-0.4-1.8-0.5c-0.4-0.1-1.5,0.4-1.6,0
		c-0.1-0.3,0.4-1,0.6-1.2c0.3-0.5,0.8-0.9,1.2-1.2c1.1-0.8,2.3-0.9,3.5-0.4c-0.5-1.1-0.2-2.2,0.3-3.2c0.5-1-1.9-2.2-2.7-2.3
		c-0.4-0.1-0.3-0.7,0.1-0.7c0.3-0.1,0.8-0.2,1.1-0.3c1.2-0.3,2.3-0.4,3.5-0.1c0.4,0.1,0.9,0.3,1.2,0.7c0.2,0.2,0.8,1.4,0.9,0.5
		c0-0.5,0.1-1.2,0.4-1.6c0.2-0.2,0.4-0.4,0.5-0.6c-0.2-0.3-0.4-0.6-0.6-0.8c-0.3-0.4-0.7-0.6-1.2-0.5c-0.3,0-0.9,0.1-0.8-0.4
		c0.1-0.3,0.8-0.5,1-0.6c0.7-0.4,1.2-0.6,2-0.6c1.2-0.1,2.4,0.2,3.2,1c0.4,0.4,0.6,0.9,0.7,1.4c0.6,0.2,1.3,0.4,1.9,0.7
		c2.3,1,2.5,3.9,2.1,6.1c-0.2,1.1-0.3,2.2-0.5,3.3c-0.2,1.2-0.1,2.4,1.1,2.9c0.7,0.3,1.3,0.5,2.1,0.5c1.4,0,2.6,0.2,3.8,0.9
		c1.6,0.9,2.7,1.7,4.6,1.4c0.9-0.1,1.8,0,2.6,0.2c0.5,0.1,1.8,0.6,1.8,1.3c0.7-0.5,1.4-1,2.2-1.4c0.8-0.3,1.9-0.3,2.6-0.7
		c0.6-0.3,0.9-0.8,1.3-1.2c0.5-0.5,1.1-1.1,1-1.9c-0.4-2.1-3.1-1.7-4.4-0.7c-1.5,1.1-3.2,2.4-5.2,1.8c-1.6-0.5-3.2-1.7-4-3.2
		c-0.8-1.7-0.2-3.5,0.2-5.2c0.1-0.4,0.1-0.8,0-1.2c0-0.2-0.1-0.4-0.2-0.6c-0.1-0.4-0.2-0.3-0.6-0.5c-0.9-0.3-1.7-0.9-2.4-1.5
		c-0.7-0.6-1.4-1.2-2.1-1.7c-0.3-0.2-0.6-0.3-1-0.4c-0.2,0-1.1,0.1-1.1,0.1c-0.2-0.1,2-1.3,2.1-1.3c0.7-0.3,1.5-0.4,2.3-0.3
		c0.9,0.1,1.6,0.7,2.5,1c-0.5-0.9-0.7-2-0.5-3c0.1-0.5,0.2-1,0.3-1.5c-0.4-0.1-0.7-0.6-0.8-0.9c-0.6-1-0.4-2.1,0.1-3.2
		c0.4-0.7,1.5-1.2,2.2-1.5c0.8-0.3,1.6-0.3,2.5-0.3c1.1,0,2.3,0,3.4,0c1,0,2-0.1,2.9-0.5c1-0.4,1.8-1.2,2.8-1.8
		c1.8-1,4.1-0.7,6.1-0.8c2.2-0.1,3.9-1.2,5.9-2c1-0.4,2-0.6,3-0.6c1.1,0,2.2-0.4,3.2-0.2c0.5,0.1,1.1,0.2,1.5,0.5
		c0.5,0.3-0.2,0.7-0.4,1c-0.8,1-0.9,2.2-0.9,3.4c0.4-0.5,1-2.6,1.7-2.3c0.4,0.1,0.3,0.5,0.2,0.8c-0.2,0.6,0.1,1.1,0.1,1.7
		c1.8-1,4-1.1,6.1-1.1c1,0,2,0.2,3,0c1-0.2,2-0.6,2.9-1.1c0.7-0.4,1.5-0.8,2.3-1.1c0.7-0.5,1.5-0.9,2.4-1c0.7-0.1,2-0.6,2.7-0.4
		c0.5,0.2,0.2,2.4,0,2.8c0.7-0.3,3.9-1.5,4-0.2c0.1,0.6-0.6,1.1-0.9,1.6c-0.4,0.7-0.4,1.6-0.2,2.4c0.4,1.8,1.3,3.6,0.7,5.4
		c-0.1,0.4-0.3,0.8-0.5,1.2c-0.2,0.4-0.7,0.8-0.4,1.2c0.7,0.7,1.2,1.5,1.7,2.4c0.9,1.8,1,3.9,2.2,5.5c1.2,1.5,1.6,3.5,1.4,5.4
		c0,0.3,0,0.9-0.3,1c-0.3,0.1-0.6,0.2-0.9-0.1c-0.2-0.3,0.1-0.8,0.1-1.1c0-0.3-0.1-0.7-0.3-1c-0.8-1.3-2.8-1.9-4.1-2.3
		c1.2,1.5,1.1,3.4,1.1,5.2c0,1,0.1,4.6,2,3.8c0.2-0.1,0.3-0.3,0.6-0.3c0.3,0,0.5,0.4,0.4,0.7c-0.3,0.7-0.9,1.2-1.5,1.5
		c-1.3,0.6-2.9,0.4-4.1-0.4c-0.7,1.4-0.4,2.8-0.1,4.2c0.4,1.6,0.6,3.1,0.5,4.7c-0.1,1.2-1.5,0.7-2.4,0.6c-1.3-0.3-2.3-1.3-2.8-2.5
		c-0.1,1.4-0.7,2.6-1.7,3.5c-1,0.9-2.4,1.9-2.2,3.5c0,0.4,0.6,1.3-0.3,1.3c-0.4,0-1.2-0.5-1.5-0.8c-1.1-0.9-1.6-2.7-1.2-4.1
		c-0.7,0.5-1.3,0.7-1.6,1.6c-0.2,0.5-0.2,1-0.1,1.5c0.2,2.3,2,4.2,3.2,6.1c1.4,2.2,2.2,4.5,2.9,6.9c0.4,1.3,0.8,2.6,1,3.9
		c0.2,1.4,0.2,2.8,0.3,4.3c0.9-1.2,2.1-0.5,3.2,0c1.2,0.5,2.2,1.1,3.1,2c1.7,1.7,3.2,3.7,5.4,4.7c2.4,1.1,4.8,2.3,7,0.2
		c1.5-1.4,2.7-4.5,2.1-6.5c-0.9-3.8-2.7-7.8-5.6-10.5c-1.8-1.6-3.7-3-4.9-5.2c-1.2-2.2-1.4-5.1-0.8-7.5c0.4-1.5,1.3-3,2.5-4
		c0.7-0.6,0.7-1.4,1-2.2c0.3-0.7,0.7-1.3,1.2-1.9c2-2.2,6.7-2.8,6.5-6.5c-0.1-1.8-1.1-3.5-1.1-5.3c0-0.9,0.3-1.8,0.7-2.7
		c0.1-0.3,0.3-0.6,0.5-0.8c0.1-0.1,0.6-0.3,0.6-0.3c0.3,0-0.1,0.7-0.1,0.9c-0.1,0.5,0,1,0.1,1.5c0.4,1,1.1,1.7,1.7,2.6
		c1.1,1.6,1.2,3.5,0.8,5.3c1.3-2,0-4.3-0.4-6.3c-0.5-2.2-0.9-4.8,0.7-6.7c1.4-1.8,4.1-1.9,5.2-4c1.1-1.9,0.4-4.3,1.7-6.2
		c0.5-0.8,1.3-1.3,2.1-1.7c0.2-0.1,0.6-0.2,0.8,0c0.3,0.3-0.4,0.6-0.6,0.8c-1.4,2.2,0.5,4.5,0.4,6.7c0,1.1-0.5,2.2-1.1,3.1
		c-0.6,1-1.6,1.5-2.3,2.4c-0.7,0.9-1.4,1.9-1.4,3.1c0,1.1,0.5,2.5,0.9,3.5c0-2.1,0.5-3.6,2.2-5c0.4-0.3,0.9-0.5,1.3-0.8
		c0.4-0.2,0.1,0.3,0,0.4c-0.7,0.7-0.6,2.1-0.5,3.1c0.1,1.2,0.6,2.3,1.1,3.4c0.6,1.3,0.8,2.7,1.1,4.1c0.5,2.6-0.5,5.2-1.8,7.4
		c-2.5,4.2-7.1,5.9-11.8,5.6c-2.1-0.1-5.8-0.9-7.2,1.2c-1.3,2-0.5,4.7,1,6.3c1.2,1.3,2.8,2.1,4.1,3.2c1.4,1.2,2.5,2.5,3.6,4
		c2.1,3.2,3.2,7.7,2.8,11.5c-0.4,3.6-2,6.3-4.6,8.7c-0.7,0.6-1.6,1.1-2.5,1.4c-0.9,0.3-1.8,0.4-2.7,0.9c-1.6,0.9-3.7-0.1-4.9-1.1
		c-0.1,0.2-0.2,0.3-0.3,0.5c0.1,0.3,0,0.5-0.1,0.7c-0.2,0.3-0.4,0.5-0.7,0.6c-1.1,0.5-2.1,0.6-3.2,0c-0.9-0.5-1.6-1.2-2.2-2
		c-0.8-1-1.7-1.8-2.5-2.8c0,2.1,0.2,4.2-0.4,6.3c1.3,0,2.1-0.2,1.5,1.3c-0.5,1.2,0.5,1.8,1.7,1.8c2.2-0.1,4.9-1.3,6.7,0.6
		c0.8,0.9,0.5,1.9,0.5,3c0,0.6,0.1,1,0,1.6c-0.1,0.6,0,1.2,0.5,1.6c0.5,0.4,0.8,0.6,1.4,0.6c0.4,0,1.2,0,1.6,0.1
		c0.3,0.1,0.1,0.2,0.5,0.3c0.2,0,0.4,0.2,0.5,0.3c0.2,0.4-0.1,1.1-0.3,1.5c-0.2,0.5-0.6,0.8-1.1,1c-0.3,0.1-0.5,0.1-0.8,0.1
		c0,0.3-0.1,0.6-0.1,0.9c0,1,0.4,2.2,1,3c0.3,0.3,1,0.6,1.1,1c0.1,0.4-0.3,1-0.6,1.2c-0.5,0.3-0.8,0.8-1.2,1.2
		c-0.1,0.2-0.3,0.5-0.5,0.6c-0.3,0.2-0.5,0.1-0.4,0.5c0.4,1.1,0.6,2.2,0.4,3.4c-0.1,0.6-0.4,1.2-0.7,1.7c-0.2,0.3-0.2,0.4-0.6,0.5
		c-0.4,0.1-0.3,0.3-0.3,0.6c-0.1,0.6-0.3,1.1-0.7,1.5c-0.2,0.2-0.6,0.8-0.9,0.9c-0.9,0.3-0.7-1.5-1-2c0,1.5,0.5,2.6-0.5,3.9
		c-0.4,0.5-1,0.8-1.6,0.9c-0.4,0-0.7,0-1.1-0.2c-0.2,0.3-0.6,0.5-0.9,0.6c-0.6,0.3-1.1,0.7-1.5,1.3c-0.3,0.4-0.5,1.5-1,1.5
		c-0.5,0-0.6-0.7-0.7-1.1c-0.1-0.4-0.1-0.8-0.3-1.2c-0.1-0.5-0.2-0.5-0.5-0.9c-0.5,0.6-1,1.1-1.7,1.2c-0.4,0.1-0.6,0.1-1-0.1
		c-0.4-0.2-0.4,0.3-0.8,0.5c-0.6,0.4-1.4,0.5-1.9,1.1c-0.4,0.3-0.6,0.8-0.8,1.3c-0.2,0.4-0.1,2-0.6,2.1c-0.8,0.3-1-0.6-1.1-1.2
		c-0.3-1.6-0.6-3.8,0.1-5.3c-0.8,0.2-1.3-0.1-1.9-0.6c-0.6,0.5-1.5,0.5-2.2,1c-0.6,0.4-0.9,1-1,1.7c-0.1,0.6-0.3,1.3-0.7,0.4
		c-0.3-0.6-0.3-1.7-0.4-2.3c-0.1-0.9,0.1-1.7,0.4-2.5c0.3-0.7,0.8-1.3,1.3-1.7c-0.1-0.9,0.4-1.9,0.8-2.6c-0.8,0-2.6,0.2-3,1
		c-0.1,0.2-0.6,1-0.8,0.3c-0.1-0.4,0.3-1.2,0.4-1.6c0.3-1.1,0.7-2.3,1.4-3.2c0.4-0.5,2.5-2.4,3-1.1c0.9-1.6,2.4-3,4.3-2.2
		c0.8,0.3,1.4,0.9,2.1,1.6c0.3,0.3,0.6,0.6,1,0.8c0.5,0.3,0.5,0.3,0.7-0.2c0.4-0.6,0-2.1,0-2.9c0-1-0.2-1.9-0.6-2.8
		c-0.7-1.9-2.2-3.3-3.2-4.9c-0.5-0.9-1-1.4-2-1.9c-0.9-0.5-2-0.7-3-1c-1.8-0.5-3.6-1.1-5.2-2.2c-3.2-2.3-5.2-5.8-4.7-9.9
		c-0.8,2.2-2.6,3-4.8,3c0.7,1.4,1.1,2.6,0.7,4.3c-0.4,1.9-1.6,3.5-3.6,3.8c1.3,2.5-0.1,5.3-1.4,7.4c-0.2,0.4-2.1,2.6-2.5,2.2
		c-0.2-0.2,0.1-1.2,0.1-1.6c-0.1-0.6-0.4-1.2-0.8-1.7c0.1,1.8-0.9,3.9-2.1,5.3c-0.4,0.5-0.9,0.8-1.4,1.2c-0.3,0.2-0.7,0.3-1.1,0.3
		c-0.1,0.2-0.4,0.3-0.6,0.3c-0.7-0.1-0.5-0.7-0.3-1.2c0.2-0.7-0.1-1.2-0.4-1.8c-0.5,1.6-2,2.8-3.6,3.2c-0.9,0.1-1.6,0.2-2.5-0.2
		c-0.4-0.2-0.9-0.5-1.2-0.1c-0.3,0.3-0.7,0.6-1.1,0.7c-1.1,0.3-1.6,0.5-1.8,1.7c-0.1,0.3,0,1.1-0.5,0.9c-0.3,0-0.6-0.5-0.7-0.7
		c-0.9-1.4-1.3-3-1.1-4.6c-0.6,0-1.2-0.3-1.6-0.8c-0.3,0.3-0.6,0.3-1,0.4c-0.5,0.1-0.8,0.2-1.2,0.5c-0.6,0.4-1.4,0.7-1.7,1.4
		c-0.1,0.3-0.4,0.5-0.4,0.9c0,0.3-0.5,0.3-0.5,0c0-0.6-0.5-1.5-0.7-2.1c-0.3-0.9-0.3-1.9-0.1-2.8c0.1-0.4,0.3-0.8,0.5-1.1
		c0.2-0.4,0-0.7,0-1.2c0-0.4,0.1-0.7,0.2-1.1c0.1-0.4,0.5-0.8,0.1-1.1c-0.3-0.3-0.4,0-0.8,0c-0.4,0.1-0.7,0.2-1.1,0.4
		c-0.7,0.3-1.5,0.5-2,1.1c-0.2,0.2-0.3,0.7-0.5,0.8c-0.2,0.1-0.5-0.2-0.5-0.4c0-0.9-0.1-1.7-0.1-2.6c0-1.5,1.2-3.1,2.5-3.8
		c0.6-0.4,1.7-0.4,2-0.9c-0.2-1,0-1.6,0.4-2.5c-0.7-0.2-1.6-0.2-2.3,0c-0.2,0-1.3,0.5-1-0.1c0.3-0.6,0.6-1.1,1.1-1.5
		c0.9-0.7,2-1.3,3.1-1.5c0.6-0.1,1.2-0.1,1.8-0.1c0.2,0,0.4,0.1,0.5,0.3c0.4-0.2,0.7-0.4,1.1-0.5c1.1-0.4,2.5-0.3,3.5,0.2
		c1,0.5,1.5,1.5,2,2.5c0.6,1,1.4,1.5,2.5,1.9c1.1,0.1,2.2-0.7,3-1.4c1.8-1.5,2.8-4.3,3-6.5c0.2-2.7-0.1-5.4-0.3-8.1
		c-0.1-1.1-0.2-2.5,0.2-3.6c0.4-1.2,1.2-2.4,2-3.4c1.5-1.7,3.7-2.5,6-2.4c1.8,0.1,3.5,0.8,5.3,1.3c0.8,0.2,1.6,0.4,2.4,0.3
		c0.6,0,1.9-0.3,2.2-0.8c-1.7-0.2-3.5,0.1-5.1-0.8c-0.6-0.3-1.1-0.9-1.6-1.4c-0.6-0.7-1.3-1.4-1.6-2.3c-0.2,0.8-0.4,1.7-1,2.3
		c-0.3,0.3-1.8,1.6-2,0.8c-0.1-0.3,0-0.8,0-1.2c0-0.4-0.1-0.9-0.3-1.3c-0.4-0.9-1.1-1.7-1.9-2.2c-0.3,0.9-0.8,1.7-1.6,2.4
		c-1,0.9-2.1,1-3.2,1.5c-0.5,0.3-0.7,0.2-1,0.7c-0.3,0.4-0.7,0.8-1.1,1.1c-0.4,0.2-2.1,1.1-2.4,0.5c-0.4,0.6-0.9,1.1-1.5,1.5
		c-0.5,0.4-1.3,1.2-2,1.4c-0.4,0.1-0.6,0.3-0.9,0.5c-0.4,0.2-0.8,0.3-1.1,0.5c-0.7,0.4-0.4-1.2-0.4-1.4c-0.6,1.5-1.5,2.8-3.1,3.4
		c-0.2,0.1-1.7,0.6-1.3-0.3c0.1-0.2,0.4-0.4,0.5-0.7c0.1-0.3,0.2-0.6,0.2-0.9c-0.6,0.8-4.2,2.9-4,0.7c-0.7,1.4-2.3,1.7-3.6,1.1
		c-0.4-0.2-0.8-0.4-1.1-0.6c-0.4-0.3-0.6,0.1-0.9,0.4c-0.6,0.5-1.2,1.2-1.5,2c-0.1,0.3-0.1,1.7-0.2,1.7c-0.2,0-0.9-0.3-0.9-0.6
		c-0.8-1.1-1.2-2.5-1.1-3.9c-0.7,0.2-1.5,0.2-2.1-0.1c-0.3-0.2-0.6-0.3-0.9-0.6c-0.4-0.3-0.3-0.4-0.8-0.2c-1.4,0.4-2.8,1.6-2.8,3.1
		c0,0.6-0.4-0.3-0.4-0.3c-0.1-0.4-0.3-0.8-0.3-1.2c-0.1-0.7-0.1-1.6,0-2.3c0.3-1.4,1.5-2.8,2.7-3.5c-1.1,0-1-1.9-0.8-2.6
		c-0.4,0.1-0.9,1.1-1.2,0.9c-0.4-0.3-0.3-1.2-0.2-1.6c0.3-1.3,1.9-2.2,3-2.6c0.8-0.3,1-0.6,1.6-1.2c0.5-0.5,1.3-0.9,2-1.1
		c1.1-0.3,2.8-0.4,3.9-0.1c1.3,0.3,2.5,1.2,3.9,1.4c1.4,0.2,2.7-0.7,3.9-1.3c0.6-0.3,1.2-0.4,1.7-0.9c0.6-0.6,1.1-1.2,1.6-1.9
		c0.8-1.1,1.7-2.3,2.8-3.2c-0.8,0.5-1.5,1.2-2.4,1.6c-1,0.5-2.1,0.6-3.2,0.4c-2-0.3-4.3-1.2-6.3-0.2c-0.3,0.2-0.7-0.2-0.5-0.5
		c0.3-0.5,0.7-0.9,1.1-1.2c0.8-0.7,1.7-1.2,2.8-1.5c1-0.3,2.1-0.4,3.1-0.7c1-0.4,1.5-1.1,2-2c-1-0.2-2.1,0-3.1-0.3
		c-1.2-0.4-2.2-1.3-3.3-1.8c-0.6-0.3-1.1-0.5-1.7-0.7c-0.3-0.1-1.6-0.1-1.7-0.3c-0.2-1,2.5-2.1,3.3-2.4c-1.3,0.1-2.6,0.1-3.8-0.5
		c-0.6-0.3-1.1-0.7-1.5-1.1c-0.4-0.4,0.2-0.8,0.5-1.1c-1,0.3-2.4,0.3-3.2-0.5C44,50.9,42.2,49.6,43,49.2 M54.7,101.1
		c0.3-0.1,0.6,0,0.7,0.2c0.3,0.1,0.7,0.1,1,0.1c0.4-0.1,0.7-0.3,0.9-0.7c0.2-0.4,0-0.4,0-0.8c-0.1,0.1-0.2,0.1-0.3,0
		c-0.2-0.2-0.4-0.2-0.7-0.2c-0.5,0-1,0-1.5,0.1c-1.1,0.2-2.1,0.8-2.9,1.5C52.6,100.8,54,100.9,54.7,101.1 M54.1,108.3
		c0.3-0.5,0.3-1.5-0.3-1.9c-0.6-0.3-1.3,0.2-1.8,0.6c-1.1,0.9-2,2.7-2,4.1c0.3-0.8,0.9-1.4,1.6-1.9C52.1,108.9,53.4,108,54.1,108.3
		 M54.6,117.5c0.5-0.9,1.6-2.1,2.8-2.1c1.5-0.1,1.8-1.6,1-2.7c-0.9-1.3-2.2,0.2-2.9,1C54.4,114.9,54.3,115.9,54.6,117.5 M62.4,120.6
		c0.1-0.9,0.8-1.8,1.6-2.3c0.4-0.2,1-0.3,1-0.8c0-0.4-0.2-1.2-0.4-1.5c-0.3-0.4-0.7-0.7-1.2-0.5c-0.6,0.2-1.1,0.9-1.4,1.5
		C61.5,118,61.9,119.6,62.4,120.6 M102,123.4c0-0.5,0.3-1,0.1-1.5c-0.2-0.7-0.6-1-1.2-0.6c-1.2,0.7-1.6,1.9-2.5,2.9
		C99.5,123.3,100.8,123.3,102,123.4 M99.2,132.8c0.3-1,0.8-1.8,1.7-2.3c0.4-0.2,1.2-0.1,1.5-0.6c0.3-0.5,0-1.2-0.4-1.5
		c-0.3-0.3-0.4-0.5-0.8-0.4c-0.1,0.3-0.4,0.2-0.6,0.4c-0.2,0.2-0.4,0.5-0.5,0.7C99.4,130.3,99,131.5,99.2,132.8 M105.6,135.8
		c0.2-0.8,0.7-1.7,1.4-2.1c0.8-0.6,2.2-1.3,1-2.4c-0.9-0.8-1.8,0.1-2.2,1C105.3,133.3,105.4,134.7,105.6,135.8 M114.1,133.1
		c0.3-0.5,0.7-0.8,1.1-1.2c0.3-0.3,0.8-0.4,1.1-0.7c0.5-0.6,0-1.8-0.4-2.4c-0.3,0.3-0.7,0.4-1.1,0.6c-0.4,0.3-0.8,0.7-0.9,1.2
		c-0.2,0.5,0.2,0.6,0.1,1.1c-0.1,0.3-0.2,0.3-0.1,0.6C113.9,132.6,114,132.8,114.1,133.1 M71.4,31.2c1.2-0.8-0.4-2.4-1.3-2.6
		c-1.6-0.3-2.8,1.2-4.4,1.2c-1.2,0-2.5-0.2-3.6-0.8c-1.3-0.8-2.6-0.8-4.1-0.4c2.4,0.6,3.7,3.2,6.3,3.3c1.2,0.1,2.5-0.3,3.7-0.6
		C68.8,31,70.6,30.2,71.4,31.2 M38.8,74.9c0.9-0.6,1.7-0.3,2.6-0.3c0.9,0,1.3-0.7,1.5-1.4c-0.3-0.1-0.4-0.4-0.7-0.4
		c-0.5,0-0.9,0.3-1.3,0.5C40,73.6,39.2,74.1,38.8,74.9 M38.2,83.5c0.5-1,1.4-1.8,2.5-2.1c0.5-0.1,1.1-0.3,1.4-0.8
		c0.1-0.4,0.1-1.1-0.3-1.3c-0.7-0.4-2,0.7-2.5,1.2C38.4,81.2,38.2,82.4,38.2,83.5 M46.2,85.8c0.4-1,1.1-1.8,1.8-2.6
		c0.7-0.8,0.7-1.6-0.1-2.3c-0.5-0.4-1.6,1.2-1.7,1.6C45.8,83.6,45.9,84.8,46.2,85.8 M46.5,80c0.4-1.3,0.9-2.3,1.6-3.5
		c0.8-1.3,2.2-2.8,3.7-3.1c-1.5-1.4-3.9-0.4-5.2,0.7c-0.8,0.6-1.6,1.1-2.3,1.9c-0.5,0.7-1,1.7-1.8,2.2c1.2,0.8,0.9,2.5,0,3.4
		c0.6,0.3,1.5,0.5,2.1,0.2C45.6,81.5,45.8,80.6,46.5,80 M46,28.7c0.3,0.6,0.5,1.2,1.1,1.6c0.4,0.3,1.9,0.8,2.2,0.2
		c0.2-0.5-0.5-1.2-0.9-1.4C47.6,28.6,46.8,28.6,46,28.7 M39.5,32.3c0.9,0.3,1.6,0.9,2.2,1.6c0.5,0.6,1.1,1.3,1.9,0.5
		c0.7-0.7-0.4-1.6-1.1-1.8C41.7,32.3,40.4,32,39.5,32.3 M36.3,40.4c0.9-0.3,2-0.2,2.8,0.4c0.7,0.4,1.6,1,1.8-0.2
		c0.1-0.7-1.3-1.3-1.9-1.4C37.9,39.1,37,39.8,36.3,40.4 M41.7,35.3c-0.2,0.5-0.3,1-0.4,1.4c-0.2,0.7,0.5,1,0.4,1.6
		c1.7-0.5,3.5-0.7,5.3-0.7c2,0,3.3,0.9,3.8,2.9c0-0.4,0-0.8-0.2-1.2c-0.2-0.5,0-1.1-0.2-1.7c-0.3-1.5-1.5-1.7-2.7-2.2
		c-0.6-0.2-1.1-0.5-1.7-0.7c-0.3-0.1-0.6-0.2-0.9-0.4c-0.5-0.3-0.4,0.1-0.6,0.4C44.1,35.9,42.6,36,41.7,35.3 M38.7,46.1
		c0.8-0.1,1.4,0.4,2.2,0.7c1.1,0.5,1.3-0.3,1.7-1.1c0.4-0.7-1-1-1.6-0.9C40.2,45,39.3,45.6,38.7,46.1 M42.5,43.9
		c0.6-0.2,1-0.7,1.5-1.1c0.5-0.4,1.2-0.6,1.8-1c1.1-0.7,2.7-1,3.8-0.3c-0.1-0.6-0.1-1.4-0.6-1.9c-0.5-0.5-1.5-0.7-2.2-0.8
		c-1.7-0.2-3.5,0-5.2,0c0.7,0.6,0.7,1.8,0.4,2.6c-0.2,0.4-0.8,0.7-0.5,1.1C41.7,43,42.1,43.7,42.5,43.9 M115.9,36.5
		c0.3,0.6,0.9,1,1.2,1.5c0.4,0.6,0.7,1.4,0.7,2.1c0,1.6-0.4,3.1,0.2,4.6c0.1,0.2,0.5,0.7,0.2,0.8c-0.3,0.2-0.5-0.5-0.6-0.6
		c-0.4-0.7-0.8-1.4-0.8-2.1c-0.2-1.6,0-3.3-1.1-4.6c-0.1,1.1-0.3,2.2-0.5,3.3c-0.2,1.1,0.2,2,0.8,2.9c1,1.4,2.8,3,4.6,2.2
		c-2.4-0.6-2-3.7-2.2-5.6c-0.1-1.1,0.1-2.1-0.5-3.1c-0.5-1-1.2-1.7-2.1-2.4C115.7,36,115.7,36.2,115.9,36.5 M110.2,51.3
		c0,1-0.2,1.9-0.7,2.7c-0.5,0.7-1.3,1.3-1.8,2c-0.6,0.8-1.1,1.9-1.3,2.9c-0.1,0.6,0.2,1.6,0.7,1.9c0-1.4,0.8-2.8,1.8-3.6
		c0.9-0.7,2.1-1.4,2.6-2.5c0.2-0.5,0.2-1,0.2-1.5c-0.1-0.2-0.1-1.4,0.1-1.5c0.2-0.1,1.1,2.6,1.3,2.9c0.5,1,1.3,1.6,2.4,1.6
		c0.7,0,0.9,0.2,0.9-0.7c0-0.7-0.1-1.3-0.3-1.9c-0.4-1.2-0.9-2.4-1-3.8c0-0.8-0.1-2.9,0.8-3.4c-0.4-0.4-0.7-0.9-0.9-1.4
		c0,3.2-1.5,6.4,0.2,9.4c0.1,0.3-0.2,0.1-0.3,0.1c-0.3-0.2-0.5-0.4-0.6-0.7c-0.4-0.7-0.7-1.5-0.8-2.3c-0.3-1.6,0.1-3.2,0.2-4.8
		C112.8,48.4,111.7,50,110.2,51.3 M77.7,113.6c0,0.1,0,0.1-0.1,0.2L77.7,113.6z M65.1,49.5c1.3,0.1,2.6,0,3.9-0.4
		c-0.3,0-0.5-0.5-0.3-0.7c0.2-0.2,0.4-0.3,0.6-0.5c-0.3-0.1-0.7-0.6-1-0.7c-0.6-0.3-1.2-0.6-1.8-0.6c-0.7-0.1-1.4,0.2-2.2,0.2
		c-0.7,0-1.3-0.2-1.9-0.5c-1.2-0.6-2.4-1.4-3.8-1.6c-1.3-0.2-2.6,0.1-3.8-0.6c-1.1-0.6-1.9-1.8-1.7-3.1c0.2-1.4,0.3-2.8,0.5-4.2
		c0.2-1.2,0.3-2.7-0.3-3.8c-0.6-1.1-1.9-1.8-3.1-2.3c0.3,0.7-0.4,1.1-1,1.2c-0.8,0.1-1.6-0.1-2.2-0.5c-0.6,0.7,0.2,1.7-0.2,2.3
		c1,0.4,2.1,0.6,3.1,1.1c1,0.4,1.3,1.3,1.7,2.2c0.2,0.4,0.2,0.9,0.2,1.4c-0.1,0.6-0.1,0.9,0,1.5c0,0.4,0.1,1.4-0.2,1.7
		c-0.2,0.3-0.2-0.1-0.4,0.3c-0.1,0.2-0.3,0.3-0.5,0.4c0.2,0.4,0.6,0.7,0.7,1.2c0.1,0.6,0,1.3,0.1,1.9c0,0.2-0.2,0.3-0.3,0.2
		c-0.2-0.1-0.2-0.5-0.2-0.7c-0.2-0.6-0.6-1-1-1.5c-0.8-1.1-1.8-1.3-2.9-0.5c-1,0.8-2.4,1.3-3.5,1.5c0.2,0.2,0.5,0.5,0.5,0.9
		c-0.1,0.2-0.1,0.4,0.1,0.5c0.1,0.2,0.1,0.3,0.1,0.5c-0.1,0.6-0.5,1.2-1,1.6c0.3,0.4,0.6,0.6,1.1,0.7c0.2,0,0.4,0.1,0.5,0.2
		c0.3,0.3,0.2,0.1,0.5,0.2c1.1,0.5-0.5,1.2-1,1.2c0.7,0.4,1.5,0.6,2.3,0.6c0.4,0,0.7-0.1,1-0.2c0.3-0.2,0.5-0.5,0.9-0.5
		c0.5-0.6,0.9,0.2,0.8,0.6c-0.2,0.9-0.4,1.3-1.2,1.9c1.5,0.4,3.1,0.2,4.7,0.5c0.6,0.1,1.1,0.4,1.8,0.4c0.5,0,1.1,0.1,1.6,0.2
		c0.4,0.1,0.8,0.1,0.4,0.5c-0.5,0.5-1.1,0.8-1.8,0.9c-1.6,0.2-2.8,0.3-4.2,1.2c2.2-0.2,4,1.8,6.2,2c-0.6-0.6,0.9-0.8,1.2-0.9
		c0.6-0.4,1-1.1,1.3-1.8c-0.4,0.1-3.2,0.7-3-0.1c0.1-0.4,1.1-0.3,1.5-0.4c0.6-0.2,1.1-0.5,1.6-0.9c-0.8-0.8-2.3-0.9-3.3-1.3
		c-0.2-0.1-0.8-0.3-0.5-0.6c0.4-0.5,1.7-0.3,2.2-0.4c0.6-0.2,1.1-0.5,1.8-0.6c0.7-0.1,1.4,0.1,2.1,0.3c1.2,0.3,2.8,0.5,4,0
		c-0.7,0-1.4-0.1-2.1-0.4c-0.3-0.1-0.6-0.3-0.9-0.4c-0.1-0.1-0.5-0.6-0.2-0.4c1.5,0.9,3.1,0.3,4.6-0.1c-0.5-0.1-1-0.2-1.5-0.2
		c-0.2,0-0.5,0-0.6-0.2C64.8,49.6,64.9,49.5,65.1,49.5 M69.5,114.4c0,0.7-0.1,1.4-0.3,2c0.4-0.4,0.8-1.4,0.9-2
		c0.1-0.5-0.3-1.8,0.4-1.8c1.3-0.1,0.5,3.9-0.2,4.4c0.5-0.2,1.1-0.5,1.5-0.9c0.3-0.4,0.3-1.3,0.9-1.4c-0.4-0.7-0.9-1.3-0.9-2.2
		c0-0.7,0.6-1.2,0.5-0.3c0,0.6,0.6,1.1,1,1.5c0.5,0.5,1,1.2,1.2,1.8c0.1-0.8-0.2-1.5-0.3-2.3c0-0.4-0.1-0.8-0.2-1.2
		c-0.1-0.3,0.3-0.4,0.4-0.2c0.6,1.6,1.5,2.9,1.4,4.7c1.4-1.2,2.2-3.2,2.3-5c0-0.5-0.3-1.3,0.4-1.5c0.6-0.2,1.2-0.3,1.7,0.2
		c1.1,1,0.8,2.6,0.6,3.9c1.5-1.7,2.4-3.8,2.1-6.1c-0.1-0.9-0.2-1.8-0.5-2.6c-0.2-0.4-0.7-1.2-0.1-1.5c0.5-0.2,1.3-0.1,1.9-0.2
		c0.9-0.2,1.7-0.9,2-1.8c0.3-1.1,0.6-2.2,0-3.2c-0.2-0.4-0.5-0.8-0.8-1.1c-0.4-0.4-1-0.7-0.7-1.3c-0.8,0.7-2,1.1-2.5,2.2
		c1.1-0.2,0.9,1.3,0.7,1.9c-0.3,1-1.5,0.2-1.7-0.5c-0.3-0.8,0-1.8,0.5-2.5c0.6-0.7,1.6-0.9,2.4-1.4c0.6-0.4,0-0.5,0.3-1
		c0.2-0.3,0.6-0.2,0.8,0c0.6,0.6,1.6,0.9,2.5,0.8c2-0.2,3.5-1.6,3.8-3.6c-0.3-0.1-0.6,0.2-0.9,0.2c-0.4,0.1-0.9,0.2-1.3,0
		c-0.8-0.2-1.6-0.8-2-1.6c-0.5,1.2-1.5,1.7-2.5,2.4c-0.5,0.3-2.1,2-2.7,1.5c-0.7-0.5,1.5-1.9,1.8-2.3c0.7-1,1.4-2.3,1.3-3.5
		c0-1.3,0-2.5-0.3-3.8c-0.1-0.6-0.3-1.1-0.6-1.6c-0.1-0.3-0.3-0.6-0.4-0.9c-0.1-0.3,0.3-0.4,0.4-0.2c0.6,1.1,1.2,2,1.5,3.3
		c0.1,0.6,0.3,1.2,0.4,1.8c0.1,0.7,0.1,1.4,0.3,2c0.6-1.6,0.9-3.4,0.2-5.1c0-0.1-0.6-0.8-0.2-0.9c0.2,0,0.6,0.8,0.7,1
		c0.4,0.8,0.7,1.6,0.8,2.5c0.1-0.6,0.1-1.3,0-1.9c0-0.3-0.4-1.9-0.2-1.9c0.2,0,0.6,1.5,0.7,1.8c0.3,0.7,0.6,1.4,0.9,2.1
		c-0.1-0.7-0.2-1.4-0.4-2.1c0-0.2,0.2-0.4,0.4-0.2c0.2,0.2,0.2,0.8,0.4,1c0.6,1.4,1,2.7,1,4.3c0.4-1.5,0.3-3.3,0.1-4.8
		c0-0.2-0.3-0.8,0-1c0.3-0.2,0.4,0.3,0.5,0.5c0.3,0.9,0.5,1.7,0.6,2.7c0-0.7,0.1-1.3,0.1-2c0-0.4-0.4-2.6-0.3-2.6
		c0.6-0.3,1.5,3.1,1.5,3.5c0-0.3,0.3-3,0.5-3c0.2,0.1,0.7,1.8,0.8,2.1c0.6-1.4,1.1-3.1,1.2-4.6c0-0.3-0.1-0.9,0.2-1
		c0.3-0.2,0.4,0.6,0.5,0.7c0.1,0.7,0.2,1.4,0.3,2.1c0.2-0.7,0.4-1.5,0.6-2.2c0-0.1,0.1-0.7,0.4-0.6c0.4,0.2,0.2,1,0.2,1.3
		c0,1,0.1,1.8-0.2,2.8c1.3-1.5,1.7-3.2,1.5-5.2c-0.1-1.2-0.5-2.4-1-3.4c-0.3-0.5-0.6-1-0.9-1.5c-0.1-0.1-0.4-0.4-0.1-0.6
		c0.3-0.2,0.6,0.4,0.7,0.6c0.7,0.9,1.6,1.7,2.1,2.7c0.6,1.2,0.7,2.6,0.8,3.9c0,2.8-1.9,4.7-3.5,6.7c-2.7,3.5-4.8,8.7-2.1,12.9
		c1.3,2,3.4,3.6,5.6,4.5c2.3,1,4.6,1.3,6.3,3.3c0.3,0.4,0.8,0.6,1.1,1c0.5,0.5,0.9,1,1.3,1.5c0.7,0.9,1.3,1.9,1.7,3
		c0.4,1.1,0.6,2.2,0.6,3.4c0,0.6,0,1.3,0,1.9c0,0.3,0,0.6,0,0.9c0,0.3,0.1,0.5,0.1,0.7c0,0.3,0,0.9-0.2,1.1c-0.4,0.4-1.2,0-1.6-0.2
		c-1-0.5-1.7-1.4-2.7-1.9c-1-0.5-2.2-0.7-3.2,0.1c-0.3,0.2-1.1,0.8-0.8,1.2c0.4,0.5,0.6,1,0.6,1.6c0.7-0.5,1.4-1.1,2.2-1.3
		c0.7-0.2,1.9-0.4,2.5,0c0.3,0.2,1.5,0.9,1.3,1.3c-0.3,0.7-1.3-0.6-1.6-0.7c-1.8-0.6-3.1,0.9-4.4,1.9c-1,0.8-1.7,1.9-2.1,3.2
		c0.6-0.3,0.6-0.1,1.2,0.1c0.5,0.2,0.9,0.8,1,1.2c0.2,0.5,0.2,1.1,0,1.7c-0.2,0.7,0.8,0.2,1.2,0.4c0.4-1.3,0.9-2.3,1.7-3.4
		c0.7-1,1.3-2.3,2.3-3.1c0.7-0.5,2.1-1,2.8-0.3c0.1,0.1,0.4,0.3,0.4,0.5c0,0.2-0.2,0.4-0.4,0.2c-0.5-0.3-1.2-0.2-1.8,0.1
		c-1,0.5-1.5,1.8-2.1,2.6c-0.8,1.1-1.6,2.2-2,3.5c0.6-0.5,1.6-1.1,2.3-0.7c1,0.4,1.6,1.5,1.7,2.5c0.9,0.3,1.9-0.5,2.4-1.1
		c-0.3-1.1-0.1-2.5,0-3.7c0.1-1.1,0.1-2.2,0.6-3.1c0.3-0.4,0.5-0.9,0.9-1.3c0.1-0.1,1-0.5,0.8,0.1c-0.1,0.3-0.7,0.4-0.8,0.7
		c-0.3,0.5-0.4,1-0.4,1.5c0,1.3,0.1,2.5,0.1,3.8c0.7-1.3,2.3-2,3.5-1.1c0.5,0.4,0.9,1,1,1.7c0.1,0.9,0,1.2,1,0.9
		c0.6-0.2,0.9-1,1.2-1.5c0.3-0.8,0.1-1.4,0-2.2c-0.1-0.4-0.1-1.3,0.6-1c0.2,0.1,0.3,0.5,0.5,0.7c0.3,0.4,0.7,0.8,0.9,1.4
		c1.3-1.5,0.5-4.6-0.3-6.2c-0.1-0.2-0.7-1-0.4-1.2c0.3-0.2,0.9,1,1,1.2c0.6,1.1,1.1,2.1,1.2,3.4c0.7-1.3,0.6-2.5,0.4-3.8
		c-0.1-0.3-0.2-0.7-0.3-1c-0.1-0.3-0.4-0.3-0.5-0.7c0-0.3,0.1-0.3,0-0.6c-0.2-0.3-0.4-0.7-0.5-1c-0.1-0.2-1-1.3-0.6-1.4
		c0.3,0,1.2,1.4,1.4,1.7c0.2,0.2,0.4,0.5,0.5,0.7c0.4-0.1,0.7-0.3,1-0.5c0.4-0.3,0.6-1,1.1-1.3c-0.8-0.7-1.2-1.7-1.6-2.6
		c-0.2-0.4-0.3-0.9-0.4-1.4c-0.1-0.5,0.3-1.4-0.2-1.6c-0.2-0.1-1-0.3-0.9-0.7c0.1-0.5,0.9,0.1,1.2,0.1c1,0.3,1.8-0.2,2.1-1.2
		c-1.7,0-4.1-0.2-4.3-2.5c-0.3-1.7,0.9-4.3-1.1-5.2c-1.8-0.8-4,0.3-5.8,0c-1-0.2-1.6-0.5-2-1.5c-0.2-0.4,0-1.1-0.4-1.2
		c-0.3,0-0.9,0-1.2-0.2c0,0.5,0,1.1-0.1,1.6c0,0.2-0.6,1.8-0.9,0.9c-0.1-0.3,0.2-0.8,0.2-1.1c0.1-0.5,0.1-0.9,0.1-1.4
		c0-0.9-0.1-1.8-0.2-2.7c-0.2,1.3-0.5,2.5-1.1,3.6c-0.3,0.6-0.7,1.2-1.2,1.8c-0.3,0.4-0.9,0.2-1-0.3c0-0.5,0.6-1.1,0.9-1.4
		c0.3-0.5,0.6-1,0.8-1.6c0.4-1.1,0.5-2.3,0.6-3.5c0-1.2,0-2.4-0.1-3.6c0-0.6,0-1.2,0-1.9c0-0.6-0.3-1.3-0.3-1.9
		c0-0.4,0.5-0.6,0.8-0.3c0.4,0.4,0.5,1.3,0.6,1.8c0.1,0.6,0.6,1.2,0.8,1.8c0.1,0.3,0.2,0.7,0.3,1c0.1,0.3,0.3,0.6,0.4,0.9
		c-0.1-0.8,0-1.6-0.2-2.4c-0.1-0.8-0.4-1.5-0.5-2.3c-0.1-0.4,0.2-1.3,0.7-0.7c0.4,0.5,0.9,1.5,0.9,2.1c0.2,1.7,2.4,3.1,3.5,4.3
		c0.9,1,2.3,2.3,3.7,1.7c-0.5-0.1-1-0.4-1.5-0.7c-0.1-0.1-1.2-0.8-0.4-0.9c0.4,0,1.1,0.6,1.6,0.7c0.5,0.1,1.2,0,1.5-0.5
		c-2.5-0.4-4.6-1.8-6.2-3.6c-0.9-1-1.7-2.1-2.4-3.3c-0.2-0.2-0.3-0.5-0.4-0.8c-0.1-0.2,0.1-0.8,0.2-0.4c0.2,0.7,0.9,1.3,1.3,1.9
		c1.5,2.1,3.5,3.6,6,4.4c1.2,0.4,2.8,0.9,4,0.4c0.4-0.2,0.9,0.2,0.9,0.6c0,0.7-1.1,0.8-1.6,0.9c0.6,0.4,1.3,0.6,2,0.6
		c0.8,0,1.2,0,1.8-0.7c0.2-0.2,0.4-0.4,0.5-0.6c0.2-0.2,0.3-0.7,0.5-0.9c0.7-0.5,0.2,1.2,0.2,1.3c4.7-2,7.8-6.4,7.6-11.6
		c-0.1-2.6-1-5.6-2.2-7.9c-1.2-2.4-3-4.3-5.2-5.7c-2.1-1.3-3.6-2.8-4.3-5.2c-0.3-1.1-0.2-2.7,0.4-3.7c0.3-0.5,0.5-1,0.9-1.5
		c0.5-0.5,1.2-0.8,1.8-1c2.5-0.9,5.2,0,7.8,0c2.2,0,4.5-0.9,6.3-2.2c2.7-2.1,4.6-6,3.9-9.4c-0.2-0.9-0.3-1.8-0.5-2.7
		c-0.3-0.9-0.8-1.8-1-2.7c-0.4-1.6-0.6-3.4,0.1-4.9c-1.9,1.5-1.6,3.8-1.6,5.9c0,1.4-0.5,2.5-1.2,3.7c-0.2,0.4-2.1,3.9-2.1,3.9
		c-0.3-0.1,0.9-2.9,1-3.2c0.4-1.2,0.5-2.4,0.4-3.7c-0.2-2.5-1.9-5.1-0.8-7.6c0.5-1.1,1.4-2.2,2.3-3c0.9-0.7,1.8-1.4,2-2.6
		c0.2-1.2-0.3-2.5-0.4-3.7c-0.1-1.3-0.3-2.7,0.6-3.8c-1.5,1-1.9,3-2,4.7c-0.1,1.7-0.8,3.4-2.1,4.5c-1.4,1.2-3.4,1.6-4.3,3.4
		c-0.9,1.7-0.5,3.7-0.1,5.5c0.4,1.7,1.2,3.4,0.8,5.2c-0.2,0.9-0.6,1.7-1.2,2.3c-0.5,0.5-1.4,0.1-0.7-0.5c0.5-0.4,0.3-2,0.2-2.5
		c-0.2-0.9-0.6-1.8-1.1-2.6c-1.2-1.7-2.1-3.3-1.2-5.4c-1,2-1,4.1,0,6.1c0.9,1.8,1,4.2-0.4,5.8c-1.2,1.3-3.2,1.8-4.7,2.7
		c-1.4,0.9-2.4,2-2.9,3.7c0.4-0.2,0.2,0.5,0.1,0.7c-0.3,0.4-0.9,0.7-1.2,1c-0.8,0.8-1.6,1.8-1.9,2.9c-0.7,2.6-0.3,4.8,1,7.1
		c1.1,2.1,3.1,3.4,4.8,4.9c1.7,1.4,2.8,3.1,3.7,5.1c0.7,1.5,1.6,3.3,1.8,5c0.2,2.3-0.1,5.1-1.6,7c-1.6,2.1-4.2,3.1-6.7,2.2
		c-2.4-0.8-4.4-2.2-6.1-4.1c-1-1.1-1.8-2.4-3.1-3.1c-0.8-0.5-3.5-2-4-0.4c0,0.1-0.1,0.5-0.3,0.6c0,0.4,0,0.8,0,1.2
		c0,0.3,0.1,0.9-0.1,1.2c-0.2,0.2-0.6,0.1-0.5-0.2c0.1-1.8,0.1-3.6,0-5.4c-0.1-1.8-0.7-3.5-1.2-5.2c-0.6-1.8-1.1-3.5-2-5.2
		c-0.8-1.5-1.8-2.9-2.7-4.4c-0.9-1.5-2.2-2.9-2.6-4.7c-0.4,0.1-0.2,0.9-0.2,1.2c0,1,0.5,2.1,1.1,2.9c1,1.4,2.2,2.6,3.3,4
		c1,1.3,1.7,2.8,2,4.4c0.3,1.1,0.4,2.2,0.5,3.3c0,0.4,0.2,1.5-0.1,1.9c0.1-0.1-0.3-1.2-0.3-1.4c-0.1-0.6-0.3-1.2-0.5-1.8
		c0,0.4-0.1,0.9-0.1,1.3c-0.2-0.9-0.5-1.8-0.8-2.7c0,0.6-0.2,1.3-0.1,1.9c-0.2-0.9-0.4-1.9-0.7-2.8c0,0.4-0.3,1-0.2,1.3
		c-0.2-1.1-0.5-2.1-0.9-3.1c0.1,0.7-0.1,1.4,0,2.1c-0.4-1.7-0.9-3.9-2.1-5.2c-0.6-0.7-1.5-1.1-2.2-1.7c-0.9-0.7-1.5-1.6-2.1-2.5
		c-0.3-0.5-0.6-0.9-0.9-1.4c-0.1-0.2-0.2-0.4-0.2-0.6c-0.3,0-0.6,0.1-1,0.1c-1.1,0.1-2.1,0.1-3.2,0.3c-2.3,0.3-4.6,1.1-6.4,2.6
		c-1.5,1.2-2,3-1.5,4.8c0.6,2,2.2,3.3,3.7,4.6c0.1,0.1,1.1,0.7,0.7,0.9c-0.2,0.1-1.1-0.6-1.3-0.7c-1-0.4-1.9-0.9-2.6-1.7
		c-0.7-0.8-1.4-1.7-1.8-2.6c-0.2-0.5-0.4-0.9-0.5-1.4c-0.1-0.4,0-0.5-0.3-0.6c-0.2,0-0.5-0.2-0.6-0.4c-0.2,0.7-0.1,1.6,0.2,2.2
		c0.1,0.2,0.7,1.1,0.1,0.9c-1.3-0.5-1.5-2.7-1.2-3.9c-0.2,0.5-0.5,0.9-0.6,1.4c-0.1,0.6,0.2,1.5,0,2.1c0,0-0.5-0.8-0.6-0.9
		c-0.2-0.4-0.1-0.8-0.1-1.2c0.1-1.2,0.8-2.2,1.2-3.2c-1.5,1.4-2.8,2.7-4.6,3.6c-0.9,0.4-1.8,1-2.8,1.1c-0.3,0-0.8,0-0.7-0.4
		c0.1-0.4,0.5-0.3,0.8-0.5c0.8-0.5,1.7-0.9,2.4-1.5c0.8-0.6,1.5-1.3,2.2-1.9c1.5-1.3,2.2-3.3,4-4.2c-2.5,0.9-4.2,2.5-6.3,4
		c-1,0.7-2.1,1.2-3.4,1.4c-0.7,0.1-0.7-0.4,0-0.5c0.7-0.1,1.3-0.3,1.8-0.7c2.2-1.5,3.7-3.6,5.8-5.2c2.2-1.7,5.5-1.7,8.1-1.1
		c-2.1-1-4.2-2.2-6.6-1.1c-1,0.5-1.8,1.2-2.7,1.8c-1,0.6-2.3,1-3.5,1c-0.3,0-1.4,0.2-1.6-0.1c-0.2-0.5,0.9-0.4,1.1-0.5
		c1.1-0.2,2.4-0.6,3.4-1.1c0.9-0.5,1.7-1.3,2.6-1.8c1-0.6,2.1-0.9,3.2-0.8c2.2,0.2,4,1.6,6,2.1c2.3,0.6,4.8,0.5,7.1-0.1
		c2.1-0.6,4.1-1.5,6.2-2.1c1.2-0.3,4.5-1.9,4.5-3.5c-2.3,1.2-5,2.4-7.6,3c-1.2,0.3-2.5,0.5-3.8,0.5c-1.4,0-3,0-4.4-0.2
		c-2.7-0.5-5.2-1.5-7.9-2c-1.2-0.2-2.5-0.3-3.7,0c-0.6,0.1-1.2,0.3-1.7,0.5c-0.2,0.1-1.5,0.9-1.5,0.9c-0.3-0.3,2.1-1.9,2.4-2
		c1.3-0.4,2.6-0.7,3.9-0.5c2.6,0.3,5.1,1.3,7.7,1.7c1.3,0.2,2.5,0.1,3.7,0c1.4-0.1,2.8-0.1,4.3-0.4c2.4-0.5,4.9-1.6,7.1-2.8
		c4.4-2.2,6.8-6.6,7.4-11.4c0.2-1.4,0.2-2.8,0.4-4.2c0.2-1.3,0.4-2.7,0.5-4c0.1-1.3-0.1-2.6-0.2-3.9c-0.1-0.6-0.4-1.1-0.4-1.7
		c0-0.9,0.4-0.3,0.5,0.2c0.2,1,0.6,1.9,0.7,2.9c0.1,1,0.2,2,0.2,3.1c0.7-0.1,1.3-0.1,1.9,0c-0.6-0.9-0.7-2.3-0.8-3.3
		c-0.1-0.6-0.2-1.2-0.4-1.7c-0.3-0.9,0.2-0.2,0.4,0.2c0.6,1.1,1,2.2,1.3,3.4c0.2,0.6,0.6,1,0.9,1.5c0.2,0.3,0.8,1,0.8,1.4
		c0,0.7-2.3-0.4-2.7-0.4c-0.2,0-1.5-0.1-1.5,0.1c0,0.5-0.1,0.5,0.4,0.8c1.1,0.6,2.4,0.8,3.5,1.4c1.1,0.5,2.2,1.2,3,2.1
		c-0.2-1-0.6-1.9-1.2-2.7c-0.7-1-1-1.9-1.3-3.1c-0.2-1.1-0.5-2-1-3c-0.2-0.5-0.5-0.9-0.7-1.4c-0.1-0.3-0.3-0.5-0.5-0.7
		c-0.3-0.4-0.2-0.1-0.6-0.2c-1.1-0.2-0.6-1.3-0.3-1.9c0.4-1.1,0.6-1.9,0.6-3.1c-0.1-2-0.6-4.3,0.8-6c-1.6,0.1-4.2,0.6-5.2,2.1
		c-0.4,0.7-0.6,1.6-1,2.3c-0.3,0.5-0.6,0.9-1,1.2c-0.1,0.1-0.9,0.9-1,0.9c-0.4,0,1.1-1.8,1.2-1.9c0.6-0.9,0.6-2,0.9-2.9
		c0.2-0.5,0.6-0.9,0.6-1.3c0-0.4,0.1-0.9,0.4-1.2c0.3-0.3,0.6-0.4,0.9-0.6c0.4-0.3,0.1-0.7,0.3-1.1c-1.7,0.5-3.2,1.4-4.7,2.2
		c-1.8,0.9-3.4,1.7-5.5,1.7c-2,0-3.7,0-5.6,0.3c-1.9,0.3-3.3,1.7-5,2.3c-1.6,0.6-3.4,0.6-5.1,0.6c-0.8,0-2,0.2-2.7-0.1
		c-0.6-0.2-0.5-0.7,0.2-0.7c1.9,0,3.9,0,5.8-0.5c-0.1-0.7,1-1.6,1.2-2.3c0.3-0.8,0.4-1.7,0.8-2.5c-0.9,1-1.6,2.2-2.7,3.1
		c-0.5,0.4-1,0.7-1.6,0.9c-0.2,0.1-0.7,0.4-0.9,0.1c-0.2-0.2-0.1-0.5,0.1-0.5c1.3-0.4,2-1.4,2.8-2.4c0.5-0.6,2.4-3.1,3.3-2.7
		c-0.8-0.7-2.8,0.1-3.8,0.2c-1.5,0.1-2.8,0.7-4.2,1.4c-1.3,0.7-2.6,1.2-4.1,1.4c-1.5,0.2-3.1,0-4.6,0.1c-1.5,0.2-2.3,1-3.5,1.8
		c-1.3,0.8-2.6,1.2-4.1,1.2c-1.5,0-3-0.1-4.5-0.1c-1.3,0-2.4,0.5-3.7,0.7c0.6,0.1,0.1,0.8,0.1,1.1c0.3,0.4,0.5,0.8,1,0.9
		c-0.4-0.6,2.6-2.5,2.6-0.8c0,0.7-0.7,0.7-1.2,0.5c-0.4-0.1-0.6-0.1-0.8,0.2c-0.2,0.3,0,0.7-0.5,0.8c-0.6,0.1,0.3,1.1-0.4,1.5
		c0.1,0.9,0.5,1.8,0.8,2.6c0.3,0.8,0.5,1.5,1.4,1.9c1,0.4,1.9-0.2,2.7-0.5c0.3-0.1,0.6-0.2,0.9-0.3c0.2-0.1,0.3-0.4,0.5-0.5
		c0.5-0.4,1.3-0.8,2-0.6c0.1,0,0.7,0.3,0.6,0.6c0.3,0.1,0.7,0.2,1,0.5c0.5,0.6,0.7,1.8,0.7,2.6c0,1.8-1.2,3-2.2,4.3
		c-0.3,0.4-0.3,1.6-1,1.3c-0.7-0.3,0-1.7,0.3-2.1c-0.4-0.1-0.7-0.5-1-0.7c-0.5-0.2-1-0.3-1.6-0.2c-1.3,0.1-2.5,0.5-3.8,0.5
		c0.6,1.6-0.4,2.8-0.5,4.5c-0.1,1.6,0.6,2.9,1.9,3.8c0-0.3,0.4-1.9,0.9-1.8c0.3,0.1-0.1,0.6-0.1,0.7c0,0.4,0.1,0.7,0.3,1
		c0.1-0.4,1.3-2.8,1.8-2.6c0.3,0.2-0.3,1.2-0.4,1.5c-0.1,0.6-0.1,1.2,0,1.9c0-1.1,0.8-2.1,1.3-3c0.1-0.1,0.2-0.1,0.3-0.1
		c0.2,0.1,0,0.4-0.1,0.6c-0.3,0.5-0.4,1.1-0.3,1.7c0.3-0.5,0.8-0.9,1-1.5c0.1-0.2,0.5-0.1,0.4,0.1c-0.1,0.4-0.2,0.8-0.1,1.2
		c0.2-0.1,0.4-0.3,0.6-0.4c0.4-0.2,0.4-0.7,0.9-0.8c1.4-0.4,2.9-1.1,4.3-0.4c1,0.5,1.5,2,1.4,3c-0.2,1.3-1.2,2.3-2.2,3
		c1,0,2.1,0.2,3.1,0.4c0.4,0.1,0.8,0.3,1.2,0.1c0.4-0.2,0.8-0.5,1.2-0.8c0.6-0.5,1-1.2,0.9-2c-0.1-0.6-0.9-1.1-0.7-1.7
		c-0.3,0.3-1.4,1.3-1,0.3c0.2-0.4,0.5-0.7,0.7-1.1c0.2-0.4,0.2-0.9,0.2-1.4c-0.3,0.1-0.7,1.4-1.1,1.2c-0.3-0.2,0.1-0.6,0.2-0.8
		c0.2-0.5,0.1-0.7,0.1-1.1c-0.1,0.3-0.9,1.3-1.3,1.2c-0.1,0,0.7-1.7,0.7-1.9c-0.2,0.2-1.1,1.3-1.3,1.2c-0.3-0.1,0.4-0.9,0.5-1.1
		c-0.3,0.2-0.5,0.3-0.8,0.4c-0.2,0.1-0.8,0.1-0.5-0.1c0.6-0.3,0.9-0.8,1.1-1.4c-0.2,0.2-1.7,1.5-2.1,0.9c-0.2-0.3,0.5-0.3,0.6-0.4
		c0.4-0.2,0.6-0.6,0.7-0.9c-0.3,0.2-1.9,1.2-2,0.4c0-0.4,0.5-0.5,0.8-0.6c0.5-0.3,0.7-0.8,1.1-1.1c0.4-0.5,1-1.3,1.1-1.9
		c0.1-0.4,0.3-0.1,0.3,0.2c0,0.5,0.2,1.1,0.2,1.6c0.2-0.3,0.5-2.1,0.7-2.1c0.4,0,0.1,2,0,2.3c0.2-0.3,0.8-1.8,1-1.8
		c0.4,0.1-0.2,2-0.3,2.3c0.3-0.4,0.6-0.8,0.8-1.2c0-0.1,0.4-1.2,0.6-1c0.4,0.5-0.2,2.4-0.4,2.9c0.3-0.4,1-2.4,1.6-2.1
		c0-0.3-0.2-0.7-0.1-0.9c-0.4-0.1-0.7-0.3-1.1-0.6c-0.7-0.5-1.4-1.1-2-1.7c-0.6-0.6-1.1-1.2-1.7-1.7c-0.3-0.2-0.6-0.4-0.9-0.5
		c-0.2-0.1-1.1,0-1.1-0.1c-0.2-0.2,2.3-1.1,2.4-1.1c0.8-0.1,1.7-0.2,2.5,0.1c0.7,0.3,1.3,0.8,2,1.2c-0.2-0.4-0.2-0.3-0.5-0.6
		c-0.3-0.3-0.7-0.5-0.8-0.9c-0.2-0.8,0.4-1.5,0.7-2.2c0.1-0.3,0.1-1,0.5-1.1c-0.2-0.4-0.4-0.8-0.5-1.3c-0.1-0.5,0.1-2.9,1-2.6
		c0.5,0.2,0,0.8,0,1.1c0.2,0.4,0.4,0.7,0.8,1c1.1,0.6-0.3,0.6-0.1,1.4c0.2,0.6-0.4,0.6-0.4,1.1c0,0.5,0.1,1,0.2,1.5
		c0.2,0.9,0.3,2.1,1,2.7c0.9,0.7,1.8,0.4,2.8,0.1c0.4-0.1,0.9-0.2,1.3-0.3c0.3-0.1,0.6-0.5,0.9-0.6c0.8-0.3,1.7-0.6,2.3,0.3
		c0.2,0.3,0.6,0.4,0.9,0.8c0.3,0.4,0.3,1,0.4,1.4c0.3,2-0.8,3.7-2.3,4.9c-0.3,0.3-0.6,0.5-0.7,0.9c-0.1,0.3-0.2,0.7-0.6,0.6
		c-0.9-0.2,0.1-1.8,0.4-2.2c-0.4-0.2-0.7-0.7-1.1-0.9c-0.5-0.2-1-0.3-1.5-0.3c-1.2-0.1-2.5,0.2-3.7,0c0.4,1.6-0.6,2.6-1,4.1
		c-0.4,1.7,0.1,3.1,1.3,4.3c0.1-0.3,0.6-1.8,1.1-1.7c0.3,0.1-0.2,0.6-0.2,0.7c-0.1,0.4,0,0.7,0.2,1c0.2-0.6,0.7-1.1,1.1-1.5
		c0.1-0.1,0.9-1.3,1.1-0.7c0.1,0.3-0.6,1.1-0.7,1.4c-0.2,0.5-0.2,1.1-0.2,1.7c0.1-1.1,1-2,1.7-2.8c0.1-0.1,0.2-0.1,0.3,0
		c0.2,0.2-0.1,0.4-0.2,0.5c-0.3,0.5-0.5,1.1-0.5,1.7c0.4-0.5,0.9-0.8,1.2-1.4c0.1-0.2,0.5-0.1,0.4,0.2c-0.2,0.4-0.2,0.8-0.2,1.2
		c1.3-0.6,2.5-1.2,3.7-1.7c0.6-0.2,1.3-0.4,2-0.5c0.2,0,2.4,0,2.3,0.3c0,0-1.3,0-1.5,0.1c-0.6,0.3-1.2,0.7-1.8,1.2
		c-1,0.8-1.8,1.6-2.7,2.5c-2.1,2-4.4,3.2-7.3,3.4c-2.7,0.2-5.2-0.8-7.9-1c-2.7-0.2-5.5,0.5-7.7,2.1c0.5,0.2,1.2,0.6,1.4,1.1
		c0.2,0.4-1,1-1.3,1.1c-1.4,0.5-2.6,1.3-3.7,2.3c-1.2,1.2-2,2.5-3.2,3.7c-0.7,0.7-1.3,1.1-2.3,1.4c-0.9,0.2-1.7,0.2-2.6,0.2
		c0.8,0.5,2.1,0.1,2.5,1.1c0.3,0.8-1.2,2.2-1.8,2.6c-2.1,1.4-4.9,0.9-6.9,2.5c1.7-0.4,3.5,0.2,5.2,0.4c1.8,0.1,3.8-0.6,5.3-1.5
		c0.6-0.5,1.5-0.9,2.2-1.1c0.1,0,2-0.8,1.8-0.3c-0.3,0.6-1.3,0.9-1.9,1.4c-0.7,0.6-1.3,1.5-2,2.2c-1.4,1.3-2.4,2.8-3.8,4.1
		c-1.5,1.4-3.3,2.2-5.4,2.2c-0.9,0-1.8,0-2.7-0.1c-0.8-0.2-1.6-0.6-2.4-0.7c-1.8-0.2-3.6-0.1-5,1.1c1.5,0.7,0.9,2.6-0.3,3.3
		c-0.3,0.2-0.7,0.2-1.1,0.2c-0.2,0-0.4,0-0.6,0c0,0.1-0.1,0.3-0.2,0.4c-0.1,0.6,0.5,1.5,0.2,2c0.8-0.4,1.5-1.7,2.1-2.4
		c0.9-1,1.9-1.7,3-2.3c1.2-0.7,2.4-1.4,3.8-1.2c0.5,0.1,3.2,0.5,2.8,1.5c0.4,0,3.2,1.1,2.2,1.8c-0.4,0.2-0.8-0.5-1.1-0.7
		c-0.6-0.4-1.4-0.3-2,0.1c-1.1,0.6-2.1,1.7-2.7,2.8c-0.3,0.6-0.5,1.2-0.8,1.8c-0.2,0.5,0.6,0.8,1,1.1c0.4,0.3,0.8,0.7,0.9,1.2
		c0.1,0.3,0.1,0.6,0,0.9c-0.1,0.4,0,0.4,0.5,0.5c1.3,0.5,2.2,0.4,2.9-0.8c0.3-0.4,0.5-1,0.9-1.3c0.3-0.2,1.1-0.8,1.1-0.1
		c0,0.3-0.6,0.6-0.7,0.9c-0.4,0.7,0.3,1,0.4,1.7c0.6-0.1,1.3-0.5,1.7-0.9c0.4-0.3,0.6-1.1,1-1.3c0.3-0.1,1,0.2,1.2,0.5
		c0.3,0.5,0.1,1.5-0.2,2c1.3-0.9,2-1.9,2.6-3.4c0.2-0.5,0.3-1.9,1-1.1c0.6,0.6,0,2.1-0.2,2.7c0.5-0.4,1.1-0.6,1.5-1
		c0.3-0.6,0.6-1.1,0.7-1.8c0-0.4,0.1-1.2,0.7-1c0.6,0.2,0.2,1.1,0.1,1.5c0.6-0.5,1.3-0.9,1.8-1.6c0.5-0.8,0.4-1.7,0.6-2.6
		c-0.8,0.7-2,1.3-3,1.8c-1.3,0.6-2.7,1-4.1,1.3c-0.8,0.2-1.5,0.3-2.3,0.4c-0.3,0.1-0.1-0.2,0-0.3c0.4-0.1,0.8-0.2,1.2-0.4
		c0.5-0.2,1.1-0.7,1.5-1c0.1-0.1,1.1-1.2,1-1.2c0.1,0.1-0.3,1-0.4,1.1c0.7-0.5,1.3-1.1,1.9-1.7c0.2-0.2,1.4-0.9,1.4-1.1
		c-0.2,0.6-0.7,1.3-1.1,1.9c0.3-0.2,2.6-2.7,2.4-2.8c0.1,0-0.6,1.8-0.7,2c0.9-0.7,1.4-1.6,1.9-2.6c0.1-0.2,0.5-1.3,0.8-1.2
		c0.4,0.1-0.1,1.6-0.2,1.8c0.8-1.1,1.7-2.1,2.4-3.3c0.1-0.1,0.5-0.9,0.7-0.6c0.2,0.4-0.1,1.2-0.3,1.6c-0.4,1-1.1,1.8-1.7,2.7
		c-0.2,0.3-0.4,0.5-0.6,0.8c-0.3,0.3-0.2,0.7-0.2,1.2c0,0.8,0,1.6-0.3,2.3c1.1-0.5,1.9-0.9,2.6-2c0.8-1.2,1.3-2.5,1.5-4
		c0.1-0.4-0.1-1.5,0.2-1.8c0.5-0.5,0.4,1.1,0.4,1.2c0,1.5,0,2.8-0.7,4.2c1.2-0.8,2.7-1.3,3.3-2.8c0.3-0.7,0-2.8,1-2.8
		c0.6,0,0.6,0.5,0.7,1c0.7,0.3,1.3,0.6,1.7,1.2c1,1.1,1.2,2.7,1,4.1c0.9-0.7,1.4-2,1.4-3.1c0-0.5-0.3-1.2-0.2-1.6
		c0.1-0.3,0.6-0.4,0.9-0.2c0.5,0.5,0.9,1.3,1.3,1.9c0.7,1,1.6,1.8,2.8,2.4c2.3,1,4.7,1.5,6.9,2.8c0.4,0.3,2.2,1.6,1.3,2.1
		c-0.5,0.3-0.7-0.3-1-0.6c-0.4-0.5-0.9-0.8-1.5-1c0,1.1-1.6,1.6-2.5,1.8c-1.1,0.2-2.2-0.1-3.3-0.5c-2.3-0.8-4.5-1.8-7-1.5
		c-2.9,0.3-5.3,2.6-5.8,5.5c-0.4,2.2-0.1,4.4,0,6.5c0.2,2.6,0.1,5.4-0.7,7.8c-0.7,2.1-2.2,4.8-4.4,5.6c-2.8,1-4.2-1.8-5.4-3.6
		c-0.9-1.3-2.5-1.7-4-1.3c0.6,0.5,0,1.6-0.3,2.1c1.1-0.4,2.1-0.6,3.2-0.2c0.7,0.3,1.3,0.8,1.8,1.5c0.2,0.2,0.1,0.6-0.2,0.7
		c-0.4,0.2-0.6-0.2-0.8-0.4c-2.4-2.6-5.9,1.6-8,2.6c0.4,0.5,0.7,1,0.8,1.6c0,0.3-0.3,1.6,0,1.5c0.2-0.1,0.7-1,0.9-1.2
		c0.5-0.5,1-0.8,1.5-1.2c1.1-0.8,2.1-1.5,3.4-2.1c1.4-0.6,2.6,0.2,3.6,1.2c0.2,0.2,0.6,0.6,0.4,0.9c-0.1,0.3-1.3-0.7-1.4-0.8
		c-1.3-0.9-2.5-0.2-3.6,0.5c-0.6,0.4-1.1,0.9-1.7,1.4c-0.5,0.4-1.1,0.7-1.5,1.2c-0.8,0.9-1.8,2-1.8,3.3c0.8-0.8,2.6-1.9,3.5-0.6
		c0.2,0.3,0.2,0.7,0.5,1c0.2,0.3,0.4,0.7,0.6,1.1c0.1,0.4,0.2,0.8,0.2,1.1c0,0.4-0.4,0.8,0.1,0.9c-0.3-1.2,0.3-2.5,0.9-3.4
		c0.7-1.1,1.4-2.3,2.3-3.1c0.5-0.9,1.4-2.2,2.5-2.4c1.2-0.2,2.3,0.5,3.1,1.3c0.3,0.3,0.1,0.8-0.3,0.8c-0.5,0-1-0.7-1.4-0.9
		c-1.2-0.5-2.2,0.2-2.9,1.2c-0.8,1-1.4,2.1-2,3.2c-0.4,0.8-1.4,2.5-0.5,3.2c0.4-0.3,0.6-0.5,1-0.7c0.7-0.3,1.3,0,2-0.2
		c1.2-0.2,1.9,1.6,2,2.5c0.2-0.1,0.1,0,0.2-0.3c0.1-0.3,0.5-0.6,0.8-0.8c0.5-0.5,1-1,1.2-1.6c0.1-0.3,0.2-1.7,0.5-1.7
		C69.8,112.2,69.5,114.1,69.5,114.4 M92.5,50.3c1.2,0.7,2.6,0.9,3.9,0.2c1-0.5,1.5-1.4,2.1-2.3c0.7-1,1.8-1.7,2.9-2
		c1.3-0.4,2.6-0.2,3.9-0.5c1.9-0.4,3.9-2.1,4.2-4c0.2-1,0.1-2.1,0.1-3.2c0-0.6,0.1-1.2,0.1-1.8c0-0.2,0.1-0.3,0.3-0.3
		c0.3,0,0.3,0.4,0.3,0.6c0,2.3,0.4,4.7-0.8,6.8c-1.1,1.9-3.2,3.7-5.4,4.1c-1,0.2-2.1,0.1-3.1,0.5c-1.3,0.4-2,1.3-2.8,2.3
		c-0.7,0.9-1.9,1.5-3,1.3c-0.6-0.1-1.1-0.4-1.7-0.7c-0.3-0.2-0.6-0.4-0.9-0.5C92.7,50.7,92.2,50.1,92.5,50.3 M114.4,23.8
		c1.2-1,1.3-2.5,1.4-4c0-0.7-0.2-1.6,0-2.2c0.1-0.2,0.3-0.3,0.5-0.3c0.3,0.1,0.3,0.4,0.4,0.7c0.1,0.8,0.5,1.5,0.4,2.3
		c-0.1,0.7-0.2,1.4-0.5,2.1c-0.3,0.6-0.8,1.2-1.3,1.6c-0.2,0.2-0.5,0.6-0.8,0.5C114.2,24.3,114.2,24,114.4,23.8 M90.7,25.4
		c0.8-0.8,2-1.5,3.2-1.2c0.6,0.1,2.5,1.1,2,2c-0.6,1-1.9-0.6-2.5-0.8c-0.5-0.2-1.1-0.3-1.6-0.2c-0.3,0.1-0.5,0.2-0.7,0.3
		C91.1,25.5,90.4,25.7,90.7,25.4 M96.8,29.8c0,0.4,0,0.7,0.1,1.1c0.3,0,0.7-0.1,0.9,0.1c0.4,0.3,0.1,0.9-0.4,0.9
		c-0.4,0-1.4,0-1.4-0.6c0-0.4,0.2-0.7,0.3-1c0.1-0.2,0.1-0.4,0.2-0.6C96.6,29.6,96.9,29.6,96.8,29.8 M92.8,36.8
		c1.3,0,2.5-0.4,3.1-1.7c0.2-0.5,0.7-1.3,0.7-1.8c0-0.5,0.3,0.2,0.3,0.3c0,0.3,0.2,0.6,0.2,1c-0.1,1.2-1,2.3-2,2.9
		c-0.6,0.4-1.3,0.1-1.9,0.1c-0.3,0-0.6,0-0.7-0.3C92.4,37.1,92.6,36.8,92.8,36.8 M102.1,21.9c0,1.7-2.6,2.4-3.6,1.2
		c1.2,2.2,4.8,1,5.5-1C103.4,22.2,102.7,22.1,102.1,21.9 M99.5,22.2c0.5,0.3,0.9,0.1,1.1-0.4c-0.2-0.1-0.3-0.3-0.5-0.4
		C99.9,21.7,99.7,22,99.5,22.2 M105.8,20.5c-0.1,0.1-0.2,0.6-0.2,0.8c-0.2,0.5-0.5,0.9-0.6,1.3c-0.5,1.3-1.8,2.2-3.2,2.4
		c0.5,0.4,0.7,0.9,0.9,1.5c0.2,0.7-1-0.4-1.1-0.4c0,0.2,0.4,2,0.1,1.9c0,0-0.3-0.8-0.3-0.9c-0.2-0.3-0.6-0.6-0.9-0.9
		c0,0.3,0.1,1.6-0.1,1.7c-0.3,0.1-0.3-1-0.4-1.1c-0.3-1-0.8-2.1-1.4-2.9c-0.1-0.2-0.4-0.4-0.4-0.6c-0.3,0-0.6,0-0.9,0
		c-0.2,0-1.7-0.5-1.3-0.9c0.2-0.2,1.1,0.1,1.4,0.1c0.7,0,1.2-0.3,1.6-0.8c0.7-0.9,1.3-1.9,2.3-2.5c0.8-0.4,2.4-0.7,3.3-0.3
		c0.2,0.1,0.9,0.5,0.6,0.8c-0.1,0.1-1.1-0.2-1.4-0.3c-1.3-0.2-2.4,0.4-3.1,1.4c1.1,0.2,2.2,0.4,3.3,0c0.4-0.1,0.8-0.2,1.2-0.4
		C105.2,20.4,106.2,19.9,105.8,20.5 M77.5,20.8c-0.4,0-0.3-0.3-0.6,0c-0.2,0.2-0.3,0.4-0.5,0.7C77,21.8,77.2,21.4,77.5,20.8
		 M80.8,21.4c-0.6,0.1-1.3,0-1.9-0.2c0,1.7-2.5,2.3-3.6,1.2C76.6,24.6,80.1,23.4,80.8,21.4 M77.5,20.1c0.8,0.1,1.6,0.3,2.4,0.2
		c0.5-0.1,1.5-0.6,2-0.3c0.2,0.2,0.3,0.4,0.3,0.7c0,0.1-0.1,0.3-0.2,0.4c0.1,0.2,0.1,0.3,0,0.5c-0.3,0.7-0.5,1.3-1.1,1.8
		c-1.3,1-3,1.3-4.5,0.7c-0.6-0.3-1-0.8-1.4-1.4c-0.2-0.2-0.8-0.1-1.2-0.2c-0.5-0.1-0.6-0.4-1-0.5c-0.5-0.2,0.3-0.2,0.4-0.2
		c0.4,0,0.7,0.1,1,0.1c0.8,0,1.3-0.4,1.8-1c0.8-1.2,1.8-2.4,3.4-2.6c0.6-0.1,1.5-0.2,2.1,0c0.2,0.1,0.6,0.3,0.7,0.5
		c0.1,0.4-0.4,0.3-0.5,0.2c-0.5-0.3-1.5-0.3-2-0.2C78.6,18.8,78,19.4,77.5,20.1 M74.2,25.5c0.6,1,1.5,1.9,2.1,2.9
		c0.6,1.1,0.8,2.3,0.6,3.6c-0.1,1-0.5,2-1.2,2.8c-0.3,0.3-2.6,2.2-3,1.6c-0.2-0.3,2-1.7,2.3-2c0.7-0.9,0.7-2.1,0.8-3.2
		c0-1.2,0-2.3-0.5-3.4c-0.2-0.5-0.5-1.1-0.9-1.5c-0.1-0.2-0.4-0.3-0.5-0.5C73.7,25.5,74.1,25.3,74.2,25.5 M97.5,52.7
		c0.7-0.3,1.1-0.8,1.5-1.4c0.5-0.8,1.1-1.3,1.9-1.7c0.8-0.3,1.7-0.4,2.6-0.6c0.4-0.1,1.7-0.9,1.7,0.1c0,0.7-1.4,0.8-1.9,0.9
		c-0.9,0.2-1.9,0.3-2.7,0.9c-0.7,0.5-1.2,1.2-1.9,1.7c-0.3,0.3-0.7,0.5-1,0.6C97.4,53.4,97.2,52.9,97.5,52.7 M112.3,23.5
		c-0.4,0.5-0.7,1.6-0.4,2.2c0.5,0.9,0.9,0,1.2-0.4c0.1-0.2,0.8-0.9,0.6-0.2c-0.1,0.5-0.5,1.1-0.9,1.5c-0.4,0.5-1.1,0.6-1.6,0.3
		c-0.6-0.4-0.7-1.3-0.6-2c0-0.8,0.3-1.5,0.8-2.1C111.9,22.3,112.8,22.9,112.3,23.5 M110.3,25.4c-0.2,1.5,0.1,3.2,0.4,4.7
		c0.4,1.6,1.1,3.2,1.3,4.9c0.2,1.7,0.4,3.4,0.1,5.1c-0.1,0.8-0.4,1.5-0.7,2.2c-0.2,0.4-0.4,0.8-0.6,1.2c-0.1,0.3-0.5,0.1-0.4-0.2
		c1.4-2.8,0.9-6.6,0-9.5c-0.5-1.6-1.1-3.4-1.2-5c0-0.8,0-1.7,0.2-2.5c0.1-0.3,0.1-0.9,0.3-1.1C110,25,110.3,25.2,110.3,25.4
		 M69.2,22.2c0.5,0,2.6-1.9,2.6-0.5c0,0.6-1,0.8-1.4,0.8c-0.4,0-0.8,0-1.2,0C68.9,22.5,69,22.1,69.2,22.2 M70,23.1
		c0.5-0.1,0.8-0.7,1.4-0.7c0.4,0,0.7,0.4,0.6,0.8c-0.2,0.5-1,0.5-1.4,0.6c-0.2,0-0.5,0.2-0.7,0C69.6,23.5,69.7,23.2,70,23.1
		 M71.4,23.8c0.5-0.1,0.9-0.7,1.4-0.4c0.4,0.3,0.4,0.9,0,1.1c-0.4,0.2-1.2,0.5-1.5,0.2C70.8,24.5,70.9,23.9,71.4,23.8 M73,55.6
		c1.5-0.5,2.5-1.6,3.6-2.6c0.5-0.4,3.3-2.1,3.6-0.8c0.2,0.7-0.7,0.7-1.1,0.7c-0.8,0-1.6,0.3-2.3,0.7c-0.7,0.4-1.3,0.9-1.9,1.3
		c-0.4,0.3-0.8,0.5-1.2,0.7c-0.2,0.1-0.4,0.2-0.6,0.2C72.9,55.9,72.8,55.6,73,55.6 M68.9,61.3c1.3-1,2.2-2.5,3.8-3.1
		c0.9-0.3,1.8-0.3,2.6-0.9c0.3-0.2,1.4-1.2,1.4-0.2c0,0.6-1.2,1.2-1.7,1.4c-0.8,0.4-1.7,0.5-2.6,0.9c-0.7,0.4-1.3,1-2,1.5
		c-0.3,0.3-0.6,0.5-1,0.7c-0.1,0.1-0.3,0.2-0.5,0.2C68.8,61.7,68.7,61.4,68.9,61.3 M108.3,79.8c0.1,0.9,0.4,1.6,0.3,2.5
		c0,0.4-0.1,2.5-0.8,2.1c-0.4-0.3,0.2-1.9,0.2-2.4C108.1,81.5,107.9,80.3,108.3,79.8C108.3,79.7,108.3,79.7,108.3,79.8 M109.2,82.9
		c0.1,0.6,0.2,1.2,0.2,1.8c0,0.3-0.4,1.2-0.7,0.5c-0.2-0.4,0-1.2,0-1.6c0-0.2-0.1-0.6,0-0.8C108.8,82.6,109.1,82.7,109.2,82.9
		 M112.6,100.8c0.7,1.2,1.3,2.5,1.4,3.9c0,0.6,0.3,3.3-0.9,3c-0.9-0.3-0.1-2.8-0.1-3.5c0-0.7,0-1.3-0.2-2c-0.1-0.4-0.3-0.8-0.5-1.2
		C112.1,100.8,112.4,100.6,112.6,100.8 M120.2,111.9c0.5,1.1,1.3,2.2,2,3.2c0.6,0.7-0.2,0.2-0.6,0c-0.5-0.4-1-0.9-1.3-1.4
		c0.1,2.1,0,4.2-0.3,6.2c-0.2,1.1-0.5,2-0.8,3c-0.2,0.6-0.3,1.8-1.2,1.4c-0.9-0.3-0.2-1.5,0-2.1c0.4-1.1,0.6-2.1,0.8-3.2
		c0.3-2.1,0.4-4.2,0.2-6.4c-0.2-2-1-4.3-2.2-5.9c-0.2-0.3-0.8-1-0.8-1.4c0-0.4-0.3-0.7-0.3-1.1c-0.3-1,1.4-0.7,2-0.7
		c1,0,1.4,0.6,1.3,1.5c0,0.4-0.1,0.8-0.2,1.2c-0.1,0.5,0.1,0.7,0.2,1.1c0,0.4,0.5,0.5,0.7,0.8c0.4,0.3,0.6,0.7,0.9,1.1
		c0.4,0.4,0.3,0.5-0.2,0.2c-0.5-0.2-1-0.3-1.4-0.6c0.2,0.5,1,1,1.4,1.4c0.5,0.5,1.1,1.1,1.6,1.5c0.2,0.2,0.5,0.2,0.4,0.6
		c-0.1,0.3-0.5,0.2-0.7,0.1c-0.6-0.2-1.1-0.7-1.6-1.2C120.1,111.5,120.1,111.7,120.2,111.9 M111.9,102.2c0.2,1,0.3,2,0,2.9
		c-0.1,0.3-0.6,2.2-1.1,1.4c-0.2-0.3,0.2-1,0.3-1.2c0.2-0.5,0.1-1.1,0.1-1.6c0-0.4-0.2-1.3,0.1-1.6
		C111.4,101.7,111.8,101.9,111.9,102.2 M109.8,103.1c0.1,0.6,0.5,1.2,0.3,1.8c-0.1,0.3-0.3,1.2-0.8,0.7c-0.3-0.3,0.1-1.5,0-1.9
		c0-0.2-0.1-0.6,0-0.8C109.5,102.7,109.8,102.8,109.8,103.1 M77.4,105.6c0,0.6,0.1,1.2,0.1,1.7c0.2-0.8,0.4-1.5,0.3-2.3
		c0-0.2-0.2-1.4,0.2-1.2c0.4,0.2,0.5,1.2,0.6,1.6c0.1,0.5,0.2,1,0.1,1.5c0.7-1,0.6-2.4,0.3-3.6c-0.1-0.5,0-1.4,0.2-0.4
		c0.2,0.7,0.5,1.3,0.7,2c0.3-1.1,0.5-2.2,0-3.2c-0.1-0.2-0.6-0.8-0.2-1c0.4-0.2,0.8,0.7,0.9,1c1.1,2,0.7,4-0.6,5.9
		c-0.8,0.7-1.7,1.2-2.7,1.5c-0.4,0.1-0.9,0.3-1.4,0.4c-0.1,0-1.5,0.6-1.2,0c0.2-0.4,0.8-0.3,1.1-0.7c0.3-0.6,0.5-1.2,0.6-1.8
		c0.1-0.4,0-1.2,0.2-1.6C76.9,105.1,77.4,105.2,77.4,105.6 M62.7,58.7c1.3-0.3,2.8-1.4,3.7-2.4c1.3-1.2,2.4-2.6,3.7-3.8
		c1.2-1.1,2.6-1.9,3.9-2.9c0.6-0.5,1.5-0.5,2.3-0.5c0.4,0,2.9,0.3,2.9,0.9c0,0.1-1.8-0.3-2.1-0.3c-1,0-1.9,0.5-2.7,1
		c-1.5,1-2.8,2-4.2,3.1c-1.3,1-2.3,2.5-3.5,3.6c-0.7,0.6-1.5,0.9-2.3,1.2c-0.4,0.1-0.7,0.3-1.1,0.3C63.2,58.8,62.3,58.8,62.7,58.7
		 M63.7,69c1.7,0.4,3.7-0.5,5.1-1.5c0.7-0.5,1.4-0.9,2.1-1.4c0.2-0.2,0.7-0.9,0.9-0.9c0.6-0.1,0,0.7-0.1,0.8c-1,1.4-2.2,2.5-3.8,3.2
		c-0.9,0.4-1.7,0.7-2.7,0.6c-0.5,0-1-0.2-1.5-0.3C63.3,69.4,63.4,68.9,63.7,69 M55.9,75.5c0.6,0.9,1.1,1.9,0.5,3
		c-0.2,0.4-2.1,1.8-2.3,0.8c-0.1-0.5,0.6-0.4,0.8-0.5c0.5-0.3,0.6-0.7,0.6-1.3c0-0.5,0-1-0.2-1.4c-0.1-0.2-0.3-0.4-0.1-0.6
		C55.5,75.3,55.8,75.3,55.9,75.5 M140.2,50.3c-0.5,0.9-0.9,1.9-1.6,2.8c1.7-1.2,2.8-3,3.2-5c0.1-0.6,0.2-1.3,0.4-2
		c0.5-1.2,0.7,0.6,0.7,1c0,2.2-0.5,4.5-2.1,6.1c-1.4,1.4-3.7,2.4-5.7,2.5c-2.1,0.1-4.4-0.8-6.4,0.1c-0.1,0.1-0.9,0.7-0.9,0.4
		c-0.1-0.2,1.1-0.9,1.3-1c0.9-0.5,1.9-0.6,2.9-0.9c0.7-0.2,1.6-0.3,2.3-0.6c1-0.5,1.7-1.3,2.5-2c0.1-0.1,0.8-0.7,0.9-0.4
		c0.1,0.5-0.6,1.3-0.9,1.7c0.7-0.4,1.4-0.9,2-1.5c0.3-0.3,0.6-0.7,0.8-1.1c0.1-0.2,0.2-0.3,0.3-0.4
		C140.1,49.8,140.3,50.1,140.2,50.3 M76.8,35.2c0.4-0.6,0.8-1.1,1.1-1.8c0.1-0.2,0.1-0.6,0.4-0.7c0.2-0.1,0.5,0.1,0.4,0.4
		c-0.1,0.6-0.3,1.1-0.8,1.6c-0.3,0.2-0.5,0.4-0.7,0.7C77,35.6,76.7,35.4,76.8,35.2 M98.7,40.7c1.1-0.7,2-1.5,3-2.3
		c-0.4-0.1-0.9-0.1-1.3-0.2c-0.5-0.1-1.2,0.1-1.7-0.2c-0.6-0.3-0.2-1.8-0.1-2.3c0.1-0.5,0.2-0.9,0.2-1.4c0-0.3,0.5-0.3,0.5,0
		c0,1,0.6,1.8,0.6,2.8c0-1,0.1-2,0.1-2.9c0-0.5-0.3-2.7,0.2-2.9c0.7-0.3,0.6,1.6,0.6,2c0.2,1,0.4,2,0.5,3c0.1-0.7,0-1.6,0.1-2.3
		c0.1-0.5,0.1-1,0-1.5c0-0.4-0.3-1.1-0.1-1.4c0.5-0.9,0.8,1.1,0.8,1.3c0.1,1,0.5,1.9,0.8,2.9c0-0.7,0-1.5-0.1-2.2
		c0-0.7-0.4-1.8-0.2-2.5c0.2-0.8,0.8,0.1,0.8,0.4c0.1,0.8,0.4,1.5,0.6,2.3c0.1-0.6,0.2-1.2,0.2-1.9c0-0.2-0.1-1.6,0.3-1.2
		c0.2,0.2,0.3,1.4,0.4,1.7c0.2,0.5,0.4,1.1,0.7,1.6c0.1-2,0.2-3.9,1-5.8c0-0.1,0.3-1,0.5-0.7c0.1,0.1-0.4,1.1-0.4,1.3
		c-0.2,0.9-0.2,1.9,0,2.8c0.3,1.8,1,3.6,0.9,5.5c-0.1,1.9-1.4,3.4-3,4.3c-1.5,0.8-3.2,1.3-4.7,1.9c-0.8,0.3-1.5,0.7-2.1,1.3
		c-0.3,0.3-0.5,0.7-0.7,1.1c-0.1,0.3-0.6,0.1-0.5-0.2c0.6-1.6,1.7-2.8,3.2-3.6c0.9-0.5,1.8-0.8,2.6-1.4c0.7-0.5,1.4-1.2,2-1.8
		c-1.1,0.4-2.1,1.2-3.2,1.7c-0.6,0.2-1.2,0.5-1.7,0.8c-0.2,0.1-0.6,0.5-0.8,0.4C98.6,41,98.5,40.8,98.7,40.7 M47.6,46.6
		c1.1,0,2.2,0.2,3.3-0.2c0.4-0.1,0.9-0.3,1.1,0.2c0.2,0.5-0.3,0.8-0.7,0.9c-1,0.2-2,0-3-0.2C47.9,47.2,46.3,46.6,47.6,46.6
		 M49.3,48.3c1.1,0.1,2.5-0.1,3.6-0.5c0.4-0.1,0.8,0.1,0.9,0.5c0.1,0.5-0.3,0.7-0.7,0.9c-1.2,0.5-2.3,0.3-3.4-0.1
		c-0.1,0-1.2-0.3-1-0.5C48.8,48.3,49.1,48.3,49.3,48.3 M51.8,50c0.8,0,1.6,0,2.4-0.3c0.3-0.1,0.5-0.4,0.7-0.1
		c0.2,0.3-0.1,0.5-0.3,0.7c-0.5,0.5-1.8,0.4-2.5,0.2C51.7,50.5,50.9,50,51.8,50 M53.6,51.4c0.6-0.1,2.6-1.4,2.9-0.6
		c0.4,1.1-3.1,1.1-3.2,0.8C53.3,51.5,53.4,51.4,53.6,51.4"/>
</g>
<path fill="#EE3224" d="M54.8,101.1c0.3-0.1,0.6,0,0.7,0.2l0.2,0c0.6,0.1,1.2,0,1.6-0.5c0-0.2,0.1-0.3,0.1-0.4
	c0-0.1,0.1-0.1,0.1-0.2c0-0.1-0.1-0.2-0.1-0.3c0,0,0-0.1,0-0.2c-0.2,0.1-0.4,0-0.4-0.2c-1.4-0.1-2.7,0-3.9,0.7
	c-0.5,0.3-0.8,0.5-1.2,0.8c0.3-0.2,0.4-0.2,0.8-0.2l1-0.2C54.1,100.9,54.5,101,54.8,101.1"/>
<path fill="#EE3224" d="M54.1,108.3c0.3-0.6,0.2-1.2-0.1-1.7c-0.1-0.2-0.4-0.2-0.6-0.3c-1,0.3-1.6,0.8-2.2,1.7
	c-0.7,1.1-1.1,1.9-1.2,3.1c0.5-1.1,1.2-1.8,2.4-2.3c0.5-0.2,0.8-0.4,1.4-0.5C53.9,108.2,54,108.2,54.1,108.3"/>
<path fill="#EE3224" d="M38.8,74.9c0.3-0.2,0.7-0.3,1.1-0.4c0.8-0.1,1.6,0.4,2.2-0.2c0.2-0.2,0.4-0.2,0.5-0.4
	c0.1-0.2,0.1-0.3,0.1-0.5c0-0.1,0-0.2,0-0.2c-0.1,0-0.2-0.1-0.3-0.2c-0.4-0.4-0.9-0.1-1.5,0.1C40.1,73.6,39.3,74.1,38.8,74.9"/>
<path fill="#EE3224" d="M92.6,32.9c0.2-0.1,0.3-0.2,0.3-0.4c0.2-0.8,0-1.7-0.7-2.1c-0.7-0.4-1.4-0.5-2.1-0.4c-1.3,0.6-2.6,1-3.7,0.6
	c-0.5-0.1-0.8-0.2-1.3-0.3c-1.3-0.3-1.7-1.3-3-1.6c-0.9-0.3-1.7-0.2-2.5-0.1c0.8,0.3,1.6,0.9,2.3,1.7c1.3,1.4,2.5,2.4,4.4,2.4
	c1.1,0,1.7-0.1,2.8-0.3c1.1-0.2,1.8-0.5,2.8-0.1c0.1,0.1,0.2,0.1,0.4,0.2C92.5,32.7,92.5,32.8,92.6,32.9"/>
<path fill="#EE3224" d="M71.4,31.3c0.2-0.1,0.3-0.2,0.3-0.4c0.1-0.9-0.2-1.8-1-2.2c-0.8-0.4-1.5-0.3-2.1-0.1
	c-1.3,0.8-2.5,1.5-3.7,1.2c-0.5,0-0.9-0.1-1.4-0.1c-1.3-0.2-1.9-1.2-3.2-1.4c-1-0.2-1.7,0-2.5,0.2c0.9,0.2,1.7,0.8,2.6,1.5
	c1.5,1.3,2.8,2.3,4.8,2c1.1-0.1,1.7-0.3,2.8-0.6c1.1-0.3,1.8-0.8,2.8-0.4c0.2,0,0.2,0.1,0.4,0.2C71.3,31.1,71.4,31.2,71.4,31.3"/>
<path fill="#EE3224" d="M46,28.7c0.3,0.5,0.5,1.1,1.1,1.6c0.7,0.5,1.4,0.5,2.1,0.2l0.1-0.1c-0.1-0.7-0.5-1.1-1.2-1.4
	C47.4,28.6,46.8,28.6,46,28.7"/>
<path fill="#EE3224" d="M39.5,32.3c0.2,0,0.3,0.1,0.5,0.2c0.4,0.2,0.6,0.4,0.9,0.6c0.4,0.3,0.6,0.6,0.9,1c0.2,0.2,0.3,0.5,0.6,0.6
	c0.1,0,0.2,0,0.3,0c0.5,0,1-0.2,1-0.6c0-0.1,0-0.2,0.1-0.2c0,0-0.1-0.1-0.1-0.1c-0.5-0.9-1.2-1.2-2.2-1.4c-0.7-0.1-1-0.2-1.7-0.1
	C39.8,32.2,39.6,32.3,39.5,32.3"/>
<path fill="#EE3224" d="M36.3,40.4c0.7-0.2,1.3-0.2,2.1,0c0.9,0.2,1.6,1.3,2.2,0.7c0.3-0.3,0.5-1.1,0-1.2c-0.1,0-0.3-0.1-0.3-0.2
	c-0.3-0.1-0.4-0.3-0.8-0.4c-0.4-0.1-0.7-0.2-1-0.1c-0.7,0.2-1.2,0.2-1.7,0.7C36.6,40.2,36.5,40.3,36.3,40.4"/>
<path fill="#EE3224" d="M38.8,46.1c0.6-0.1,1.2,0.1,1.7,0.5c0.3,0.2,0.4,0.2,0.7,0.3c0.6,0.2,1.3-0.2,1.3-0.9c0-0.2,0.1-0.4,0.3-0.5
	c-0.5-0.8-1.7-0.9-2.5-0.4C39.7,45.6,39.2,45.8,38.8,46.1"/>
<path fill="#EE3224" d="M38.3,83.5c0.2-0.4,0.5-0.7,0.8-1c0.4-0.4,0.6-0.7,1.1-0.9c0.6-0.2,1.1-0.2,1.6-0.6c0.5-0.4,0.5-1.1,0.1-1.6
	c-0.1-0.1-0.2-0.1-0.3-0.2c-0.3,0-0.6,0-0.9,0.2c-0.3,0.2-0.6,0.3-0.9,0.6c-0.4,0.3-0.6,0.5-0.9,0.9C38.4,81.7,38.2,82.4,38.3,83.5"
	/>
<path fill="#EE3224" d="M46.2,85.8c0.2-0.6,0.6-1.1,1-1.7c0.6-0.8,1.4-1.2,1.3-2.3c0-0.4-0.3-0.6-0.7-0.9c-0.1,0-0.1-0.1-0.1-0.1
	c-0.7,0.4-1.1,0.7-1.5,1.5C46,82.8,46,83.1,46,83.7c0,0.5-0.1,0.8,0,1.2C46.1,85.3,46.1,85.5,46.2,85.8"/>
<path fill="#EE3224" d="M54.7,117.5c0.4-0.8,1-1.2,1.8-1.9c0.6-0.5,1.4-0.1,1.9-0.6c0.7-0.7,0.5-1.9-0.1-2.6
	c-0.1-0.1-0.3-0.2-0.4-0.3c-0.1,0-0.2,0-0.3,0c-0.6,0-0.9,0.4-1.3,0.8c-1.2,1.2-2.1,2.5-1.6,4.2C54.6,117.2,54.6,117.3,54.7,117.5"
	/>
<path fill="#EE3224" d="M62.3,120.6c0-0.1,0-0.2,0.1-0.3c0.1-0.3,0.2-0.5,0.3-0.7c0.5-0.8,1.1-1.2,2-1.5c0.5-0.2,0.3-0.8,0.1-1.3
	c-0.1-0.3-0.1-0.6-0.4-0.8c-0.2-0.1-0.4-0.3-0.4-0.4c-0.3,0-0.6,0.1-0.9,0.2c-0.1,0-0.1,0.1-0.2,0.1c-0.2,0.2-0.3,0.3-0.5,0.5
	c-0.5,0.6-0.7,1.1-0.7,1.8c0.1,0.3,0.1,0.5,0.2,0.8C62,119.6,62.1,120.1,62.3,120.6"/>
<path fill="#EE3224" d="M102.1,123.4c0-0.1,0-0.1,0-0.2c0.1-0.7,0.3-1.3-0.1-1.9c-0.1-0.1-0.2-0.3-0.3-0.3c-0.3,0-0.6,0.1-0.8,0.3
	c-1,0.7-1.4,1.3-2,2.3c-0.1,0.2-0.2,0.3-0.3,0.4c0.4-0.3,0.8-0.4,1.3-0.6C100.6,123.2,101.2,123.3,102.1,123.4"/>
<path fill="#EE3224" d="M99.2,132.8c0.3-1.2,0.8-2,1.9-2.4c0.5-0.2,1,0,1.2-0.5c0.4-0.6-0.1-1.3-0.6-1.7c-0.1-0.1-0.2-0.2-0.3-0.3
	l-0.3,0.1c-0.1,0.2-0.2,0.3-0.4,0.2c-0.1,0.1-0.3,0.2-0.4,0.4c-0.1,0.2-0.2,0.3-0.3,0.5C99.4,130.4,99.1,131.5,99.2,132.8"/>
<path fill="#EE3224" d="M105.6,135.8c0.1-0.3,0.3-0.6,0.4-0.9l0.3-0.5c0.3-0.5,0.6-0.7,1.2-1c0.5-0.3,0.8-0.5,1.1-1
	c0-0.2,0-0.3-0.1-0.5c-0.2-0.5-0.5-0.7-1-0.9c-0.2,0-0.3,0-0.4,0c0,0-0.1,0.1-0.1,0.1c-0.1,0.1-0.2,0.1-0.2,0.2
	c-1.3,1-1.2,2.4-1.1,4C105.5,135.4,105.5,135.6,105.6,135.8"/>
<path fill="#EE3224" d="M114.1,133.1c0.3-0.4,0.6-0.8,1.1-1.2c0.5-0.4,1.2-0.4,1.3-1.1c0-0.5-0.1-0.8-0.2-1.2l-0.2-0.4
	c-0.1-0.1-0.1-0.2-0.2-0.3c-0.1,0.1-0.2,0.2-0.3,0.2c-1,0.4-1.7,1.1-1.8,2c0.4,0.3,0.3,0.7,0,1C113.9,132.4,114,132.7,114.1,133.1"
	/>
</svg>
