<?xml version="1.0" encoding="utf-8"?>
<!-- Generator: Adobe Illustrator 13.0.0, SVG Export Plug-In . SVG Version: 6.00 Build 14948)  -->
<!DOCTYPE svg PUBLIC "-//W3C//DTD SVG 1.1//EN" "http://www.w3.org/Graphics/SVG/1.1/DTD/svg11.dtd">
<svg version="1.1" id="Layer_7" xmlns="http://www.w3.org/2000/svg" xmlns:xlink="http://www.w3.org/1999/xlink" x="0px" y="0px"
	 width="390px" height="150px" viewBox="0 0 390 150" enable-background="new 0 0 390 150" xml:space="preserve">
<path fill-rule="evenodd" clip-rule="evenodd" fill="#A5CD39" d="M79,22.4c4.2-1.8,8.1-2.2,11.5-1c-0.5-0.4-1-0.7-1.5-1
	c-3.9-2.1-8.6-1.8-13.7,0.5c-12.8-4.8-24.2-5.3-25.9-1c-0.4,1.1-0.1,2.5,0.8,4C39,22.2,30.7,23.4,29,27.8c-1.4,3.5,1.6,8.3,7.6,13.3
	c-12.7-1.7-21.9-0.1-23.9,5c-2,5.1,3.7,12.5,14.2,19.9c-7.7-0.4-13.2,1.1-14.6,4.6c-1.7,4.4,3.5,10.9,12.9,17.3
	c-1.7,0.5-2.9,1.3-3.3,2.4c-1.4,3.6,4.8,9.6,14.6,14.5c1.3,5.4,3.9,9.4,7.6,11.4c0.5,0.3,1.1,0.5,1.6,0.7c-3-2.3-5-6-6.1-10.7
	c1.1,0.5,2.1,0.9,3.3,1.4c10.8,4.2,20.9,5.5,25.2,3.4c0-0.1,0-0.1,0-0.2c-3.8,2.2-13.4,1.1-23.9-3c-1.6-0.6-3.2-1.3-4.6-2
	c-0.7-3.1-1-6.6-0.9-10.4c2.5,1.2,5.1,2.3,7.8,3.3c2.5,1,5,1.9,7.5,2.7c0.4,4.3,1.7,7.5,4,8.8c0.3,0.2,0.6,0.3,1,0.5
	c-1.8-1.7-2.9-4.7-3.2-8.7c4.1,1.3,8.1,2.2,11.8,2.9c0-0.1,0-0.2,0-0.3c-3.7-0.7-7.7-1.7-11.8-3c-0.1-1.8-0.1-3.8,0.1-6
	c5.2,2.6,9.3,5.5,11.7,8.1c0-0.3,0-0.5,0-0.8c-2.5-2.6-6.6-5.5-11.6-8.1c0.4-4,1.2-8.4,2.5-13.1c3.8,1.4,7.6,2.5,11.2,3.5
	c0-0.1,0.1-0.3,0.1-0.4c-3.6-1-7.3-2.2-11.1-3.6c0.5-1.7,1-3.5,1.6-5.2c3.7,1.6,7.3,3.2,10.5,5c0.1-0.3,0.2-0.7,0.3-1
	c-3.2-1.8-6.7-3.5-10.4-5.1c1.1-3.3,2.5-6.6,4-10c1.1-2.5,2.3-4.8,3.4-7c3.5,1.2,6.8,2.2,10.1,3c0-0.1,0.1-0.2,0.1-0.3
	c-3.2-0.8-6.6-1.9-10-3.1c0.9-1.6,1.7-3.2,2.6-4.7c3.2,1.3,6.2,2.8,9.1,4.2c0.2-0.4,0.4-0.8,0.6-1.1c-2.8-1.5-5.9-2.9-9-4.3
	c2.7-4.4,5.6-8.2,8.4-11.2c3.9,0.9,7.5,1.4,10.4,1.4c0,0,0.1-0.1,0.1-0.1c-2.8,0-6.4-0.4-10.3-1.4c1.3-1.4,2.6-2.7,3.9-3.7
	c2.6,1.3,5.1,2.7,7.3,4c0.2-0.2,0.5-0.5,0.7-0.7c-2.2-1.4-4.6-2.7-7.1-4c3.3-2.4,6.4-3.4,8.8-2.6c-0.3-0.3-0.6-0.5-0.9-0.7
	c-2.6-1.6-6.1-0.6-9.9,2.2c-3.1-1.5-6.3-3-9.8-4.3c-1.3-0.5-2.6-1-3.9-1.4c3-2.6,6-4.6,8.9-6c9.1,3.7,16.1,8.6,18.3,12.5
	c0.1-0.1,0.3-0.2,0.4-0.3C94.6,31.1,87.8,26.2,79,22.4z M33.2,29.9c1.6-4,8.8-5.2,18.7-3.8c2,2.1,5,4.3,8.6,6.5
	c-3.1,3.4-6.1,7.4-8.9,11.8c-4.3-1.2-8.4-2.1-12.2-2.7C34.5,37.1,32,32.9,33.2,29.9z M60.9,32c-3.1-1.9-5.5-3.9-7.1-5.7
	c3.3,0.5,6.8,1.3,10.4,2.4C63.1,29.7,62,30.8,60.9,32z M50.6,45.9c-0.5,0.8-1,1.7-1.5,2.5c-2.3-1.4-4.4-2.8-6.3-4.2
	C45.3,44.7,47.9,45.2,50.6,45.9z M17.7,48.5c1.9-4.8,10.6-6.3,22.4-4.6c2.5,1.8,5.4,3.6,8.5,5.3c-1.3,2.3-2.6,4.8-3.8,7.3
	c-1.8,3.8-3.3,7.7-4.6,11.4c-3.8-0.9-7.4-1.5-10.6-1.8C20.8,59.6,16,53.1,17.7,48.5z M39.8,69.5c-0.3,0.9-0.5,1.7-0.8,2.6
	c-2.1-1.2-4.1-2.4-5.9-3.6C35.2,68.7,37.4,69,39.8,69.5z M16.5,72.6c1.3-3.3,6.5-4.7,13.8-4.3c2.6,1.6,5.3,3.2,8.3,4.8
	c-1.5,5.2-2.5,10.2-3,14.8c-3.5-0.6-6.5-0.7-8.9-0.4C19.2,82,15,76.4,16.5,72.6z M35.6,89.1c-0.1,1.3-0.2,2.6-0.2,3.8
	c-2.3-1.3-4.5-2.6-6.5-3.9C30.7,88.7,33,88.7,35.6,89.1z M36.3,104.1c-8.1-4.4-13.1-9.4-11.8-12.6c0.4-1,1.4-1.8,3-2.2
	c2.4,1.5,5.1,3,7.9,4.5C35.3,97.5,35.6,101,36.3,104.1z M53.7,100.8c-1.8-0.6-3.6-1.2-5.4-2c-3.5-1.4-6.7-2.8-9.8-4.4
	c0-1.6,0.2-3.2,0.3-4.9c3.4,0.7,7.1,1.8,11,3.3c1.4,0.5,2.7,1.1,3.9,1.7C53.6,96.8,53.6,98.9,53.7,100.8z M53.8,93.8
	c-1.5-0.7-3.2-1.4-4.9-2.1c-3.5-1.4-6.8-2.4-10-3.1c0.5-4.4,1.5-9.1,2.9-13.9c3.7,1.8,7.6,3.6,11.8,5.2c0.9,0.3,1.8,0.7,2.7,1
	C55,85.5,54.2,89.9,53.8,93.8z M56.4,80.3c-0.1,0-0.2-0.1-0.3-0.1c-5-2-9.7-4.1-14-6.4c0.3-1.2,0.7-2.4,1.1-3.5
	c4.6,1.1,9.5,2.6,14.5,4.6c0.1,0,0.2,0.1,0.3,0.1C57.4,76.8,56.9,78.6,56.4,80.3z M62.5,63.6c-1.6,3.5-2.9,6.9-4.1,10.3
	c-0.7-0.3-1.4-0.6-2.1-0.9c-4.3-1.7-8.5-3.1-12.6-4.2c1.2-3.5,2.7-7,4.3-10.6c1.2-2.5,2.5-5,3.8-7.3c3.5,1.8,7.2,3.5,11.1,5
	c0.9,0.4,1.8,0.7,2.8,1C64.6,59,63.5,61.3,62.5,63.6z M66,56.5c-0.3-0.1-0.6-0.2-0.9-0.3c-4.6-1.8-8.9-3.8-12.8-5.9
	c0.7-1.1,1.3-2.3,2-3.4c4.2,1.2,8.7,2.7,13.2,4.4c0.4,0.2,0.8,0.3,1.2,0.5C67.7,53.3,66.8,54.8,66,56.5z M69.4,50.5
	c-1.2-0.5-2.4-1-3.7-1.5c-3.6-1.4-7.1-2.6-10.5-3.7c2.7-4.2,5.6-7.9,8.5-11.1c2.1,1,4.3,2,6.6,3c2.4,1,4.8,1.7,7.1,2.4
	C74.8,42.5,72,46.2,69.4,50.5z M74.4,32.1c2.6,1,5,2.1,7.4,3.2c-1.4,1.1-2.8,2.5-4.2,4c-2-0.6-4-1.2-6-2c-2.7-1.1-5.3-2.2-7.6-3.5
	c1.3-1.4,2.6-2.8,4-4C70.1,30.5,72.3,31.3,74.4,32.1z M52.4,24.3c-0.6-1.2-0.8-2.2-0.4-3.1c1.5-3.7,11.1-3.5,22.3,0.3
	c-2.9,1.4-5.9,3.5-8.8,6.2C60.9,26.1,56.5,25,52.4,24.3z"/>
<path fill="#F4F8E1" d="M92.4,62.9c7.8,0.4,13.2-1.1,14.6-4.6c1.7-4.4-3.5-10.9-12.9-17.3c1.7-0.5,2.9-1.2,3.3-2.4
	c0.4-1.1,0.2-2.3-0.6-3.7c-0.1,0.1-0.3,0.2-0.4,0.3c0.7,1.3,0.9,2.4,0.5,3.4c-0.4,1.1-1.5,1.8-3,2.2c-0.7-0.4-1.3-0.9-2-1.3
	c-0.2,0.2-0.5,0.5-0.7,0.7c0.5,0.3,0.9,0.6,1.4,0.9c-0.7,0.1-1.5,0.2-2.3,0.2c0,0-0.1,0.1-0.1,0.1c1,0,1.8-0.1,2.6-0.2
	c9.7,6.2,15.2,12.8,13.5,17.1c-1.3,3.3-6.6,4.7-14.2,4.3c-3.4-2.4-7.4-4.8-11.7-7c-0.2,0.4-0.4,0.7-0.6,1.1c3.6,1.8,7,3.8,10,5.7
	c-3.6-0.4-7.5-1.1-11.8-2.2c0,0.1-0.1,0.2-0.1,0.3c4.4,1.1,8.6,1.8,12.3,2.1c11.2,7.4,17.6,15,15.6,20.2c-1.9,4.9-11.1,6.3-23.5,4.5
	c-3.1-2.6-7-5.2-11.5-7.7c-0.1,0.3-0.2,0.7-0.3,1c3.8,2.1,7.2,4.2,10,6.4c-3.5-0.6-7.1-1.4-11-2.5c0,0.1-0.1,0.3-0.1,0.4
	c4,1.1,7.9,1.9,11.6,2.5c6.5,5.1,10,10.1,8.6,13.6c-1.7,4.2-9.8,5.3-20.7,3.5c-0.4-0.6-0.9-1.2-1.5-1.9c0,0.3,0,0.5,0,0.8
	c0.3,0.3,0.6,0.7,0.8,1c-0.3,0-0.5-0.1-0.8-0.1c0,0.1,0,0.2,0,0.3c0.3,0.1,0.7,0.1,1,0.2c1.1,1.6,1.5,3,1.1,4.2
	c-0.3,0.7-0.8,1.2-1.5,1.6c0,0.1,0,0.1,0,0.2c1-0.5,1.6-1.1,1.9-1.9c0.4-1.1,0.1-2.5-0.8-4c11.2,1.7,19.5,0.5,21.2-3.9
	c1.4-3.5-1.6-8.3-7.6-13.3c12.7,1.7,21.9,0.1,23.9-5C108.6,77.7,102.9,70.3,92.4,62.9z"/>
<g>
	<path fill="#58595B" d="M242.3,87.9c-3.1,2.3-6.2,4-9.3,5.1c-3.1,1.1-6.3,1.7-9.5,1.7c-7.2,0-13.2-2.4-18-7.1
		c-4.8-4.8-7.2-10.7-7.2-17.8c0-7.1,2.4-13,7.2-17.7c4.8-4.7,10.8-7.1,18-7.1c4.5,0,8.5,1,11.9,2.9c3.4,2,6,4.8,7.9,8.5l-37.3,22
		c1.8,3.4,4.2,6.1,7.2,7.9c3,1.9,6.5,2.8,10.2,2.8c3,0,6-0.6,8.9-1.9c2.9-1.3,6.3-3.3,9.9-6.2V87.9z M204.1,73.9l31.4-18.7
		c-1.3-1.6-3-2.9-5.1-3.7c-2-0.8-4.4-1.3-7-1.3c-5.5,0-10.1,1.9-13.9,5.6c-3.8,3.8-5.7,8.4-5.7,13.8c0,0.9,0,1.6,0,2.3
		C204,72.6,204,73.3,204.1,73.9"/>
	<polygon fill="#58595B" points="250.4,94.3 250.4,27 255.8,26.2 255.8,93.6 	"/>
	<path fill="#58595B" d="M271.5,68.8c0,5.4,1.9,10.1,5.8,13.9c3.8,3.8,8.5,5.8,13.9,5.8c5.4,0,10.1-1.9,13.9-5.8
		c3.8-3.8,5.8-8.5,5.8-13.9c0-5.4-1.9-10.1-5.8-13.9c-3.8-3.8-8.5-5.8-13.9-5.8c-5.4,0-10.1,1.9-13.9,5.8
		C273.4,58.8,271.5,63.4,271.5,68.8 M266.2,45.1l5.4-0.7v10.1c2.5-3.4,5.4-6,8.7-7.8c3.3-1.8,7-2.7,10.9-2.7
		c7.1,0,13.1,2.4,17.9,7.1c4.8,4.7,7.2,10.6,7.2,17.7c0,7.1-2.4,13-7.2,17.8c-4.8,4.8-10.8,7.2-17.9,7.2c-4.1,0-7.8-0.9-11.1-2.7
		c-3.3-1.8-6.2-4.5-8.5-7.9v37.7l-5.4,0.7V45.1z"/>
	<path fill="#58595B" d="M323.6,94.2V26.9l5.4-0.7v27.3c2-2.9,4.3-5.1,6.9-6.5c2.6-1.4,5.5-2.2,8.7-2.2c5.2,0,9.3,1.6,12.2,4.8
		c2.9,3.2,4.4,7.7,4.4,13.5v30.4l-5.2,0.7V65.8c0-5.5-1.1-9.6-3.2-12.4c-2.1-2.7-5.3-4.1-9.5-4.1c-3.8,0-7.1,1.4-10,4.3
		c-2.8,2.8-4.2,6.3-4.2,10.3v29.7L323.6,94.2z"/>
	<path fill="#58595B" d="M369.9,31.1l4-4.9l4.1,4.4l-4.1,4.9L369.9,31.1z M371.3,94.3V46.1l5.4-0.7v48.1L371.3,94.3z"/>
	<path fill="#58595B" d="M73.3,116.4c0.5,0.7,1,1.3,1.6,1.7c0.6,0.4,1.3,0.6,2.1,0.6c1,0,1.8-0.3,2.5-0.9c0.6-0.6,1-1.3,1-2.2
		c0-1.5-1.2-2.5-3.7-3.3c-0.3-0.1-0.5-0.1-0.6-0.2c-1.3-0.4-2.2-0.9-2.8-1.6c-0.6-0.7-0.9-1.5-0.9-2.5c0-1.2,0.4-2.2,1.3-3
		c0.9-0.8,2-1.2,3.3-1.2c0.8,0,1.5,0.1,2.2,0.4c0.7,0.3,1.3,0.8,2,1.4l-0.9,1c-0.6-0.6-1.1-1-1.7-1.2c-0.5-0.2-1.1-0.4-1.7-0.4
		c-0.9,0-1.6,0.3-2.2,0.8c-0.6,0.6-0.9,1.2-0.9,2c0,0.5,0.1,0.9,0.4,1.3c0.2,0.4,0.6,0.7,1.1,0.9c0.4,0.2,1,0.4,1.9,0.7
		c0.5,0.1,0.9,0.3,1.2,0.4c1.1,0.4,2,0.9,2.6,1.6c0.6,0.7,0.9,1.5,0.9,2.5c0,1.3-0.5,2.3-1.4,3.2c-0.9,0.9-2.1,1.3-3.5,1.3
		c-1,0-1.9-0.2-2.7-0.7c-0.8-0.5-1.5-1.2-2.1-2L73.3,116.4z"/>
	<path fill="#58595B" d="M83.8,108.4l1.3-0.2v2.4c0.6-0.8,1.3-1.4,2.1-1.8c0.8-0.4,1.6-0.6,2.6-0.6c1.7,0,3.1,0.6,4.2,1.7
		c1.1,1.1,1.7,2.5,1.7,4.2c0,1.7-0.6,3.1-1.7,4.2c-1.1,1.1-2.5,1.7-4.2,1.7c-1,0-1.8-0.2-2.6-0.6c-0.8-0.4-1.5-1.1-2-1.9v6.2
		l-1.3,0.2V108.4z M85.1,114c0,1.3,0.5,2.4,1.4,3.3c0.9,0.9,2,1.4,3.3,1.4c1.3,0,2.4-0.5,3.3-1.4c0.9-0.9,1.4-2,1.4-3.3
		c0-1.3-0.5-2.4-1.4-3.3c-0.9-0.9-2-1.4-3.3-1.4c-1.3,0-2.4,0.5-3.3,1.4C85.5,111.7,85.1,112.8,85.1,114"/>
	<path fill="#58595B" d="M107.2,118.3c-0.7,0.5-1.5,1-2.2,1.2c-0.7,0.3-1.5,0.4-2.3,0.4c-1.7,0-3.1-0.6-4.3-1.7
		c-1.1-1.1-1.7-2.5-1.7-4.2c0-1.7,0.6-3.1,1.7-4.2c1.1-1.1,2.6-1.7,4.2-1.7c1.1,0,2,0.2,2.8,0.7c0.8,0.5,1.4,1.1,1.9,2l-8.8,5.2
		c0.4,0.8,1,1.4,1.7,1.9c0.7,0.4,1.5,0.7,2.4,0.7c0.7,0,1.4-0.1,2.1-0.4c0.7-0.3,1.5-0.8,2.3-1.5V118.3z M98.2,115l7.4-4.4
		c-0.3-0.4-0.7-0.7-1.2-0.9c-0.5-0.2-1-0.3-1.6-0.3c-1.3,0-2.4,0.4-3.3,1.3c-0.9,0.9-1.3,2-1.3,3.3c0,0.2,0,0.4,0,0.5
		C98.2,114.7,98.2,114.8,98.2,115"/>
	<path fill="#58595B" d="M118.5,118.5c-0.6,0.4-1.3,0.8-2,1c-0.7,0.2-1.4,0.4-2.2,0.4c-1.7,0-3.1-0.6-4.2-1.7
		c-1.1-1.1-1.7-2.5-1.7-4.2c0-1.7,0.6-3.1,1.7-4.2c1.1-1.1,2.6-1.7,4.2-1.7c0.8,0,1.5,0.1,2.2,0.3c0.7,0.2,1.3,0.5,1.9,1l-0.8,1
		c-0.6-0.4-1.1-0.6-1.6-0.8c-0.5-0.2-1.1-0.3-1.7-0.3c-1.3,0-2.4,0.5-3.3,1.4c-0.9,0.9-1.4,2-1.4,3.3c0,1.3,0.5,2.4,1.4,3.3
		c0.9,0.9,2,1.4,3.3,1.4c0.5,0,1.1-0.1,1.7-0.3c0.6-0.2,1.1-0.5,1.7-0.9L118.5,118.5z"/>
	<path fill="#58595B" d="M120.2,104.9l0.9-1.2l1,1l-1,1.2L120.2,104.9z M120.5,119.8v-11.4l1.3-0.2v11.4L120.5,119.8z"/>
	<path fill="#58595B" d="M130.7,118.5c-0.4,0.5-0.9,0.8-1.4,1c-0.5,0.2-1.1,0.3-1.6,0.3c-1.1,0-2.1-0.4-2.9-1.2
		c-0.8-0.8-1.2-1.8-1.2-2.9c0-1.1,0.4-2.1,1.2-2.9c0.8-0.8,1.8-1.2,2.9-1.2c0.6,0,1.1,0.1,1.6,0.3c0.5,0.2,1,0.5,1.4,1v-1.4
		c0-0.8-0.2-1.4-0.6-1.7c-0.4-0.4-1-0.6-1.8-0.6c-0.5,0-1,0.1-1.6,0.2c-0.6,0.1-1.2,0.4-1.9,0.7l0.5-1.5c0.6-0.2,1.1-0.3,1.6-0.4
		c0.5-0.1,1-0.1,1.5-0.1c1.2,0,2.1,0.3,2.7,0.9c0.6,0.6,0.9,1.5,0.9,2.7v7.9l-1.3,0.3V118.5z M124.9,115.8c0,0.8,0.3,1.5,0.8,2.1
		c0.6,0.6,1.3,0.8,2.1,0.8c0.9,0,1.5-0.3,2.1-0.8c0.5-0.5,0.8-1.2,0.8-2.1c0-0.9-0.3-1.6-0.8-2.1c-0.5-0.5-1.2-0.8-2-0.8
		c-0.9,0-1.6,0.3-2.2,0.8C125.2,114.3,124.9,115,124.9,115.8"/>
	<polygon fill="#58595B" points="134.4,119.8 134.4,103.9 135.7,103.7 135.7,119.6 	"/>
	<path fill="#58595B" d="M144.3,119.9v-15.7h2.5c1.5,0,2.7,0.4,3.6,1.2c0.9,0.8,1.3,1.9,1.3,3.3c0,1.2-0.3,2.2-1,3
		c-0.7,0.8-1.6,1.3-2.7,1.5l4.7,5.9l-1.2,0.8l-5.9-7.8l1.1,0c1.1,0,2-0.3,2.6-0.9c0.6-0.6,0.9-1.4,0.9-2.4c0-1-0.3-1.8-0.9-2.4
		c-0.6-0.6-1.5-0.9-2.6-0.9h-1.1v14.1L144.3,119.9z"/>
	<path fill="#58595B" d="M153.7,104.9l0.9-1.2l1,1l-1,1.2L153.7,104.9z M154,119.8v-11.4l1.3-0.2v11.4L154,119.8z"/>
	<path fill="#58595B" d="M156.9,118.2l0.9-0.9c0.4,0.5,0.8,0.8,1.3,1c0.5,0.2,1,0.4,1.6,0.4c0.7,0,1.3-0.2,1.7-0.6
		c0.4-0.4,0.7-0.9,0.7-1.5c0-0.5-0.2-1-0.5-1.3c-0.3-0.3-0.9-0.6-1.7-0.8c-1.4-0.4-2.4-0.8-2.9-1.2c-0.5-0.5-0.8-1.1-0.8-2
		c0-0.9,0.3-1.7,1-2.3c0.7-0.6,1.6-0.9,2.7-0.9c0.6,0,1.2,0.1,1.8,0.3c0.6,0.2,1.1,0.5,1.6,0.9l-0.8,1c-0.4-0.4-0.9-0.6-1.3-0.8
		c-0.4-0.2-0.9-0.3-1.3-0.3c-0.7,0-1.3,0.2-1.7,0.5c-0.4,0.4-0.6,0.8-0.6,1.4c0,0.9,0.8,1.5,2.3,1.9c0.3,0.1,0.6,0.1,0.7,0.2
		c1,0.3,1.7,0.7,2.1,1.2c0.5,0.5,0.7,1.2,0.7,1.9c0,1-0.4,1.9-1.1,2.5c-0.7,0.7-1.6,1-2.7,1c-0.8,0-1.5-0.1-2.1-0.4
		C157.9,119.2,157.4,118.8,156.9,118.2"/>
	<path fill="#58595B" d="M166.4,119.9v-16l1.3-0.2v15.9L166.4,119.9z M167.6,114.1l5-5.9l1.1,0.6l-4.3,5.2l4.9,5.1l-1,0.7
		L167.6,114.1z"/>
	<path fill="#58595B" d="M174.3,118.2l0.9-0.9c0.4,0.5,0.8,0.8,1.3,1c0.5,0.2,1,0.4,1.6,0.4c0.7,0,1.3-0.2,1.7-0.6
		c0.4-0.4,0.7-0.9,0.7-1.5c0-0.5-0.2-1-0.5-1.3c-0.3-0.3-0.9-0.6-1.7-0.8c-1.4-0.4-2.4-0.8-2.9-1.2c-0.5-0.5-0.8-1.1-0.8-2
		c0-0.9,0.3-1.7,1-2.3c0.7-0.6,1.6-0.9,2.6-0.9c0.6,0,1.2,0.1,1.8,0.3c0.6,0.2,1.1,0.5,1.6,0.9l-0.8,1c-0.4-0.4-0.9-0.6-1.3-0.8
		c-0.4-0.2-0.9-0.3-1.3-0.3c-0.7,0-1.3,0.2-1.7,0.5c-0.4,0.4-0.6,0.8-0.6,1.4c0,0.9,0.8,1.5,2.3,1.9c0.3,0.1,0.6,0.1,0.7,0.2
		c1,0.3,1.7,0.7,2.1,1.2c0.5,0.5,0.7,1.2,0.7,1.9c0,1-0.4,1.9-1.1,2.5c-0.7,0.7-1.6,1-2.7,1c-0.8,0-1.5-0.1-2.1-0.4
		C175.3,119.2,174.8,118.8,174.3,118.2"/>
	<polygon fill="#58595B" points="190,119.6 190,104.2 191.4,104.1 191.4,118.3 196.9,118.3 196.4,119.6 	"/>
	<path fill="#58595B" d="M197.7,104.9l0.9-1.2l1,1l-1,1.2L197.7,104.9z M198,119.8v-11.4l1.3-0.2v11.4L198,119.8z"/>
	<path fill="#58595B" d="M201.8,119.8v-11.4l1.2-0.2v1.9c0.4-0.7,0.8-1.2,1.4-1.5c0.6-0.4,1.2-0.5,1.8-0.5c0.8,0,1.4,0.2,2,0.6
		c0.6,0.4,1,1,1.3,1.7c0.4-0.7,0.9-1.3,1.5-1.7c0.6-0.4,1.2-0.6,2-0.6c1.1,0,2,0.4,2.6,1.1c0.6,0.8,0.9,1.8,0.9,3.2v7.2l-1.2,0.2
		v-6.7c0-1.3-0.2-2.3-0.6-2.9c-0.4-0.6-1-1-1.9-1c-0.9,0-1.6,0.3-2.1,1c-0.6,0.6-0.8,1.5-0.8,2.5v7l-1.3,0.2v-6.7
		c0-1.3-0.2-2.3-0.6-2.9c-0.4-0.6-1-1-1.9-1c-0.9,0-1.6,0.3-2.1,1c-0.6,0.6-0.8,1.5-0.8,2.4v7L201.8,119.8z"/>
	<path fill="#58595B" d="M218.5,104.9l0.9-1.2l1,1l-1,1.2L218.5,104.9z M218.8,119.8v-11.4l1.3-0.2v11.4L218.8,119.8z"/>
	<path fill="#58595B" d="M227.4,119.6c-0.2,0-0.4,0.1-0.6,0.1c-0.2,0-0.4,0-0.6,0c-1.1,0-1.9-0.3-2.4-0.9c-0.5-0.6-0.7-1.8-0.7-3.5
		v-5.7h-1.6l0.4-1.2h1.3v-2.7l1.3-0.8v3.4h2.9v1.2h-2.9v5.9c0,1.2,0.1,2,0.4,2.4c0.3,0.4,0.8,0.6,1.5,0.6c0.2,0,0.3,0,0.5,0
		c0.2,0,0.4-0.1,0.6-0.1V119.6z"/>
	<path fill="#58595B" d="M238.5,118.3c-0.7,0.5-1.5,1-2.2,1.2c-0.7,0.3-1.5,0.4-2.3,0.4c-1.7,0-3.1-0.6-4.3-1.7
		c-1.1-1.1-1.7-2.5-1.7-4.2c0-1.7,0.6-3.1,1.7-4.2c1.1-1.1,2.6-1.7,4.2-1.7c1.1,0,2,0.2,2.8,0.7c0.8,0.5,1.4,1.1,1.9,2l-8.8,5.2
		c0.4,0.8,1,1.4,1.7,1.9c0.7,0.4,1.5,0.7,2.4,0.7c0.7,0,1.4-0.1,2.1-0.4c0.7-0.3,1.5-0.8,2.3-1.5V118.3z M229.5,115l7.4-4.4
		c-0.3-0.4-0.7-0.7-1.2-0.9c-0.5-0.2-1-0.3-1.6-0.3c-1.3,0-2.4,0.4-3.3,1.3c-0.9,0.9-1.3,2-1.3,3.3c0,0.2,0,0.4,0,0.5
		C229.5,114.7,229.5,114.8,229.5,115"/>
	<path fill="#58595B" d="M250.3,117.4c-0.6,0.8-1.3,1.4-2.1,1.8c-0.8,0.4-1.6,0.6-2.6,0.6c-1.7,0-3.1-0.6-4.2-1.7
		c-1.1-1.1-1.7-2.5-1.7-4.2c0-1.7,0.6-3.1,1.7-4.2c1.1-1.1,2.6-1.7,4.2-1.7c1,0,1.8,0.2,2.6,0.6c0.8,0.4,1.5,1,2,1.9v-6.8l1.2-0.2
		v15.9l-1.2,0.2V117.4z M241,114c0,1.3,0.5,2.4,1.4,3.3c0.9,0.9,2,1.4,3.3,1.4c1.3,0,2.4-0.5,3.3-1.4c0.9-0.9,1.4-2,1.4-3.3
		c0-1.3-0.5-2.4-1.4-3.3c-0.9-0.9-2-1.4-3.3-1.4c-1.3,0-2.4,0.5-3.3,1.4C241.4,111.7,241,112.8,241,114"/>
	<path fill="#58595B" d="M73.1,92.6l34.2-66.4l33.4,66.3l-5.6,1.7l-13.6-26.9H92.4L78.6,94.2L73.1,92.6z M95.3,61.9h23.6L107,38.3
		L95.3,61.9z"/>
	<path fill="#58595B" d="M185.7,84.2c-2.5,3.4-5.4,6-8.8,7.8c-3.4,1.8-7,2.7-10.9,2.7c-7.1,0-13.1-2.4-18-7.2
		c-4.8-4.8-7.2-10.7-7.2-17.7c0-7,2.4-12.9,7.2-17.7c4.8-4.7,10.8-7.1,18-7.1c4.1,0,7.8,0.9,11.1,2.7c3.3,1.8,6.2,4.4,8.5,7.9V26.9
		l5.2-0.7v67.3l-5.2,0.7V84.2z M146.3,69.8c0,5.4,1.9,10.1,5.8,13.9c3.9,3.8,8.5,5.8,13.9,5.8c5.4,0,10.1-1.9,13.9-5.8
		c3.8-3.8,5.8-8.5,5.8-13.9c0-5.4-1.9-10.1-5.8-13.9c-3.8-3.8-8.5-5.8-13.9-5.8c-5.4,0-10.1,1.9-13.9,5.8
		C148.2,59.7,146.3,64.4,146.3,69.8"/>
</g>
</svg>
