<?xml version="1.0" encoding="utf-8"?>
<!-- Generator: Adobe Illustrator 13.0.0, SVG Export Plug-In . SVG Version: 6.00 Build 14948)  -->
<!DOCTYPE svg PUBLIC "-//W3C//DTD SVG 1.1//EN" "http://www.w3.org/Graphics/SVG/1.1/DTD/svg11.dtd">
<svg version="1.1" id="sponsor-logo_bspap" xmlns="http://www.w3.org/2000/svg" xmlns:xlink="http://www.w3.org/1999/xlink" x="0px"
	 y="0px" width="390px" height="150px" viewBox="0 0 390 150" enable-background="new 0 0 390 150" xml:space="preserve">
<g>
	<g>
		<path fill="#80BBC5" d="M193.7,136.4c0.2,0.2,0.2,0.5,0,0.7l-0.3,0.3c-0.2,0.2-0.5,0.2-0.7,0l-6-6c-0.2-0.2-0.2-0.5,0-0.7l0.3-0.3
			c0.2-0.2,0.5-0.2,0.7,0L193.7,136.4"/>
	</g>
	<path fill="#80BBC5" d="M197.4,133.3c-0.1,0.1-0.4,0.2-0.5,0.1l-4.8-2l3.3,3.3c0.2,0.2,0.2,0.5,0,0.7l-0.3,0.3
		c-0.2,0.2-0.5,0.2-0.7,0l-6-6c-0.2-0.2-0.2-0.5,0-0.7l0.2-0.2c0.1-0.1,0.4-0.2,0.5-0.1l4.8,2l-3.3-3.3c-0.2-0.2-0.2-0.5,0-0.7
		l0.3-0.3c0.2-0.2,0.5-0.2,0.7,0l6,6c0.2,0.2,0.2,0.5,0,0.7L197.4,133.3"/>
	<path fill="#80BBC5" d="M198.1,127.5l-2.9-4.7c-0.1-0.2-0.1-0.5,0.1-0.6l0.3-0.3c0.2-0.2,0.6-0.2,0.8,0.1l4.6,7.4
		c0.1,0.2,0.1,0.5-0.1,0.6l-0.2,0.2c-0.2,0.2-0.4,0.2-0.6,0.1l-7.4-4.6c-0.3-0.2-0.3-0.5-0.1-0.8l0.3-0.3c0.1-0.1,0.4-0.2,0.6-0.1
		L198.1,127.5"/>
	<path fill="#80BBC5" d="M198.9,118.5c0.2-0.2,0.5-0.2,0.7,0l0.3,0.3c0.2,0.2,0.2,0.5,0,0.7l-1.5,1.5l1.9,1.9l1.2-1.2
		c0.2-0.2,0.5-0.2,0.7,0l0.3,0.3c0.2,0.2,0.2,0.5,0,0.7l-1.2,1.2l1.9,1.9l1.5-1.5c0.2-0.2,0.5-0.2,0.7,0l0.3,0.3
		c0.2,0.2,0.2,0.5,0,0.7l-2.1,2.1c-0.2,0.2-0.5,0.2-0.7,0l-6-6c-0.2-0.2-0.2-0.5,0-0.7L198.9,118.5"/>
	<path fill="#80BBC5" d="M204.2,122.4c-0.2-0.2-0.2-0.5,0-0.7l0.3-0.3c0.2-0.2,0.5-0.2,0.7,0l0.1,0.1c0.5,0.5,0.8,0.6,1.1,0.6
		c0.2,0,0.4-0.1,0.5-0.3c0.4-0.4,0.5-0.8-0.1-1.4c-0.5-0.5-1.3-0.4-2.2-0.3l0,0c-1.2,0.1-2.4,0.3-3.4-0.7c-1.1-1.1-1.2-2.4-0.1-3.4
		c1.1-1.1,2.3-1,3.6,0.3l0.1,0.1c0.2,0.2,0.2,0.5,0,0.7l-0.3,0.3c-0.2,0.2-0.5,0.2-0.7,0l-0.1-0.1c-0.7-0.7-1.2-0.7-1.6-0.3
		c-0.4,0.4-0.4,0.9,0.1,1.4c0.5,0.5,1.4,0.4,2.2,0.3l0,0c1.2-0.1,2.3-0.3,3.3,0.7c1.1,1.1,1.1,2.3,0.1,3.3c-1.1,1.1-2.3,1-3.6-0.3
		L204.2,122.4"/>
	<path fill="#80BBC5" d="M203.6,114.5c-0.2-0.2-0.2-0.5,0-0.7l2.6-2.6c0.2-0.2,0.5-0.2,0.7,0l0.3,0.3c0.2,0.2,0.2,0.5,0,0.7
		l-0.8,0.8l5.3,5.3c0.2,0.2,0.2,0.5,0,0.7l-0.3,0.3c-0.2,0.2-0.5,0.2-0.7,0l-5.3-5.3l-0.8,0.8c-0.2,0.2-0.5,0.2-0.7,0L203.6,114.5"
		/>
	<path fill="#80BBC5" d="M214.5,115.5c0.2,0.2,0.2,0.5,0,0.7l-0.3,0.3c-0.2,0.2-0.5,0.2-0.7,0l-6-6c-0.2-0.2-0.2-0.5,0-0.7l0.3-0.3
		c0.2-0.2,0.5-0.2,0.7,0L214.5,115.5"/>
	<path fill="#80BBC5" d="M218.3,112.5c-0.1,0.1-0.4,0.2-0.5,0.1l-4.8-2l3.3,3.3c0.2,0.2,0.2,0.5,0,0.7l-0.3,0.3
		c-0.2,0.2-0.5,0.2-0.7,0l-6-6c-0.2-0.2-0.2-0.5,0-0.7l0.2-0.2c0.1-0.1,0.4-0.2,0.5-0.1l4.8,2l-3.3-3.3c-0.2-0.2-0.2-0.5,0-0.7
		l0.3-0.3c0.2-0.2,0.5-0.2,0.7,0l6,6c0.2,0.2,0.2,0.5,0,0.7L218.3,112.5"/>
	<path fill="#80BBC5" d="M219.2,104.9c0.2-0.2,0.5-0.2,0.7,0l1.1,1.1c1.3,1.3,1.4,2.5,0.3,3.6c-1.1,1.1-2.3,1-3.6-0.3l-2.8-2.8
		c-1.3-1.3-1.4-2.5-0.3-3.6c1.1-1.1,2.3-1,3.6,0.3l0.1,0.1c0.2,0.2,0.2,0.5,0,0.7l-0.3,0.3c-0.2,0.2-0.5,0.2-0.7,0l-0.1-0.1
		c-0.5-0.5-0.8-0.6-1-0.6c-0.2,0-0.4,0.1-0.5,0.3c-0.1,0.1-0.3,0.3-0.3,0.5c0,0.3,0.1,0.6,0.6,1c1.6,1.6,2.6,2.6,2.8,2.8
		c0.6,0.6,1.2,0.7,1.6,0.3c0.4-0.4,0.3-0.9-0.3-1.6l-0.4-0.4l-0.3,0.3c-0.6,0.6-1.6-0.4-1-1L219.2,104.9"/>
	<path fill="#80BBC5" d="M226.3,103.8c0.2,0.2,0.2,0.5,0,0.7l-0.3,0.3c-0.2,0.2-0.5,0.2-0.7,0l-6-6c-0.2-0.2-0.2-0.5,0-0.7l0.3-0.3
		c0.2-0.2,0.5-0.2,0.7,0L226.3,103.8"/>
	<path fill="#80BBC5" d="M230,100.8c-0.1,0.1-0.4,0.2-0.5,0.1l-4.8-2l3.3,3.3c0.2,0.2,0.2,0.5,0,0.7l-0.3,0.3
		c-0.2,0.2-0.5,0.2-0.7,0l-6-6c-0.2-0.2-0.2-0.5,0-0.7l0.2-0.2c0.1-0.1,0.4-0.2,0.5-0.1l4.8,2l-3.3-3.3c-0.2-0.2-0.2-0.5,0-0.7
		l0.3-0.3c0.2-0.2,0.5-0.2,0.7,0l6,6c0.2,0.2,0.2,0.5,0,0.7L230,100.8"/>
	<path fill="#80BBC5" d="M234,93.1l-1,1l1.2,1.9c0.1,0.2,0.1,0.5-0.1,0.6l-0.3,0.3c-0.2,0.2-0.6,0.2-0.8-0.1l-1.6-2.6l-3-4.8
		c-0.1-0.2-0.1-0.5,0.1-0.6l0.2-0.2c0.2-0.1,0.4-0.2,0.6-0.1l7.3,4.6c0.3,0.2,0.3,0.5,0.1,0.8l-0.3,0.3c-0.2,0.1-0.4,0.2-0.6,0.1
		L234,93.1 M232.2,92.9l0.6-0.6c-0.6-0.4-0.8-0.7-1.9-1.3L232.2,92.9z"/>
	<path fill="#80BBC5" d="M232.6,88.7c-0.8-0.8-1-1.5-1-2.1c0-0.6,0.3-1.1,0.7-1.5c0.4-0.4,0.9-0.7,1.5-0.7c0.6,0,1.3,0.3,2.1,1
		l0.1,0.1c0.2,0.2,0.2,0.5,0,0.7l-0.3,0.3c-0.2,0.2-0.5,0.2-0.7,0l-0.1-0.1c-0.7-0.7-1.2-0.7-1.6-0.3c-0.4,0.4-0.3,0.9,0.3,1.6
		l2.8,2.8c0.7,0.7,1.2,0.8,1.6,0.3c0.2-0.2,0.3-0.4,0.3-0.6c0-0.3-0.3-0.6-0.6-1l-0.1-0.1c-0.2-0.2-0.2-0.5,0-0.7l0.3-0.3
		c0.2-0.2,0.5-0.2,0.7,0l0.1,0.1c0.8,0.8,1,1.4,1,2.1c0,0.6-0.3,1.1-0.7,1.5c-0.4,0.4-0.9,0.7-1.5,0.7c-0.6,0-1.3-0.2-2.1-1
		L232.6,88.7"/>
	<path fill="#80BBC5" d="M234.5,83.6c-0.2-0.2-0.2-0.5,0-0.7l2.6-2.6c0.2-0.2,0.5-0.2,0.7,0l0.3,0.3c0.2,0.2,0.2,0.5,0,0.7l-0.8,0.8
		l5.3,5.3c0.2,0.2,0.2,0.5,0,0.7l-0.3,0.3c-0.2,0.2-0.5,0.2-0.7,0l-5.3-5.3l-0.8,0.8c-0.2,0.2-0.5,0.2-0.7,0L234.5,83.6"/>
	<path fill="#80BBC5" d="M245.5,84.6c0.2,0.2,0.2,0.5,0,0.7l-0.3,0.3c-0.2,0.2-0.5,0.2-0.7,0l-6-6c-0.2-0.2-0.2-0.5,0-0.7l0.3-0.3
		c0.2-0.2,0.5-0.2,0.7,0L245.5,84.6"/>
	<path fill="#80BBC5" d="M245.6,79.9l-2.9-4.7c-0.1-0.2-0.1-0.5,0.1-0.6l0.3-0.3c0.2-0.2,0.6-0.2,0.8,0.1l4.6,7.4
		c0.1,0.2,0.1,0.5-0.1,0.6l-0.2,0.2c-0.2,0.2-0.4,0.2-0.6,0.1l-7.4-4.6c-0.3-0.2-0.3-0.5-0.1-0.8l0.3-0.3c0.1-0.1,0.4-0.2,0.6-0.1
		L245.6,79.9"/>
	<path fill="#80BBC5" d="M246.5,70.9c0.2-0.2,0.5-0.2,0.7,0l0.3,0.3c0.2,0.2,0.2,0.5,0,0.7l-1.5,1.5l1.9,1.9l1.2-1.2
		c0.2-0.2,0.5-0.2,0.7,0l0.3,0.3c0.2,0.2,0.2,0.5,0,0.7l-1.3,1.2l1.9,1.9l1.5-1.5c0.2-0.2,0.5-0.2,0.7,0l0.3,0.3
		c0.2,0.2,0.2,0.5,0,0.7l-2.1,2.1c-0.2,0.2-0.5,0.2-0.7,0l-6-6c-0.2-0.2-0.2-0.5,0-0.7L246.5,70.9"/>
	<path fill="#80BBC5" d="M258.7,71.4c0.2,0.2,0.2,0.5,0,0.7l-2.1,2.1c-0.2,0.2-0.5,0.2-0.7,0l-6-6c-0.2-0.2-0.2-0.5,0-0.7l0.3-0.3
		c0.2-0.2,0.5-0.2,0.7,0l5.3,5.3l1.5-1.5c0.2-0.2,0.5-0.2,0.7,0L258.7,71.4"/>
	<path fill="#80BBC5" d="M260.2,69.9c0.2,0.2,0.2,0.5,0,0.7l-0.3,0.3c-0.2,0.2-0.5,0.2-0.7,0l-6-6c-0.2-0.2-0.2-0.5,0-0.7l0.3-0.3
		c0.2-0.2,0.5-0.2,0.7,0L260.2,69.9"/>
	<path fill="#80BBC5" d="M257,60.4c0.2-0.2,0.5-0.2,0.7,0l0.3,0.3c0.2,0.2,0.2,0.5,0,0.7l-1.5,1.5l1.9,1.9l1.1-1.1
		c0.2-0.2,0.5-0.2,0.7,0l0.3,0.3c0.2,0.2,0.2,0.5,0,0.7l-1.1,1.1l2.5,2.5c0.2,0.2,0.2,0.5,0,0.7l-0.3,0.3c-0.2,0.2-0.5,0.2-0.7,0
		l-6-6c-0.2-0.2-0.2-0.5,0-0.7L257,60.4"/>
	<path fill="#80BBC5" d="M260.6,56.8c0.2-0.2,0.5-0.2,0.7,0l0.3,0.3c0.2,0.2,0.2,0.5,0,0.7l-1.5,1.5l1.9,1.9l1.2-1.2
		c0.2-0.2,0.5-0.2,0.7,0l0.3,0.3c0.2,0.2,0.2,0.5,0,0.7l-1.2,1.2l1.9,1.9l1.5-1.5c0.2-0.2,0.5-0.2,0.7,0l0.3,0.3
		c0.2,0.2,0.2,0.5,0,0.7l-2.1,2.1c-0.2,0.2-0.5,0.2-0.7,0l-6-6c-0.2-0.2-0.2-0.5,0-0.7L260.6,56.8"/>
	<path fill="#80BBC5" d="M265.9,60.8c-0.2-0.2-0.2-0.5,0-0.7l0.3-0.3c0.2-0.2,0.5-0.2,0.7,0l0.1,0.1c0.5,0.5,0.8,0.6,1.1,0.6
		c0.2,0,0.4-0.1,0.5-0.3c0.4-0.4,0.5-0.8-0.1-1.4c-0.5-0.5-1.3-0.4-2.2-0.3l0,0c-1.2,0.1-2.4,0.3-3.4-0.7c-1.1-1.1-1.2-2.4-0.1-3.4
		c1.1-1.1,2.3-1,3.6,0.3l0.1,0.1c0.2,0.2,0.2,0.5,0,0.7l-0.3,0.3c-0.2,0.2-0.5,0.2-0.7,0l-0.1-0.1c-0.7-0.7-1.2-0.7-1.6-0.3
		c-0.4,0.4-0.4,0.9,0.1,1.4c0.5,0.5,1.4,0.4,2.2,0.3l0,0c1.2-0.1,2.3-0.3,3.3,0.7c1.1,1.1,1.1,2.3,0.1,3.3c-1.1,1.1-2.3,1-3.6-0.3
		L265.9,60.8"/>
	<path fill="#80BBC5" d="M265.2,52.9c-0.2-0.2-0.2-0.5,0-0.7l2.6-2.6c0.2-0.2,0.5-0.2,0.7,0l0.3,0.3c0.2,0.2,0.2,0.5,0,0.7l-0.8,0.8
		l5.3,5.3c0.2,0.2,0.2,0.5,0,0.7l-0.3,0.3c-0.2,0.2-0.5,0.2-0.7,0l-5.3-5.3l-0.8,0.8c-0.2,0.2-0.5,0.2-0.7,0L265.2,52.9"/>
	<path fill="#80BBC5" d="M272.6,48.9l-1-2.6c0-0.1,0-0.4,0.1-0.5l0.3-0.3c0.3-0.3,0.7-0.2,0.8,0.2l1.7,4.3l2.9,2.9
		c0.2,0.2,0.2,0.5,0,0.7l-0.3,0.3c-0.2,0.2-0.5,0.2-0.7,0l-2.9-2.9c-1.4-0.6-2.8-1.1-4.3-1.7c-0.4-0.1-0.4-0.5-0.2-0.8l0.3-0.3
		c0.1-0.1,0.4-0.2,0.5-0.1L272.6,48.9"/>
	<path fill="#80BBC5" d="M282,48.1c0.2,0.2,0.2,0.5,0,0.7l-2.1,2.1c-0.2,0.2-0.5,0.2-0.7,0l-6-6c-0.2-0.2-0.2-0.5,0-0.7l0.3-0.3
		c0.2-0.2,0.5-0.2,0.7,0l5.3,5.3l1.5-1.5c0.2-0.2,0.5-0.2,0.7,0L282,48.1"/>
	<path fill="#80BBC5" d="M278.7,38.7c0.2-0.2,0.5-0.2,0.7,0l0.3,0.3c0.2,0.2,0.2,0.5,0,0.7l-1.5,1.5l1.9,1.9l1.3-1.3
		c0.2-0.2,0.5-0.2,0.7,0l0.3,0.3c0.2,0.2,0.2,0.5,0,0.7l-1.2,1.2l1.9,1.9l1.5-1.5c0.2-0.2,0.5-0.2,0.7,0l0.3,0.3
		c0.2,0.2,0.2,0.5,0,0.7l-2.1,2.1c-0.2,0.2-0.5,0.2-0.7,0l-6-6c-0.2-0.2-0.2-0.5,0-0.7L278.7,38.7"/>
	<g>
		<path fill="#80BBC5" d="M284,42.6c-0.2-0.2-0.2-0.5,0-0.7l0.3-0.3c0.2-0.2,0.5-0.2,0.7,0l0.1,0.1c0.5,0.5,0.8,0.6,1.1,0.6
			c0.2,0,0.4-0.1,0.5-0.3c0.4-0.4,0.5-0.8-0.1-1.4c-0.5-0.5-1.3-0.4-2.2-0.3l0,0c-1.2,0.1-2.4,0.3-3.4-0.7c-1.1-1.1-1.2-2.4-0.1-3.4
			c1.1-1.1,2.3-1,3.6,0.3l0.1,0.1c0.2,0.2,0.2,0.5,0,0.7l-0.3,0.3c-0.2,0.2-0.5,0.2-0.7,0l-0.1-0.1c-0.7-0.7-1.2-0.7-1.6-0.3
			c-0.4,0.4-0.4,0.9,0.1,1.4c0.5,0.5,1.4,0.4,2.2,0.3l0,0c1.2-0.1,2.3-0.3,3.3,0.7c1.1,1.1,1.1,2.3,0.1,3.3c-1.1,1.1-2.3,1-3.6-0.3
			L284,42.6"/>
	</g>
	<path fill="#409AA8" d="M154.4,98.9c-0.5-0.5-0.5-1.4,0-1.9l0.8-0.8c0.5-0.5,1.4-0.5,1.9,0l0.3,0.4c1.3,1.3,2.2,1.7,2.9,1.6
		c0.6,0,1.1-0.4,1.5-0.8c1.1-1.1,1.3-2.2-0.2-3.7c-1.3-1.3-3.5-1-5.9-0.7l0,0c-3.2,0.4-6.5,0.8-9.2-1.9c-3.1-3.1-3.2-6.4-0.4-9.3
		c2.9-2.9,6.3-2.6,9.7,0.8l0.4,0.4c0.5,0.5,0.5,1.4,0,1.9l-0.8,0.8c-0.5,0.5-1.4,0.5-1.9,0l-0.4-0.4c-1.8-1.8-3.2-2-4.3-0.8
		c-1.1,1.1-1.1,2.4,0.3,3.8c1.4,1.4,3.8,1.1,6.1,0.8l0,0c3.2-0.4,6.3-0.8,9,1.8c3,3,3.1,6.2,0.2,9.1c-3,3-6.2,2.7-9.7-0.8
		L154.4,98.9"/>
	<path fill="#409AA8" d="M165.7,83.4l6.8,6.8c0.5,0.5,0.5,1.4,0,1.9l-0.8,0.8c-0.5,0.5-1.4,0.5-1.9,0l-16.3-16.3
		c-0.5-0.5-0.5-1.4,0-1.9l2.9-2.9c3.3-3.3,6.5-3,10,0.5c3.5,3.5,3.8,6.7,0.5,10L165.7,83.4 M158,75.6l5.1,5.1l1.2-1.2
		c1.5-1.5,1.3-2.8-0.5-4.6c-1.8-1.8-3.1-1.9-4.6-0.5L158,75.6z"/>
	<path fill="#409AA8" d="M168.4,70.4c-3.4-3.4-3.8-6.7-0.8-9.7c3-3,6.3-2.6,9.7,0.8l7.6,7.6c2.1,2.1,2.8,3.9,2.8,5.6
		c0,1.8-0.9,3.1-1.9,4.1c-1,1-2.3,1.9-4.1,1.9c-1.7,0-3.5-0.6-5.6-2.8L168.4,70.4 M178.7,75.3c1.8,1.8,3.2,2.1,4.3,0.9
		c1.1-1.1,0.9-2.5-0.9-4.3l-7.6-7.6c-1.8-1.8-3.2-2-4.3-0.9c-1.2,1.2-0.9,2.6,0.9,4.3L178.7,75.3z"/>
	<path fill="#409AA8" d="M200,62.6c0.5,0.5,0.5,1.4,0,1.9l-0.8,0.8c-0.5,0.5-1.4,0.5-1.9,0l-4.5-4.5c-1.4-1.4-2.9-1.4-4.2,0
		l-1.2,1.2l6.6,6.6c0.5,0.5,0.5,1.4,0,1.9l-0.8,0.8c-0.5,0.5-1.4,0.5-1.9,0l-16.3-16.3c-0.5-0.5-0.5-1.4,0-1.9l3.4-3.4
		c3.3-3.3,6.2-2.8,9.8,0.8c1.7,1.7,2.7,3.3,2.7,5c0,0.2,0,0.3,0,0.4c1.6,0.1,3.1,0.8,4.5,2.2L200,62.6 M184.6,59.3l1.2-1.2
		c1.5-1.5,1.5-3.1-0.3-4.9c-1.8-1.8-3-2.2-4.4-0.8l-1.7,1.7L184.6,59.3z"/>
	<path fill="#409AA8" d="M185.7,44.4c-0.5-0.5-0.5-1.4,0-1.9l7.1-7.1c0.5-0.5,1.4-0.5,1.9,0l0.8,0.8c0.5,0.5,0.5,1.4,0,1.9l-2.2,2.2
		l14.5,14.5c0.5,0.5,0.5,1.4,0,1.9l-0.7,0.7c-0.5,0.5-1.4,0.5-1.9,0L190.6,43l-2.2,2.2c-0.5,0.5-1.4,0.5-1.9,0L185.7,44.4"/>
	<path fill="#00788B" d="M183.6,125.8c-0.5,0.5-1.4,0.5-1.9,0l-16.3-16.3c-0.5-0.5-0.5-1.4,0-1.9l2.7-2.7c3.2-3.2,6.3-2.8,9.8,0.6
		c2.5,2.5,2.7,5,2.7,5c1.6,0.2,3.4,1.1,5.1,2.7c3.5,3.5,3.8,6.6,0.6,9.8L183.6,125.8 M169.8,108.6l5.1,5.1l0.9-0.9
		c1.3-1.3,1.1-2.6-0.7-4.4c-1.8-1.8-3.1-2-4.4-0.7L169.8,108.6z M177.5,116.3l5.1,5.1l0.9-0.9c1.3-1.3,1.1-2.6-0.7-4.4
		c-1.8-1.8-3.1-2-4.4-0.7L177.5,116.3z"/>
	<path fill="#00788B" d="M194.5,113c0.5,0.5,0.5,1.4,0,1.9l-0.8,0.8c-0.5,0.5-1.4,0.5-1.9,0l-16.3-16.3c-0.5-0.5-0.5-1.4,0-1.9
		l0.8-0.8c0.5-0.5,1.4-0.5,1.9,0L194.5,113"/>
	<path fill="#00788B" d="M205,102.4c0.5,0.5,0.5,1.4,0,1.9l-0.8,0.8c-0.5,0.5-1.4,0.5-1.9,0l-4.5-4.5c-1.4-1.3-2.9-1.3-4.2,0
		l-1.2,1.2l6.6,6.6c0.5,0.5,0.5,1.4,0,1.9l-0.8,0.8c-0.5,0.5-1.4,0.5-1.9,0l-16.3-16.3c-0.5-0.5-0.5-1.4,0-1.9l3.4-3.4
		c3.3-3.3,6.2-2.8,9.8,0.8c1.7,1.7,2.7,3.3,2.7,5c0,0.2,0,0.3,0,0.4c1.6,0.1,3.1,0.8,4.5,2.2L205,102.4 M189.6,99.1l1.2-1.2
		c1.5-1.5,1.5-3.1-0.3-4.9c-1.8-1.8-3-2.2-4.4-0.8l-1.7,1.7L189.6,99.1z"/>
	<path fill="#00788B" d="M212.5,96.9c-0.4,0.4-1.2,0.5-1.7,0.2l-7-5.2l5.9,5.9c0.5,0.5,0.5,1.4,0,1.9l-0.8,0.8
		c-0.5,0.5-1.4,0.5-1.9,0l-16.3-16.3c-0.5-0.5-0.5-1.4,0-1.9l0.8-0.8c0.4-0.4,1.2-0.5,1.7-0.2l13,8.7l-8.8-13
		c-0.3-0.5-0.2-1.3,0.2-1.7l0.8-0.8c0.5-0.5,1.4-0.5,1.9,0l16.3,16.3c0.5,0.5,0.5,1.4,0,1.9l-0.8,0.8c-0.5,0.5-1.4,0.5-1.9,0
		l-5.8-5.8l5.1,6.9c0.3,0.5,0.2,1.3-0.2,1.7L212.5,96.9"/>
	<path fill="#00788B" d="M221.6,85.8c0.5,0.5,0.5,1.4,0,1.9l-0.8,0.8c-0.5,0.5-1.4,0.5-1.9,0l-16.3-16.3c-0.5-0.5-0.5-1.4,0-1.9
		l0.8-0.8c0.5-0.5,1.4-0.5,1.9,0L221.6,85.8"/>
	<path fill="#00788B" d="M231.8,77.6c-0.3,0.3-1.1,0.5-1.5,0.3l-13-5.5l8.9,8.9c0.5,0.5,0.5,1.4,0,1.9l-0.8,0.8
		c-0.5,0.5-1.4,0.5-1.9,0l-16.3-16.3c-0.5-0.5-0.5-1.4,0-1.9l0.7-0.6c0.3-0.4,1.1-0.5,1.5-0.3l13,5.5l-8.9-8.9
		c-0.5-0.5-0.5-1.4,0-1.9l0.8-0.8c0.5-0.5,1.4-0.5,1.9,0l16.3,16.3c0.5,0.5,0.5,1.4,0,1.9L231.8,77.6"/>
	<path fill="#00788B" d="M234.3,56.8c0.5-0.5,1.4-0.5,1.9,0l2.9,2.9c3.4,3.4,3.8,6.7,0.8,9.7c-3,3-6.3,2.6-9.7-0.8l-7.7-7.7
		c-3.4-3.4-3.8-6.7-0.8-9.7c3-3,6.2-2.6,9.7,0.8l0.4,0.4c0.5,0.5,0.5,1.4,0,1.9l-0.8,0.8c-0.5,0.5-1.4,0.5-1.9,0l-0.4-0.4
		c-1.3-1.3-2.2-1.6-2.8-1.6c-0.6,0-1.1,0.4-1.5,0.8c-0.4,0.4-0.8,0.9-0.8,1.5c-0.1,0.7,0.4,1.6,1.6,2.8c4.3,4.3,7,7,7.7,7.7
		c1.8,1.8,3.2,2,4.3,0.8c1.2-1.2,0.9-2.6-0.9-4.3l-1.2-1.2l-0.9,0.9c-1.5,1.5-4.3-1.1-2.7-2.7L234.3,56.8"/>
	<path fill="#00788B" d="M241.6,46.9l-6.8-6.8c-0.5-0.5-0.5-1.4,0-1.9l0.8-0.8c0.5-0.5,1.4-0.5,1.9,0l16.3,16.3
		c0.5,0.5,0.5,1.4,0,1.9l-0.8,0.8c-0.5,0.5-1.4,0.5-1.9,0l-6.8-6.8l-3,3l6.8,6.8c0.5,0.5,0.5,1.4,0,1.9l-0.8,0.8
		c-0.5,0.5-1.4,0.5-1.9,0l-16.3-16.3c-0.5-0.5-0.5-1.4,0-1.9l0.8-0.8c0.5-0.5,1.4-0.5,1.9,0l6.8,6.8L241.6,46.9"/>
	<path fill="#00788B" d="M258.4,41l-2.8,2.8l3.3,5.2c0.3,0.5,0.2,1.3-0.2,1.7l-0.8,0.8c-0.6,0.6-1.6,0.5-2.1-0.2l-4.4-7l-8.1-13
		c-0.3-0.5-0.2-1.3,0.2-1.7l0.6-0.6c0.4-0.4,1.2-0.5,1.7-0.2l20,12.5c0.8,0.5,0.9,1.5,0.2,2.1l-0.8,0.8c-0.4,0.4-1.2,0.5-1.7,0.2
		L258.4,41 M253.6,40.5l1.5-1.5c-1.6-1-2.3-1.8-5.1-3.6L253.6,40.5z"/>
	<path fill="#00788B" d="M273.4,36c-0.4,0.4-1.2,0.5-1.7,0.2l-7-5.2l5.9,5.9c0.5,0.5,0.5,1.4,0,1.9l-0.8,0.8c-0.5,0.5-1.4,0.5-1.9,0
		l-16.3-16.3c-0.5-0.5-0.5-1.4,0-1.9l0.8-0.8c0.4-0.4,1.2-0.5,1.7-0.2l13,8.7l-8.8-13c-0.3-0.5-0.2-1.3,0.2-1.7l0.8-0.8
		c0.5-0.5,1.4-0.5,1.9,0l16.3,16.3c0.5,0.5,0.5,1.4,0,1.9l-0.8,0.8c-0.5,0.5-1.4,0.5-1.9,0l-5.8-5.8l5.1,6.9
		c0.3,0.5,0.2,1.3-0.2,1.7L273.4,36"/>
	<g>
		<path fill="#00788B" d="M136.1,15.1c-9.2-4.7-20.2-2.9-27.6,4.4c-4.5,4.5-7,10.5-7,16.8c0,6.4,2.5,12.3,7,16.8l8,8.1
			c0.2,0.2,5,5.1,11.5,5.1c3.9,0,7.4-1.6,10.6-4.7l16.1-16.1c2.1-2.1,3.3-4.9,3.3-7.9c0-3-1.2-5.8-3.3-7.9c-4.3-4.3-11.4-4.3-15.8,0
			l-10.7,10.8c-1.6,1.6-4.1,1.6-5.7,0c-1.6-1.6-1.6-4.1,0-5.7l5.5-5.4l0,0c0.1-0.1,0.1-0.1,0.1-0.2c1.2-1.4,1.1-3.5-0.2-4.8
			c-1.4-1.4-3.6-1.4-5,0l-5.4,5.4c-1.1,1.1-1.9,2.3-2.4,3.7c-0.8,2-1,4.2-0.6,6.3c0.4,2.2,1.5,4.2,3.1,5.8c4.3,4.3,11.4,4.3,15.8,0
			l10.7-10.8c1.6-1.6,4.1-1.6,5.7,0c1.6,1.6,1.6,4.1,0,5.7l-16.1,16.1c-1.8,1.8-3.6,2.6-5.5,2.6c-3.5,0-6.4-2.9-6.5-3l-8-8.2
			c-3.2-3.2-4.9-7.4-4.9-11.8c0-4.5,1.7-8.7,4.9-11.8c5.5-5.5,14-6.5,20.7-2.4c1.1,0.7,2.6,0.7,3.8,0c6.6-4.2,15.1-3.2,20.7,2.3
			c3.2,3.2,4.9,7.3,4.9,11.8c0,4.5-1.7,8.7-4.9,11.8c0,0,0,0-0.1,0.1l-25.1,25.1c-1.4,1.4-1.4,3.6,0,5c1.4,1.4,3.6,1.4,5,0L164,52.9
			c0.1-0.1,0.1-0.1,0.1-0.2c4.2-4.4,6.5-10.2,6.5-16.3c0-6.4-2.5-12.3-7-16.8C156.3,12.2,145.3,10.4,136.1,15.1"/>
	</g>
</g>
</svg>
