<?xml version="1.0" encoding="utf-8"?>
<!-- Generator: Adobe Illustrator 13.0.0, SVG Export Plug-In . SVG Version: 6.00 Build 14948)  -->
<!DOCTYPE svg PUBLIC "-//W3C//DTD SVG 1.1//EN" "http://www.w3.org/Graphics/SVG/1.1/DTD/svg11.dtd">
<svg version="1.1" id="sponsor-logo_bspap" xmlns="http://www.w3.org/2000/svg" xmlns:xlink="http://www.w3.org/1999/xlink" x="0px"
	 y="0px" width="390px" height="150px" viewBox="0 0 390 150" enable-background="new 0 0 390 150" xml:space="preserve">
<g>
	<path fill="#4E0955" d="M163.1,72.8l-1.5,1.5c-0.6-0.6-1.2-0.9-1.7-0.9c-0.3,0-0.5,0.1-0.7,0.2c-0.2,0.1-0.2,0.3-0.2,0.4
		c0,0.1,0.1,0.3,0.1,0.4c0.1,0.1,0.3,0.3,0.7,0.5l0.9,0.5c1,0.5,1.6,1,2,1.4c0.4,0.5,0.5,1.1,0.5,1.7c0,0.9-0.3,1.6-1,2.2
		c-0.6,0.6-1.5,0.9-2.6,0.9c-1.4,0-2.6-0.6-3.4-1.7l1.5-1.6c0.3,0.3,0.6,0.6,1,0.8s0.7,0.3,1,0.3c0.3,0,0.6-0.1,0.8-0.2
		c0.2-0.2,0.3-0.3,0.3-0.5c0-0.4-0.4-0.7-1.1-1.1L159,77c-1.6-0.8-2.4-1.8-2.4-3c0-0.8,0.3-1.4,0.9-2c0.6-0.5,1.4-0.8,2.3-0.8
		c0.6,0,1.2,0.1,1.8,0.4C162.2,71.8,162.7,72.2,163.1,72.8"/>
	<path fill="#4E0955" d="M167.7,71.4v1.1c0.4-0.4,0.9-0.8,1.4-1c0.5-0.2,1.1-0.3,1.7-0.3c1.3,0,2.4,0.5,3.3,1.5
		c0.9,1,1.3,2.2,1.3,3.7c0,1.5-0.5,2.7-1.4,3.7c-0.9,1-2,1.5-3.3,1.5c-0.6,0-1.1-0.1-1.6-0.3c-0.5-0.2-1-0.5-1.5-1v4.6h-2.5V71.4
		H167.7z M170.2,73.4c-0.8,0-1.4,0.3-1.9,0.8c-0.5,0.5-0.8,1.2-0.8,2.1c0,0.9,0.3,1.6,0.8,2.1c0.5,0.5,1.2,0.8,1.9,0.8
		c0.8,0,1.4-0.3,1.9-0.8c0.5-0.5,0.8-1.2,0.8-2.1c0-0.8-0.3-1.5-0.8-2.1C171.7,73.7,171,73.4,170.2,73.4"/>
	<path fill="#4E0955" d="M182,71.1c0.9,0,1.8,0.2,2.6,0.7c0.8,0.5,1.5,1.1,1.9,1.9c0.5,0.8,0.7,1.7,0.7,2.6c0,0.9-0.2,1.8-0.7,2.6
		c-0.5,0.8-1.1,1.4-1.9,1.9c-0.8,0.5-1.7,0.7-2.6,0.7c-1.4,0-2.6-0.5-3.6-1.5c-1-1-1.5-2.2-1.5-3.7c0-1.5,0.6-2.8,1.7-3.8
		C179.6,71.6,180.8,71.1,182,71.1 M182.1,73.5c-0.8,0-1.4,0.3-1.9,0.8c-0.5,0.5-0.8,1.2-0.8,2c0,0.9,0.3,1.6,0.8,2.1
		c0.5,0.5,1.1,0.8,1.9,0.8c0.8,0,1.4-0.3,1.9-0.8c0.5-0.5,0.8-1.2,0.8-2.1c0-0.8-0.3-1.5-0.8-2.1C183.5,73.7,182.9,73.5,182.1,73.5"
		/>
	<path fill="#4E0955" d="M188.7,71.4h2.1v1.2c0.2-0.5,0.5-0.9,0.9-1.1c0.4-0.3,0.8-0.4,1.2-0.4c0.3,0,0.7,0.1,1,0.3l-0.8,2.1
		c-0.3-0.1-0.5-0.2-0.7-0.2c-0.4,0-0.7,0.2-1,0.7c-0.3,0.5-0.4,1.4-0.4,2.8l0,0.5v4h-2.5V71.4z"/>
	<polygon fill="#4E0955" points="195.5,67.8 198,67.8 198,71.4 199.4,71.4 199.4,73.5 198,73.5 198,81.2 195.5,81.2 195.5,73.5 
		194.2,73.5 194.2,71.4 195.5,71.4 	"/>
	<path fill="#4E0955" d="M214.5,76l1.5,1.7l-0.7,0.6l-0.7,0.6l2.1,2.3h-3.1l-0.9-0.9c-1.4,0.8-2.7,1.2-3.9,1.2c-1,0-1.8-0.3-2.5-0.9
		c-0.6-0.6-0.9-1.4-0.9-2.3c0-0.7,0.2-1.4,0.5-2c0.4-0.6,1-1.3,1.8-1.9c-0.9-1.1-1.3-2.2-1.3-3.1c0-0.7,0.3-1.3,0.9-1.9
		c0.6-0.6,1.4-1,2.4-1c1,0,1.8,0.3,2.4,0.9c0.6,0.6,0.8,1.3,0.8,1.9c0,0.5-0.1,1-0.4,1.5c-0.3,0.5-0.8,1.2-1.8,2.1
		c1.1,1.3,1.8,2.1,2.1,2.4C213.3,77.1,213.8,76.7,214.5,76 M211.2,78.6c-0.5-0.5-1.1-1.2-2-2.3c-0.9,0.7-1.3,1.4-1.3,1.9
		c0,0.3,0.1,0.5,0.4,0.7c0.2,0.2,0.6,0.3,0.9,0.3C209.8,79.3,210.4,79,211.2,78.6 M209.7,73.1c0.7-0.6,1-1.1,1-1.5
		c0-0.2-0.1-0.4-0.2-0.6c-0.1-0.1-0.3-0.2-0.6-0.2c-0.2,0-0.4,0.1-0.6,0.2c-0.2,0.2-0.2,0.3-0.2,0.6C209.1,72,209.3,72.5,209.7,73.1
		"/>
	<path fill="#4E0955" d="M226.2,71.4v1.1c0.4-0.4,0.9-0.8,1.4-1c0.5-0.2,1.1-0.3,1.7-0.3c1.3,0,2.4,0.5,3.3,1.5
		c0.9,1,1.3,2.2,1.3,3.7c0,1.5-0.5,2.7-1.4,3.7c-0.9,1-2,1.5-3.3,1.5c-0.6,0-1.1-0.1-1.6-0.3c-0.5-0.2-1-0.5-1.5-1v4.6h-2.5V71.4
		H226.2z M228.8,73.4c-0.8,0-1.4,0.3-1.9,0.8c-0.5,0.5-0.8,1.2-0.8,2.1c0,0.9,0.3,1.6,0.8,2.1c0.5,0.5,1.2,0.8,1.9,0.8
		c0.8,0,1.4-0.3,1.9-0.8s0.8-1.2,0.8-2.1c0-0.8-0.3-1.5-0.8-2.1C230.2,73.7,229.5,73.4,228.8,73.4"/>
	<path fill="#4E0955" d="M235.9,67.6h2.5v4.8c0.5-0.4,1-0.7,1.5-0.9c0.5-0.2,1-0.3,1.5-0.3c1,0,1.8,0.3,2.5,1
		c0.6,0.6,0.9,1.4,0.9,2.6v6.5h-2.4v-4.3c0-1.1-0.1-1.9-0.2-2.3c-0.1-0.4-0.3-0.7-0.6-0.9c-0.3-0.2-0.6-0.3-1-0.3
		c-0.5,0-0.9,0.2-1.3,0.5c-0.4,0.3-0.6,0.8-0.7,1.4c-0.1,0.3-0.1,1-0.1,2v4h-2.5V67.6z"/>
	<polygon fill="#4E0955" points="246,71.4 248.5,71.4 251,77.6 253.9,71.4 256.4,71.4 250.2,84.8 247.7,84.8 249.7,80.5 	"/>
	<path fill="#4E0955" d="M263.8,72.8l-1.5,1.5c-0.6-0.6-1.2-0.9-1.7-0.9c-0.3,0-0.5,0.1-0.7,0.2c-0.2,0.1-0.2,0.3-0.2,0.4
		c0,0.1,0,0.3,0.1,0.4c0.1,0.1,0.3,0.3,0.7,0.5l0.9,0.5c1,0.5,1.6,1,2,1.4c0.4,0.5,0.5,1.1,0.5,1.7c0,0.9-0.3,1.6-1,2.2
		c-0.6,0.6-1.5,0.9-2.6,0.9c-1.4,0-2.6-0.6-3.4-1.7l1.5-1.6c0.3,0.3,0.6,0.6,1,0.8c0.4,0.2,0.7,0.3,1,0.3c0.3,0,0.6-0.1,0.8-0.2
		c0.2-0.2,0.3-0.3,0.3-0.5c0-0.4-0.4-0.7-1.1-1.1l-0.8-0.4c-1.6-0.8-2.4-1.8-2.4-3c0-0.8,0.3-1.4,0.9-2c0.6-0.5,1.4-0.8,2.3-0.8
		c0.6,0,1.2,0.1,1.8,0.4C262.9,71.8,263.4,72.2,263.8,72.8"/>
	<path fill="#4E0955" d="M266.9,67.3c0.4,0,0.8,0.2,1.1,0.5c0.3,0.3,0.5,0.7,0.5,1.1c0,0.4-0.2,0.8-0.5,1.1
		c-0.3,0.3-0.7,0.5-1.1,0.5c-0.4,0-0.8-0.2-1.1-0.5c-0.3-0.3-0.5-0.7-0.5-1.2c0-0.4,0.2-0.8,0.5-1.1
		C266.1,67.5,266.5,67.3,266.9,67.3 M265.7,71.4h2.5v9.8h-2.5V71.4z"/>
	<path fill="#4E0955" d="M280,73.4l-2.1,1.1c-0.4-0.4-0.8-0.7-1.1-0.8c-0.4-0.2-0.8-0.2-1.3-0.2c-0.9,0-1.7,0.3-2.2,0.8
		c-0.6,0.6-0.9,1.3-0.9,2.1c0,0.8,0.3,1.5,0.8,2c0.6,0.5,1.3,0.8,2.2,0.8c1.1,0,2-0.4,2.6-1.1l1.9,1.3c-1.1,1.4-2.5,2.1-4.5,2.1
		c-1.7,0-3.1-0.5-4.1-1.5c-1-1-1.5-2.2-1.5-3.6c0-0.9,0.2-1.8,0.7-2.6c0.5-0.8,1.1-1.4,2-1.9c0.9-0.5,1.8-0.7,2.9-0.7
		c1,0,1.9,0.2,2.6,0.6C278.9,72.1,279.5,72.7,280,73.4"/>
	<path fill="#4E0955" d="M289.5,71.4h2.5v9.8h-2.5v-1c-0.5,0.5-1,0.8-1.4,1c-0.5,0.2-1,0.3-1.6,0.3c-1.3,0-2.4-0.5-3.3-1.5
		c-0.9-1-1.4-2.2-1.4-3.7c0-1.5,0.4-2.8,1.3-3.7c0.9-1,2-1.5,3.3-1.5c0.6,0,1.1,0.1,1.7,0.3c0.5,0.2,1,0.6,1.4,1V71.4z M286.9,73.4
		c-0.8,0-1.4,0.3-1.9,0.8c-0.5,0.5-0.8,1.2-0.8,2.1c0,0.9,0.3,1.5,0.8,2.1c0.5,0.5,1.1,0.8,1.9,0.8c0.8,0,1.4-0.3,1.9-0.8
		c0.5-0.5,0.8-1.2,0.8-2.1c0-0.9-0.3-1.6-0.8-2.1C288.3,73.7,287.7,73.4,286.9,73.4"/>
	<rect x="294.2" y="67.6" fill="#4E0955" width="2.5" height="13.6"/>
	<path fill="#4E0955" d="M311.3,71.4h2.5v9.8h-2.5v-1c-0.5,0.5-1,0.8-1.4,1c-0.5,0.2-1,0.3-1.6,0.3c-1.3,0-2.4-0.5-3.3-1.5
		c-0.9-1-1.4-2.2-1.4-3.7c0-1.5,0.4-2.8,1.3-3.7c0.9-1,2-1.5,3.3-1.5c0.6,0,1.1,0.1,1.7,0.3c0.5,0.2,1,0.6,1.4,1V71.4z M308.7,73.4
		c-0.8,0-1.4,0.3-1.9,0.8c-0.5,0.5-0.8,1.2-0.8,2.1c0,0.9,0.3,1.5,0.8,2.1c0.5,0.5,1.1,0.8,1.9,0.8c0.8,0,1.4-0.3,1.9-0.8
		c0.5-0.5,0.8-1.2,0.8-2.1c0-0.9-0.3-1.6-0.8-2.1C310.2,73.7,309.5,73.4,308.7,73.4"/>
	<path fill="#4E0955" d="M325.9,73.4l-2.1,1.1c-0.4-0.4-0.8-0.7-1.1-0.8c-0.4-0.2-0.8-0.2-1.3-0.2c-0.9,0-1.7,0.3-2.2,0.8
		c-0.6,0.6-0.9,1.3-0.9,2.1c0,0.8,0.3,1.5,0.8,2c0.6,0.5,1.3,0.8,2.2,0.8c1.1,0,2-0.4,2.6-1.1l1.9,1.3c-1.1,1.4-2.5,2.1-4.5,2.1
		c-1.7,0-3.1-0.5-4.1-1.5c-1-1-1.5-2.2-1.5-3.6c0-0.9,0.2-1.8,0.7-2.6c0.5-0.8,1.1-1.4,2-1.9c0.9-0.5,1.8-0.7,2.9-0.7
		c1,0,1.9,0.2,2.6,0.6C324.8,72.1,325.4,72.7,325.9,73.4"/>
	<polygon fill="#4E0955" points="328.5,67.8 330.9,67.8 330.9,71.4 332.4,71.4 332.4,73.5 330.9,73.5 330.9,81.2 328.5,81.2 
		328.5,73.5 327.2,73.5 327.2,71.4 328.5,71.4 	"/>
	<path fill="#4E0955" d="M334.7,67.3c0.4,0,0.8,0.2,1.1,0.5c0.3,0.3,0.5,0.7,0.5,1.1c0,0.4-0.2,0.8-0.5,1.1
		c-0.3,0.3-0.7,0.5-1.1,0.5c-0.4,0-0.8-0.2-1.1-0.5c-0.3-0.3-0.5-0.7-0.5-1.2c0-0.4,0.2-0.8,0.5-1.1
		C333.9,67.5,334.2,67.3,334.7,67.3 M333.4,71.4h2.5v9.8h-2.5V71.4z"/>
	<polygon fill="#4E0955" points="337.1,71.4 339.6,71.4 342.1,77.2 344.6,71.4 347.1,71.4 342.9,81.2 341.3,81.2 	"/>
	<path fill="#4E0955" d="M349.5,67.3c0.4,0,0.8,0.2,1.1,0.5c0.3,0.3,0.5,0.7,0.5,1.1c0,0.4-0.2,0.8-0.5,1.1
		c-0.3,0.3-0.7,0.5-1.1,0.5c-0.4,0-0.8-0.2-1.1-0.5c-0.3-0.3-0.5-0.7-0.5-1.2c0-0.4,0.2-0.8,0.5-1.1S349,67.3,349.5,67.3
		 M348.2,71.4h2.5v9.8h-2.5V71.4z"/>
	<polygon fill="#4E0955" points="353.3,67.8 355.7,67.8 355.7,71.4 357.2,71.4 357.2,73.5 355.7,73.5 355.7,81.2 353.3,81.2 
		353.3,73.5 352,73.5 352,71.4 353.3,71.4 	"/>
	<polygon fill="#4E0955" points="357.4,71.4 359.9,71.4 362.5,77.6 365.3,71.4 367.8,71.4 361.7,84.8 359.1,84.8 361.2,80.5 	"/>
	<path fill="#4E0955" d="M159.5,93.6v1.1c0.4-0.4,0.9-0.8,1.4-1c0.5-0.2,1.1-0.3,1.7-0.3c1.3,0,2.4,0.5,3.3,1.5
		c0.9,1,1.3,2.2,1.3,3.7c0,1.5-0.5,2.7-1.4,3.7c-0.9,1-2,1.5-3.3,1.5c-0.6,0-1.1-0.1-1.6-0.3c-0.5-0.2-1-0.5-1.5-1v4.6h-2.5V93.6
		H159.5z M162.1,95.6c-0.8,0-1.4,0.3-1.9,0.8c-0.5,0.5-0.8,1.2-0.8,2.1c0,0.9,0.3,1.6,0.8,2.1c0.5,0.5,1.2,0.8,1.9,0.8
		c0.8,0,1.4-0.3,1.9-0.8c0.5-0.5,0.8-1.3,0.8-2.1s-0.3-1.5-0.8-2.1C163.5,95.9,162.9,95.6,162.1,95.6"/>
	<path fill="#4E0955" d="M176.5,93.6h2.5v9.8h-2.5v-1c-0.5,0.5-1,0.8-1.5,1c-0.5,0.2-1,0.3-1.6,0.3c-1.3,0-2.4-0.5-3.3-1.5
		c-0.9-1-1.4-2.2-1.4-3.7c0-1.5,0.4-2.8,1.3-3.7c0.9-1,2-1.5,3.3-1.5c0.6,0,1.1,0.1,1.7,0.3c0.5,0.2,1,0.6,1.4,1V93.6z M173.9,95.6
		c-0.8,0-1.4,0.3-1.9,0.8c-0.5,0.5-0.8,1.2-0.8,2.1s0.3,1.6,0.8,2.1c0.5,0.5,1.1,0.8,1.9,0.8c0.8,0,1.4-0.3,1.9-0.8
		c0.5-0.5,0.8-1.2,0.8-2.1c0-0.9-0.3-1.5-0.8-2.1C175.4,95.9,174.7,95.6,173.9,95.6"/>
	<path fill="#4E0955" d="M180.9,93.6h2.1v1.2c0.2-0.5,0.5-0.9,0.9-1.1c0.4-0.2,0.8-0.4,1.2-0.4c0.3,0,0.7,0.1,1,0.3l-0.8,2.1
		c-0.3-0.1-0.5-0.2-0.7-0.2c-0.4,0-0.7,0.2-1,0.7c-0.3,0.5-0.4,1.4-0.4,2.8l0,0.5v4h-2.5V93.6z"/>
	<polygon fill="#4E0955" points="187.7,90 190.2,90 190.2,93.6 191.7,93.6 191.7,95.7 190.2,95.7 190.2,103.5 187.7,103.5 
		187.7,95.7 186.5,95.7 186.5,93.6 187.7,93.6 	"/>
	<path fill="#4E0955" d="M193,93.6h2.5v1c0.6-0.5,1.1-0.8,1.5-1c0.5-0.2,0.9-0.3,1.4-0.3c1,0,1.8,0.3,2.5,1c0.6,0.6,0.9,1.4,0.9,2.6
		v6.5h-2.4v-4.3c0-1.2,0-1.9-0.2-2.3c-0.1-0.4-0.3-0.7-0.6-0.9c-0.3-0.2-0.6-0.3-1-0.3c-0.5,0-0.9,0.2-1.3,0.5
		c-0.4,0.3-0.6,0.8-0.7,1.4c-0.1,0.3-0.1,1-0.1,2v3.9H193V93.6z"/>
	<path fill="#4E0955" d="M214,99.2H206c0.1,0.7,0.4,1.3,0.9,1.7c0.5,0.4,1.1,0.6,1.9,0.6c0.9,0,1.7-0.3,2.4-1l2.1,1
		c-0.5,0.7-1.1,1.3-1.9,1.6c-0.7,0.3-1.6,0.5-2.6,0.5c-1.5,0-2.8-0.5-3.8-1.5c-1-1-1.5-2.2-1.5-3.7c0-1.5,0.5-2.7,1.5-3.7
		c1-1,2.2-1.5,3.6-1.5c1.5,0,2.8,0.5,3.8,1.5c1,1,1.5,2.3,1.5,3.9L214,99.2z M211.5,97.3c-0.2-0.5-0.5-1-1-1.3
		c-0.5-0.3-1-0.5-1.7-0.5c-0.7,0-1.3,0.2-1.8,0.6c-0.3,0.2-0.6,0.7-0.9,1.3H211.5z"/>
	<path fill="#4E0955" d="M215.4,93.6h2.1v1.2c0.2-0.5,0.5-0.9,0.9-1.1c0.4-0.2,0.8-0.4,1.2-0.4c0.3,0,0.7,0.1,1,0.3l-0.8,2.1
		c-0.3-0.1-0.5-0.2-0.7-0.2c-0.4,0-0.7,0.2-1,0.7c-0.3,0.5-0.4,1.4-0.4,2.8l0,0.5v4h-2.5V93.6z"/>
	<path fill="#4E0955" d="M227.9,95l-1.5,1.5c-0.6-0.6-1.2-0.9-1.7-0.9c-0.3,0-0.5,0.1-0.6,0.2c-0.2,0.1-0.2,0.3-0.2,0.4
		c0,0.1,0,0.3,0.1,0.4c0.1,0.1,0.3,0.3,0.7,0.5l0.9,0.5c1,0.5,1.6,0.9,2,1.4c0.4,0.5,0.5,1.1,0.5,1.7c0,0.9-0.3,1.6-1,2.2
		c-0.6,0.6-1.5,0.9-2.6,0.9c-1.4,0-2.6-0.6-3.4-1.7l1.5-1.7c0.3,0.3,0.6,0.6,1,0.8c0.4,0.2,0.7,0.3,1,0.3c0.3,0,0.6-0.1,0.8-0.2
		c0.2-0.2,0.3-0.3,0.3-0.5c0-0.4-0.4-0.7-1.1-1.1l-0.8-0.4c-1.6-0.8-2.4-1.8-2.4-3c0-0.8,0.3-1.4,0.9-2c0.6-0.5,1.4-0.8,2.3-0.8
		c0.6,0,1.2,0.1,1.8,0.4C227,94.1,227.5,94.5,227.9,95"/>
	<path fill="#4E0955" d="M230,89.8h2.4v4.8c0.5-0.4,1-0.7,1.5-0.9c0.5-0.2,1-0.3,1.5-0.3c1,0,1.8,0.3,2.5,1c0.6,0.6,0.9,1.4,0.9,2.6
		v6.5h-2.4v-4.3c0-1.1-0.1-1.9-0.2-2.3c-0.1-0.4-0.3-0.7-0.6-0.9c-0.3-0.2-0.6-0.3-1-0.3c-0.5,0-0.9,0.2-1.3,0.5
		c-0.4,0.3-0.6,0.8-0.7,1.4c-0.1,0.3-0.1,1-0.1,2v4H230V89.8z"/>
	<path fill="#4E0955" d="M242.1,89.6c0.4,0,0.8,0.2,1.1,0.5c0.3,0.3,0.5,0.7,0.5,1.1c0,0.4-0.2,0.8-0.5,1.1
		c-0.3,0.3-0.7,0.5-1.1,0.5c-0.4,0-0.8-0.2-1.1-0.5c-0.3-0.3-0.5-0.7-0.5-1.1c0-0.4,0.2-0.8,0.5-1.1
		C241.3,89.7,241.7,89.6,242.1,89.6 M240.9,93.6h2.5v9.8h-2.5V93.6z"/>
	<path fill="#4E0955" d="M248,93.6v1.1c0.4-0.4,0.9-0.8,1.4-1s1.1-0.3,1.7-0.3c1.3,0,2.4,0.5,3.3,1.5c0.9,1,1.3,2.2,1.3,3.7
		c0,1.5-0.5,2.7-1.4,3.7c-0.9,1-2,1.5-3.3,1.5c-0.6,0-1.1-0.1-1.6-0.3c-0.5-0.2-1-0.5-1.5-1v4.6h-2.5V93.6H248z M250.6,95.6
		c-0.8,0-1.4,0.3-1.9,0.8c-0.5,0.5-0.8,1.2-0.8,2.1c0,0.9,0.3,1.6,0.8,2.1c0.5,0.5,1.2,0.8,1.9,0.8c0.8,0,1.4-0.3,1.9-0.8
		c0.5-0.5,0.8-1.3,0.8-2.1s-0.3-1.5-0.8-2.1C252,95.9,251.4,95.6,250.6,95.6"/>
	<path fill="#F19025" d="M142,75c0-31.6-25.7-57.4-57.4-57.4C53,17.6,27.3,43.4,27.3,75s25.7,57.4,57.4,57.4
		C116.3,132.4,142,106.6,142,75"/>
	<path fill="#4E0955" d="M84.7,12.5C59,12.5,36.9,28,27.3,50.2V12.5h-5.1v60.5h0c0,0.6,0,1.3,0,1.9c0,34.5,28,62.5,62.5,62.5
		s62.5-28,62.5-62.5S119.1,12.5,84.7,12.5 M27.3,75c0-31.6,25.7-57.4,57.4-57.4S142,43.4,142,75s-25.7,57.4-57.4,57.4
		S27.3,106.6,27.3,75"/>
	<path fill="#FFFFFF" d="M44.2,76.4c0,1.5-0.5,2.7-1.6,3.8c-1.1,1-2.4,1.6-3.9,1.6c-1.5,0-2.7-0.5-3.8-1.6c-1-1-1.5-2.3-1.5-3.8
		V66.2c0-0.2,0.1-0.3,0.3-0.3h1.6c0.2,0,0.3,0.1,0.3,0.3v5.9c0.9-0.7,2-1,3.2-1c1.5,0,2.8,0.5,3.9,1.6S44.2,74.9,44.2,76.4 M42,76.4
		c0-0.9-0.3-1.7-1-2.4c-0.7-0.7-1.5-1-2.4-1c-0.9,0-1.7,0.3-2.3,1c-0.6,0.7-0.9,1.5-0.9,2.4c0,1,0.3,1.8,0.9,2.4
		c0.6,0.7,1.3,1,2.3,1c0.9,0,1.8-0.3,2.4-1C41.7,78.1,42,77.3,42,76.4"/>
	<path fill="#FFFFFF" d="M47.5,68.3c0,0.3-0.1,0.6-0.4,0.9c-0.2,0.3-0.5,0.4-0.9,0.4c-0.4,0-0.7-0.1-0.9-0.4
		C45.1,69,45,68.7,45,68.3c0-0.3,0.1-0.6,0.4-0.9c0.3-0.2,0.6-0.4,0.9-0.4c0.3,0,0.6,0.1,0.9,0.4C47.4,67.7,47.5,68,47.5,68.3
		 M47.3,81.3c0,0.2-0.1,0.3-0.3,0.3h-1.6c-0.2,0-0.3-0.1-0.3-0.3v-9.8c0-0.2,0.1-0.3,0.3-0.3H47c0.2,0,0.3,0.1,0.3,0.3V81.3z"/>
	<path fill="#FFFFFF" d="M55.9,72.1l-1,1.1c-0.1,0.1-0.2,0.1-0.4,0.1c-0.4-0.2-0.8-0.3-1.3-0.3c-1.1,0-1.8,0.4-2.1,1.1
		c-0.1,0.3-0.2,0.9-0.2,1.8v5.4c0,0.2-0.1,0.3-0.3,0.3H49c-0.2,0-0.3-0.1-0.3-0.3v-5.8c0-1.1,0.2-2,0.7-2.8c0.7-1.1,1.9-1.6,3.7-1.6
		c1,0,1.8,0.2,2.6,0.6C56,71.8,56,71.9,55.9,72.1"/>
	<path fill="#FFFFFF" d="M71.1,81.3c0,0.2-0.1,0.3-0.3,0.3h-1.6c-0.2,0-0.3-0.1-0.3-0.3v-5.4c0-0.9-0.1-1.5-0.2-1.8
		c-0.3-0.8-1-1.1-2.1-1.1c-1,0-1.7,0.4-2,1.1c-0.1,0.3-0.2,0.9-0.2,1.6v5.5c0,0.2-0.1,0.3-0.3,0.3h-1.6c-0.2,0-0.3-0.1-0.3-0.3v-5.8
		c0-0.6-0.1-1.1-0.2-1.4c-0.3-0.8-1-1.1-2.1-1.1c-1,0-1.7,0.4-2,1.1c-0.1,0.3-0.2,0.9-0.2,1.8v5.4c0,0.2-0.1,0.3-0.3,0.3H56
		c-0.2,0-0.3-0.1-0.3-0.3v-5.8c0-1.1,0.2-2,0.7-2.8c0.7-1.1,1.9-1.6,3.6-1.6c1.5,0,2.6,0.4,3.3,1.2c0.7-0.8,1.8-1.2,3.2-1.2
		c1.8,0,3,0.5,3.7,1.6c0.5,0.7,0.7,1.7,0.7,2.8V81.3z"/>
	<path fill="#FFFFFF" d="M74.9,68.3c0,0.3-0.1,0.6-0.4,0.9c-0.2,0.3-0.5,0.4-0.9,0.4c-0.4,0-0.7-0.1-0.9-0.4
		c-0.3-0.2-0.4-0.5-0.4-0.9c0-0.3,0.1-0.6,0.4-0.9c0.3-0.2,0.6-0.4,0.9-0.4c0.3,0,0.6,0.1,0.9,0.4C74.8,67.7,74.9,68,74.9,68.3
		 M74.7,81.3c0,0.2-0.1,0.3-0.3,0.3h-1.6c-0.2,0-0.3-0.1-0.3-0.3v-9.8c0-0.2,0.1-0.3,0.3-0.3h1.6c0.2,0,0.3,0.1,0.3,0.3V81.3z"/>
	<path fill="#FFFFFF" d="M85,81.3c0,0.2-0.1,0.3-0.3,0.3h-1.6c-0.2,0-0.3-0.1-0.3-0.3v-5.4c0-0.9-0.1-1.5-0.2-1.8
		c-0.1-0.4-0.4-0.7-0.9-0.9c-0.4-0.2-0.8-0.3-1.3-0.3c-1.1,0-1.8,0.4-2.1,1.1c-0.1,0.3-0.2,0.9-0.2,1.8v5.4c0,0.2-0.1,0.3-0.3,0.3
		h-1.6c-0.2,0-0.3-0.1-0.3-0.3v-5.8c0-1.1,0.2-2,0.7-2.8c0.7-1.1,1.9-1.6,3.7-1.6c1.8,0,3.1,0.5,3.8,1.6c0.5,0.7,0.7,1.6,0.7,2.8
		V81.3z"/>
	<path fill="#FFFFFF" d="M96.9,76.4v5.3c0,1.6-0.5,2.9-1.4,3.8c-1,0.9-2.2,1.3-3.8,1.3c-1.4,0-2.6-0.4-3.6-1.2L87.4,85
		c-0.2-0.1-0.2-0.3,0-0.4l1.1-1.1c0.2-0.1,0.3-0.1,0.4,0c0,0.1,0.1,0.2,0.3,0.3c0.7,0.6,1.5,1,2.4,1c0.9,0,1.7-0.2,2.2-0.7
		c0.6-0.5,0.9-1.2,0.9-2.1c0,0,0-0.5,0-1.4c-1,0.8-2,1.1-3.2,1.1c-1.5,0-2.8-0.5-3.9-1.6c-1.1-1-1.6-2.3-1.6-3.8
		c0-1.5,0.5-2.7,1.6-3.8c1.1-1,2.4-1.6,3.9-1.6c1.5,0,2.8,0.5,3.8,1.5S96.9,74.9,96.9,76.4 M94.7,76.4c0-1-0.3-1.8-0.9-2.4
		c-0.6-0.7-1.4-1-2.3-1c-0.9,0-1.7,0.3-2.4,1c-0.7,0.7-1,1.5-1,2.4c0,0.9,0.3,1.7,1,2.4c0.7,0.7,1.5,1,2.4,1c0.9,0,1.7-0.3,2.3-1
		C94.4,78.1,94.7,77.3,94.7,76.4"/>
	<path fill="#FFFFFF" d="M107.2,81.3c0,0.2-0.1,0.3-0.3,0.3h-1.6c-0.2,0-0.3-0.1-0.3-0.3v-5.4c0-0.9-0.1-1.5-0.2-1.8
		c-0.1-0.4-0.4-0.7-0.9-0.9c-0.4-0.2-0.8-0.3-1.3-0.3c-1.5,0-2.3,1-2.3,2.9v5.4c0,0.2-0.1,0.3-0.3,0.3h-1.6c-0.2,0-0.3-0.1-0.3-0.3
		V66.2c0-0.2,0.1-0.3,0.3-0.3h1.6c0.2,0,0.3,0.1,0.3,0.3v5.6c0.7-0.5,1.5-0.8,2.3-0.8c1.8,0,3.1,0.5,3.8,1.6
		c0.5,0.7,0.7,1.6,0.7,2.8V81.3z"/>
	<path fill="#FFFFFF" d="M119,76.4v4.9c0,0.2-0.1,0.3-0.3,0.3h-1.6c-0.2,0-0.3-0.1-0.3-0.3v-0.6c-1,0.7-2,1-3.2,1
		c-1.5,0-2.8-0.5-3.9-1.6c-1.1-1-1.6-2.3-1.6-3.8c0-1.5,0.5-2.7,1.6-3.8c1.1-1,2.4-1.6,3.9-1.6c1.5,0,2.8,0.5,3.8,1.5
		C118.5,73.6,119,74.9,119,76.4 M116.9,76.4c0-1-0.3-1.8-0.9-2.4c-0.6-0.7-1.4-1-2.3-1c-0.9,0-1.7,0.3-2.4,1c-0.7,0.7-1,1.5-1,2.4
		c0,0.9,0.3,1.7,1,2.4c0.7,0.7,1.5,1,2.4,1c0.9,0,1.7-0.3,2.3-1C116.6,78.1,116.9,77.3,116.9,76.4"/>
	<path fill="#FFFFFF" d="M135.7,81.3c0,0.2-0.1,0.3-0.3,0.3h-1.6c-0.2,0-0.3-0.1-0.3-0.3v-5.4c0-0.9-0.1-1.5-0.2-1.8
		c-0.3-0.8-1-1.1-2.1-1.1c-1,0-1.7,0.4-2,1.1c-0.1,0.3-0.2,0.9-0.2,1.6v5.5c0,0.2-0.1,0.3-0.3,0.3h-1.6c-0.2,0-0.3-0.1-0.3-0.3v-5.8
		c0-0.6-0.1-1.1-0.2-1.4c-0.3-0.8-1-1.1-2.1-1.1c-1,0-1.7,0.4-2,1.1c-0.1,0.3-0.2,0.9-0.2,1.8v5.4c0,0.2-0.1,0.3-0.3,0.3h-1.6
		c-0.2,0-0.3-0.1-0.3-0.3v-5.8c0-1.1,0.2-2,0.7-2.8c0.7-1.1,1.9-1.6,3.6-1.6c1.5,0,2.6,0.4,3.3,1.2c0.7-0.8,1.8-1.2,3.2-1.2
		c1.8,0,3,0.5,3.7,1.6c0.5,0.7,0.7,1.7,0.7,2.8V81.3z"/>
</g>
</svg>
