<?xml version="1.0" encoding="utf-8"?>
<!-- Generator: Adobe Illustrator 13.0.0, SVG Export Plug-In . SVG Version: 6.00 Build 14948)  -->
<!DOCTYPE svg PUBLIC "-//W3C//DTD SVG 1.1//EN" "http://www.w3.org/Graphics/SVG/1.1/DTD/svg11.dtd">
<svg version="1.1" xmlns="http://www.w3.org/2000/svg" xmlns:xlink="http://www.w3.org/1999/xlink" x="0px" y="0px" width="390px"
	 height="150px" viewBox="0 0 390 150" enable-background="new 0 0 390 150" xml:space="preserve">
<g id="Guides">
</g>
<g id="sponsor-logo_championsuk" display="none">
	<polygon display="inline" fill="#EB008B" points="204.1,98.5 200.5,98.5 200.5,95.7 210.9,95.7 210.9,98.5 207.3,98.5 207.3,112.6 
		204.1,112.6 	"/>
	<polygon display="inline" fill="#EB008B" points="211.7,95.7 214.8,95.7 214.8,102.3 219.1,102.3 219.1,95.7 222.3,95.7 
		222.3,112.6 219.1,112.6 219.1,104.9 214.8,104.9 214.8,112.6 211.7,112.6 	"/>
	<polygon display="inline" fill="#EB008B" points="223.3,95.7 232.1,95.7 232.1,98.5 226.5,98.5 226.5,102.4 231.7,102.4 
		231.7,105.1 226.5,105.1 226.5,109.8 232.2,109.8 232.2,112.6 223.3,112.6 	"/>
	<g display="inline">
		<path fill="#EB008B" d="M242.9,110.2c1.6,0,2.2-0.7,2.2-2.7c0-2.2-0.7-2.7-2.6-2.7h-1v5.4H242.9z M242.6,102.5
			c1.6,0,2.1-0.6,2.1-2.4c0-1.7-0.5-2.2-2.2-2.2h-1v4.6H242.6z M238.5,95.7h5.1c2.9,0,4.3,1.3,4.3,4.1c0,2.3-0.7,3.5-2.1,3.7
			c1.6,0.2,2.5,1.6,2.5,3.9c0,3.6-1.5,5.2-4.7,5.2h-5.2V95.7z"/>
		<path fill="#EB008B" d="M253.9,102.8c1.8,0,2.4-0.6,2.4-2.5c0-1.8-0.8-2.3-2.7-2.3H252v4.8H253.9z M249,95.7h5.7
			c3.4,0,4.8,1.3,4.8,4.5c0,2.2-0.8,3.5-2.4,3.7c2.3,0.6,2.3,1.8,2.3,4l0.1,2.3c0.1,1.1,0.2,1.9,0.9,2.5h-3.8
			c-0.2-0.7-0.3-1.6-0.3-2.6l0-1.8v-0.4c0-2.2-0.9-2.6-3.2-2.6H252v7.5h-3V95.7z"/>
		<path fill="#EB008B" d="M266.9,105.8l-1.4-7.1l-1.3,7.1H266.9z M263.4,95.7h4.2l3.9,17h-3.4l-0.8-4.3h-3.6l-0.8,4.3h-3.2
			L263.4,95.7z"/>
		<polygon fill="#EB008B" points="271.5,95.7 274.8,95.7 279.2,107.5 279.1,95.7 282.1,95.7 282.1,112.6 278.8,112.6 274.4,100.7 
			274.5,112.6 271.5,112.6 		"/>
		<path fill="#EB008B" d="M287.5,110.1c1.1,0,1.8-0.1,2.2-0.7c0.7-1.1,0.8-2.9,0.8-5.5c0-2.7-0.1-4.4-1-5.3
			c-0.4-0.5-1.1-0.5-2.1-0.5h-1.4v12H287.5z M283,95.7h5.1c1.8,0,3.1,0.2,4,1.1c1.4,1.4,1.6,3.4,1.6,6.3c0,3.3,0,5.8-1.1,7.7
			c-1,1.7-2.5,1.9-5.2,1.9H283V95.7z"/>
		<path fill="#EB008B" d="M305,105.8l-1.4-7.1l-1.3,7.1H305z M301.5,95.7h4.2l3.9,17h-3.4l-0.8-4.3h-3.6l-0.8,4.3h-3.2L301.5,95.7z"
			/>
		<path fill="#EB008B" d="M317.8,110.8c-0.7,1.6-1.7,2.3-3.7,2.3c-3.9,0-4.8-2.9-4.8-9.4c0-3.1,0.3-5.2,1.1-6.4c0.9-1.4,2.3-2,4.5-2
			c3.6,0,5.3,1.7,5.3,5.3v0.4h-3v-0.2c0-2-0.8-3.1-2.3-3.1c-2.4,0-2.4,2-2.4,6.7c0,4.2,0.3,6,2.2,6c1.7,0,2.3-1.1,2.3-3.8v-0.6h-2.2
			v-2.7h5.2v9.3H318L317.8,110.8z"/>
		<polygon fill="#EB008B" points="321.4,95.7 330.1,95.7 330.1,98.5 324.5,98.5 324.5,102.4 329.7,102.4 329.7,105.1 324.5,105.1 
			324.5,109.8 330.3,109.8 330.3,112.6 321.4,112.6 		"/>
		<polygon fill="#EB008B" points="331.2,95.7 334.4,95.7 338.8,107.5 338.8,95.7 341.7,95.7 341.7,112.6 338.5,112.6 334.1,100.7 
			334.2,112.6 331.2,112.6 		"/>
		<path fill="#EB008B" d="M352.9,106.6c0,0.2,0,0.4,0,0.7c0,3.9-1.6,5.8-5,5.8c-1.6,0-2.7-0.4-3.6-1.3c-1.4-1.5-1.6-3.9-1.6-7.8
			c0-3.2,0.2-5.4,0.9-6.5c0.9-1.6,2.2-2.2,4.3-2.2c3.5,0,4.9,1.7,4.9,5.7h-3.1v-0.4c0-1.8-0.6-2.7-1.8-2.7c-2,0-2,1.8-2,6.1
			c0,4.7,0,6.6,1.9,6.6c1.5,0,1.9-1.1,1.9-3.7v-0.2H352.9z"/>
		<polygon fill="#EB008B" points="356.8,105.4 352.3,95.7 355.8,95.7 358.4,102.1 360.9,95.7 364.4,95.7 360,105.4 360,112.6 
			356.8,112.6 		"/>
		<path fill="#231F20" d="M305.7,71.5c-1.2-1.5-1.8-3.4-1.8-5.6c0-0.6,0.1-1.3,0.2-2c0.1-0.7,0.3-1.3,0.5-1.8
			c0.2-0.5,0.6-1.2,1.1-1.9l0.1-0.2h-0.9l0,0c-0.9,1.1-1.5,2.1-1.9,3c-0.4,0.9-0.5,1.8-0.5,2.8c0,0.9,0.2,1.9,0.5,2.8
			c0.2,0.6,0.4,1,0.7,1.4c0.2,0.3,0.6,0.8,1,1.4l0.2,0.3h1L305.7,71.5z"/>
		<path fill="#231F20" d="M311.5,61.5v4.9c0,0.7-0.1,1.1-0.2,1.4c-0.1,0.3-0.3,0.5-0.5,0.7c-0.4,0.4-1,0.5-1.7,0.5
			c-0.5,0-0.9-0.1-1.3-0.3c-0.4-0.2-0.6-0.4-0.8-0.7c-0.2-0.3-0.3-0.8-0.3-1.6v-4.9h-1.4v4.9c0,0.7,0,1.2,0.1,1.5
			c0.1,0.3,0.2,0.6,0.4,0.8c0.1,0.2,0.3,0.4,0.5,0.6c0.7,0.6,1.6,0.9,2.7,0.9c1.1,0,2-0.3,2.7-0.9c0.2-0.2,0.4-0.4,0.5-0.6
			c0.1-0.2,0.3-0.5,0.4-0.9c0.1-0.3,0.1-0.8,0.1-1.5v-4.9H311.5z"/>
		<polygon fill="#231F20" points="316.5,65.7 320.2,61.5 318.4,61.5 315,65.2 315,61.5 313.6,61.5 313.6,70.2 315,70.2 315,66.2 
			319.2,70.2 321.2,70.2 		"/>
		<path fill="#231F20" d="M323.2,63.1c-0.2-0.6-0.4-1-0.7-1.4c-0.2-0.4-0.6-0.8-1-1.3l-0.2-0.3h-0.9l0.1,0.2c0.4,0.6,0.8,1.2,1,1.7
			c0.2,0.6,0.4,1.2,0.6,1.9c0.1,0.7,0.2,1.3,0.2,2c0,0.6-0.1,1.2-0.2,1.9c-0.1,0.7-0.3,1.3-0.5,1.8c-0.2,0.5-0.6,1.2-1.1,2l-0.1,0.2
			h0.9l0,0c0.6-0.8,1.1-1.4,1.3-1.8c0.2-0.4,0.4-0.9,0.6-1.3c0.3-0.9,0.5-1.8,0.5-2.7C323.8,64.9,323.6,64,323.2,63.1"/>
		<path fill="#231F20" d="M327.5,74.4V61.6h2.9c1.5,0,2.7,0.4,3.5,1.1c0.8,0.8,1.3,1.8,1.3,3.1c0,1.3-0.4,2.3-1.2,3.1
			c-0.8,0.8-1.8,1.2-3,1.2c-0.5,0-1.1-0.1-1.8-0.4v4.5H327.5z M330.4,63.2h-1.2v5.2c0.5,0.3,1.1,0.4,1.6,0.4c0.8,0,1.4-0.3,1.9-0.8
			c0.5-0.5,0.7-1.2,0.7-2.1c0-0.6-0.1-1-0.4-1.5c-0.2-0.4-0.6-0.7-1-0.9C331.7,63.3,331.1,63.2,330.4,63.2"/>
		<rect x="336.6" y="57.2" fill="#231F20" width="1.7" height="12.9"/>
	</g>
	<g display="inline">
		<path fill="#231F20" d="M346.5,68.1v1.7c-0.8,0.3-1.7,0.5-2.5,0.5c-1.3,0-2.4-0.4-3.2-1.2c-0.8-0.8-1.2-1.8-1.2-3.2
			c0-1.3,0.4-2.4,1.2-3.2c0.8-0.8,1.8-1.2,3-1.2c0.4,0,0.8,0,1.2,0.1c0.3,0.1,0.8,0.2,1.3,0.5v1.8c-0.8-0.5-1.6-0.8-2.4-0.8
			c-0.8,0-1.4,0.3-1.9,0.8c-0.5,0.5-0.7,1.2-0.7,2c0,0.9,0.3,1.6,0.8,2.1c0.5,0.5,1.2,0.8,2.1,0.8C345,68.7,345.7,68.5,346.5,68.1"
			/>
		<path fill="#231F20" d="M51.4,61.5v10h-1.4c-0.6-2.6-1.7-4.6-3.4-6.1c-1.7-1.5-3.7-2.3-6-2.3c-2.8,0-5.1,1.1-6.9,3.3
			c-1.8,2.2-2.6,5-2.6,8.5c0,3.8,1,7.2,3.1,10c2.1,2.8,4.6,4.2,7.5,4.2c1.9,0,3.8-0.5,5.7-1.6c1.9-1,3.5-2.5,4.8-4.3v2.1
			c-3.1,4.2-7.2,6.2-12.5,6.2c-4.2,0-7.6-1.3-10.2-4c-2.6-2.6-4-6.1-4-10.3c0-4.3,1.4-8,4.3-11.1c2.8-3,6.3-4.6,10.3-4.6
			c1.8,0,3.8,0.4,6,1.1c1,0.3,1.6,0.5,2,0.5c0.8,0,1.4-0.5,1.9-1.6H51.4z"/>
	</g>
	<g display="inline">
		<path fill="#231F20" d="M76.2,84.7v-14c0-1.9-0.5-3.4-1.6-4.5c-1-1.1-2.4-1.7-4.1-1.7c-1.6,0-3,0.4-4.3,1.2
			c-1.3,0.8-2.6,2.2-4,4.1v15.5c0,1.5,0.3,2.5,1,3c0.7,0.5,1.9,0.8,3.7,0.8v1.3H51.9v-1.3c2.2-0.1,3.5-0.4,4.1-1.1
			c0.6-0.7,0.9-2.1,0.9-4.4V47c0-1.7-0.3-2.9-0.9-3.4c-0.6-0.6-2-0.8-4.1-0.8v-1.3l9.1-1h1.3v26.7c1.8-2.1,3.5-3.5,4.9-4.4
			c1.5-0.8,3.1-1.3,5-1.3c2.8,0,5,0.9,6.8,2.7c1.8,1.8,2.6,4.1,2.6,7.1v12.5c0,2.2,0.3,3.7,0.9,4.4c0.6,0.7,1.8,1.1,3.7,1.1v1.3
			H71.5v-1.3c1.9,0,3.2-0.3,3.8-0.9C75.9,87.7,76.2,86.5,76.2,84.7"/>
		<path fill="#231F20" d="M95.4,91.4c-2.2,0-4.1-0.7-5.7-2.2c-1.6-1.5-2.4-3.2-2.4-5.3c0-2,0.7-3.6,2-4.9c1.4-1.3,4.1-2.5,8.3-3.7
			c2.6-0.7,4.4-1.3,5.3-1.9v-2.1c0-2.1-0.6-3.7-1.7-5c-1.1-1.3-2.7-1.9-4.6-1.9c-1.7,0-3.3,0.5-4.6,1.6c-1.3,1.1-2.3,2.6-2.8,4.4
			l-1.4-0.4c0.6-2.6,1.8-4.7,3.7-6.3s4.1-2.4,6.7-2.4c3,0,5.5,0.9,7.4,2.7c1.9,1.8,2.8,4.4,2.8,7.6V84c0,1.7,0.1,2.9,0.3,3.5
			c0.2,0.6,0.6,0.9,1.3,0.9c0.4,0,0.8-0.2,1.1-0.5c0.3-0.4,0.6-1.1,0.9-2.2h1.3c-0.1,1.8-0.7,3.2-1.7,4.2c-1,1-2.2,1.6-3.8,1.6
			c-2.3,0-3.9-1.3-4.8-4c-1.4,1.5-2.6,2.6-3.7,3.2C98.1,91.2,96.8,91.4,95.4,91.4 M103,84.8v-9.6c-0.8,0.3-2,0.8-3.5,1.3
			c-2.8,1-4.6,1.9-5.4,2.9c-0.8,0.9-1.2,2.2-1.2,3.8c0,1.4,0.4,2.6,1.3,3.6c0.8,1,1.8,1.5,3,1.5c1.1,0,2.2-0.4,3.3-1
			C101.6,86.7,102.5,85.8,103,84.8"/>
		<path fill="#231F20" d="M123.9,61.5v5.9h0.2c1.2-1.8,2.7-3.2,4.5-4.3c1.8-1.1,3.7-1.6,5.5-1.6c2.1,0,3.9,0.6,5.5,1.7
			c1.6,1.1,2.7,2.7,3.4,4.6c3-4.2,6.5-6.3,10.4-6.3c2.8,0,5,0.8,6.8,2.5s2.7,4,2.7,7v14.2c0,1.5,0.3,2.6,1,3.1
			c0.7,0.5,1.9,0.8,3.7,0.8v1.4h-14.9v-1.4c2.1,0,3.4-0.3,3.9-1c0.6-0.7,0.9-2.1,0.9-4.4V70.4c0-1.8-0.5-3.2-1.6-4.3
			c-1.1-1-2.6-1.6-4.5-1.6c-3,0-5.6,1.8-8,5.4v15.1c0,1.6,0.3,2.6,1,3.2c0.7,0.6,1.9,0.8,3.7,0.8v1.4h-14.8v-1.4c2.1,0,3.4-0.3,4-1
			c0.5-0.7,0.8-2.1,0.8-4.4V70.7c0-1.9-0.6-3.4-1.7-4.5c-1.1-1.1-2.6-1.7-4.3-1.7c-1.5,0-3,0.5-4.5,1.5c-1.5,1-2.7,2.3-3.6,4v15.3
			c0,1.4,0.3,2.5,1.1,3c0.7,0.6,1.9,0.8,3.7,0.8v1.3h-15v-1.4c2.1,0,3.4-0.3,4-1c0.6-0.6,0.8-1.8,0.8-3.6V67.8
			c0-1.5-0.3-2.5-0.9-3.2c-0.6-0.7-1.6-1-3-1h-1.8v-1.3l9.7-0.9H123.9z"/>
		<path fill="#231F20" d="M175.9,61.5v4.8c1.8-1.7,3.4-3,4.9-3.7c1.5-0.7,3.1-1.1,4.9-1.1c3.7,0,6.7,1.4,9.1,4.2
			c2.4,2.8,3.6,6.3,3.6,10.5c0,4.4-1.3,8-4,10.9c-2.7,2.9-6,4.3-10,4.3c-2.8,0-5.6-1.1-8.5-3.3v18.6c0,1.9,0.3,3.2,1,3.8
			c0.7,0.6,1.9,0.9,3.7,0.9v1.3h-15.1v-1.3c1.9,0,3.3-0.3,3.9-0.8c0.7-0.5,1-1.6,1-3.1V68.1c0-1.9-0.3-3.1-0.9-3.6
			c-0.6-0.5-1.9-0.8-4.1-0.8v-1.3l9-0.9H175.9z M175.9,68.4v17.7c2.2,2.3,4.8,3.5,7.8,3.5c2.5,0,4.6-1.2,6.3-3.5
			c1.7-2.4,2.6-5.3,2.6-8.8c0-3.8-0.9-6.9-2.6-9.4c-1.7-2.5-3.9-3.7-6.5-3.7C180.9,64.2,178.4,65.6,175.9,68.4"/>
		<path fill="#231F20" d="M245,76.5c0,4.3-1.5,7.8-4.4,10.6c-2.9,2.8-6.6,4.3-11,4.3s-8.1-1.4-11-4.3c-2.9-2.8-4.4-6.4-4.4-10.6
			c0-4.3,1.5-7.9,4.4-10.7c2.9-2.8,6.6-4.3,11.1-4.3c4.4,0,8.1,1.4,11.1,4.3C243.6,68.7,245,72.2,245,76.5 M239.2,76.5
			c0-4-0.9-7.3-2.6-9.7c-1.7-2.5-4-3.7-7-3.7c-3,0-5.3,1.2-7,3.6c-1.7,2.4-2.6,5.7-2.6,9.8c0,4.1,0.8,7.3,2.5,9.7
			c1.7,2.4,4,3.6,7,3.6s5.3-1.2,7-3.7C238.3,83.8,239.2,80.5,239.2,76.5"/>
		<path fill="#231F20" d="M254.7,61.5v5.6c3.3-3.8,6.7-5.6,10.2-5.6c2.7,0,5,0.9,6.8,2.8c1.8,1.9,2.7,4.3,2.7,7.3v12.8
			c0,1.9,0.3,3.2,1,3.9c0.6,0.6,1.9,0.9,3.8,0.9v1.3h-15.1v-1.3c1.9,0,3.2-0.2,3.8-0.7c0.7-0.5,1-1.4,1-2.8V70.9
			c0-2-0.6-3.5-1.8-4.7c-1.2-1.2-2.7-1.8-4.5-1.8c-2.6,0-5.3,1.8-8,5.5v13.8c0,2.3,0.3,3.8,0.9,4.5c0.6,0.6,1.9,1,3.8,1v1.3h-14.9
			v-1.3c2.2,0,3.5-0.3,4-1c0.5-0.7,0.7-2.1,0.7-4.4V67.9c0-1.7-0.3-2.8-0.9-3.3c-0.6-0.5-1.9-0.8-3.8-0.8v-1.3l8.8-0.9H254.7z"/>
		<path fill="#231F20" d="M297.9,61.5v8.7h-1.6c-0.3-2.2-1-3.9-2.3-5.2c-1.3-1.3-2.9-1.9-4.7-1.9c-1.4,0-2.5,0.4-3.4,1.1
			c-0.9,0.7-1.3,1.6-1.3,2.8c0,1.1,0.4,2.1,1.2,3c0.8,0.9,2.5,1.9,5.2,3.1c3.4,1.6,5.7,3,6.8,4.5s1.7,3.1,1.7,5.1
			c0,2.4-0.9,4.4-2.6,6.1c-1.8,1.7-3.9,2.6-6.3,2.6c-1.2,0-2.9-0.5-4.9-1.4c-1.1-0.5-1.9-0.7-2.2-0.7c-0.5,0-0.9,0.2-1.2,0.5
			c-0.3,0.4-0.5,0.8-0.6,1.4h-1.4v-9.6h1.4c0.5,2.5,1.6,4.5,3.3,6c1.7,1.5,3.6,2.2,5.8,2.2c1.4,0,2.6-0.5,3.5-1.4
			c1-0.9,1.4-2.1,1.4-3.5c0-1.3-0.4-2.5-1.3-3.5c-0.9-1-2.8-2.1-5.7-3.4c-3.3-1.4-5.4-2.8-6.5-4c-1-1.2-1.6-2.7-1.6-4.5
			c0-2.2,0.8-4.1,2.5-5.7c1.7-1.6,3.7-2.4,6.1-2.4c1.1,0,2.3,0.3,3.5,0.8c0.9,0.4,1.6,0.5,2.2,0.5c0.8,0,1.3-0.4,1.7-1.3H297.9z"/>
		<path fill="#EB008B" d="M194,41.9c0.1-2.7,1.3-5,1.3-5c-1.3,8.5,6.5,8.4,11.7,10.2c4,1.4,6.6,2.9,7.8,6.8c0,0,0,0,0,0l0,0
			c0.5,1.8,0.6,3.8-0.2,5.9c0-4.7-4.6-6.8-9.2-8.2c-0.2-0.1-0.4-0.1-0.5-0.2c-2.6-0.8-5.1-1.4-6.7-2.2c-0.5-0.3-1-0.6-1.4-0.9
			c-0.4-0.3-0.8-0.7-1.1-1.1C194.2,45.7,193.8,43.7,194,41.9"/>
		<path fill="#EB008B" d="M195.2,49.6c0.3,0.4,0.6,0.7,1,1c0.4,0.3,0.9,0.6,1.4,0.9c1.6,0.8,4,1.4,6.5,2.1c0.2,0.1,0.4,0.1,0.5,0.2
			c4.1,1.3,8.2,3.1,8.8,7c0.1,1.1-0.1,2.2-0.5,3.4c0-4.1-4-5.8-7.9-7.1c-0.2-0.1-0.3-0.1-0.5-0.1c-2.2-0.7-4.4-1.2-5.8-1.9
			c-0.5-0.2-0.9-0.5-1.2-0.8c-0.4-0.3-0.7-0.6-1-0.9C195.6,52.1,195.2,50.9,195.2,49.6"/>
		<path fill="#EB008B" d="M211.8,64.5c-0.3-1.8-1.5-3-3.2-3.9c-1.1-0.6-2.3-1-3.5-1.4c-0.1,0-0.3-0.1-0.4-0.1
			c-0.2-0.1-0.3-0.1-0.5-0.2c-0.3-0.1-0.7-0.2-1-0.3c-1.3-0.4-2.6-0.7-3.4-1.2c-0.4-0.2-0.7-0.4-1.1-0.7c-0.3-0.2-0.6-0.5-0.8-0.8
			c0.1,0.9,0.4,2.1,1.1,2.9c0.1,0.1,0.2,0.2,0.3,0.4c0.1,0.1,0.2,0.2,0.4,0.3c0.3,0.2,0.6,0.4,0.9,0.6c0.6,0.3,1.5,0.6,2.5,0.9
			c0.6,0.2,1.2,0.4,1.9,0.5c0.1,0,0.2,0.1,0.4,0.1c0.2,0.1,0.3,0.1,0.5,0.2c0.1,0,0.1,0,0.2,0.1c0.1,0,0.2,0.1,0.3,0.1
			c0.1,0,0.1,0.1,0.2,0.1c0.1,0,0.2,0.1,0.3,0.1c0.1,0,0.2,0.1,0.2,0.1c0.1,0,0.2,0.1,0.2,0.1c0.1,0,0.2,0.1,0.3,0.1
			c0.1,0,0.1,0.1,0.2,0.1c0.3,0.1,0.5,0.3,0.7,0.4c0.3,0.2,0.5,0.3,0.8,0.5c0,0,0,0,0,0c0.1,0.1,0.2,0.2,0.3,0.3c0,0,0,0,0,0
			c0.1,0.1,0.2,0.2,0.3,0.3h0c0.5,0.5,0.9,1,1.1,1.7c0.1,0.3,0.2,0.7,0.2,1.1C211.7,66.2,211.9,65.3,211.8,64.5"/>
		<path fill="#EB008B" d="M209.8,88.4c-0.7-0.5-1-1.6-1-3.1V67.5v-1.9c-0.2-0.2-0.4-0.3-0.7-0.4c-0.8-0.4-1.7-0.7-2.5-1
			c-0.1,0-0.2-0.1-0.3-0.1c-0.1,0-0.2-0.1-0.4-0.1c-0.2-0.1-0.5-0.1-0.7-0.2c-0.3-0.1-0.5-0.2-0.8-0.2c-0.7-0.2-1.2-0.4-1.7-0.6
			c-0.3-0.2-0.5-0.3-0.8-0.5c-0.2-0.2-0.4-0.4-0.6-0.5c0,0.7,0.3,1.5,0.8,2.1c0.1,0.1,0.2,0.2,0.2,0.3c0.1,0.1,0.2,0.2,0.3,0.2
			c0.2,0.2,0.4,0.3,0.7,0.4c0.3,0.1,0.6,0.3,1,0.4v20c0,1.6-0.3,2.6-1,3.1c-0.6,0.5-2.1,0.8-4.4,0.8v1.3h15.4v-1.3
			C211.7,89.2,210.5,89,209.8,88.4"/>
	</g>
</g>
<g id="sponsor-logo_bspap" display="none">
	<g display="inline">
		<path fill="#4E0955" d="M163.1,72.8l-1.5,1.5c-0.6-0.6-1.2-0.9-1.7-0.9c-0.3,0-0.5,0.1-0.7,0.2c-0.2,0.1-0.2,0.3-0.2,0.4
			c0,0.1,0.1,0.3,0.1,0.4c0.1,0.1,0.3,0.3,0.7,0.5l0.9,0.5c1,0.5,1.6,1,2,1.4c0.4,0.5,0.5,1.1,0.5,1.7c0,0.9-0.3,1.6-1,2.2
			c-0.6,0.6-1.5,0.9-2.6,0.9c-1.4,0-2.6-0.6-3.4-1.7l1.5-1.6c0.3,0.3,0.6,0.6,1,0.8s0.7,0.3,1,0.3c0.3,0,0.6-0.1,0.8-0.2
			c0.2-0.2,0.3-0.3,0.3-0.5c0-0.4-0.4-0.7-1.1-1.1L159,77c-1.6-0.8-2.4-1.8-2.4-3c0-0.8,0.3-1.4,0.9-2c0.6-0.5,1.4-0.8,2.3-0.8
			c0.6,0,1.2,0.1,1.8,0.4C162.2,71.8,162.7,72.2,163.1,72.8"/>
		<path fill="#4E0955" d="M167.7,71.4v1.1c0.4-0.4,0.9-0.8,1.4-1c0.5-0.2,1.1-0.3,1.7-0.3c1.3,0,2.4,0.5,3.3,1.5
			c0.9,1,1.3,2.2,1.3,3.7c0,1.5-0.5,2.7-1.4,3.7c-0.9,1-2,1.5-3.3,1.5c-0.6,0-1.1-0.1-1.6-0.3c-0.5-0.2-1-0.5-1.5-1v4.6h-2.5V71.4
			H167.7z M170.2,73.4c-0.8,0-1.4,0.3-1.9,0.8c-0.5,0.5-0.8,1.2-0.8,2.1c0,0.9,0.3,1.6,0.8,2.1c0.5,0.5,1.2,0.8,1.9,0.8
			c0.8,0,1.4-0.3,1.9-0.8c0.5-0.5,0.8-1.2,0.8-2.1c0-0.8-0.3-1.5-0.8-2.1C171.7,73.7,171,73.4,170.2,73.4"/>
		<path fill="#4E0955" d="M182,71.1c0.9,0,1.8,0.2,2.6,0.7c0.8,0.5,1.5,1.1,1.9,1.9c0.5,0.8,0.7,1.7,0.7,2.6c0,0.9-0.2,1.8-0.7,2.6
			c-0.5,0.8-1.1,1.4-1.9,1.9c-0.8,0.5-1.7,0.7-2.6,0.7c-1.4,0-2.6-0.5-3.6-1.5c-1-1-1.5-2.2-1.5-3.7c0-1.5,0.6-2.8,1.7-3.8
			C179.6,71.6,180.8,71.1,182,71.1 M182.1,73.5c-0.8,0-1.4,0.3-1.9,0.8c-0.5,0.5-0.8,1.2-0.8,2c0,0.9,0.3,1.6,0.8,2.1
			c0.5,0.5,1.1,0.8,1.9,0.8c0.8,0,1.4-0.3,1.9-0.8c0.5-0.5,0.8-1.2,0.8-2.1c0-0.8-0.3-1.5-0.8-2.1C183.5,73.7,182.9,73.5,182.1,73.5
			"/>
		<path fill="#4E0955" d="M188.7,71.4h2.1v1.2c0.2-0.5,0.5-0.9,0.9-1.1c0.4-0.3,0.8-0.4,1.2-0.4c0.3,0,0.7,0.1,1,0.3l-0.8,2.1
			c-0.3-0.1-0.5-0.2-0.7-0.2c-0.4,0-0.7,0.2-1,0.7c-0.3,0.5-0.4,1.4-0.4,2.8l0,0.5v4h-2.5V71.4z"/>
		<polygon fill="#4E0955" points="195.5,67.8 198,67.8 198,71.4 199.4,71.4 199.4,73.5 198,73.5 198,81.2 195.5,81.2 195.5,73.5 
			194.2,73.5 194.2,71.4 195.5,71.4 		"/>
		<path fill="#4E0955" d="M214.5,76l1.5,1.7l-0.7,0.6l-0.7,0.6l2.1,2.3h-3.1l-0.9-0.9c-1.4,0.8-2.7,1.2-3.9,1.2
			c-1,0-1.8-0.3-2.5-0.9c-0.6-0.6-0.9-1.4-0.9-2.3c0-0.7,0.2-1.4,0.5-2c0.4-0.6,1-1.3,1.8-1.9c-0.9-1.1-1.3-2.2-1.3-3.1
			c0-0.7,0.3-1.3,0.9-1.9c0.6-0.6,1.4-1,2.4-1c1,0,1.8,0.3,2.4,0.9c0.6,0.6,0.8,1.3,0.8,1.9c0,0.5-0.1,1-0.4,1.5
			c-0.3,0.5-0.8,1.2-1.8,2.1c1.1,1.3,1.8,2.1,2.1,2.4C213.3,77.1,213.8,76.7,214.5,76 M211.2,78.6c-0.5-0.5-1.1-1.2-2-2.3
			c-0.9,0.7-1.3,1.4-1.3,1.9c0,0.3,0.1,0.5,0.4,0.7c0.2,0.2,0.6,0.3,0.9,0.3C209.8,79.3,210.4,79,211.2,78.6 M209.7,73.1
			c0.7-0.6,1-1.1,1-1.5c0-0.2-0.1-0.4-0.2-0.6c-0.1-0.1-0.3-0.2-0.6-0.2c-0.2,0-0.4,0.1-0.6,0.2c-0.2,0.2-0.2,0.3-0.2,0.6
			C209.1,72,209.3,72.5,209.7,73.1"/>
		<path fill="#4E0955" d="M226.2,71.4v1.1c0.4-0.4,0.9-0.8,1.4-1c0.5-0.2,1.1-0.3,1.7-0.3c1.3,0,2.4,0.5,3.3,1.5
			c0.9,1,1.3,2.2,1.3,3.7c0,1.5-0.5,2.7-1.4,3.7c-0.9,1-2,1.5-3.3,1.5c-0.6,0-1.1-0.1-1.6-0.3c-0.5-0.2-1-0.5-1.5-1v4.6h-2.5V71.4
			H226.2z M228.8,73.4c-0.8,0-1.4,0.3-1.9,0.8c-0.5,0.5-0.8,1.2-0.8,2.1c0,0.9,0.3,1.6,0.8,2.1c0.5,0.5,1.2,0.8,1.9,0.8
			c0.8,0,1.4-0.3,1.9-0.8s0.8-1.2,0.8-2.1c0-0.8-0.3-1.5-0.8-2.1C230.2,73.7,229.5,73.4,228.8,73.4"/>
		<path fill="#4E0955" d="M235.9,67.6h2.5v4.8c0.5-0.4,1-0.7,1.5-0.9c0.5-0.2,1-0.3,1.5-0.3c1,0,1.8,0.3,2.5,1
			c0.6,0.6,0.9,1.4,0.9,2.6v6.5h-2.4v-4.3c0-1.1-0.1-1.9-0.2-2.3c-0.1-0.4-0.3-0.7-0.6-0.9c-0.3-0.2-0.6-0.3-1-0.3
			c-0.5,0-0.9,0.2-1.3,0.5c-0.4,0.3-0.6,0.8-0.7,1.4c-0.1,0.3-0.1,1-0.1,2v4h-2.5V67.6z"/>
		<polygon fill="#4E0955" points="246,71.4 248.5,71.4 251,77.6 253.9,71.4 256.4,71.4 250.2,84.8 247.7,84.8 249.7,80.5 		"/>
		<path fill="#4E0955" d="M263.8,72.8l-1.5,1.5c-0.6-0.6-1.2-0.9-1.7-0.9c-0.3,0-0.5,0.1-0.7,0.2c-0.2,0.1-0.2,0.3-0.2,0.4
			c0,0.1,0,0.3,0.1,0.4c0.1,0.1,0.3,0.3,0.7,0.5l0.9,0.5c1,0.5,1.6,1,2,1.4c0.4,0.5,0.5,1.1,0.5,1.7c0,0.9-0.3,1.6-1,2.2
			c-0.6,0.6-1.5,0.9-2.6,0.9c-1.4,0-2.6-0.6-3.4-1.7l1.5-1.6c0.3,0.3,0.6,0.6,1,0.8c0.4,0.2,0.7,0.3,1,0.3c0.3,0,0.6-0.1,0.8-0.2
			c0.2-0.2,0.3-0.3,0.3-0.5c0-0.4-0.4-0.7-1.1-1.1l-0.8-0.4c-1.6-0.8-2.4-1.8-2.4-3c0-0.8,0.3-1.4,0.9-2c0.6-0.5,1.4-0.8,2.3-0.8
			c0.6,0,1.2,0.1,1.8,0.4C262.9,71.8,263.4,72.2,263.8,72.8"/>
		<path fill="#4E0955" d="M266.9,67.3c0.4,0,0.8,0.2,1.1,0.5c0.3,0.3,0.5,0.7,0.5,1.1c0,0.4-0.2,0.8-0.5,1.1
			c-0.3,0.3-0.7,0.5-1.1,0.5c-0.4,0-0.8-0.2-1.1-0.5c-0.3-0.3-0.5-0.7-0.5-1.2c0-0.4,0.2-0.8,0.5-1.1
			C266.1,67.5,266.5,67.3,266.9,67.3 M265.7,71.4h2.5v9.8h-2.5V71.4z"/>
		<path fill="#4E0955" d="M280,73.4l-2.1,1.1c-0.4-0.4-0.8-0.7-1.1-0.8c-0.4-0.2-0.8-0.2-1.3-0.2c-0.9,0-1.7,0.3-2.2,0.8
			c-0.6,0.6-0.9,1.3-0.9,2.1c0,0.8,0.3,1.5,0.8,2c0.6,0.5,1.3,0.8,2.2,0.8c1.1,0,2-0.4,2.6-1.1l1.9,1.3c-1.1,1.4-2.5,2.1-4.5,2.1
			c-1.7,0-3.1-0.5-4.1-1.5c-1-1-1.5-2.2-1.5-3.6c0-0.9,0.2-1.8,0.7-2.6c0.5-0.8,1.1-1.4,2-1.9c0.9-0.5,1.8-0.7,2.9-0.7
			c1,0,1.9,0.2,2.6,0.6C278.9,72.1,279.5,72.7,280,73.4"/>
		<path fill="#4E0955" d="M289.5,71.4h2.5v9.8h-2.5v-1c-0.5,0.5-1,0.8-1.4,1c-0.5,0.2-1,0.3-1.6,0.3c-1.3,0-2.4-0.5-3.3-1.5
			c-0.9-1-1.4-2.2-1.4-3.7c0-1.5,0.4-2.8,1.3-3.7c0.9-1,2-1.5,3.3-1.5c0.6,0,1.1,0.1,1.7,0.3c0.5,0.2,1,0.6,1.4,1V71.4z M286.9,73.4
			c-0.8,0-1.4,0.3-1.9,0.8c-0.5,0.5-0.8,1.2-0.8,2.1c0,0.9,0.3,1.5,0.8,2.1c0.5,0.5,1.1,0.8,1.9,0.8c0.8,0,1.4-0.3,1.9-0.8
			c0.5-0.5,0.8-1.2,0.8-2.1c0-0.9-0.3-1.6-0.8-2.1C288.3,73.7,287.7,73.4,286.9,73.4"/>
		<rect x="294.2" y="67.6" fill="#4E0955" width="2.5" height="13.6"/>
		<path fill="#4E0955" d="M311.3,71.4h2.5v9.8h-2.5v-1c-0.5,0.5-1,0.8-1.4,1c-0.5,0.2-1,0.3-1.6,0.3c-1.3,0-2.4-0.5-3.3-1.5
			c-0.9-1-1.4-2.2-1.4-3.7c0-1.5,0.4-2.8,1.3-3.7c0.9-1,2-1.5,3.3-1.5c0.6,0,1.1,0.1,1.7,0.3c0.5,0.2,1,0.6,1.4,1V71.4z M308.7,73.4
			c-0.8,0-1.4,0.3-1.9,0.8c-0.5,0.5-0.8,1.2-0.8,2.1c0,0.9,0.3,1.5,0.8,2.1c0.5,0.5,1.1,0.8,1.9,0.8c0.8,0,1.4-0.3,1.9-0.8
			c0.5-0.5,0.8-1.2,0.8-2.1c0-0.9-0.3-1.6-0.8-2.1C310.2,73.7,309.5,73.4,308.7,73.4"/>
		<path fill="#4E0955" d="M325.9,73.4l-2.1,1.1c-0.4-0.4-0.8-0.7-1.1-0.8c-0.4-0.2-0.8-0.2-1.3-0.2c-0.9,0-1.7,0.3-2.2,0.8
			c-0.6,0.6-0.9,1.3-0.9,2.1c0,0.8,0.3,1.5,0.8,2c0.6,0.5,1.3,0.8,2.2,0.8c1.1,0,2-0.4,2.6-1.1l1.9,1.3c-1.1,1.4-2.5,2.1-4.5,2.1
			c-1.7,0-3.1-0.5-4.1-1.5c-1-1-1.5-2.2-1.5-3.6c0-0.9,0.2-1.8,0.7-2.6c0.5-0.8,1.1-1.4,2-1.9c0.9-0.5,1.8-0.7,2.9-0.7
			c1,0,1.9,0.2,2.6,0.6C324.8,72.1,325.4,72.7,325.9,73.4"/>
		<polygon fill="#4E0955" points="328.5,67.8 330.9,67.8 330.9,71.4 332.4,71.4 332.4,73.5 330.9,73.5 330.9,81.2 328.5,81.2 
			328.5,73.5 327.2,73.5 327.2,71.4 328.5,71.4 		"/>
		<path fill="#4E0955" d="M334.7,67.3c0.4,0,0.8,0.2,1.1,0.5c0.3,0.3,0.5,0.7,0.5,1.1c0,0.4-0.2,0.8-0.5,1.1
			c-0.3,0.3-0.7,0.5-1.1,0.5c-0.4,0-0.8-0.2-1.1-0.5c-0.3-0.3-0.5-0.7-0.5-1.2c0-0.4,0.2-0.8,0.5-1.1
			C333.9,67.5,334.2,67.3,334.7,67.3 M333.4,71.4h2.5v9.8h-2.5V71.4z"/>
		<polygon fill="#4E0955" points="337.1,71.4 339.6,71.4 342.1,77.2 344.6,71.4 347.1,71.4 342.9,81.2 341.3,81.2 		"/>
		<path fill="#4E0955" d="M349.5,67.3c0.4,0,0.8,0.2,1.1,0.5c0.3,0.3,0.5,0.7,0.5,1.1c0,0.4-0.2,0.8-0.5,1.1
			c-0.3,0.3-0.7,0.5-1.1,0.5c-0.4,0-0.8-0.2-1.1-0.5c-0.3-0.3-0.5-0.7-0.5-1.2c0-0.4,0.2-0.8,0.5-1.1S349,67.3,349.5,67.3
			 M348.2,71.4h2.5v9.8h-2.5V71.4z"/>
		<polygon fill="#4E0955" points="353.3,67.8 355.7,67.8 355.7,71.4 357.2,71.4 357.2,73.5 355.7,73.5 355.7,81.2 353.3,81.2 
			353.3,73.5 352,73.5 352,71.4 353.3,71.4 		"/>
		<polygon fill="#4E0955" points="357.4,71.4 359.9,71.4 362.5,77.6 365.3,71.4 367.8,71.4 361.7,84.8 359.1,84.8 361.2,80.5 		"/>
		<path fill="#4E0955" d="M159.5,93.6v1.1c0.4-0.4,0.9-0.8,1.4-1c0.5-0.2,1.1-0.3,1.7-0.3c1.3,0,2.4,0.5,3.3,1.5
			c0.9,1,1.3,2.2,1.3,3.7c0,1.5-0.5,2.7-1.4,3.7c-0.9,1-2,1.5-3.3,1.5c-0.6,0-1.1-0.1-1.6-0.3c-0.5-0.2-1-0.5-1.5-1v4.6h-2.5V93.6
			H159.5z M162.1,95.6c-0.8,0-1.4,0.3-1.9,0.8c-0.5,0.5-0.8,1.2-0.8,2.1c0,0.9,0.3,1.6,0.8,2.1c0.5,0.5,1.2,0.8,1.9,0.8
			c0.8,0,1.4-0.3,1.9-0.8c0.5-0.5,0.8-1.3,0.8-2.1s-0.3-1.5-0.8-2.1C163.5,95.9,162.9,95.6,162.1,95.6"/>
		<path fill="#4E0955" d="M176.5,93.6h2.5v9.8h-2.5v-1c-0.5,0.5-1,0.8-1.5,1c-0.5,0.2-1,0.3-1.6,0.3c-1.3,0-2.4-0.5-3.3-1.5
			c-0.9-1-1.4-2.2-1.4-3.7c0-1.5,0.4-2.8,1.3-3.7c0.9-1,2-1.5,3.3-1.5c0.6,0,1.1,0.1,1.7,0.3c0.5,0.2,1,0.6,1.4,1V93.6z M173.9,95.6
			c-0.8,0-1.4,0.3-1.9,0.8c-0.5,0.5-0.8,1.2-0.8,2.1s0.3,1.6,0.8,2.1c0.5,0.5,1.1,0.8,1.9,0.8c0.8,0,1.4-0.3,1.9-0.8
			c0.5-0.5,0.8-1.2,0.8-2.1c0-0.9-0.3-1.5-0.8-2.1C175.4,95.9,174.7,95.6,173.9,95.6"/>
		<path fill="#4E0955" d="M180.9,93.6h2.1v1.2c0.2-0.5,0.5-0.9,0.9-1.1c0.4-0.2,0.8-0.4,1.2-0.4c0.3,0,0.7,0.1,1,0.3l-0.8,2.1
			c-0.3-0.1-0.5-0.2-0.7-0.2c-0.4,0-0.7,0.2-1,0.7c-0.3,0.5-0.4,1.4-0.4,2.8l0,0.5v4h-2.5V93.6z"/>
		<polygon fill="#4E0955" points="187.7,90 190.2,90 190.2,93.6 191.7,93.6 191.7,95.7 190.2,95.7 190.2,103.5 187.7,103.5 
			187.7,95.7 186.5,95.7 186.5,93.6 187.7,93.6 		"/>
		<path fill="#4E0955" d="M193,93.6h2.5v1c0.6-0.5,1.1-0.8,1.5-1c0.5-0.2,0.9-0.3,1.4-0.3c1,0,1.8,0.3,2.5,1
			c0.6,0.6,0.9,1.4,0.9,2.6v6.5h-2.4v-4.3c0-1.2,0-1.9-0.2-2.3c-0.1-0.4-0.3-0.7-0.6-0.9c-0.3-0.2-0.6-0.3-1-0.3
			c-0.5,0-0.9,0.2-1.3,0.5c-0.4,0.3-0.6,0.8-0.7,1.4c-0.1,0.3-0.1,1-0.1,2v3.9H193V93.6z"/>
		<path fill="#4E0955" d="M214,99.2H206c0.1,0.7,0.4,1.3,0.9,1.7c0.5,0.4,1.1,0.6,1.9,0.6c0.9,0,1.7-0.3,2.4-1l2.1,1
			c-0.5,0.7-1.1,1.3-1.9,1.6c-0.7,0.3-1.6,0.5-2.6,0.5c-1.5,0-2.8-0.5-3.8-1.5c-1-1-1.5-2.2-1.5-3.7c0-1.5,0.5-2.7,1.5-3.7
			c1-1,2.2-1.5,3.6-1.5c1.5,0,2.8,0.5,3.8,1.5c1,1,1.5,2.3,1.5,3.9L214,99.2z M211.5,97.3c-0.2-0.5-0.5-1-1-1.3
			c-0.5-0.3-1-0.5-1.7-0.5c-0.7,0-1.3,0.2-1.8,0.6c-0.3,0.2-0.6,0.7-0.9,1.3H211.5z"/>
		<path fill="#4E0955" d="M215.4,93.6h2.1v1.2c0.2-0.5,0.5-0.9,0.9-1.1c0.4-0.2,0.8-0.4,1.2-0.4c0.3,0,0.7,0.1,1,0.3l-0.8,2.1
			c-0.3-0.1-0.5-0.2-0.7-0.2c-0.4,0-0.7,0.2-1,0.7c-0.3,0.5-0.4,1.4-0.4,2.8l0,0.5v4h-2.5V93.6z"/>
		<path fill="#4E0955" d="M227.9,95l-1.5,1.5c-0.6-0.6-1.2-0.9-1.7-0.9c-0.3,0-0.5,0.1-0.6,0.2c-0.2,0.1-0.2,0.3-0.2,0.4
			c0,0.1,0,0.3,0.1,0.4c0.1,0.1,0.3,0.3,0.7,0.5l0.9,0.5c1,0.5,1.6,0.9,2,1.4c0.4,0.5,0.5,1.1,0.5,1.7c0,0.9-0.3,1.6-1,2.2
			c-0.6,0.6-1.5,0.9-2.6,0.9c-1.4,0-2.6-0.6-3.4-1.7l1.5-1.7c0.3,0.3,0.6,0.6,1,0.8c0.4,0.2,0.7,0.3,1,0.3c0.3,0,0.6-0.1,0.8-0.2
			c0.2-0.2,0.3-0.3,0.3-0.5c0-0.4-0.4-0.7-1.1-1.1l-0.8-0.4c-1.6-0.8-2.4-1.8-2.4-3c0-0.8,0.3-1.4,0.9-2c0.6-0.5,1.4-0.8,2.3-0.8
			c0.6,0,1.2,0.1,1.8,0.4C227,94.1,227.5,94.5,227.9,95"/>
		<path fill="#4E0955" d="M230,89.8h2.4v4.8c0.5-0.4,1-0.7,1.5-0.9c0.5-0.2,1-0.3,1.5-0.3c1,0,1.8,0.3,2.5,1
			c0.6,0.6,0.9,1.4,0.9,2.6v6.5h-2.4v-4.3c0-1.1-0.1-1.9-0.2-2.3c-0.1-0.4-0.3-0.7-0.6-0.9c-0.3-0.2-0.6-0.3-1-0.3
			c-0.5,0-0.9,0.2-1.3,0.5c-0.4,0.3-0.6,0.8-0.7,1.4c-0.1,0.3-0.1,1-0.1,2v4H230V89.8z"/>
		<path fill="#4E0955" d="M242.1,89.6c0.4,0,0.8,0.2,1.1,0.5c0.3,0.3,0.5,0.7,0.5,1.1c0,0.4-0.2,0.8-0.5,1.1
			c-0.3,0.3-0.7,0.5-1.1,0.5c-0.4,0-0.8-0.2-1.1-0.5c-0.3-0.3-0.5-0.7-0.5-1.1c0-0.4,0.2-0.8,0.5-1.1
			C241.3,89.7,241.7,89.6,242.1,89.6 M240.9,93.6h2.5v9.8h-2.5V93.6z"/>
		<path fill="#4E0955" d="M248,93.6v1.1c0.4-0.4,0.9-0.8,1.4-1s1.1-0.3,1.7-0.3c1.3,0,2.4,0.5,3.3,1.5c0.9,1,1.3,2.2,1.3,3.7
			c0,1.5-0.5,2.7-1.4,3.7c-0.9,1-2,1.5-3.3,1.5c-0.6,0-1.1-0.1-1.6-0.3c-0.5-0.2-1-0.5-1.5-1v4.6h-2.5V93.6H248z M250.6,95.6
			c-0.8,0-1.4,0.3-1.9,0.8c-0.5,0.5-0.8,1.2-0.8,2.1c0,0.9,0.3,1.6,0.8,2.1c0.5,0.5,1.2,0.8,1.9,0.8c0.8,0,1.4-0.3,1.9-0.8
			c0.5-0.5,0.8-1.3,0.8-2.1s-0.3-1.5-0.8-2.1C252,95.9,251.4,95.6,250.6,95.6"/>
		<path fill="#F19025" d="M142,75c0-31.6-25.7-57.4-57.4-57.4C53,17.6,27.3,43.4,27.3,75s25.7,57.4,57.4,57.4
			C116.3,132.4,142,106.6,142,75"/>
		<path fill="#4E0955" d="M84.7,12.5C59,12.5,36.9,28,27.3,50.2V12.5h-5.1v60.5h0c0,0.6,0,1.3,0,1.9c0,34.5,28,62.5,62.5,62.5
			s62.5-28,62.5-62.5S119.1,12.5,84.7,12.5 M27.3,75c0-31.6,25.7-57.4,57.4-57.4S142,43.4,142,75s-25.7,57.4-57.4,57.4
			S27.3,106.6,27.3,75"/>
		<path fill="#FFFFFF" d="M44.2,76.4c0,1.5-0.5,2.7-1.6,3.8c-1.1,1-2.4,1.6-3.9,1.6c-1.5,0-2.7-0.5-3.8-1.6c-1-1-1.5-2.3-1.5-3.8
			V66.2c0-0.2,0.1-0.3,0.3-0.3h1.6c0.2,0,0.3,0.1,0.3,0.3v5.9c0.9-0.7,2-1,3.2-1c1.5,0,2.8,0.5,3.9,1.6S44.2,74.9,44.2,76.4
			 M42,76.4c0-0.9-0.3-1.7-1-2.4c-0.7-0.7-1.5-1-2.4-1c-0.9,0-1.7,0.3-2.3,1c-0.6,0.7-0.9,1.5-0.9,2.4c0,1,0.3,1.8,0.9,2.4
			c0.6,0.7,1.3,1,2.3,1c0.9,0,1.8-0.3,2.4-1C41.7,78.1,42,77.3,42,76.4"/>
		<path fill="#FFFFFF" d="M47.5,68.3c0,0.3-0.1,0.6-0.4,0.9c-0.2,0.3-0.5,0.4-0.9,0.4c-0.4,0-0.7-0.1-0.9-0.4
			C45.1,69,45,68.7,45,68.3c0-0.3,0.1-0.6,0.4-0.9c0.3-0.2,0.6-0.4,0.9-0.4c0.3,0,0.6,0.1,0.9,0.4C47.4,67.7,47.5,68,47.5,68.3
			 M47.3,81.3c0,0.2-0.1,0.3-0.3,0.3h-1.6c-0.2,0-0.3-0.1-0.3-0.3v-9.8c0-0.2,0.1-0.3,0.3-0.3H47c0.2,0,0.3,0.1,0.3,0.3V81.3z"/>
		<path fill="#FFFFFF" d="M55.9,72.1l-1,1.1c-0.1,0.1-0.2,0.1-0.4,0.1c-0.4-0.2-0.8-0.3-1.3-0.3c-1.1,0-1.8,0.4-2.1,1.1
			c-0.1,0.3-0.2,0.9-0.2,1.8v5.4c0,0.2-0.1,0.3-0.3,0.3H49c-0.2,0-0.3-0.1-0.3-0.3v-5.8c0-1.1,0.2-2,0.7-2.8
			c0.7-1.1,1.9-1.6,3.7-1.6c1,0,1.8,0.2,2.6,0.6C56,71.8,56,71.9,55.9,72.1"/>
		<path fill="#FFFFFF" d="M71.1,81.3c0,0.2-0.1,0.3-0.3,0.3h-1.6c-0.2,0-0.3-0.1-0.3-0.3v-5.4c0-0.9-0.1-1.5-0.2-1.8
			c-0.3-0.8-1-1.1-2.1-1.1c-1,0-1.7,0.4-2,1.1c-0.1,0.3-0.2,0.9-0.2,1.6v5.5c0,0.2-0.1,0.3-0.3,0.3h-1.6c-0.2,0-0.3-0.1-0.3-0.3
			v-5.8c0-0.6-0.1-1.1-0.2-1.4c-0.3-0.8-1-1.1-2.1-1.1c-1,0-1.7,0.4-2,1.1c-0.1,0.3-0.2,0.9-0.2,1.8v5.4c0,0.2-0.1,0.3-0.3,0.3H56
			c-0.2,0-0.3-0.1-0.3-0.3v-5.8c0-1.1,0.2-2,0.7-2.8c0.7-1.1,1.9-1.6,3.6-1.6c1.5,0,2.6,0.4,3.3,1.2c0.7-0.8,1.8-1.2,3.2-1.2
			c1.8,0,3,0.5,3.7,1.6c0.5,0.7,0.7,1.7,0.7,2.8V81.3z"/>
		<path fill="#FFFFFF" d="M74.9,68.3c0,0.3-0.1,0.6-0.4,0.9c-0.2,0.3-0.5,0.4-0.9,0.4c-0.4,0-0.7-0.1-0.9-0.4
			c-0.3-0.2-0.4-0.5-0.4-0.9c0-0.3,0.1-0.6,0.4-0.9c0.3-0.2,0.6-0.4,0.9-0.4c0.3,0,0.6,0.1,0.9,0.4C74.8,67.7,74.9,68,74.9,68.3
			 M74.7,81.3c0,0.2-0.1,0.3-0.3,0.3h-1.6c-0.2,0-0.3-0.1-0.3-0.3v-9.8c0-0.2,0.1-0.3,0.3-0.3h1.6c0.2,0,0.3,0.1,0.3,0.3V81.3z"/>
		<path fill="#FFFFFF" d="M85,81.3c0,0.2-0.1,0.3-0.3,0.3h-1.6c-0.2,0-0.3-0.1-0.3-0.3v-5.4c0-0.9-0.1-1.5-0.2-1.8
			c-0.1-0.4-0.4-0.7-0.9-0.9c-0.4-0.2-0.8-0.3-1.3-0.3c-1.1,0-1.8,0.4-2.1,1.1c-0.1,0.3-0.2,0.9-0.2,1.8v5.4c0,0.2-0.1,0.3-0.3,0.3
			h-1.6c-0.2,0-0.3-0.1-0.3-0.3v-5.8c0-1.1,0.2-2,0.7-2.8c0.7-1.1,1.9-1.6,3.7-1.6c1.8,0,3.1,0.5,3.8,1.6c0.5,0.7,0.7,1.6,0.7,2.8
			V81.3z"/>
		<path fill="#FFFFFF" d="M96.9,76.4v5.3c0,1.6-0.5,2.9-1.4,3.8c-1,0.9-2.2,1.3-3.8,1.3c-1.4,0-2.6-0.4-3.6-1.2L87.4,85
			c-0.2-0.1-0.2-0.3,0-0.4l1.1-1.1c0.2-0.1,0.3-0.1,0.4,0c0,0.1,0.1,0.2,0.3,0.3c0.7,0.6,1.5,1,2.4,1c0.9,0,1.7-0.2,2.2-0.7
			c0.6-0.5,0.9-1.2,0.9-2.1c0,0,0-0.5,0-1.4c-1,0.8-2,1.1-3.2,1.1c-1.5,0-2.8-0.5-3.9-1.6c-1.1-1-1.6-2.3-1.6-3.8
			c0-1.5,0.5-2.7,1.6-3.8c1.1-1,2.4-1.6,3.9-1.6c1.5,0,2.8,0.5,3.8,1.5S96.9,74.9,96.9,76.4 M94.7,76.4c0-1-0.3-1.8-0.9-2.4
			c-0.6-0.7-1.4-1-2.3-1c-0.9,0-1.7,0.3-2.4,1c-0.7,0.7-1,1.5-1,2.4c0,0.9,0.3,1.7,1,2.4c0.7,0.7,1.5,1,2.4,1c0.9,0,1.7-0.3,2.3-1
			C94.4,78.1,94.7,77.3,94.7,76.4"/>
		<path fill="#FFFFFF" d="M107.2,81.3c0,0.2-0.1,0.3-0.3,0.3h-1.6c-0.2,0-0.3-0.1-0.3-0.3v-5.4c0-0.9-0.1-1.5-0.2-1.8
			c-0.1-0.4-0.4-0.7-0.9-0.9c-0.4-0.2-0.8-0.3-1.3-0.3c-1.5,0-2.3,1-2.3,2.9v5.4c0,0.2-0.1,0.3-0.3,0.3h-1.6c-0.2,0-0.3-0.1-0.3-0.3
			V66.2c0-0.2,0.1-0.3,0.3-0.3h1.6c0.2,0,0.3,0.1,0.3,0.3v5.6c0.7-0.5,1.5-0.8,2.3-0.8c1.8,0,3.1,0.5,3.8,1.6
			c0.5,0.7,0.7,1.6,0.7,2.8V81.3z"/>
		<path fill="#FFFFFF" d="M119,76.4v4.9c0,0.2-0.1,0.3-0.3,0.3h-1.6c-0.2,0-0.3-0.1-0.3-0.3v-0.6c-1,0.7-2,1-3.2,1
			c-1.5,0-2.8-0.5-3.9-1.6c-1.1-1-1.6-2.3-1.6-3.8c0-1.5,0.5-2.7,1.6-3.8c1.1-1,2.4-1.6,3.9-1.6c1.5,0,2.8,0.5,3.8,1.5
			C118.5,73.6,119,74.9,119,76.4 M116.9,76.4c0-1-0.3-1.8-0.9-2.4c-0.6-0.7-1.4-1-2.3-1c-0.9,0-1.7,0.3-2.4,1c-0.7,0.7-1,1.5-1,2.4
			c0,0.9,0.3,1.7,1,2.4c0.7,0.7,1.5,1,2.4,1c0.9,0,1.7-0.3,2.3-1C116.6,78.1,116.9,77.3,116.9,76.4"/>
		<path fill="#FFFFFF" d="M135.7,81.3c0,0.2-0.1,0.3-0.3,0.3h-1.6c-0.2,0-0.3-0.1-0.3-0.3v-5.4c0-0.9-0.1-1.5-0.2-1.8
			c-0.3-0.8-1-1.1-2.1-1.1c-1,0-1.7,0.4-2,1.1c-0.1,0.3-0.2,0.9-0.2,1.6v5.5c0,0.2-0.1,0.3-0.3,0.3h-1.6c-0.2,0-0.3-0.1-0.3-0.3
			v-5.8c0-0.6-0.1-1.1-0.2-1.4c-0.3-0.8-1-1.1-2.1-1.1c-1,0-1.7,0.4-2,1.1c-0.1,0.3-0.2,0.9-0.2,1.8v5.4c0,0.2-0.1,0.3-0.3,0.3h-1.6
			c-0.2,0-0.3-0.1-0.3-0.3v-5.8c0-1.1,0.2-2,0.7-2.8c0.7-1.1,1.9-1.6,3.6-1.6c1.5,0,2.6,0.4,3.3,1.2c0.7-0.8,1.8-1.2,3.2-1.2
			c1.8,0,3,0.5,3.7,1.6c0.5,0.7,0.7,1.7,0.7,2.8V81.3z"/>
	</g>
</g>
<g id="sponsor-logo_mattioli-woods">
	<g>
		<rect x="71.3" y="49.5" fill="#C41230" width="0.9" height="53.2"/>
		<path fill="#C41230" d="M41,76.2c1.1-3.8,5.6-10.2,13.4-9.7c7.8,0.5,10.3,7.6,7.5,10.7c-1.8,2-4.6,0.9-4.6,0.9s4.6-0.6,3.1-5.6
			c-0.5-1.7-1.8-3-3.4-3.7c-1.1-0.4-3.4-1.1-4.4-0.3c-0.1,0.3,0.2,0.4,0.4,0.4c1,0.1,2.8,0.4,3.8,1.6c1,1.3,1.3,2.6,0.6,3.4
			c0,0-0.4-1-1.4-0.9c-1,0.1-1.7,0.5-3.3-0.5c0,0,0.4,1.7-0.3,2.5c0,0-1.9-0.6-3.1-1.6c-1.3-1-2.8-1.3-4.1-0.2c-1.3,1-2.2,2.4-2.4,3
			H41z"/>
		<path fill="#C41230" d="M53.3,83.1c-0.1-0.7-0.3-1.2-0.7-1.6c-0.4-0.6-1.1-1-1.9-1c-1.2,0-2.2,1-2.2,2.2c0,1.2,1,2.2,2.2,2.2
			c0.2,0,0.4,0,0.6-0.1c0,0,0,0,0,0c-0.3,1-1,1.6-2.1,1.9c-1.8,0.4-3.3,0.1-4.5-0.8c-1.8-1.5-2.4-4.2-2.4-6l-1.8,0
			c0,2.2,0.7,5.5,3,7.4c1.6,1.3,3.7,1.7,6,1.2C52.5,87.8,53.7,85.3,53.3,83.1"/>
		<path fill="#C41230" d="M34,76.2c-1.1-3.8-5.6-10.2-13.4-9.7c-7.8,0.5-10.3,7.6-7.5,10.7c1.8,2,4.6,0.9,4.6,0.9s-4.6-0.6-3.1-5.6
			c0.5-1.7,1.8-3,3.4-3.7c1.1-0.4,3.4-1.1,4.4-0.3c0.1,0.3-0.2,0.4-0.4,0.4c-1,0.1-2.8,0.4-3.8,1.6c-1,1.3-1.3,2.6-0.6,3.4
			c0,0,0.4-1,1.4-0.9c1,0.1,1.7,0.5,3.3-0.5c0,0-0.4,1.7,0.3,2.5c0,0,1.9-0.6,3.1-1.6c1.3-1,2.8-1.3,4.1-0.2c1.3,1,2.2,2.4,2.4,3H34
			z"/>
		<path fill="#C41230" d="M21.7,83.1c0.1-0.7,0.3-1.2,0.7-1.6c0.4-0.6,1.1-1,1.9-1c1.2,0,2.2,1,2.2,2.2c0,1.2-1,2.2-2.2,2.2
			c-0.2,0-0.4,0-0.6-0.1c0,0,0,0,0,0c0.3,1,1,1.6,2.1,1.9c1.8,0.4,3.3,0.1,4.5-0.8c1.8-1.5,2.4-4.2,2.4-6l1.8,0c0,2.2-0.7,5.5-3,7.4
			c-1.6,1.3-3.7,1.7-6,1.2C22.5,87.8,21.4,85.3,21.7,83.1"/>
		<path fill="#C41230" d="M37.1,74.6c-0.4,0-1.2,0.2-1.2,0.2c-0.4-0.7-1.8-5.6-4.7-8.9c-3-3.3-5.6-3.6-8-3.4
			c-2.4,0.2-2.3,2.9-2.3,2.9s-2-2.9-0.1-4.6c1.9-1.8,4.5-1.4,5.9-0.7c1.4,0.7,1.2,0,0.9-0.9c-0.3-0.9,0.3-2.4,0.3-2.4
			c0.2,1.4,3,2,4.5,4.8c1,1.9,2.7,6.9,3,8.1c0.3,1.2,0.5,2.2,1,2.1c0.5-0.1,0.4-1-0.1-2.7c-0.5-1.7-0.9-3.1-1.9-5.8
			c-1-2.8-0.4-7.9,0-8.8c0.4-0.9,0.5-1.5,0.5-1.5c0.5,0.3,1.3,0.9,1.3,0.9s-0.4-1-0.1-2.1c0.2-0.9,1-1.3,1.3-2.5h0
			c0.3,1.2,1.2,1.7,1.4,2.5c0.3,1-0.1,2.1-0.1,2.1s0.8-0.6,1.3-0.9c0,0,0.1,0.6,0.5,1.5c0.4,0.9,1,6.1,0,8.8c-1,2.8-1.4,4.1-1.9,5.8
			c-0.5,1.7-0.6,2.6-0.1,2.7c0.5,0.1,0.7-0.9,1-2.1c0.3-1.2,1.9-6.2,3-8.1c1.6-2.9,4.3-3.5,4.5-4.8c0,0,0.6,1.5,0.3,2.4
			c-0.3,0.9-0.5,1.6,0.9,0.9c1.4-0.7,4-1.1,5.9,0.7c1.9,1.8-0.1,4.6-0.1,4.6s0.1-2.7-2.3-2.9c-2.4-0.2-5,0.1-8,3.4
			c-3,3.3-4.3,8.2-4.7,8.9c0,0-0.8-0.2-1.2-0.2H37.1z"/>
		<path fill="#C41230" d="M39.1,77.9c0,0.9-0.7,1.6-1.6,1.6c-0.9,0-1.6-0.7-1.6-1.6c0-0.9,0.7-1.6,1.6-1.6
			C38.4,76.3,39.1,77,39.1,77.9"/>
		<path fill="#C41230" d="M31.7,77.1v1.6h3.5c-0.1-0.3-0.1-0.5-0.1-0.8c0-0.3,0.1-0.6,0.1-0.8H31.7z M39.9,77.1
			c0.1,0.3,0.1,0.5,0.1,0.8c0,0.3-0.1,0.6-0.1,0.8h3.5v-1.6H39.9z"/>
		<path fill="#C41230" d="M37.5,95.8c-0.1-0.9-0.8-1.4-1.3-1.9c-0.4-0.5-0.6-1.3-0.6-1.3c-1.1,2.9-4.6,2.8-4.6,2.8
			c-0.4-0.7,0.5-2.5,0.5-2.5s-1.6,0.5-2.7-0.3c-1.1-0.7-1-2.3-1-2.3c6.7,1.6,9.1-5.9,9.7-9.9v0.2c0.6,4,3.1,11.3,9.8,9.7
			c0,0,0,1.6-1,2.3c-1.2,0.8-2.7,0.3-2.7,0.3s0.9,1.8,0.5,2.5c0,0-3.5,0.1-4.6-2.8c0,0-0.1,0.8-0.6,1.3
			C38.4,94.4,37.6,94.9,37.5,95.8"/>
		<path fill="#C41230" d="M36.6,101.7c0-0.5,0.4-0.9,0.9-0.9c0.5,0,0.9,0.4,0.9,0.9c0,0.5-0.4,0.9-0.9,0.9
			C37,102.6,36.6,102.2,36.6,101.7"/>
		<path fill="#C41230" d="M35.4,98.2c0-1.1,0.9-2.1,2.1-2.1c1.1,0,2.1,0.9,2.1,2.1c0,1.1-0.9,2.1-2.1,2.1
			C36.4,100.2,35.4,99.3,35.4,98.2"/>
		<path fill="#231F20" d="M83.7,77.5l1.2-0.2c2.3-0.4,2.2-0.3,2.5-2.3c0.2-1.7,0.6-6.5,1.2-14.6c0.3-4.5,0.5-7.2,0.5-8.1
			c0-1.1-0.1-1-2-1.2l-2.2-0.2v-1.4c1.6,0.1,3,0.2,4.2,0.2c1.2,0,2.4,0,3.7-0.2c2.4,6.8,5.6,14.6,9.6,23.3
			c3.6-8.5,6.5-16.3,8.7-23.3c1.5,0.1,2.8,0.2,3.8,0.2s2.2,0,4-0.2v1.4l-1,0c-2.8,0.2-2.9-0.1-2.9,2.8c0,3.2,0.1,10.5,0.8,21.3
			c0.1,1.8,0,1.9,2.1,2.2l1.6,0.2V79c-1.5-0.1-3.3-0.2-5.6-0.2c-2.3,0-4.4,0.1-6.3,0.2v-1.5l2.2-0.3c2-0.3,2.2-0.5,2.2-2.3V74V62.1
			c0-3.3-0.1-6.4-0.3-9.1c-2.8,6.2-5,13.4-7.7,21.2c-1.1,1.5-1.9,2.9-2.4,4.6h-0.9c-2.2-6.9-5.9-15-10.2-24.9
			c-0.8,8.5-1,15.2-1,19.6V75c0,1.9,0.2,1.9,2.2,2.2l1.8,0.3V79c-1.5-0.1-3.2-0.2-4.9-0.2c-1.5,0-3.2,0-4.8,0.2V77.5z"/>
		<path fill="#231F20" d="M125.9,79.5c-2,0-3.5-1.5-3.5-3.7c0-2.9,3.4-5.4,10.2-7.8v-2.2c0-2.2-0.9-3.3-2.8-3.3
			c-1.9,0-3.3,1.1-3.6,2.5c-0.3,1.3-0.1,3.6-2.5,3.6c-0.7,0-1-0.4-1-1.2c0-1,0.6-2.1,1.8-3.3c2.2-2.1,5-3.2,6.9-3.2
			c3.9,0,4.2,2.7,4.2,7.5v6.6c0,1.6,0.1,2.3,0.9,2.3c0.5,0,1-0.4,1.5-1.2l0.3,1.1c-0.9,1.7-1.9,2.5-2.9,2.5c-1.2,0-2-1-2.5-3.2
			C130.2,78.4,128.1,79.5,125.9,79.5 M125.8,75c0,1.3,1,2.2,2.3,2.2c2.4,0,4.5-1.4,4.5-4.4v-3.7C128,70.9,125.8,72.8,125.8,75"/>
		<path fill="#231F20" d="M139.7,62.8v-0.9c2.4-0.6,4-2.4,4.7-5.3h1v4.7h5.5v1.5h-5.5v9.3c0,3.3,0,4.9,1.9,4.9c1,0,2.2-0.4,3.7-1
			l0.4,1c-2.3,1.5-4,2.5-5.6,2.5c-2.5,0-3.3-1.9-3.3-5.9c0-1.5,0-2.7,0-3.7v-7.2H139.7z"/>
		<path fill="#231F20" d="M152.6,62.8v-0.9c2.4-0.6,4-2.4,4.7-5.3h1v4.7h5.5v1.5h-5.5v9.3c0,3.3,0,4.9,1.9,4.9c1,0,2.2-0.4,3.7-1
			l0.4,1c-2.3,1.5-4,2.5-5.6,2.5c-2.5,0-3.3-1.9-3.3-5.9c0-1.5,0-2.7,0-3.7v-7.2H152.6z"/>
		<path fill="#231F20" d="M168.8,66.1v-0.2c0-2.1,0-2.5-2.8-2.7v-1c2.5-0.1,4-0.8,5.1-2.5h1c-0.2,2.9-0.3,5.4-0.3,7.3v6.4v1
			c0,2.8,0.1,3.3,2.5,3.3h0.6v1.2c-2.1-0.1-3.7-0.1-4.7-0.1c-1,0-2.6,0-4.7,0.1v-1.2c3.3,0,3.3-0.2,3.3-4v-0.3v-6.1V66.1z
			 M168.1,52.8c0-1.2,1.2-2.6,2.4-2.6c1,0,2,0.8,2,1.8c0,1.4-1.2,2.7-2.5,2.7C168.9,54.6,168.1,53.9,168.1,52.8"/>
		<path fill="#231F20" d="M186.2,60.7c5.4,0,9,3.8,9,9.2c0,5.6-4,9.6-9.6,9.6c-5.2,0-9.1-3.9-9.1-9.4
			C176.5,64.5,180.5,60.7,186.2,60.7 M186.3,78.1c3.4,0,5.6-2.6,5.6-7c0-5.5-2.7-9.3-6.3-9.3c-3.2,0-5.6,2.7-5.6,7.3
			C179.9,74.6,182.7,78.1,186.3,78.1"/>
		<path fill="#231F20" d="M200,54.4v-1.5c0-2.3-0.2-2.6-2.8-2.7v-1c1.8-0.3,3.4-1,4.8-2h1.1c-0.2,4.2-0.2,8.4-0.2,12.7v8.7v3.1
			c0,3.2,0,5,0.2,5.4c0.3,0.6,1.2,0.6,2.9,0.6v1.2c-2.2-0.1-3.8-0.1-4.8-0.1c-1.2,0-2.7,0.1-4.5,0.1v-1.2c1.5,0,2.4-0.1,2.7-0.5
			c0.5-0.5,0.5-3.4,0.5-8.8V54.4z"/>
		<path fill="#231F20" d="M210.2,66.1v-0.2c0-2.1,0-2.5-2.8-2.7v-1c2.5-0.1,4-0.8,5.1-2.5h1c-0.2,2.9-0.3,5.4-0.3,7.3v6.4v1
			c0,2.8,0.1,3.3,2.5,3.3h0.6v1.2c-2.1-0.1-3.7-0.1-4.7-0.1c-1,0-2.6,0-4.7,0.1v-1.2c3.3,0,3.3-0.2,3.3-4v-0.3v-6.1V66.1z
			 M209.5,52.8c0-1.2,1.2-2.6,2.5-2.6c1,0,2,0.8,2,1.8c0,1.4-1.2,2.7-2.5,2.7C210.3,54.6,209.5,53.9,209.5,52.8"/>
		<path fill="#231F20" d="M229.7,55.7c-1.6-3.7-1.6-4.8-4-4.8h-0.4v-1.5c1.1,0.1,2.2,0.2,3.3,0.2c1.2,0,3.2,0,5.7-0.2v1.4
			c-1.4,0.2-1.8,0.2-1.8,1.1c0,0.7,2.5,9,8.8,23.4c1.7-3.3,3.1-6.5,4.4-9.6l-3-7.1c-1.9-4.5-3.2-6.8-3.3-7c-0.4-0.6-1.4-0.6-3-0.8
			v-1.4c1.7,0.1,3.3,0.2,4.9,0.2c1.5,0,3,0,4.5-0.2v1.5c-1.5,0-2.1,0.2-2.1,1c0,0.3,0.2,1.2,0.8,2.7l3,7.6c2.9-6,4.1-9.6,4.1-10.4
			c0-0.7-0.6-0.7-2.5-0.8v-1.5c1.5,0.1,2.8,0.2,3.9,0.2c1.1,0,2.5,0,4-0.2v1.4c-0.2,0-0.3,0-0.5,0c-2.7,0-4,4.4-8.3,13.2
			c1.5,3.9,3.3,7.6,5,11.4c1.8-3.7,3.7-9,5.8-16.1c1.3-4.3,1.9-6.8,1.9-7.5c0-0.4-0.1-0.6-0.3-0.7c-0.5-0.2-1.2-0.2-2.2-0.2v-1.4
			c1.4,0.1,2.9,0.2,4.3,0.2c0.5,0,1.7,0,3.3-0.2v1.5c-2.2,0.2-2.2,0.8-2.9,2.7c-4.4,11.1-7,19.2-8.3,23.8c-0.8,0.8-1.2,1.6-1.4,2.6
			h-1.5l-5.4-12.3c-1.7,3.4-3.2,6.5-4.2,9.6c-0.9,0.8-1.4,1.7-1.5,2.8H239C237.8,75.9,234.9,67.7,229.7,55.7"/>
		<path fill="#231F20" d="M271.4,60.7c5.4,0,9,3.8,9,9.2c0,5.6-4,9.6-9.6,9.6c-5.2,0-9.1-3.9-9.1-9.4
			C261.7,64.5,265.7,60.7,271.4,60.7 M271.5,78.1c3.4,0,5.6-2.6,5.6-7c0-5.5-2.7-9.3-6.3-9.3c-3.2,0-5.6,2.7-5.6,7.3
			C265.1,74.6,267.9,78.1,271.5,78.1"/>
		<path fill="#231F20" d="M292.6,60.7c5.4,0,9,3.8,9,9.2c0,5.6-4,9.6-9.6,9.6c-5.2,0-9.1-3.9-9.1-9.4
			C282.9,64.5,286.9,60.7,292.6,60.7 M292.7,78.1c3.4,0,5.6-2.6,5.6-7c0-5.5-2.7-9.3-6.3-9.3c-3.2,0-5.6,2.7-5.6,7.3
			C286.3,74.6,289.1,78.1,292.7,78.1"/>
		<path fill="#231F20" d="M312.4,79.6c-4.9,0-8.3-3.7-8.3-8.4c0-5.8,4.2-10,10.1-10c1.5,0,3,0.4,4.6,1v-6v-1.4
			c0-3.7-0.1-4.4-2.3-4.4H316v-1c1.8-0.4,3.4-1,4.9-2.1h0.9c-0.1,3.4-0.2,6.4-0.2,8.9V60v10.6c0,3.3,0,5.4,0.2,6
			c0.2,0.6,1,0.7,2.5,0.9v1.1c-1.5,0-2.8,0.3-4.1,0.9h-1l-0.5-2.2C316.6,78.7,314.7,79.6,312.4,79.6 M318.8,68.8
			c0-4.2-1.3-6.4-4.9-6.4c-3.6,0-6.5,3-6.5,7.5c0,4.4,3,7.7,6.5,7.7c1.7,0,3.3-0.7,4.9-2.2V68.8z"/>
		<path fill="#231F20" d="M327.4,73.3h1.2c0.5,3.2,2.3,5,4.5,5c2,0,3.4-1.4,3.4-3.2c0-1.8-1.3-2.6-3.8-3.9c-3.3-1.6-5.4-2.6-5.4-5.7
			c0-2.9,2.3-4.9,6.3-4.9c1.4,0,2.9,0.2,4.5,0.6l0.2,4.2h-1.3c-0.5-2.4-2-3.7-4.1-3.7c-1.9,0-3.1,1.1-3.1,2.6c0,2.1,2.1,2.6,5.3,4.1
			c2.8,1.4,4.2,2.9,4.2,5.3c0,3.2-2.6,5.7-6.6,5.7c-1.8,0-3.5-0.4-5.1-1.3V73.3z"/>
		<path fill="#231F20" d="M347.2,84.5c1.2-0.1,1.6-0.2,1.7-0.7c0.1-0.5,0.2-3.4,0.2-8.9v-2.5c0-2.4-0.1-3.3-1.3-3.3
			c-0.1,0-0.2,0-0.3,0v-0.6c1.3-0.2,2-0.6,2.7-1.7h0.6v2.5c1.4-1.1,2.5-1.7,4.1-1.7c3,0,5.2,2.2,5.2,5.6c0,3.6-2.6,6.3-5.8,6.3
			c-1.2,0-2.2-0.3-3.4-0.9v3.1v0.9c0,1.7,0.2,1.7,2.6,1.8v0.7c-1.4-0.1-2.5-0.1-3.4-0.1c-0.6,0-1.6,0-2.9,0.1V84.5z M351,75.4
			c0,2.1,1.5,3.4,3.4,3.4c2.1,0,3.8-1.8,3.8-4.6c0-3.1-1.9-5.2-4.5-5.2c-1.3,0-2.7,0.8-2.7,2.4V75.4z"/>
		<path fill="#231F20" d="M363.2,63.5v-1c0-1.5-0.1-1.7-1.8-1.7v-0.6c1.2-0.2,2.2-0.6,3.1-1.3h0.7c-0.1,2.7-0.2,5.4-0.2,8.2v5.6v2
			c0,2.1,0,3.2,0.2,3.4c0.2,0.4,0.8,0.4,1.9,0.4v0.7c-1.4-0.1-2.4-0.1-3.1-0.1c-0.7,0-1.7,0.1-2.9,0.1v-0.7c1,0,1.5-0.1,1.8-0.3
			c0.3-0.3,0.3-2.2,0.3-5.7V63.5z"/>
		<path fill="#231F20" d="M378,77.7c-1.4,1.3-2.9,2-4.5,2c-3.1,0-5.3-2.5-5.3-5.8c0-3.6,2.6-6.3,6.1-6.3c2.2,0,3.7,1.2,3.7,2.3
			c0,0.5-0.3,0.7-0.9,0.7c-0.6,0-1.1-0.3-1.4-0.8c-0.4-0.7-0.5-1.4-1.8-1.4c-1.8,0-3.6,1.9-3.6,4.6c0,3,2,5.3,4.5,5.3
			c1,0,1.9-0.4,3-1.1L378,77.7z"/>
		<polygon fill="#C41230" points="91.3,102.4 89.2,94.4 87,102.4 86.3,102.4 84,93.2 84.7,93.2 86.6,101.2 88.8,93.2 89.5,93.2 
			91.7,101.2 93.6,93.2 94.4,93.2 92,102.4 		"/>
		<polygon fill="#C41230" points="96,93.2 101.6,93.2 101.6,93.8 96.7,93.8 96.7,97.5 100.9,97.5 100.9,98.1 96.7,98.1 96.7,101.8 
			101.6,101.8 101.6,102.4 96,102.4 		"/>
		<path fill="#C41230" d="M108.4,100.2h-4.3l-0.8,2.2h-0.8l3.4-9.2h0.6l3.4,9.2h-0.8L108.4,100.2z M104.3,99.6h3.9l-1.9-5.4
			L104.3,99.6z"/>
		<polygon fill="#C41230" points="111.6,93.2 112.3,93.2 112.3,101.8 117.2,101.8 117.2,102.4 111.6,102.4 		"/>
		<polygon fill="#C41230" points="120.4,102.4 119.7,102.4 119.7,93.8 116.9,93.8 116.9,93.2 123.2,93.2 123.2,93.8 120.4,93.8 		
			"/>
		<polygon fill="#C41230" points="130.5,98.1 125.7,98.1 125.7,102.4 125,102.4 125,93.2 125.7,93.2 125.7,97.5 130.5,97.5 
			130.5,93.2 131.2,93.2 131.2,102.4 130.5,102.4 		"/>
		<polygon fill="#C41230" points="144.4,94.8 141.6,101.1 140.9,101.1 138,94.8 138,102.4 137.3,102.4 137.3,93.2 138,93.2 
			141.3,100.3 144.4,93.2 145.1,93.2 145.1,102.4 144.4,102.4 		"/>
		<path fill="#C41230" d="M152.6,100.2h-4.3l-0.8,2.2h-0.8l3.4-9.2h0.6l3.4,9.2h-0.8L152.6,100.2z M148.5,99.6h3.9l-1.9-5.4
			L148.5,99.6z"/>
		<polygon fill="#C41230" points="156.5,94.4 156.5,102.4 155.8,102.4 155.8,93.2 156.5,93.2 161.8,101.2 161.8,93.2 162.5,93.2 
			162.5,102.4 161.8,102.4 		"/>
		<path fill="#C41230" d="M170,100.2h-4.3l-0.8,2.2h-0.8l3.4-9.2h0.6l3.4,9.2h-0.8L170,100.2z M165.9,99.6h3.9l-1.9-5.4L165.9,99.6z
			"/>
		<path fill="#C41230" d="M178.2,101.5c-0.6,0.7-1.5,1.1-2.4,1.1c-0.9,0-1.7-0.3-2.3-0.9c-0.8-0.8-0.9-1.7-0.9-3.7
			c0-2.1,0-2.9,0.9-3.7c0.6-0.6,1.4-0.9,2.3-0.9c1.6,0,2.9,1.1,3.2,2.7h-0.7c-0.3-1.3-1.2-2.1-2.5-2.1c-0.7,0-1.3,0.2-1.8,0.7
			c-0.7,0.7-0.7,1.4-0.7,3.4s0.1,2.7,0.7,3.4c0.5,0.5,1.1,0.7,1.8,0.7c0.7,0,1.4-0.3,1.9-0.9c0.4-0.5,0.6-1,0.6-1.8v-0.8h-2.5v-0.6
			h3.2v1.5C179,100.2,178.8,100.9,178.2,101.5"/>
		<polygon fill="#C41230" points="181.5,93.2 187.1,93.2 187.1,93.8 182.2,93.8 182.2,97.5 186.3,97.5 186.3,98.1 182.2,98.1 
			182.2,101.8 187.1,101.8 187.1,102.4 181.5,102.4 		"/>
		<polygon fill="#C41230" points="196.3,94.8 193.5,101.1 192.8,101.1 189.9,94.8 189.9,102.4 189.2,102.4 189.2,93.2 189.9,93.2 
			193.1,100.3 196.3,93.2 197,93.2 197,102.4 196.3,102.4 		"/>
		<polygon fill="#C41230" points="199.8,93.2 205.4,93.2 205.4,93.8 200.5,93.8 200.5,97.5 204.7,97.5 204.7,98.1 200.5,98.1 
			200.5,101.8 205.4,101.8 205.4,102.4 199.8,102.4 		"/>
		<polygon fill="#C41230" points="208.3,94.4 208.3,102.4 207.6,102.4 207.6,93.2 208.3,93.2 213.6,101.2 213.6,93.2 214.3,93.2 
			214.3,102.4 213.6,102.4 		"/>
		<polygon fill="#C41230" points="219.6,102.4 218.9,102.4 218.9,93.8 216.1,93.8 216.1,93.2 222.3,93.2 222.3,93.8 219.6,93.8 		
			"/>
		<path fill="#C41230" d="M232.8,101.4c-0.4,0.4-1.3,1.2-2.8,1.2c-1.7,0-2.9-1.1-2.9-2.6c0-1.5,1-2.1,2.1-2.9c-0.5-0.6-1-1.2-1-2
			c0-1,0.8-1.8,1.9-1.8c1,0,1.9,0.8,1.9,1.9c0,0.8-0.5,1.3-1.1,1.7c0,0-0.5,0.3-0.7,0.5l2.6,3.2c0.4-0.6,0.5-1.1,0.5-2.3h0.7
			c0,1.2-0.2,2.1-0.8,2.8l1.3,1.6h-0.9L232.8,101.4z M227.8,99.8c0,1.2,0.9,2,2.2,2c0.7,0,1.5-0.2,2.5-1l-2.8-3.4
			C228.8,98.1,227.8,98.7,227.8,99.8 M230.1,93.8c-0.7,0-1.2,0.5-1.2,1.2c0,0.5,0.2,0.8,0.9,1.7l0.2-0.1c0.2-0.1,0.3-0.2,0.3-0.2
			c0.5-0.3,0.9-0.7,0.9-1.3C231.3,94.3,230.8,93.8,230.1,93.8"/>
		<polygon fill="#C41230" points="240.4,93.2 246,93.2 246,93.8 241.1,93.8 241.1,97.5 245.3,97.5 245.3,98.1 241.1,98.1 
			241.1,101.8 246,101.8 246,102.4 240.4,102.4 		"/>
		<polygon fill="#C41230" points="255.2,94.8 252.4,101.1 251.7,101.1 248.9,94.8 248.9,102.4 248.2,102.4 248.2,93.2 248.9,93.2 
			252.1,100.3 255.2,93.2 255.9,93.2 255.9,102.4 255.2,102.4 		"/>
		<path fill="#C41230" d="M262.2,98.5h-2.7v3.9h-0.7v-9.2h3.4c1.6,0,2.8,1,2.8,2.7C265,97.6,263.8,98.5,262.2,98.5 M262.1,93.8h-2.6
			v4.1h2.6c1.3,0,2.2-0.6,2.2-2S263.4,93.8,262.1,93.8"/>
		<polygon fill="#C41230" points="267,93.2 267.7,93.2 267.7,101.8 272.6,101.8 272.6,102.4 267,102.4 		"/>
		<path fill="#C41230" d="M279.2,101.6c-0.6,0.6-1.4,0.9-2.3,0.9c-0.9,0-1.7-0.3-2.3-0.9c-0.8-0.8-0.9-1.7-0.9-3.7
			c0-2.1,0-2.9,0.9-3.7c0.6-0.6,1.4-0.9,2.3-0.9c0.9,0,1.7,0.3,2.3,0.9c0.8,0.8,0.9,1.7,0.9,3.7C280,99.9,280,100.7,279.2,101.6
			 M278.6,94.5c-0.5-0.5-1.1-0.7-1.8-0.7c-0.7,0-1.3,0.2-1.8,0.7c-0.7,0.7-0.7,1.4-0.7,3.4s0.1,2.7,0.7,3.4c0.5,0.5,1.1,0.7,1.8,0.7
			c0.7,0,1.3-0.2,1.8-0.7c0.7-0.7,0.7-1.4,0.7-3.4S279.3,95.1,278.6,94.5"/>
		<polygon fill="#C41230" points="284.5,102.4 283.8,102.4 283.8,98.6 281.1,93.2 281.8,93.2 284.2,97.9 286.5,93.2 287.2,93.2 
			284.5,98.6 		"/>
		<polygon fill="#C41230" points="288.8,93.2 294.4,93.2 294.4,93.8 289.5,93.8 289.5,97.5 293.7,97.5 293.7,98.1 289.5,98.1 
			289.5,101.8 294.4,101.8 294.4,102.4 288.8,102.4 		"/>
		<polygon fill="#C41230" points="296.5,93.2 302.1,93.2 302.1,93.8 297.2,93.8 297.2,97.5 301.4,97.5 301.4,98.1 297.2,98.1 
			297.2,101.8 302.1,101.8 302.1,102.4 296.5,102.4 		"/>
		<path fill="#C41230" d="M311.1,102.4h-3.5v-9.2h3.4c1.5,0,2.7,0.9,2.7,2.4c0,1-0.5,1.8-1.4,2.1c1,0.4,1.6,1.2,1.6,2.2
			C313.8,101.6,312.7,102.4,311.1,102.4 M310.9,93.8h-2.6v3.6h2.6c1.1,0,2-0.5,2-1.8S312,93.8,310.9,93.8 M311,98h-2.7v3.8h2.7
			c1.3,0,2.1-0.7,2.1-1.9C313.1,98.7,312.3,98,311,98"/>
		<polygon fill="#C41230" points="316.3,93.2 321.9,93.2 321.9,93.8 317,93.8 317,97.5 321.2,97.5 321.2,98.1 317,98.1 317,101.8 
			321.9,101.8 321.9,102.4 316.3,102.4 		"/>
		<polygon fill="#C41230" points="324.7,94.4 324.7,102.4 324,102.4 324,93.2 324.7,93.2 330.1,101.2 330.1,93.2 330.8,93.2 
			330.8,102.4 330.1,102.4 		"/>
		<polygon fill="#C41230" points="333.6,93.2 339.2,93.2 339.2,93.8 334.3,93.8 334.3,97.5 338.5,97.5 338.5,98.1 334.3,98.1 
			334.3,101.8 339.2,101.8 339.2,102.4 333.6,102.4 		"/>
		<polygon fill="#C41230" points="342.1,97.6 346.3,97.6 346.3,98.3 342.1,98.3 342.1,102.4 341.4,102.4 341.4,93.2 347,93.2 
			347,93.8 342.1,93.8 		"/>
		<rect x="348.9" y="93.2" fill="#C41230" width="0.7" height="9.2"/>
		<polygon fill="#C41230" points="354.8,102.4 354.1,102.4 354.1,93.8 351.4,93.8 351.4,93.2 357.6,93.2 357.6,93.8 354.8,93.8 		
			"/>
		<path fill="#C41230" d="M361.7,102.5c-1.4,0-2.2-0.4-3.1-1.2l0.5-0.5c0.8,0.8,1.5,1.1,2.6,1.1c1.5,0,2.4-0.7,2.4-1.9
			c0-0.6-0.2-1-0.5-1.3c-0.3-0.3-0.6-0.4-1.3-0.5l-1.1-0.2c-0.7-0.1-1.2-0.3-1.6-0.7c-0.5-0.4-0.7-1-0.7-1.7c0-1.6,1.1-2.5,2.9-2.5
			c1.1,0,1.9,0.3,2.7,1l-0.5,0.5c-0.5-0.5-1.2-0.9-2.2-0.9c-1.3,0-2.1,0.7-2.1,1.9c0,0.5,0.2,0.9,0.5,1.2c0.3,0.3,0.9,0.5,1.4,0.6
			l1,0.2c0.9,0.1,1.3,0.3,1.6,0.6c0.5,0.4,0.8,1.1,0.8,1.8C364.8,101.5,363.6,102.5,361.7,102.5"/>
	</g>
</g>
</svg>
