<?xml version="1.0" encoding="utf-8"?>
<!-- Generator: Adobe Illustrator 13.0.0, SVG Export Plug-In . SVG Version: 6.00 Build 14948)  -->
<!DOCTYPE svg PUBLIC "-//W3C//DTD SVG 1.1//EN" "http://www.w3.org/Graphics/SVG/1.1/DTD/svg11.dtd">
<svg version="1.1" id="Layer_1" xmlns="http://www.w3.org/2000/svg" xmlns:xlink="http://www.w3.org/1999/xlink" x="0px" y="0px"
	 width="240px" height="240px" viewBox="0 0 240 240" enable-background="new 0 0 240 240" xml:space="preserve">
<g>
	<path d="M49.7,191.3l-1.1-0.7c-0.7-0.4-1.2-0.8-1.5-1.3c-0.3-0.4-0.4-0.9-0.4-1.4c0-0.8,0.3-1.5,0.8-2s1.3-0.8,2.2-0.8
		c0.9,0,1.6,0.2,2.3,0.7v1.7c-0.7-0.7-1.5-1.1-2.4-1.1c-0.5,0-0.9,0.1-1.2,0.3c-0.3,0.2-0.5,0.5-0.5,0.8c0,0.3,0.1,0.6,0.3,0.9
		c0.2,0.3,0.6,0.5,1.1,0.8l1.1,0.7c1.2,0.7,1.9,1.7,1.9,2.8c0,0.8-0.3,1.5-0.8,2c-0.5,0.5-1.3,0.8-2.1,0.8c-1,0-1.9-0.3-2.8-0.9
		v-1.9c0.8,1,1.7,1.5,2.7,1.5c0.5,0,0.8-0.1,1.1-0.4c0.3-0.3,0.5-0.6,0.5-1C51,192.4,50.6,191.8,49.7,191.3"/>
	<path d="M53.9,195.6v-10.2h3.2c1,0,1.8,0.3,2.3,0.8c0.6,0.5,0.9,1.2,0.9,2.1c0,0.6-0.1,1.1-0.4,1.6c-0.3,0.5-0.7,0.8-1.2,1
		c-0.5,0.2-1.3,0.3-2.2,0.3h-1.1v4.4H53.9z M56.9,186.6h-1.5v3.2H57c0.6,0,1.1-0.1,1.4-0.4c0.3-0.3,0.5-0.7,0.5-1.2
		C58.9,187.2,58.2,186.6,56.9,186.6"/>
	<path d="M66.6,185.2c1.6,0,2.9,0.5,3.9,1.5c1,1,1.6,2.3,1.6,3.8c0,1.5-0.5,2.8-1.6,3.7c-1.1,1-2.4,1.5-4,1.5
		c-1.5,0-2.8-0.5-3.8-1.5c-1-1-1.5-2.2-1.5-3.7c0-1.5,0.5-2.8,1.5-3.8C63.8,185.7,65.1,185.2,66.6,185.2 M66.7,186.6
		c-1.2,0-2.1,0.4-2.9,1.1c-0.8,0.7-1.1,1.7-1.1,2.8c0,1.1,0.4,2,1.1,2.7c0.8,0.7,1.7,1.1,2.8,1.1c1.1,0,2.1-0.4,2.9-1.1
		c0.8-0.7,1.1-1.7,1.1-2.8c0-1.1-0.4-2-1.1-2.7C68.7,187,67.8,186.6,66.7,186.6"/>
	<path d="M74,195.6v-10.2h2.6c1,0,1.9,0.3,2.5,0.8c0.6,0.5,0.9,1.2,0.9,2.1c0,0.6-0.1,1.1-0.4,1.5c-0.3,0.4-0.7,0.8-1.3,1
		c0.3,0.2,0.6,0.5,1,0.9c0.3,0.4,0.8,1,1.3,1.9c0.4,0.6,0.6,1,0.9,1.3l0.5,0.7h-1.7l-0.4-0.7c0,0,0-0.1-0.1-0.1l-0.3-0.4l-0.5-0.7
		l-0.5-0.8c-0.3-0.4-0.6-0.8-0.8-1c-0.3-0.2-0.5-0.4-0.7-0.5c-0.2-0.1-0.5-0.2-1-0.2h-0.4v4.4H74z M75.9,186.6h-0.4v3.2H76
		c0.7,0,1.2-0.1,1.5-0.2c0.3-0.1,0.5-0.3,0.6-0.6c0.2-0.3,0.2-0.5,0.2-0.9c0-0.3-0.1-0.6-0.3-0.9c-0.2-0.3-0.4-0.4-0.7-0.6
		C77.1,186.7,76.6,186.6,75.9,186.6"/>
	<polygon points="80.8,185.3 89.3,185.3 89.3,186.6 85.8,186.6 85.8,195.6 84.3,195.6 84.3,186.6 80.8,186.6 	"/>
	<path d="M93.2,191.3l-1.1-0.7c-0.7-0.4-1.2-0.8-1.5-1.3c-0.3-0.4-0.4-0.9-0.4-1.4c0-0.8,0.3-1.5,0.8-2c0.6-0.5,1.3-0.8,2.2-0.8
		c0.9,0,1.6,0.2,2.3,0.7v1.7c-0.7-0.7-1.5-1.1-2.4-1.1c-0.5,0-0.9,0.1-1.2,0.3c-0.3,0.2-0.5,0.5-0.5,0.8c0,0.3,0.1,0.6,0.3,0.9
		c0.2,0.3,0.6,0.5,1.1,0.8l1.1,0.7c1.2,0.7,1.9,1.7,1.9,2.8c0,0.8-0.3,1.5-0.8,2s-1.3,0.8-2.1,0.8c-1,0-1.9-0.3-2.8-0.9v-1.9
		c0.8,1,1.7,1.5,2.7,1.5c0.5,0,0.8-0.1,1.1-0.4c0.3-0.3,0.5-0.6,0.5-1C94.6,192.4,94.1,191.8,93.2,191.3"/>
	<path d="M103.5,185.3h1l4.6,10.3h-1.5l-1.4-3h-4.4l-1.3,3h-1.5L103.5,185.3z M105.6,191.2l-1.6-3.7l-1.5,3.7H105.6z"/>
	<polygon points="122,185.4 123.5,185.4 119.3,195.6 119,195.6 115.7,187.3 112.3,195.6 112,195.6 107.9,185.4 109.3,185.4 
		112.2,192.4 115,185.4 116.4,185.4 119.2,192.4 	"/>
	<path d="M126.7,185.3h1l4.6,10.3h-1.5l-1.4-3H125l-1.3,3h-1.5L126.7,185.3z M128.8,191.2l-1.6-3.7l-1.5,3.7H128.8z"/>
	<path d="M133.4,195.6v-10.2h2.6c1,0,1.9,0.3,2.5,0.8c0.6,0.5,0.9,1.2,0.9,2.1c0,0.6-0.1,1.1-0.4,1.5c-0.3,0.4-0.7,0.8-1.3,1
		c0.3,0.2,0.6,0.5,1,0.9c0.3,0.4,0.8,1,1.3,1.9c0.4,0.6,0.6,1,0.9,1.3l0.5,0.7h-1.7l-0.4-0.7c0,0,0-0.1-0.1-0.1l-0.3-0.4l-0.5-0.7
		l-0.5-0.8c-0.3-0.4-0.6-0.8-0.8-1c-0.3-0.2-0.5-0.4-0.7-0.5s-0.5-0.2-1-0.2h-0.4v4.4H133.4z M135.3,186.6h-0.4v3.2h0.6
		c0.7,0,1.2-0.1,1.5-0.2c0.3-0.1,0.5-0.3,0.6-0.6c0.2-0.3,0.2-0.5,0.2-0.9c0-0.3-0.1-0.6-0.3-0.9c-0.2-0.3-0.4-0.4-0.7-0.6
		C136.6,186.7,136,186.6,135.3,186.6"/>
	<path d="M142.4,195.6v-10.2h3.4c1.4,0,2.5,0.2,3.3,0.6c0.8,0.4,1.5,1,1.9,1.8c0.5,0.8,0.7,1.7,0.7,2.6c0,0.7-0.1,1.3-0.4,2
		c-0.3,0.6-0.6,1.2-1.1,1.6c-0.5,0.5-1.1,0.9-1.7,1.1c-0.4,0.2-0.7,0.3-1.1,0.3c-0.3,0.1-0.9,0.1-1.8,0.1H142.4z M145.7,186.7h-1.8
		v7.6h1.9c0.7,0,1.3-0.1,1.7-0.2c0.4-0.1,0.7-0.2,1-0.4c0.3-0.2,0.5-0.3,0.7-0.6c0.7-0.7,1.1-1.7,1.1-2.8c0-1.1-0.4-2-1.1-2.7
		c-0.3-0.3-0.6-0.5-0.9-0.6c-0.4-0.2-0.7-0.3-1-0.3C146.9,186.7,146.4,186.7,145.7,186.7"/>
	<path d="M156.2,191.3l-1.1-0.7c-0.7-0.4-1.2-0.8-1.5-1.3c-0.3-0.4-0.4-0.9-0.4-1.4c0-0.8,0.3-1.5,0.8-2c0.6-0.5,1.3-0.8,2.2-0.8
		c0.9,0,1.6,0.2,2.3,0.7v1.7c-0.7-0.7-1.5-1.1-2.4-1.1c-0.5,0-0.9,0.1-1.2,0.3c-0.3,0.2-0.5,0.5-0.5,0.8c0,0.3,0.1,0.6,0.3,0.9
		c0.2,0.3,0.6,0.5,1.1,0.8l1.1,0.7c1.2,0.7,1.9,1.7,1.9,2.8c0,0.8-0.3,1.5-0.8,2c-0.5,0.5-1.3,0.8-2.1,0.8c-1,0-1.9-0.3-2.8-0.9
		v-1.9c0.8,1,1.7,1.5,2.7,1.5c0.5,0,0.8-0.1,1.1-0.4s0.5-0.6,0.5-1C157.5,192.4,157.1,191.8,156.2,191.3"/>
	<path d="M166.6,194.2h3.9v1.4H164v-0.1l0.6-0.7c1-1.2,1.7-2.2,2.3-3c0.6-0.8,0.9-1.5,1.1-1.9c0.2-0.4,0.3-0.8,0.3-1.3
		c0-0.6-0.2-1-0.5-1.4c-0.3-0.3-0.8-0.5-1.3-0.5c-0.4,0-0.8,0.1-1.2,0.4c-0.4,0.2-0.8,0.6-1.1,1v-1.9c0.8-0.6,1.6-1,2.5-1
		c0.9,0,1.6,0.3,2.2,0.9c0.6,0.6,0.9,1.3,0.9,2.3c0,0.4-0.1,0.8-0.2,1.3c-0.1,0.5-0.4,1-0.8,1.6c-0.4,0.6-1,1.4-1.9,2.5L166.6,194.2
		z"/>
	<path d="M174.8,185.2c0.9,0,1.7,0.5,2.3,1.5c0.6,1,0.9,2.2,0.9,3.7c0,1.6-0.3,2.8-0.9,3.8s-1.4,1.5-2.4,1.5c-1,0-1.8-0.5-2.4-1.4
		c-0.6-0.9-0.9-2.2-0.9-3.8c0-1.5,0.3-2.8,0.9-3.8C173,185.7,173.8,185.2,174.8,185.2 M174.8,186.6L174.8,186.6
		c-0.6,0-1.1,0.3-1.4,1c-0.3,0.7-0.5,1.6-0.5,2.8c0,1.2,0.2,2.2,0.5,2.8c0.3,0.7,0.8,1,1.3,1s1-0.3,1.3-1c0.3-0.7,0.5-1.6,0.5-2.8
		c0-1.2-0.2-2.1-0.5-2.8C175.8,187,175.4,186.6,174.8,186.6"/>
	<rect x="181.5" y="185.4" width="1.5" height="10.2"/>
	<path d="M191.3,185.2h0.6v5.7h1.1v1.2h-1.1v3.4h-1.4v-3.4h-4.3v-0.6L191.3,185.2z M190.5,191v-3l-2.4,3H190.5z"/>
</g>
<g>
	<path d="M52.5,183h-5.7v-16.7h4.4c1.4,0,2.5,0.2,3.2,0.6c0.8,0.4,1.4,0.9,1.8,1.5c0.4,0.7,0.6,1.4,0.6,2.3c0,1.6-0.8,2.8-2.5,3.5
		c1.2,0.2,2.2,0.7,2.9,1.5c0.7,0.8,1.1,1.7,1.1,2.8c0,0.9-0.2,1.6-0.7,2.3c-0.4,0.7-1.1,1.2-1.9,1.6C54.9,182.8,53.8,183,52.5,183
		 M51.3,168.4h-2.1v5h1.6c1.3,0,2.2-0.2,2.7-0.7c0.5-0.5,0.8-1.1,0.8-1.9C54.4,169.2,53.4,168.4,51.3,168.4 M51.5,175.5h-2.2v5.3
		h2.4c1.3,0,2.2-0.1,2.7-0.3c0.5-0.2,0.8-0.5,1.1-1c0.3-0.4,0.4-0.9,0.4-1.4c0-0.5-0.1-1-0.4-1.4c-0.3-0.4-0.7-0.7-1.3-0.9
		C53.6,175.6,52.7,175.5,51.5,175.5"/>
	<rect x="60.6" y="166.3" width="2.4" height="16.7"/>
	<path d="M66.6,183v-16.7h4.2c1.7,0,3,0.4,4,1.3c1,0.8,1.5,2,1.5,3.4c0,1-0.2,1.8-0.7,2.5c-0.5,0.7-1.2,1.2-2.1,1.6
		c0.5,0.3,1.1,0.8,1.6,1.4c0.5,0.6,1.2,1.7,2.2,3.2c0.6,0.9,1,1.7,1.4,2.1l0.9,1.2h-2.8l-0.7-1.1c0,0-0.1-0.1-0.1-0.2l-0.5-0.7
		l-0.7-1.2l-0.8-1.3c-0.5-0.7-0.9-1.2-1.4-1.6c-0.4-0.4-0.8-0.7-1.1-0.9c-0.3-0.2-0.9-0.3-1.7-0.3H69v7.3H66.6z M69.7,168.3H69v5.3
		h0.9c1.2,0,2-0.1,2.5-0.3c0.5-0.2,0.8-0.5,1.1-0.9c0.3-0.4,0.4-0.9,0.4-1.4c0-0.5-0.1-1-0.4-1.4c-0.3-0.4-0.7-0.7-1.2-0.9
		C71.8,168.4,70.9,168.3,69.7,168.3"/>
	<polygon points="94.5,166.3 96.8,166.3 96.8,183 94.4,183 94.4,170 89.2,176.4 88.8,176.4 83.6,170 83.6,183 81.2,183 81.2,166.3 
		83.5,166.3 89,173.1 	"/>
	<rect x="100.3" y="166.3" width="2.4" height="16.7"/>
	<polygon points="119.5,166.3 121.8,166.3 121.8,183 119.7,183 108.6,170.1 108.6,183 106.3,183 106.3,166.3 108.3,166.3 
		119.5,179.2 	"/>
	<path d="M134.3,174.7h5.6v7.1c-2.1,0.9-4.1,1.3-6.1,1.3c-2.8,0-5-0.8-6.6-2.4c-1.7-1.6-2.5-3.6-2.5-6c0-2.5,0.9-4.6,2.6-6.2
		c1.7-1.7,3.9-2.5,6.4-2.5c0.9,0,1.8,0.1,2.7,0.3s1.9,0.6,3.2,1.1v2.4c-2-1.2-4-1.7-5.9-1.7c-1.8,0-3.4,0.6-4.6,1.9
		c-1.3,1.2-1.9,2.8-1.9,4.6c0,1.9,0.6,3.4,1.9,4.7c1.3,1.2,2.9,1.8,4.8,1.8c1,0,2.1-0.2,3.4-0.7l0.2-0.1v-3.5h-3.2V174.7z"/>
	<polygon points="155,166.3 157.4,166.3 157.4,183 155,183 155,175.7 145.7,175.7 145.7,183 143.3,183 143.3,166.3 145.7,166.3 
		145.7,173.5 155,173.5 	"/>
	<path d="M166.3,166.2h1.7l7.5,16.8h-2.4l-2.2-5h-7.1l-2.1,5h-2.5L166.3,166.2z M169.9,175.9l-2.7-6.1l-2.5,6.1H169.9z"/>
	<polygon points="190.5,166.3 192.7,166.3 192.7,183 190.3,183 190.3,170 185.2,176.4 184.8,176.4 179.6,170 179.6,183 177.2,183 
		177.2,166.3 179.4,166.3 185,173.1 	"/>
</g>
<g>
	<defs>
		<path id="SVGID_1_" d="M158.3,103c-2,11.7,46.7-22,24.2-29.1c-1-0.3-1.9-0.5-2.9-0.5C168.9,73.4,160.1,92.2,158.3,103"/>
	</defs>
	<clipPath id="SVGID_2_">
		<use xlink:href="#SVGID_1_"  overflow="visible"/>
	</clipPath>
	
		<linearGradient id="SVGID_3_" gradientUnits="userSpaceOnUse" x1="-162.916" y1="450.6836" x2="-162.5217" y2="450.6836" gradientTransform="matrix(57.5683 -50.5948 -50.5948 -57.5683 32348.4863 17808.0156)">
		<stop  offset="0" style="stop-color:#1E7CC0"/>
		<stop  offset="1" style="stop-color:#224088"/>
	</linearGradient>
	<polygon clip-path="url(#SVGID_2_)" fill="url(#SVGID_3_)" points="135.8,91.4 183.8,49.2 225.5,96.7 177.5,138.9 	"/>
</g>
<g>
	<defs>
		<path id="SVGID_4_" d="M136.2,141.2c19.4-7.2,40.3-19.9,48.2-37.6C158.6,108.8,116.8,148.4,136.2,141.2"/>
	</defs>
	<clipPath id="SVGID_5_">
		<use xlink:href="#SVGID_4_"  overflow="visible"/>
	</clipPath>
	
		<linearGradient id="SVGID_6_" gradientUnits="userSpaceOnUse" x1="-161.8633" y1="451.0869" x2="-161.4686" y2="451.0869" gradientTransform="matrix(101.2181 -64.9006 -64.9006 -101.2181 45797.6758 35286.8438)">
		<stop  offset="0" style="stop-color:#1E7CC0"/>
		<stop  offset="1" style="stop-color:#224088"/>
	</linearGradient>
	<polygon clip-path="url(#SVGID_5_)" fill="url(#SVGID_6_)" points="96.5,116.6 164.7,72.9 204.8,135.3 136.5,179.1 	"/>
</g>
<g>
	<defs>
		<path id="SVGID_7_" d="M178.5,68.5c-9.6,6.2-17.8,18.8-20.3,34.5c1.2-4.7,9.4-21,22.1-20.2c16.5,1,0.6,41.1-44.1,58.4
			c34-10.4,58.2-29,64.7-54c4-15.1-2-22.6-10.7-22.6C186.6,64.6,182.5,65.9,178.5,68.5"/>
	</defs>
	<clipPath id="SVGID_8_">
		<use xlink:href="#SVGID_7_"  overflow="visible"/>
	</clipPath>
	
		<linearGradient id="SVGID_9_" gradientUnits="userSpaceOnUse" x1="-160.1504" y1="452.0615" x2="-159.756" y2="452.0615" gradientTransform="matrix(-99.5422 0 0 99.5422 -15733.875 -44896.3125)">
		<stop  offset="0" style="stop-color:#AFE1F9"/>
		<stop  offset="1" style="stop-color:#1C97D4"/>
	</linearGradient>
	<rect x="136.2" y="64.6" clip-path="url(#SVGID_8_)" fill="url(#SVGID_9_)" width="68.7" height="76.6"/>
</g>
<g>
	<defs>
		<path id="SVGID_10_" d="M188.9,35c-5,1-7.9,7.1-6.6,13.5c1.3,6.4,6.4,10.8,11.4,9.7c5-1,7.9-7.1,6.6-13.5
			c-1.2-5.8-5.5-9.9-9.9-9.9C189.9,34.8,189.4,34.9,188.9,35"/>
	</defs>
	<clipPath id="SVGID_11_">
		<use xlink:href="#SVGID_10_"  overflow="visible"/>
	</clipPath>
	
		<radialGradient id="SVGID_12_" cx="-162.9424" cy="449.1357" r="0.3939" gradientTransform="matrix(87.6433 0 0 -87.6433 14483.6875 39405.2031)" gradientUnits="userSpaceOnUse">
		<stop  offset="0" style="stop-color:#AFE1F9"/>
		<stop  offset="1" style="stop-color:#1C97D4"/>
	</radialGradient>
	<rect x="181" y="34.8" clip-path="url(#SVGID_11_)" fill="url(#SVGID_12_)" width="20.6" height="24.4"/>
</g>
<g>
	<defs>
		<path id="SVGID_13_" d="M140.6,60.7c5.5,13.4,6.5,15.8,6.8,7.5c0.4-11-1-26.1-6.5-35.9c-0.9-1.6-1.6-2.2-2.2-2.2
			C135.5,30.1,136,49.4,140.6,60.7"/>
	</defs>
	<clipPath id="SVGID_14_">
		<use xlink:href="#SVGID_13_"  overflow="visible"/>
	</clipPath>
	
		<linearGradient id="SVGID_15_" gradientUnits="userSpaceOnUse" x1="-159.9512" y1="447.2871" x2="-159.5567" y2="447.2871" gradientTransform="matrix(37.131 19.6239 19.6239 -37.131 -2707.3296 19794.707)">
		<stop  offset="0" style="stop-color:#EC2024"/>
		<stop  offset="0.2089" style="stop-color:#EC2024"/>
		<stop  offset="1" style="stop-color:#C0272D"/>
	</linearGradient>
	<polygon clip-path="url(#SVGID_14_)" fill="url(#SVGID_15_)" points="138.2,25 167,40.2 145.1,81.6 116.4,66.4 	"/>
</g>
<g>
	<defs>
		<path id="SVGID_16_" d="M92.9,32.3c-3.3,7-5.2,15.7-6.1,24.5L95.8,73c5.6-16.5,4.6-44,0-44C95,28.9,94,30,92.9,32.3"/>
	</defs>
	<clipPath id="SVGID_17_">
		<use xlink:href="#SVGID_16_"  overflow="visible"/>
	</clipPath>
	
		<linearGradient id="SVGID_18_" gradientUnits="userSpaceOnUse" x1="-160.2012" y1="456.2705" x2="-159.8068" y2="456.2705" gradientTransform="matrix(-30.1994 12.9266 12.9266 30.1994 -10633.5557 -11660.8867)">
		<stop  offset="0" style="stop-color:#EC2024"/>
		<stop  offset="0.2292" style="stop-color:#EC2024"/>
		<stop  offset="1" style="stop-color:#C0272D"/>
	</linearGradient>
	<polygon clip-path="url(#SVGID_17_)" fill="url(#SVGID_18_)" points="117.4,66.1 89,78.3 70.8,35.7 99.2,23.6 	"/>
</g>
<g>
	<defs>
		<path id="SVGID_19_" d="M113.7,153.6c4.8,23.7,12.2,0.1,13.4-11.2c0.7-6.7,1.3-37,0.6-44.2c8.4,0.4,12.6-9.3,1.4-16.5
			C124.7,113.6,106.6,118.4,113.7,153.6"/>
	</defs>
	<clipPath id="SVGID_20_">
		<use xlink:href="#SVGID_19_"  overflow="visible"/>
	</clipPath>
	
		<linearGradient id="SVGID_21_" gradientUnits="userSpaceOnUse" x1="-161.4883" y1="450.7285" x2="-161.0939" y2="450.7285" gradientTransform="matrix(56.8043 -58.9785 -58.9785 -56.8043 35863.3555 16225.8438)">
		<stop  offset="0" style="stop-color:#EC2024"/>
		<stop  offset="0.2292" style="stop-color:#EC2024"/>
		<stop  offset="0.8593" style="stop-color:#C0272D"/>
		<stop  offset="1" style="stop-color:#C0272D"/>
	</linearGradient>
	<polygon clip-path="url(#SVGID_20_)" fill="url(#SVGID_21_)" points="58.8,131.3 122.8,64.9 188,127.7 124.1,194.1 	"/>
</g>
<g>
	<defs>
		<path id="SVGID_22_" d="M120.8,78.9c-25.1,0-34.2-20.6-27.9-46.6C79.5,63.5,85.3,77.8,105,93c13.6,10.6,23.2,26.5,22.2,49.4
			c5-43.8,41.4-71,13.8-110.1C148.4,46.2,146.4,78.9,120.8,78.9"/>
	</defs>
	<clipPath id="SVGID_23_">
		<use xlink:href="#SVGID_22_"  overflow="visible"/>
	</clipPath>
	
		<linearGradient id="SVGID_24_" gradientUnits="userSpaceOnUse" x1="-161.2129" y1="450.5332" x2="-160.8187" y2="450.5332" gradientTransform="matrix(-166.1738 0 0 -166.1738 -26638.25 74954.0859)">
		<stop  offset="0" style="stop-color:#EC2024"/>
		<stop  offset="1" style="stop-color:#C0272D"/>
	</linearGradient>
	<rect x="79.5" y="32.3" clip-path="url(#SVGID_23_)" fill="url(#SVGID_24_)" width="89" height="110.1"/>
</g>
<g>
	<defs>
		<path id="SVGID_25_" d="M110.2,58.9c0,6.3,4.4,11.3,9.7,11.3c5.4,0,9.7-5.1,9.7-11.3c0-6.3-4.4-11.3-9.7-11.3
			C114.6,47.6,110.2,52.7,110.2,58.9"/>
	</defs>
	<clipPath id="SVGID_26_">
		<use xlink:href="#SVGID_25_"  overflow="visible"/>
	</clipPath>
	
		<radialGradient id="SVGID_27_" cx="-161.6733" cy="448.1953" r="0.3919" gradientTransform="matrix(54.0677 0 0 -54.0677 8867.9375 24286.1543)" gradientUnits="userSpaceOnUse">
		<stop  offset="0" style="stop-color:#EC2024"/>
		<stop  offset="1" style="stop-color:#C0272D"/>
	</radialGradient>
	<rect x="110.2" y="47.6" clip-path="url(#SVGID_26_)" fill="url(#SVGID_27_)" width="19.5" height="22.7"/>
</g>
<g>
	<defs>
		<path id="SVGID_28_" d="M57.5,73.8C35,81,83.7,114.7,81.7,103c-1.8-10.8-10.6-29.6-21.3-29.6C59.5,73.4,58.5,73.5,57.5,73.8"/>
	</defs>
	<clipPath id="SVGID_29_">
		<use xlink:href="#SVGID_28_"  overflow="visible"/>
	</clipPath>
	
		<linearGradient id="SVGID_30_" gradientUnits="userSpaceOnUse" x1="-162.9272" y1="450.7031" x2="-162.5329" y2="450.7031" gradientTransform="matrix(-57.5678 -50.5943 50.5943 -57.5678 -32109.7852 17808.459)">
		<stop  offset="0" style="stop-color:#1E7CC0"/>
		<stop  offset="1" style="stop-color:#224088"/>
	</linearGradient>
	<polygon clip-path="url(#SVGID_29_)" fill="url(#SVGID_30_)" points="104.2,91.4 56.2,49.2 14.5,96.7 62.5,138.9 	"/>
</g>
<g>
	<defs>
		<path id="SVGID_31_" d="M103.8,141.2c19.4,7.2-22.4-32.4-48.2-37.6C63.4,121.2,84.3,134,103.8,141.2"/>
	</defs>
	<clipPath id="SVGID_32_">
		<use xlink:href="#SVGID_31_"  overflow="visible"/>
	</clipPath>
	
		<linearGradient id="SVGID_33_" gradientUnits="userSpaceOnUse" x1="-161.8774" y1="451.0898" x2="-161.4831" y2="451.0898" gradientTransform="matrix(-101.2174 -64.9001 64.9001 -101.2174 -45558.9141 35286.0508)">
		<stop  offset="0" style="stop-color:#1E7CC0"/>
		<stop  offset="1" style="stop-color:#224088"/>
	</linearGradient>
	<polygon clip-path="url(#SVGID_32_)" fill="url(#SVGID_33_)" points="143.5,116.6 75.3,72.9 35.2,135.3 103.5,179.1 	"/>
</g>
<g>
	<defs>
		<path id="SVGID_34_" d="M39,87.2c6.6,24.9,30.7,43.6,64.7,54c-44.7-17.2-60.6-57.3-44.1-58.4C72.3,82,80.5,98.3,81.7,103
			c-2.5-15.7-10.6-28.3-20.3-34.5c-4-2.6-8.1-3.9-11.7-3.9C41.1,64.6,35,72.1,39,87.2"/>
	</defs>
	<clipPath id="SVGID_35_">
		<use xlink:href="#SVGID_34_"  overflow="visible"/>
	</clipPath>
	
		<linearGradient id="SVGID_36_" gradientUnits="userSpaceOnUse" x1="-160.1416" y1="452.0615" x2="-159.7473" y2="452.0615" gradientTransform="matrix(99.5393 0 0 99.5393 15972.4375 -44895.0547)">
		<stop  offset="0" style="stop-color:#AFE1F9"/>
		<stop  offset="1" style="stop-color:#1C97D4"/>
	</linearGradient>
	<rect x="35" y="64.6" clip-path="url(#SVGID_35_)" fill="url(#SVGID_36_)" width="68.7" height="76.6"/>
</g>
<g>
	<defs>
		<path id="SVGID_37_" d="M39.7,44.7c-1.3,6.4,1.6,12.5,6.6,13.5c5,1,10.1-3.3,11.4-9.7C59,42.1,56.1,36,51.1,35
			c-0.5-0.1-1-0.2-1.5-0.2C45.2,34.8,40.9,38.9,39.7,44.7"/>
	</defs>
	<clipPath id="SVGID_38_">
		<use xlink:href="#SVGID_37_"  overflow="visible"/>
	</clipPath>
	
		<radialGradient id="SVGID_39_" cx="-162.9541" cy="449.1357" r="0.394" gradientTransform="matrix(-87.6433 0 0 -87.6433 -14244.6875 39405.2031)" gradientUnits="userSpaceOnUse">
		<stop  offset="0" style="stop-color:#AFE1F9"/>
		<stop  offset="1" style="stop-color:#1C97D4"/>
	</radialGradient>
	<rect x="38.4" y="34.8" clip-path="url(#SVGID_38_)" fill="url(#SVGID_39_)" width="20.6" height="24.4"/>
</g>
<g>
	<path fill="#EC1C27" d="M52.5,182.1h-5.7v-16.7h4.4c1.4,0,2.5,0.2,3.2,0.6c0.8,0.4,1.4,0.9,1.8,1.5c0.4,0.7,0.6,1.4,0.6,2.3
		c0,1.6-0.8,2.8-2.5,3.5c1.2,0.2,2.2,0.7,2.9,1.5c0.7,0.8,1.1,1.7,1.1,2.8c0,0.9-0.2,1.6-0.7,2.3c-0.4,0.7-1.1,1.2-1.9,1.6
		C54.9,181.9,53.8,182.1,52.5,182.1 M51.3,167.5h-2.1v5h1.6c1.3,0,2.2-0.2,2.7-0.7c0.5-0.5,0.8-1.1,0.8-1.9
		C54.4,168.3,53.4,167.5,51.3,167.5 M51.5,174.7h-2.2v5.3h2.4c1.3,0,2.2-0.1,2.7-0.3c0.5-0.2,0.8-0.5,1.1-1c0.3-0.4,0.4-0.9,0.4-1.4
		c0-0.5-0.1-1-0.4-1.4c-0.3-0.4-0.7-0.7-1.3-0.9C53.6,174.8,52.7,174.7,51.5,174.7"/>
	<rect x="60.6" y="165.4" fill="#EC1C27" width="2.4" height="16.7"/>
	<path fill="#EC1C27" d="M66.6,182.1v-16.7h4.2c1.7,0,3,0.4,4,1.3c1,0.8,1.5,2,1.5,3.4c0,1-0.2,1.8-0.7,2.5
		c-0.5,0.7-1.2,1.2-2.1,1.6c0.5,0.4,1.1,0.8,1.6,1.4c0.5,0.6,1.2,1.7,2.2,3.2c0.6,0.9,1,1.7,1.4,2.1l0.9,1.2h-2.8l-0.7-1.1
		c0,0-0.1-0.1-0.1-0.2l-0.5-0.7l-0.7-1.2l-0.8-1.3c-0.5-0.7-0.9-1.2-1.4-1.6c-0.4-0.4-0.8-0.7-1.1-0.9c-0.3-0.2-0.9-0.3-1.7-0.3H69
		v7.3H66.6z M69.7,167.4H69v5.3h0.9c1.2,0,2-0.1,2.5-0.3c0.5-0.2,0.8-0.5,1.1-0.9c0.3-0.4,0.4-0.9,0.4-1.4c0-0.5-0.1-1-0.4-1.4
		c-0.3-0.4-0.7-0.7-1.2-0.9C71.8,167.5,70.9,167.4,69.7,167.4"/>
	<polygon fill="#EC1C27" points="94.5,165.4 96.8,165.4 96.8,182.1 94.4,182.1 94.4,169.1 89.2,175.5 88.8,175.5 83.6,169.1 
		83.6,182.1 81.2,182.1 81.2,165.4 83.5,165.4 89,172.2 	"/>
	<rect x="100.3" y="165.4" fill="#EC1C27" width="2.4" height="16.7"/>
	<polygon fill="#EC1C27" points="119.5,165.4 121.8,165.4 121.8,182.1 119.7,182.1 108.6,169.2 108.6,182.1 106.3,182.1 
		106.3,165.4 108.3,165.4 119.5,178.4 	"/>
	<path fill="#EC1C27" d="M134.3,173.9h5.6v7.1c-2.1,0.9-4.1,1.3-6.1,1.3c-2.8,0-5-0.8-6.6-2.4c-1.7-1.6-2.5-3.6-2.5-6
		c0-2.5,0.9-4.6,2.6-6.2c1.7-1.7,3.9-2.5,6.4-2.5c0.9,0,1.8,0.1,2.7,0.3s1.9,0.6,3.2,1.1v2.4c-2-1.2-4-1.7-5.9-1.7
		c-1.8,0-3.4,0.6-4.6,1.9c-1.3,1.2-1.9,2.8-1.9,4.6c0,1.9,0.6,3.4,1.9,4.7c1.3,1.2,2.9,1.8,4.8,1.8c1,0,2.1-0.2,3.4-0.7l0.2-0.1V176
		h-3.2V173.9z"/>
	<polygon fill="#EC1C27" points="155,165.4 157.4,165.4 157.4,182.1 155,182.1 155,174.8 145.7,174.8 145.7,182.1 143.3,182.1 
		143.3,165.4 145.7,165.4 145.7,172.6 155,172.6 	"/>
	<path fill="#EC1C27" d="M166.3,165.3h1.7l7.5,16.8h-2.4l-2.2-5h-7.1l-2.1,5h-2.5L166.3,165.3z M169.9,175l-2.7-6.1l-2.5,6.1H169.9z
		"/>
	<polygon fill="#EC1C27" points="190.5,165.4 192.7,165.4 192.7,182.1 190.3,182.1 190.3,169.1 185.2,175.5 184.8,175.5 
		179.6,169.1 179.6,182.1 177.2,182.1 177.2,165.4 179.4,165.4 185,172.2 	"/>
</g>
<g>
	<path fill="#1081C4" d="M49.7,190.9l-1.1-0.7c-0.7-0.4-1.2-0.8-1.5-1.3c-0.3-0.4-0.4-0.9-0.4-1.4c0-0.8,0.3-1.5,0.8-2
		c0.6-0.5,1.3-0.8,2.2-0.8c0.9,0,1.6,0.2,2.3,0.7v1.7c-0.7-0.7-1.5-1.1-2.4-1.1c-0.5,0-0.9,0.1-1.2,0.3c-0.3,0.2-0.5,0.5-0.5,0.8
		c0,0.3,0.1,0.6,0.3,0.9c0.2,0.3,0.6,0.5,1.1,0.8l1.1,0.7c1.2,0.7,1.9,1.7,1.9,2.8c0,0.8-0.3,1.5-0.8,2c-0.5,0.5-1.3,0.8-2.1,0.8
		c-1,0-1.9-0.3-2.8-0.9v-1.9c0.8,1,1.7,1.5,2.7,1.5c0.5,0,0.8-0.1,1.1-0.4c0.3-0.3,0.5-0.6,0.5-1C51,192,50.6,191.4,49.7,190.9"/>
	<path fill="#1081C4" d="M53.9,195.1v-10.2h3.2c1,0,1.8,0.3,2.3,0.8c0.6,0.5,0.9,1.2,0.9,2.1c0,0.6-0.1,1.1-0.4,1.6
		c-0.3,0.5-0.7,0.8-1.2,1c-0.5,0.2-1.3,0.3-2.2,0.3h-1.1v4.4H53.9z M56.9,186.2h-1.5v3.2H57c0.6,0,1.1-0.1,1.4-0.4
		c0.3-0.3,0.5-0.7,0.5-1.2C58.9,186.7,58.2,186.2,56.9,186.2"/>
	<path fill="#1081C4" d="M66.6,184.8c1.6,0,2.9,0.5,3.9,1.5c1,1,1.6,2.3,1.6,3.8c0,1.5-0.5,2.8-1.6,3.7c-1.1,1-2.4,1.5-4,1.5
		c-1.5,0-2.8-0.5-3.8-1.5c-1-1-1.5-2.2-1.5-3.7c0-1.5,0.5-2.8,1.5-3.8C63.8,185.3,65.1,184.8,66.6,184.8 M66.7,186.2
		c-1.2,0-2.1,0.4-2.9,1.1c-0.8,0.7-1.1,1.7-1.1,2.8c0,1.1,0.4,2,1.1,2.7c0.8,0.7,1.7,1.1,2.8,1.1c1.1,0,2.1-0.4,2.9-1.1
		c0.8-0.7,1.1-1.7,1.1-2.8c0-1.1-0.4-2-1.1-2.7C68.7,186.5,67.8,186.2,66.7,186.2"/>
	<path fill="#1081C4" d="M74,195.1v-10.2h2.6c1,0,1.9,0.3,2.5,0.8c0.6,0.5,0.9,1.2,0.9,2.1c0,0.6-0.1,1.1-0.4,1.5
		c-0.3,0.4-0.7,0.8-1.3,1c0.3,0.2,0.6,0.5,1,0.9c0.3,0.4,0.8,1,1.3,1.9c0.4,0.6,0.6,1,0.9,1.3l0.5,0.7h-1.7l-0.4-0.7
		c0,0,0-0.1-0.1-0.1l-0.3-0.4l-0.5-0.7l-0.5-0.8c-0.3-0.4-0.6-0.8-0.8-1c-0.3-0.2-0.5-0.4-0.7-0.5c-0.2-0.1-0.5-0.2-1-0.2h-0.4v4.4
		H74z M75.9,186.2h-0.4v3.2H76c0.7,0,1.2-0.1,1.5-0.2c0.3-0.1,0.5-0.3,0.6-0.6c0.2-0.3,0.2-0.5,0.2-0.9c0-0.3-0.1-0.6-0.3-0.9
		c-0.2-0.3-0.4-0.4-0.7-0.6C77.1,186.2,76.6,186.2,75.9,186.2"/>
	<polygon fill="#1081C4" points="80.8,184.9 89.3,184.9 89.3,186.2 85.8,186.2 85.8,195.1 84.3,195.1 84.3,186.2 80.8,186.2 	"/>
	<path fill="#1081C4" d="M93.2,190.9l-1.1-0.7c-0.7-0.4-1.2-0.8-1.5-1.3c-0.3-0.4-0.4-0.9-0.4-1.4c0-0.8,0.3-1.5,0.8-2
		c0.6-0.5,1.3-0.8,2.2-0.8c0.9,0,1.6,0.2,2.3,0.7v1.7c-0.7-0.7-1.5-1.1-2.4-1.1c-0.5,0-0.9,0.1-1.2,0.3c-0.3,0.2-0.5,0.5-0.5,0.8
		c0,0.3,0.1,0.6,0.3,0.9c0.2,0.3,0.6,0.5,1.1,0.8l1.1,0.7c1.2,0.7,1.9,1.7,1.9,2.8c0,0.8-0.3,1.5-0.8,2c-0.5,0.5-1.3,0.8-2.1,0.8
		c-1,0-1.9-0.3-2.8-0.9v-1.9c0.8,1,1.7,1.5,2.7,1.5c0.5,0,0.8-0.1,1.1-0.4c0.3-0.3,0.5-0.6,0.5-1C94.6,192,94.1,191.4,93.2,190.9"/>
	<path fill="#1081C4" d="M103.5,184.9h1l4.6,10.3h-1.5l-1.4-3h-4.4l-1.3,3h-1.5L103.5,184.9z M105.6,190.8l-1.6-3.7l-1.5,3.7H105.6z
		"/>
	<polygon fill="#1081C4" points="122,184.9 123.5,184.9 119.3,195.2 119,195.2 115.7,186.9 112.3,195.2 112,195.2 107.9,184.9 
		109.3,184.9 112.2,192 115,184.9 116.4,184.9 119.2,192 	"/>
	<path fill="#1081C4" d="M126.7,184.9h1l4.6,10.3h-1.5l-1.4-3H125l-1.3,3h-1.5L126.7,184.9z M128.8,190.8l-1.6-3.7l-1.5,3.7H128.8z"
		/>
	<path fill="#1081C4" d="M133.4,195.1v-10.2h2.6c1,0,1.9,0.3,2.5,0.8c0.6,0.5,0.9,1.2,0.9,2.1c0,0.6-0.1,1.1-0.4,1.5
		c-0.3,0.4-0.7,0.8-1.3,1c0.3,0.2,0.6,0.5,1,0.9c0.3,0.4,0.8,1,1.3,1.9c0.4,0.6,0.6,1,0.9,1.3l0.5,0.7h-1.7l-0.4-0.7
		c0,0,0-0.1-0.1-0.1l-0.3-0.4l-0.5-0.7l-0.5-0.8c-0.3-0.4-0.6-0.8-0.8-1c-0.3-0.2-0.5-0.4-0.7-0.5s-0.5-0.2-1-0.2h-0.4v4.4H133.4z
		 M135.3,186.2h-0.4v3.2h0.6c0.7,0,1.2-0.1,1.5-0.2c0.3-0.1,0.5-0.3,0.6-0.6c0.2-0.3,0.2-0.5,0.2-0.9c0-0.3-0.1-0.6-0.3-0.9
		c-0.2-0.3-0.4-0.4-0.7-0.6C136.6,186.2,136,186.2,135.3,186.2"/>
	<path fill="#1081C4" d="M142.4,195.1v-10.2h3.4c1.4,0,2.5,0.2,3.3,0.6c0.8,0.4,1.5,1,1.9,1.8c0.5,0.8,0.7,1.7,0.7,2.6
		c0,0.7-0.1,1.3-0.4,2c-0.3,0.6-0.6,1.2-1.1,1.6c-0.5,0.5-1.1,0.9-1.7,1.1c-0.4,0.2-0.7,0.3-1.1,0.3c-0.3,0.1-0.9,0.1-1.8,0.1H142.4
		z M145.7,186.2h-1.8v7.6h1.9c0.7,0,1.3-0.1,1.7-0.2c0.4-0.1,0.7-0.2,1-0.4c0.3-0.2,0.5-0.3,0.7-0.6c0.7-0.7,1.1-1.7,1.1-2.8
		c0-1.1-0.4-2-1.1-2.7c-0.3-0.3-0.6-0.5-0.9-0.6c-0.4-0.2-0.7-0.3-1-0.3C146.9,186.2,146.4,186.2,145.7,186.2"/>
	<path fill="#1081C4" d="M156.2,190.9l-1.1-0.7c-0.7-0.4-1.2-0.8-1.5-1.3c-0.3-0.4-0.4-0.9-0.4-1.4c0-0.8,0.3-1.5,0.8-2
		c0.6-0.5,1.3-0.8,2.2-0.8c0.9,0,1.6,0.2,2.3,0.7v1.7c-0.7-0.7-1.5-1.1-2.4-1.1c-0.5,0-0.9,0.1-1.2,0.3c-0.3,0.2-0.5,0.5-0.5,0.8
		c0,0.3,0.1,0.6,0.3,0.9c0.2,0.3,0.6,0.5,1.1,0.8l1.1,0.7c1.2,0.7,1.9,1.7,1.9,2.8c0,0.8-0.3,1.5-0.8,2c-0.5,0.5-1.3,0.8-2.1,0.8
		c-1,0-1.9-0.3-2.8-0.9v-1.9c0.8,1,1.7,1.5,2.7,1.5c0.5,0,0.8-0.1,1.1-0.4s0.5-0.6,0.5-1C157.5,192,157.1,191.4,156.2,190.9"/>
	<path fill="#1081C4" d="M166.6,193.7h3.9v1.4H164V195l0.6-0.7c1-1.2,1.7-2.2,2.3-3c0.6-0.8,0.9-1.5,1.1-1.9
		c0.2-0.4,0.3-0.8,0.3-1.3c0-0.6-0.2-1-0.5-1.4c-0.3-0.3-0.8-0.5-1.3-0.5c-0.4,0-0.8,0.1-1.2,0.4c-0.4,0.2-0.8,0.6-1.1,1v-1.9
		c0.8-0.6,1.6-1,2.5-1c0.9,0,1.6,0.3,2.2,0.9c0.6,0.6,0.9,1.3,0.9,2.3c0,0.4-0.1,0.8-0.2,1.3c-0.1,0.5-0.4,1-0.8,1.6
		c-0.4,0.6-1,1.4-1.9,2.5L166.6,193.7z"/>
	<path fill="#1081C4" d="M174.8,184.8c0.9,0,1.7,0.5,2.3,1.5c0.6,1,0.9,2.2,0.9,3.7c0,1.6-0.3,2.8-0.9,3.8s-1.4,1.5-2.4,1.5
		c-1,0-1.8-0.5-2.4-1.4c-0.6-0.9-0.9-2.2-0.9-3.8c0-1.5,0.3-2.8,0.9-3.8C173,185.3,173.8,184.8,174.8,184.8 M174.8,186.2
		L174.8,186.2c-0.6,0-1.1,0.3-1.4,1c-0.3,0.7-0.5,1.6-0.5,2.8c0,1.2,0.2,2.2,0.5,2.8c0.3,0.7,0.8,1,1.3,1s1-0.3,1.3-1
		c0.3-0.7,0.5-1.6,0.5-2.8c0-1.2-0.2-2.1-0.5-2.8C175.8,186.5,175.4,186.2,174.8,186.2"/>
	<rect x="181.5" y="184.9" fill="#1081C4" width="1.5" height="10.2"/>
	<path fill="#1081C4" d="M191.3,184.8h0.6v5.7h1.1v1.2h-1.1v3.4h-1.4v-3.4h-4.3v-0.6L191.3,184.8z M190.5,190.5v-3l-2.4,3H190.5z"/>
</g>
<g>
	<rect x="157.6" y="203" fill="#D1232A" width="35.4" height="13.4"/>
	<g>
		<path fill="#FFFFFF" d="M176.3,214.4h-0.9v1.3h3.9v-1.3h-0.5l-2.7-6.8h-2.7l-2.7,6.8h-0.5v1.3h3.5v-1.3h-0.9l0.4-1h2.9
			L176.3,214.4z M175.5,212.2h-1.9l0.9-2.9h0L175.5,212.2z"/>
		<polygon fill="#FFFFFF" points="180.7,214.4 179.8,214.4 179.8,215.7 184,215.7 184,214.4 183.1,214.4 183.1,209 184,209 
			184,207.6 179.8,207.6 179.8,209 180.7,209 		"/>
		<polygon fill="#FFFFFF" points="189.6,214.4 187.7,214.4 187.7,209 188.9,209 188.9,207.6 184.5,207.6 184.5,209 185.3,209 
			185.3,214.4 184.5,214.4 184.5,215.7 191.6,215.7 191.6,212.7 189.6,212.7 		"/>
		<polygon fill="#FFFFFF" points="168.7,214.4 168.7,209 169.6,209 169.6,207.6 168.3,207.6 166.6,207.6 166.5,207.6 164.3,211.8 
			162,207.6 162,207.6 160.2,207.6 158.9,207.6 158.9,209 159.8,209 159.8,214.4 158.9,214.4 158.9,215.7 163.1,215.7 163.1,214.4 
			162.2,214.4 162.2,211.6 164.3,215.7 166.4,211.6 166.4,214.4 165.5,214.4 165.5,215.7 169.6,215.7 169.6,214.4 		"/>
	</g>
	<path fill="#FFFFFF" d="M159,206.6h1.7c0.5,0,1-0.3,1-0.8c0-0.2-0.2-0.7-0.7-0.7v0c0.4,0,0.7-0.3,0.7-0.7c0-0.3-0.1-0.7-0.9-0.7
		H159v0.2h0.5v2.5H159V206.6z M159.8,203.9h0.9c0.4,0,0.6,0.3,0.6,0.6c0,0.3-0.3,0.6-0.7,0.6h-0.8V203.9z M159.8,205.2h0.8
		c0.5,0,0.7,0.3,0.7,0.6c0,0.4-0.3,0.6-0.8,0.6h-0.7V205.2z M162.4,206.4H162v0.2h1.2v-0.2h-0.5v-2.5h0.5v-0.2H162v0.2h0.5V206.4z
		 M163.6,206.6h1.2v-0.2h-0.5v-1.1h0.6c0.5,0,0.6,0.1,0.8,0.8l0.1,0.5h0.6v-0.2h-0.4l-0.2-0.6c-0.1-0.3-0.2-0.5-0.5-0.6v0
		c0.4,0,0.7-0.3,0.7-0.7c0-0.5-0.3-0.8-1-0.8h-1.5v0.2h0.5v2.5h-0.5V206.6z M164.3,203.9h0.6c0.6,0,0.8,0.2,0.8,0.6
		c0,0.2-0.2,0.6-0.8,0.6h-0.6V203.9z M167.3,206.4h-0.5v0.2h1.2v-0.2h-0.4v-2.5h0l1.2,2.7h0.2l1.2-2.7h0v2.5h-0.4v0.2h1.2v-0.2h-0.5
		v-2.5h0.5v-0.2h-1l-1.1,2.5h0l-1.1-2.5h-1v0.2h0.5V206.4z M171.8,206.4h-0.5v0.2h1.2v-0.2h-0.5v-2.5h0.5v-0.2h-1.2v0.2h0.5V206.4z
		 M173.4,206.4h-0.5v0.2h1.2v-0.2h-0.5v-2.5h0l1.8,2.7h0.4v-2.7h0.4v-0.2h-1.2v0.2h0.5v2.4h0l-1.7-2.6h-0.9v0.2h0.5V206.4z
		 M179,204.2L179,204.2c-0.2-0.3-0.5-0.5-1-0.5c-1.1,0-1.6,0.7-1.6,1.5c0,0.8,0.5,1.5,1.5,1.5c0.4,0,0.9-0.2,1-0.5h0v0.5h0.3v-1.2
		h0.4v-0.2h-1.3v0.2h0.6v0.2c0,0.5-0.4,0.9-1,0.9c-0.7,0-1.2-0.4-1.2-1.3c0-0.8,0.5-1.3,1.2-1.3c0.6,0,1,0.3,1,0.8h0.2v-1H179V204.2
		z M182,206.6h1.2v-0.2h-0.5v-2.5h0.5v-0.2H182v0.2h0.5v1.1h-1.8v-1.1h0.5v-0.2h-1.2v0.2h0.5v2.5h-0.5v0.2h1.2v-0.2h-0.5v-1.2h1.8
		v1.2H182V206.6z M184.6,205.4l0.7-1.4h0l0.7,1.4H184.6z M183.5,206.6h1.1v-0.2h-0.5l0.4-0.8h1.5l0.4,0.8h-0.5v0.2h1.1v-0.2h-0.3
		l-1.2-2.7h-0.4l-1.2,2.7h-0.3V206.6z M187.8,206.4h-0.5v0.2h1.2v-0.2H188v-2.5h0l1.2,2.7h0.2l1.2-2.7h0v2.5h-0.4v0.2h1.2v-0.2h-0.5
		v-2.5h0.5v-0.2h-1l-1.1,2.5h0l-1.1-2.5h-1v0.2h0.5V206.4z"/>
</g>
<g>
	<rect x="47" y="203" fill="#214392" width="105.3" height="13.4"/>
	<g>
		<path fill="#FFFFFF" d="M52.6,214.2h-4.7c-0.1,0-0.1,0-0.1-0.1v-0.3c0-0.1,0-0.1,0.2-0.1c0.5,0,0.8,0,1-0.2
			c0.2-0.2,0.2-0.7,0.2-1.7v-4.2c0-0.4,0-1.6-0.2-1.9c-0.2-0.2-0.6-0.2-1.1-0.2c-0.1,0-0.1-0.1-0.1-0.1v-0.2c0-0.1,0.1-0.1,0.1-0.1
			h4.8c1.5,0,2.3,0.9,2.3,2c0,1.4-0.8,2.1-2.1,2.3v0c1.7,0.1,2.6,1,2.6,2.4C55.5,213.3,54.2,214.2,52.6,214.2 M50.9,205.7v3.5h0.7
			c1,0,1.8-0.6,1.8-1.8C53.4,206.1,52.7,205.3,50.9,205.7 M51.8,209.7h-0.8v4c1,0.1,1.7,0,2.2-0.5c0.4-0.4,0.5-0.9,0.5-1.4
			C53.7,210.6,53.1,209.7,51.8,209.7"/>
		<path fill="#FFFFFF" d="M59.3,206.9c-0.4,0-0.8,0-0.9,0.2c-0.1,0.2-0.1,0.8-0.1,1.2v4.5c0,0.3,0,0.7,0.1,0.8
			c0.1,0.1,0.6,0.2,0.9,0.2c0.1,0,0.2,0,0.2,0.1v0.2c0,0.1,0,0.1-0.1,0.1h-3.7c-0.1,0-0.1,0-0.1-0.1v-0.2c0-0.1,0-0.1,0.2-0.1
			c0.2,0,0.7,0,0.9-0.2c0.1-0.2,0.1-0.7,0.1-1.2v-4.6c0-0.2,0-0.5-0.2-0.7c-0.1-0.1-0.7-0.2-0.8-0.2c-0.2,0-0.3,0-0.3-0.1v-0.2
			c0-0.1,0-0.1,0.1-0.1h3.8c0.1,0,0.1,0,0.1,0.1v0.2C59.5,206.9,59.5,206.9,59.3,206.9"/>
		<path fill="#FFFFFF" d="M66.6,214.2h-2c-0.6-1.3-1.3-2.6-2-3.8h-0.6v1.3c0,0.7,0,1.7,0.2,2c0.1,0.1,0.3,0.1,0.9,0.1
			c0.2,0,0.2,0,0.2,0.1v0.2c0,0.1,0,0.1-0.1,0.1h-3.6c-0.1,0-0.1,0-0.1-0.1v-0.2c0-0.1,0-0.1,0.1-0.1c0.4,0,0.7,0,0.9-0.1
			c0.1-0.1,0.1-1.3,0.1-2.1v-2.9c0-0.5,0-1.5-0.2-1.6c-0.1-0.1-0.6-0.1-0.9-0.1c-0.1,0-0.1,0-0.1-0.1v-0.3c0-0.1,0-0.1,0.1-0.1h3.9
			c1.6,0,2.4,0.8,2.4,1.9c0,1-0.8,1.6-1.6,1.9c0.4,0.7,1.8,3,2.1,3.4c0.1,0.1,0.2,0.2,0.5,0.2c0.1,0,0.1,0,0.1,0.1v0.2
			C66.7,214.1,66.7,214.2,66.6,214.2 M63.8,207.4c-0.3-0.3-0.7-0.5-1.3-0.5c-0.2,0-0.4,0-0.6,0c0,0.2,0,0.5,0,0.7v2.4
			c1.5,0,2.2-0.6,2.2-1.6C64.1,208,64,207.6,63.8,207.4"/>
		<path fill="#FFFFFF" d="M76.2,214.2h-2.9c-0.1,0-0.2,0-0.2-0.1v-0.2c0-0.1,0-0.1,0.2-0.1c0.2,0,0.7,0,0.8-0.2
			c0.1-0.1,0.1-0.3,0.1-0.6c0-0.4,0-0.9-0.1-1.4l-0.1-3.9h0c-0.5,1.2-2,4.9-2.5,6.2c-0.1,0.2-0.1,0.3-0.2,0.3h-0.2
			c-0.1,0-0.1-0.1-0.2-0.4c-0.5-1.4-1.8-4.7-2.5-6.1h0l-0.1,3.8c0,0.3,0,0.7,0,1c0,0.6,0,1,0.1,1.1c0.1,0.1,0.5,0.2,0.8,0.2
			c0.1,0,0.1,0,0.1,0.1v0.2c0,0.1,0,0.1-0.1,0.1h-2.3c-0.1,0-0.1,0-0.1-0.1v-0.2c0,0,0-0.1,0.1-0.1c0.2,0,0.5,0,0.7-0.2
			c0.1-0.1,0.2-1.2,0.2-1.7l0.2-3.1c0-0.3,0-0.7,0-1.1c0-0.4,0-0.6-0.1-0.7c-0.1-0.2-0.4-0.2-0.5-0.2c-0.1,0-0.1,0-0.1-0.1v-0.2
			c0-0.1,0-0.1,0.1-0.1h2c0.1,0,0.1,0.1,0.2,0.4c0.4,1.2,1.7,4.3,2.1,5.3c0.4-1,1.7-4,2.1-5.2c0.1-0.4,0.1-0.4,0.2-0.4h1.9
			c0,0,0.1,0,0.1,0v0.2c0,0.1,0,0.1-0.1,0.1c-0.3,0-0.5,0-0.6,0.1c-0.1,0.1-0.1,0.3-0.1,0.6c0,0.3,0,0.6,0,0.8l0.2,3.1
			c0,0.6,0.1,1.9,0.2,2c0.1,0.2,0.4,0.2,0.6,0.2c0.1,0,0.1,0,0.1,0.1v0.3C76.3,214.2,76.3,214.2,76.2,214.2"/>
		<path fill="#FFFFFF" d="M79.6,206.9c-0.4,0-0.8,0-0.9,0.2c-0.1,0.2-0.1,0.8-0.1,1.2v4.5c0,0.3,0,0.7,0.1,0.8
			c0.1,0.1,0.6,0.2,0.9,0.2c0.1,0,0.2,0,0.2,0.1v0.2c0,0.1,0,0.1-0.1,0.1h-3.7c-0.1,0-0.1,0-0.1-0.1v-0.2c0-0.1,0-0.1,0.2-0.1
			c0.2,0,0.7,0,0.9-0.2c0.1-0.2,0.1-0.7,0.1-1.2v-4.6c0-0.2,0-0.5-0.2-0.7c-0.1-0.1-0.7-0.2-0.8-0.2c-0.2,0-0.3,0-0.3-0.1v-0.2
			c0-0.1,0-0.1,0.1-0.1h3.8c0.1,0,0.1,0,0.1,0.1v0.2C79.8,206.9,79.8,206.9,79.6,206.9"/>
		<path fill="#FFFFFF" d="M88.1,206.9c-0.4,0-0.9,0-1,0.1c-0.1,0.1-0.1,0.7-0.1,0.9v6.3c0,0.1,0,0.1-0.1,0.1h-0.6
			c-0.6-1-1.6-2.2-2.4-3.2c-0.8-1-1.6-2.1-2.4-3.1v3.8c0,0.6,0,1.7,0.2,1.9c0.1,0.1,0.6,0.2,0.9,0.2c0.1,0,0.2,0,0.2,0.1v0.2
			c0,0.1,0,0.1-0.1,0.1h-2.9c-0.1,0-0.1,0-0.1-0.1v-0.2c0,0,0-0.1,0.2-0.1c0.3,0,0.9,0,1-0.2c0.1-0.1,0.1-1.1,0.1-1.6v-3.7
			c0-0.4,0-1-0.1-1.2c-0.2-0.2-0.7-0.2-1-0.2c-0.2,0-0.2,0-0.2-0.2v-0.2c0,0,0-0.1,0.1-0.1h2.5c0.1,0,0.1,0.1,0.2,0.3
			c0.7,1,2.9,4,3.8,5.1v-3.8c0-0.3,0-0.9-0.1-1c-0.1-0.2-0.7-0.2-1-0.2c-0.2,0-0.2,0-0.2-0.1v-0.2c0-0.1,0-0.1,0.1-0.1h2.9
			c0,0,0.1,0,0.1,0.1v0.2C88.2,206.9,88.2,206.9,88.1,206.9"/>
		<path fill="#FFFFFF" d="M96.1,211c-1.1,0-1.1,0.3-1.1,1.1c0,0.4,0,1.3,0,1.8c-0.7,0.2-1.6,0.5-2.8,0.5c-1.6,0-2.6-0.4-3.3-1.2
			c-0.7-0.7-1-1.6-1-2.5c0-1.3,0.5-2.4,1.2-3.1c0.9-0.9,2-1.3,3.6-1.3c0.7,0,1.5,0.1,2.1,0.2c0.1,0,0.1,0,0.1,0.1v2.2
			c0,0.1,0,0.1-0.1,0.1h-0.3c-0.1,0-0.1-0.1-0.1-0.2c-0.4-0.9-1.1-1.8-2.2-1.8c-1.4,0-2.7,1.1-2.7,3.5c0,1.5,0.5,2.5,1,3
			c0.4,0.4,1,0.7,1.7,0.7c0.4,0,0.7-0.1,1.1-0.3c0-0.4,0-0.7,0-0.9V212c0-0.4,0-0.7-0.2-0.8c-0.2-0.2-0.5-0.2-0.9-0.2
			c-0.2,0-0.2,0-0.2-0.1v-0.3c0,0,0-0.1,0.1-0.1h3.9c0.1,0,0.1,0,0.1,0.1v0.2C96.2,210.9,96.1,211,96.1,211"/>
		<path fill="#FFFFFF" d="M104.1,214.2h-3.6c-0.1,0-0.1,0-0.1-0.1v-0.2c0-0.1,0-0.1,0.1-0.1c0.2,0,0.8,0,0.9-0.2
			c0.1-0.1,0.1-0.7,0.1-1.2v-1.9h-3.3v2.1c0,0.5,0,0.9,0.2,1c0.1,0.1,0.5,0.2,0.9,0.2c0.1,0,0.1,0,0.1,0.1v0.2c0,0.1,0,0.1-0.1,0.1
			h-3.6c-0.1,0-0.1,0-0.1-0.1v-0.2c0-0.1,0-0.1,0.2-0.1c0.6,0,0.8-0.1,0.9-0.2c0.1-0.1,0.1-0.5,0.1-0.8V208c0-0.5,0-0.8-0.2-0.9
			c-0.1-0.1-0.6-0.2-0.9-0.2c-0.2,0-0.2,0-0.2-0.1v-0.2c0-0.1,0-0.1,0.1-0.1h3.6c0.1,0,0.1,0,0.1,0.1v0.2c0,0.1,0,0.1-0.2,0.1
			c-0.3,0-0.7,0-0.8,0.2c-0.1,0.2-0.2,0.8-0.2,1.2v1.5h3.3v-1.7c0-0.5,0-0.9-0.2-1.1c-0.1-0.1-0.6-0.2-0.9-0.2c-0.1,0-0.1,0-0.1-0.1
			v-0.2c0-0.1,0-0.1,0.1-0.1h3.6c0.1,0,0.1,0,0.1,0.1v0.2c0,0.1,0,0.1-0.1,0.1c-0.4,0-0.8,0-0.9,0.2c-0.1,0.1-0.1,0.8-0.1,1.2v4.2
			c0,0.5,0,0.9,0.2,1.1c0.1,0.2,0.6,0.2,0.9,0.2c0.2,0,0.2,0,0.2,0.1L104.1,214.2C104.2,214.2,104.2,214.2,104.1,214.2"/>
		<path fill="#FFFFFF" d="M111.1,214.2h-2.9c-0.1,0-0.1,0-0.1-0.1v-0.3c0,0,0-0.1,0.1-0.1c0.5,0,0.7-0.1,0.7-0.4
			c0-0.1,0-0.3-0.1-0.5l-0.3-1.1h-2.6l-0.4,1c-0.1,0.3-0.1,0.5-0.1,0.6c0,0.4,0.3,0.4,0.7,0.4c0.1,0,0.1,0,0.1,0.1v0.1
			c0,0.1,0,0.1-0.1,0.1h-2c0,0-0.1-0.1-0.1-0.1v-0.2c0-0.1,0-0.1,0.1-0.1c0.4,0,0.6-0.4,0.9-1.1l2.3-6c0.1-0.2,0.1-0.4,0.2-0.4h0.6
			c0.1,0,0.1,0.3,0.3,0.7l2.2,6.1c0.2,0.4,0.4,0.7,0.7,0.7c0.1,0,0.1,0,0.1,0.1v0.2C111.2,214.2,111.2,214.2,111.1,214.2
			 M107.2,208.1l-1.2,3.2h2.3L107.2,208.1z"/>
		<path fill="#FFFFFF" d="M121.1,214.2h-3c-0.1,0-0.2,0-0.2-0.1v-0.2c0-0.1,0-0.1,0.2-0.1c0.2,0,0.7,0,0.8-0.2
			c0.1-0.1,0.1-0.3,0.1-0.6c0-0.4,0-0.9-0.1-1.4l-0.1-3.9h0c-0.5,1.2-2.1,4.9-2.6,6.2c-0.1,0.2-0.1,0.3-0.2,0.3h-0.2
			c-0.1,0-0.1-0.1-0.2-0.4c-0.6-1.4-1.9-4.7-2.6-6.1h0l-0.1,3.8c0,0.3,0,0.7,0,1c0,0.6,0,1,0.1,1.1c0.1,0.1,0.5,0.2,0.8,0.2
			c0.1,0,0.1,0,0.1,0.1v0.2c0,0.1,0,0.1-0.1,0.1h-2.4c-0.1,0-0.1,0-0.1-0.1v-0.2c0,0,0-0.1,0.1-0.1c0.2,0,0.6,0,0.7-0.2
			c0.1-0.1,0.2-1.2,0.2-1.7l0.2-3.1c0-0.3,0-0.7,0-1.1c0-0.4,0-0.6-0.1-0.7c-0.2-0.2-0.4-0.2-0.6-0.2c-0.1,0-0.1,0-0.1-0.1v-0.2
			c0-0.1,0-0.1,0.1-0.1h2.1c0.1,0,0.1,0.1,0.2,0.4c0.4,1.2,1.7,4.3,2.2,5.3c0.4-1,1.7-4,2.2-5.2c0.2-0.4,0.1-0.4,0.2-0.4h2
			c0,0,0.1,0,0.1,0v0.2c0,0.1,0,0.1-0.1,0.1c-0.3,0-0.5,0-0.6,0.1c-0.1,0.1-0.1,0.3-0.1,0.6c0,0.3,0,0.6,0,0.8l0.2,3.1
			c0,0.6,0.1,1.9,0.2,2c0.1,0.2,0.4,0.2,0.7,0.2c0.1,0,0.1,0,0.1,0.1v0.3C121.2,214.2,121.2,214.2,121.1,214.2"/>
	</g>
	<g>
		<path fill="#FFFFFF" d="M130.9,209.1c-0.7,0.7-1.7,1.1-3.2,1.1c-0.3,0-0.6,0-0.9,0v1.6c0,0.6,0,1.6,0.2,1.8
			c0.2,0.2,0.8,0.2,1.3,0.2c0.2,0,0.2,0,0.2,0.1v0.2c0,0.1,0,0.1-0.1,0.1h-4.9c-0.1,0-0.2,0-0.2-0.1v-0.2c0-0.1,0-0.1,0.2-0.1
			c0.4,0,1.1,0,1.2-0.2c0.2-0.2,0.2-1.8,0.2-2.6v-2.4c0-1,0-2.6-0.2-2.8c-0.2-0.2-0.8-0.2-1.3-0.2c-0.1,0-0.2,0-0.2-0.1v-0.3
			c0-0.1,0-0.1,0.1-0.1h5.1c0.9,0,1.8,0.3,2.3,0.9c0.4,0.4,0.6,1,0.6,1.5C131.6,208.2,131.3,208.7,130.9,209.1 M129.2,206.2
			c-0.4-0.5-1-0.6-1.7-0.6c-0.2,0-0.4,0-0.5,0c0,0.4,0,0.7,0,1.1v2.9c0.2,0,0.4,0,0.6,0c0.6,0,1.2-0.2,1.7-0.6
			c0.4-0.4,0.6-0.9,0.6-1.4C129.7,207.1,129.6,206.6,129.2,206.2"/>
		<path fill="#FFFFFF" d="M135,214.4c-2.3,0-3.8-1.6-3.8-3.8c0-2.2,1.6-4.2,4.2-4.2c2.6,0,3.8,1.9,3.8,3.9
			C139.2,212.3,137.6,214.4,135,214.4 M136.5,207.4c-0.4-0.5-0.9-0.7-1.4-0.7c-1.5,0-2.3,1.7-2.3,3.3c0,1.2,0.4,2.6,1,3.2
			c0.4,0.4,1,0.7,1.5,0.7c1.7,0,2.3-2,2.3-3.3C137.6,209.7,137.3,208.2,136.5,207.4"/>
		<path fill="#FFFFFF" d="M141.1,214.4c-0.9,0-1.6-0.2-2-0.2c-0.1,0-0.2-0.1-0.2-0.2V212c0,0,0-0.1,0.1-0.1h0.3
			c0.1,0,0.1,0.1,0.1,0.2c0.2,0.7,0.4,1.1,0.5,1.2c0.3,0.3,0.7,0.6,1.4,0.6c0.9,0,1.5-0.6,1.5-1.3c0-0.3-0.1-0.5-0.3-0.8
			c-0.7-0.7-2.2-1-2.9-1.8c-0.4-0.4-0.6-0.9-0.6-1.5c0-1.2,1-2.3,3-2.3c0.6,0,1.5,0.1,1.8,0.2c0.1,0.1,0.2,0.1,0.2,0.1v1.7
			c0,0.1,0,0.1-0.1,0.1h-0.3c-0.1,0-0.1-0.1-0.2-0.2c-0.1-0.4-0.2-0.8-0.5-1.1c-0.3-0.3-0.7-0.4-1.2-0.4c-0.9,0-1.3,0.7-1.3,1.3
			c0,0.2,0.1,0.6,0.4,0.9c0.7,0.7,2.2,1,2.9,1.8c0.4,0.5,0.6,1,0.6,1.4C144.2,213.8,142.8,214.4,141.1,214.4"/>
		<path fill="#FFFFFF" d="M150.6,208.6h-0.2c-0.1,0-0.1,0-0.1-0.2c-0.3-0.9-0.6-1.5-2.1-1.4c0,0.3,0,0.5,0,0.7v3.3
			c0,0.8,0,2.3,0.2,2.5c0.2,0.2,0.7,0.2,1.1,0.2c0.1,0,0.1,0.1,0.1,0.1v0.3c0,0.1-0.1,0.1-0.1,0.1h-4.2c-0.1,0-0.1,0-0.1-0.1v-0.2
			c0-0.1,0-0.1,0.2-0.1c0.3,0,0.8,0,1.1-0.2c0.2-0.2,0.2-1.7,0.2-2.5v-3.2c0-0.3,0-0.5,0-0.8H146c-0.7,0-1.2,0.5-1.5,1.3
			c-0.1,0.2-0.1,0.2-0.1,0.2h-0.3c-0.1,0-0.1-0.1-0.1-0.2v-1.8c0-0.1,0-0.1,0.1-0.1h6.4c0.1,0,0.1,0,0.1,0.1v1.9
			C150.7,208.6,150.7,208.6,150.6,208.6"/>
	</g>
</g>
</svg>
