<?xml version="1.0" encoding="utf-8"?>
<!-- Generator: Adobe Illustrator 13.0.0, SVG Export Plug-In . SVG Version: 6.00 Build 14948)  -->
<!DOCTYPE svg PUBLIC "-//W3C//DTD SVG 1.1//EN" "http://www.w3.org/Graphics/SVG/1.1/DTD/svg11.dtd">
<svg version="1.1" id="Layer_3" xmlns="http://www.w3.org/2000/svg" xmlns:xlink="http://www.w3.org/1999/xlink" x="0px" y="0px"
	 width="316px" height="88px" viewBox="0 0 316 88" enable-background="new 0 0 316 88" xml:space="preserve">
<g>
	<path d="M13.2,64.8l-2.3-1.4c-1.4-0.9-2.5-1.7-3.1-2.6C7.2,60,6.9,59,6.9,57.9c0-1.7,0.6-3,1.7-4c1.2-1,2.6-1.6,4.5-1.6
		c1.8,0,3.4,0.5,4.8,1.5v3.4c-1.5-1.5-3.1-2.2-4.9-2.2c-1,0-1.8,0.2-2.4,0.7c-0.6,0.5-0.9,1-0.9,1.8c0,0.6,0.2,1.2,0.7,1.8
		c0.5,0.5,1.2,1.1,2.2,1.7l2.3,1.4c2.6,1.5,3.9,3.5,3.9,5.9c0,1.7-0.6,3.1-1.7,4.1c-1.1,1.1-2.6,1.6-4.4,1.6c-2.1,0-4-0.6-5.7-1.9
		v-3.8c1.6,2.1,3.5,3.1,5.7,3.1c0.9,0,1.7-0.3,2.4-0.8c0.6-0.5,0.9-1.2,0.9-2C16,67.2,15,66,13.2,64.8"/>
	<path d="M21.9,73.7V52.6h6.7c2,0,3.6,0.5,4.8,1.6c1.2,1.1,1.8,2.5,1.8,4.4c0,1.2-0.3,2.3-0.9,3.3c-0.6,0.9-1.5,1.6-2.5,2.1
		c-1.1,0.4-2.6,0.6-4.6,0.6H25v9.1H21.9z M28.1,55.3H25v6.6h3.3c1.2,0,2.2-0.3,2.8-0.9c0.7-0.6,1-1.4,1-2.5
		C32.1,56.3,30.8,55.3,28.1,55.3"/>
	<path d="M48.2,52.3c3.3,0,6,1,8.1,3.1c2.2,2.1,3.2,4.6,3.2,7.7c0,3.1-1.1,5.7-3.3,7.7c-2.2,2-4.9,3.1-8.3,3.1c-3.2,0-5.8-1-7.9-3.1
		c-2.1-2-3.2-4.6-3.2-7.6c0-3.1,1.1-5.7,3.2-7.8C42.2,53.3,44.9,52.3,48.2,52.3 M48.3,55.2c-2.4,0-4.4,0.8-5.9,2.3
		c-1.6,1.5-2.3,3.4-2.3,5.8c0,2.3,0.8,4.2,2.3,5.7c1.6,1.5,3.5,2.3,5.8,2.3c2.3,0,4.3-0.8,5.9-2.3c1.6-1.5,2.4-3.4,2.4-5.7
		c0-2.2-0.8-4.1-2.4-5.6C52.5,55.9,50.6,55.2,48.3,55.2"/>
	<path d="M63.3,73.7V52.6h5.3c2.1,0,3.8,0.5,5.1,1.6c1.3,1.1,1.9,2.5,1.9,4.3c0,1.2-0.3,2.3-0.9,3.2c-0.6,0.9-1.5,1.6-2.6,2
		c0.7,0.4,1.3,1,2,1.8c0.6,0.8,1.5,2.1,2.7,4c0.7,1.2,1.3,2.1,1.8,2.7l1.1,1.5H76l-0.9-1.4c0,0-0.1-0.1-0.2-0.3l-0.6-0.8l-0.9-1.5
		l-1-1.6c-0.6-0.9-1.2-1.6-1.7-2.1c-0.5-0.5-1-0.9-1.4-1.1c-0.4-0.2-1.1-0.3-2.1-0.3h-0.8v9.2H63.3z M67.3,55.2h-0.9v6.6h1.1
		c1.5,0,2.6-0.1,3.1-0.4c0.6-0.3,1-0.7,1.3-1.2c0.3-0.5,0.5-1.1,0.5-1.8c0-0.7-0.2-1.3-0.5-1.8c-0.4-0.5-0.8-0.9-1.5-1.1
		C69.8,55.3,68.7,55.2,67.3,55.2"/>
	<polygon points="77.3,52.6 94.9,52.6 94.9,55.3 87.6,55.3 87.6,73.7 84.5,73.7 84.5,55.3 77.3,55.3 	"/>
	<path d="M103,64.8l-2.3-1.4c-1.4-0.9-2.5-1.7-3.1-2.6C97,60,96.7,59,96.7,57.9c0-1.7,0.6-3,1.7-4c1.1-1,2.6-1.6,4.5-1.6
		c1.8,0,3.4,0.5,4.8,1.5v3.4c-1.5-1.5-3.2-2.2-4.9-2.2c-1,0-1.8,0.2-2.4,0.7c-0.6,0.5-1,1-1,1.8c0,0.6,0.2,1.2,0.7,1.8
		c0.5,0.5,1.2,1.1,2.2,1.7l2.3,1.4c2.6,1.5,3.9,3.5,3.9,5.9c0,1.7-0.6,3.1-1.7,4.1c-1.1,1.1-2.6,1.6-4.4,1.6c-2.1,0-4-0.6-5.7-1.9
		v-3.8c1.6,2.1,3.5,3.1,5.7,3.1c0.9,0,1.7-0.3,2.4-0.8c0.6-0.5,0.9-1.2,0.9-2C105.7,67.2,104.8,66,103,64.8"/>
	<path d="M124.1,52.5h2.1l9.4,21.2h-3.1l-2.8-6.2h-9l-2.6,6.2h-3.1L124.1,52.5z M128.5,64.7l-3.4-7.6l-3.1,7.6H128.5z"/>
	<polygon points="162.3,52.6 165.3,52.6 156.8,73.7 156.1,73.7 149.3,56.6 142.3,73.7 141.6,73.7 133.2,52.6 136.2,52.6 142,67.1 
		147.8,52.6 150.7,52.6 156.6,67.1 	"/>
	<path d="M171.9,52.5h2.1l9.4,21.2h-3.1l-2.8-6.2h-9l-2.6,6.2h-3.1L171.9,52.5z M176.3,64.7l-3.4-7.6l-3.2,7.6H176.3z"/>
	<path d="M185.8,73.7V52.6h5.3c2.1,0,3.8,0.5,5.1,1.6c1.2,1.1,1.9,2.5,1.9,4.3c0,1.2-0.3,2.3-0.9,3.2c-0.6,0.9-1.5,1.6-2.6,2
		c0.7,0.4,1.3,1,2,1.8c0.6,0.8,1.5,2.1,2.7,4c0.7,1.2,1.3,2.1,1.8,2.7l1.1,1.5h-3.6l-0.9-1.4c0,0-0.1-0.1-0.2-0.3l-0.6-0.8l-0.9-1.5
		l-1-1.6c-0.6-0.9-1.2-1.6-1.7-2.1c-0.5-0.5-1-0.9-1.4-1.1c-0.4-0.2-1.1-0.3-2.1-0.3h-0.8v9.2H185.8z M189.8,55.2h-0.9v6.6h1.1
		c1.5,0,2.6-0.1,3.1-0.4c0.6-0.3,1-0.7,1.3-1.2c0.3-0.5,0.5-1.1,0.5-1.8c0-0.7-0.2-1.3-0.5-1.8c-0.4-0.5-0.8-0.9-1.5-1.1
		C192.3,55.3,191.2,55.2,189.8,55.2"/>
	<path d="M204.4,73.6v-21h7.1c2.9,0,5.1,0.4,6.8,1.3c1.7,0.9,3,2.1,4,3.8c1,1.7,1.5,3.5,1.5,5.5c0,1.4-0.3,2.8-0.8,4
		c-0.5,1.3-1.3,2.4-2.3,3.4c-1,1-2.2,1.8-3.6,2.3c-0.8,0.3-1.5,0.5-2.2,0.6c-0.7,0.1-1.9,0.2-3.8,0.2H204.4z M211.2,55.3h-3.8v15.7
		h3.9c1.5,0,2.7-0.1,3.5-0.3c0.8-0.2,1.5-0.5,2.1-0.8c0.6-0.3,1.1-0.7,1.5-1.2c1.5-1.5,2.2-3.4,2.2-5.7c0-2.3-0.8-4.1-2.3-5.5
		c-0.6-0.5-1.2-1-1.9-1.3c-0.7-0.3-1.4-0.6-2.1-0.7C213.7,55.3,212.7,55.3,211.2,55.3"/>
	<path d="M232.8,64.8l-2.3-1.4c-1.4-0.9-2.5-1.7-3.1-2.6c-0.6-0.8-0.9-1.8-0.9-2.9c0-1.7,0.6-3,1.7-4c1.1-1,2.6-1.6,4.5-1.6
		c1.8,0,3.4,0.5,4.8,1.5v3.4c-1.5-1.5-3.1-2.2-4.9-2.2c-1,0-1.8,0.2-2.4,0.7c-0.6,0.5-0.9,1-0.9,1.8c0,0.6,0.2,1.2,0.7,1.8
		c0.5,0.5,1.2,1.1,2.3,1.7l2.3,1.4c2.6,1.5,3.9,3.5,3.9,5.9c0,1.7-0.6,3.1-1.7,4.1c-1.1,1.1-2.6,1.6-4.4,1.6c-2.1,0-4-0.6-5.7-1.9
		v-3.8c1.6,2.1,3.5,3.1,5.7,3.1c0.9,0,1.7-0.3,2.4-0.8c0.6-0.5,0.9-1.2,0.9-2C235.5,67.2,234.6,66,232.8,64.8"/>
	<path d="M254.3,70.7h8v2.9H249v-0.2l1.3-1.5c2-2.5,3.6-4.5,4.7-6.2c1.2-1.7,1.9-3,2.3-3.9c0.4-0.9,0.5-1.7,0.5-2.6
		c0-1.2-0.3-2.1-1-2.9c-0.7-0.7-1.6-1.1-2.7-1.1c-0.8,0-1.7,0.3-2.5,0.7c-0.8,0.5-1.6,1.2-2.2,2.1v-3.8c1.6-1.3,3.3-2,5.1-2
		c1.8,0,3.4,0.6,4.5,1.8c1.2,1.2,1.8,2.8,1.8,4.7c0,0.8-0.1,1.7-0.4,2.7c-0.3,1-0.8,2.1-1.6,3.3c-0.8,1.3-2,3-3.8,5.1L254.3,70.7z"
		/>
	<path d="M271.2,52.3c1.9,0,3.5,1,4.8,3c1.3,2,1.9,4.6,1.9,7.7c0,3.2-0.6,5.8-1.9,7.8c-1.3,2-2.9,3-4.9,3c-2,0-3.7-1-4.9-2.9
		c-1.2-2-1.8-4.6-1.8-7.8c0-3.2,0.6-5.8,1.9-7.8C267.5,53.3,269.2,52.3,271.2,52.3 M271.2,55.2h-0.2c-1.2,0-2.1,0.7-2.7,2.1
		c-0.7,1.4-1,3.3-1,5.8c0,2.5,0.3,4.4,1,5.9c0.7,1.4,1.6,2.1,2.7,2.1s2.1-0.7,2.8-2.1c0.7-1.4,1-3.3,1-5.8c0-2.4-0.3-4.4-1-5.8
		C273.2,55.9,272.3,55.2,271.2,55.2"/>
	<rect x="285" y="52.6" width="3" height="21.1"/>
	<path d="M305.2,52.3h1.2v11.8h2.4v2.6h-2.4v6.9h-2.9v-6.9h-8.9v-1.3L305.2,52.3z M303.5,64.1V58l-4.9,6.1H303.5z"/>
</g>
<g>
	<path d="M19.1,45.7H7.4V11.2h9c2.8,0,5.1,0.4,6.7,1.1c1.6,0.8,2.8,1.8,3.7,3.2c0.8,1.3,1.3,2.9,1.3,4.7c0,3.4-1.8,5.8-5.3,7.3
		c2.5,0.5,4.5,1.5,6,3.1c1.5,1.6,2.2,3.5,2.2,5.7c0,1.8-0.5,3.3-1.4,4.7c-0.9,1.4-2.2,2.5-4,3.4C23.9,45.2,21.7,45.7,19.1,45.7
		 M16.6,15.6h-4.2V26h3.3c2.6,0,4.5-0.5,5.6-1.5c1.1-1,1.7-2.3,1.7-3.9C22.9,17.2,20.8,15.6,16.6,15.6 M17,30.3h-4.6v10.9h4.9
		c2.7,0,4.5-0.2,5.5-0.6c1-0.4,1.7-1.1,2.3-2c0.6-0.9,0.9-1.8,0.9-2.9c0-1.1-0.3-2-0.9-2.9c-0.6-0.9-1.5-1.5-2.6-1.9
		C21.2,30.6,19.4,30.3,17,30.3"/>
	<rect x="35.7" y="11.2" width="4.9" height="34.5"/>
	<path d="M48.1,45.7V11.2h8.6c3.5,0,6.3,0.9,8.3,2.6c2,1.7,3.1,4.1,3.1,7c0,2-0.5,3.7-1.5,5.2c-1,1.5-2.4,2.6-4.3,3.3
		c1.1,0.7,2.2,1.7,3.2,3c1.1,1.2,2.5,3.4,4.4,6.5c1.2,2,2.2,3.4,2.9,4.4l1.8,2.5h-5.9l-1.5-2.3c0-0.1-0.1-0.2-0.3-0.4l-1-1.4
		l-1.5-2.5l-1.7-2.7c-1-1.4-2-2.5-2.8-3.4c-0.8-0.8-1.6-1.4-2.3-1.8c-0.7-0.4-1.8-0.6-3.4-0.6h-1.3v15H48.1z M54.6,15.4h-1.5v10.9
		H55c2.5,0,4.2-0.2,5.1-0.6c0.9-0.4,1.7-1.1,2.2-1.9c0.5-0.9,0.8-1.8,0.8-2.9c0-1.1-0.3-2.1-0.9-2.9c-0.6-0.9-1.4-1.5-2.4-1.9
		C58.7,15.6,57,15.4,54.6,15.4"/>
	<polygon points="105.7,11.2 110.3,11.2 110.3,45.7 105.3,45.7 105.3,18.9 94.7,32.2 93.8,32.2 83.1,18.9 83.1,45.7 78.2,45.7 
		78.2,11.2 82.8,11.2 94.3,25.4 	"/>
	<rect x="117.5" y="11.2" width="4.9" height="34.5"/>
	<polygon points="157.2,11.2 161.9,11.2 161.9,45.7 157.6,45.7 134.6,19.1 134.6,45.7 130,45.7 130,11.2 134,11.2 157.2,38 	"/>
	<path d="M187.6,28.7h11.6v14.6c-4.2,1.8-8.5,2.8-12.6,2.8c-5.7,0-10.3-1.7-13.7-5c-3.4-3.3-5.1-7.4-5.1-12.3
		c0-5.1,1.8-9.4,5.3-12.8c3.5-3.4,8-5.1,13.3-5.1c1.9,0,3.8,0.2,5.5,0.6c1.7,0.4,3.9,1.2,6.6,2.3v5c-4.1-2.4-8.2-3.6-12.2-3.6
		c-3.8,0-6.9,1.3-9.5,3.8c-2.6,2.6-3.9,5.7-3.9,9.4c0,3.9,1.3,7.1,3.9,9.6c2.6,2.5,5.9,3.7,10,3.7c2,0,4.3-0.5,7.1-1.4l0.5-0.1v-7.2
		h-6.6V28.7z"/>
	<polygon points="230.4,11.2 235.4,11.2 235.4,45.7 230.4,45.7 230.4,30.7 211.1,30.7 211.1,45.7 206.1,45.7 206.1,11.2 211.1,11.2 
		211.1,26.1 230.4,26.1 	"/>
	<path d="M253.7,11h3.5l15.4,34.7h-5L263,35.5h-14.7L244,45.7h-5.1L253.7,11z M261,31.1l-5.6-12.5l-5.2,12.5H261z"/>
	<polygon points="303.5,11.2 308.2,11.2 308.2,45.7 303.2,45.7 303.2,18.9 292.6,32.2 291.7,32.2 281,18.9 281,45.7 276,45.7 
		276,11.2 280.7,11.2 292.2,25.4 	"/>
</g>
<g>
	<path fill="#FFFFFF" d="M19.1,47.9H7.4V13.4h9c2.8,0,5.1,0.4,6.7,1.1c1.6,0.8,2.8,1.8,3.7,3.2c0.8,1.3,1.3,2.9,1.3,4.7
		c0,3.4-1.8,5.8-5.3,7.3c2.5,0.5,4.5,1.5,6,3.1c1.5,1.6,2.2,3.5,2.2,5.7c0,1.8-0.5,3.3-1.4,4.7c-0.9,1.4-2.2,2.5-4,3.4
		C23.9,47.4,21.7,47.9,19.1,47.9 M16.6,17.8h-4.2v10.4h3.3c2.6,0,4.5-0.5,5.6-1.5c1.1-1,1.7-2.3,1.7-3.9
		C22.9,19.4,20.8,17.8,16.6,17.8 M17,32.5h-4.6v10.9h4.9c2.7,0,4.5-0.2,5.5-0.6c1-0.4,1.7-1.1,2.3-2c0.6-0.9,0.9-1.8,0.9-2.9
		c0-1.1-0.3-2-0.9-2.9c-0.6-0.9-1.5-1.5-2.6-1.9C21.2,32.7,19.4,32.5,17,32.5"/>
	<rect x="35.7" y="13.4" fill="#FFFFFF" width="4.9" height="34.5"/>
	<path fill="#FFFFFF" d="M48.1,47.9V13.4h8.6c3.5,0,6.3,0.9,8.3,2.6c2,1.7,3.1,4.1,3.1,7c0,2-0.5,3.7-1.5,5.2
		c-1,1.5-2.4,2.6-4.3,3.3c1.1,0.7,2.2,1.7,3.2,3c1.1,1.2,2.5,3.4,4.4,6.5c1.2,2,2.2,3.4,2.9,4.4l1.8,2.5h-5.9l-1.5-2.3
		c0-0.1-0.1-0.2-0.3-0.4l-1-1.4l-1.5-2.5l-1.7-2.7c-1-1.4-2-2.5-2.8-3.4c-0.8-0.8-1.6-1.4-2.3-1.8c-0.7-0.4-1.8-0.6-3.4-0.6h-1.3v15
		H48.1z M54.6,17.6h-1.5v10.9H55c2.5,0,4.2-0.2,5.1-0.6c0.9-0.4,1.7-1.1,2.2-1.9C62.8,25,63,24,63,22.9c0-1.1-0.3-2.1-0.9-2.9
		c-0.6-0.9-1.4-1.5-2.4-1.9C58.7,17.8,57,17.6,54.6,17.6"/>
	<polygon fill="#FFFFFF" points="105.7,13.4 110.3,13.4 110.3,47.9 105.3,47.9 105.3,21 94.7,34.4 93.8,34.4 83.1,21 83.1,47.9 
		78.2,47.9 78.2,13.4 82.8,13.4 94.3,27.5 	"/>
	<rect x="117.5" y="13.4" fill="#FFFFFF" width="4.9" height="34.5"/>
	<polygon fill="#FFFFFF" points="157.2,13.4 161.9,13.4 161.9,47.9 157.6,47.9 134.6,21.3 134.6,47.9 130,47.9 130,13.4 134,13.4 
		157.2,40.2 	"/>
	<path fill="#FFFFFF" d="M187.6,30.9h11.6v14.6c-4.2,1.8-8.5,2.8-12.6,2.8c-5.7,0-10.3-1.7-13.7-5c-3.4-3.3-5.1-7.4-5.1-12.3
		c0-5.1,1.8-9.4,5.3-12.8c3.5-3.4,8-5.1,13.3-5.1c1.9,0,3.8,0.2,5.5,0.6c1.7,0.4,3.9,1.2,6.6,2.3v5c-4.1-2.4-8.2-3.6-12.2-3.6
		c-3.8,0-6.9,1.3-9.5,3.8c-2.6,2.6-3.9,5.7-3.9,9.4c0,3.9,1.3,7.1,3.9,9.6c2.6,2.5,5.9,3.7,10,3.7c2,0,4.3-0.5,7.1-1.4l0.5-0.1v-7.2
		h-6.6V30.9z"/>
	<polygon fill="#FFFFFF" points="230.4,13.4 235.4,13.4 235.4,47.9 230.4,47.9 230.4,32.9 211.1,32.9 211.1,47.9 206.1,47.9 
		206.1,13.4 211.1,13.4 211.1,28.3 230.4,28.3 	"/>
	<path fill="#FFFFFF" d="M253.7,13.2h3.5l15.4,34.7h-5L263,37.6h-14.7L244,47.9h-5.1L253.7,13.2z M261,33.2l-5.6-12.5l-5.2,12.5H261
		z"/>
	<polygon fill="#FFFFFF" points="303.5,13.4 308.2,13.4 308.2,47.9 303.2,47.9 303.2,21 292.6,34.4 291.7,34.4 281,21 281,47.9 
		276,47.9 276,13.4 280.7,13.4 292.2,27.5 	"/>
</g>
<g>
	<path fill="#FFFFFF" d="M13.2,65.9l-2.3-1.4c-1.4-0.9-2.5-1.7-3.1-2.6c-0.6-0.8-0.9-1.8-0.9-2.9c0-1.7,0.6-3,1.7-4
		c1.2-1,2.6-1.6,4.5-1.6c1.8,0,3.4,0.5,4.8,1.5v3.4c-1.5-1.5-3.1-2.2-4.9-2.2c-1,0-1.8,0.2-2.4,0.7c-0.6,0.5-0.9,1-0.9,1.8
		c0,0.6,0.2,1.2,0.7,1.8c0.5,0.5,1.2,1.1,2.2,1.7l2.3,1.4c2.6,1.5,3.9,3.5,3.9,5.9c0,1.7-0.6,3.1-1.7,4.1C16,74.5,14.5,75,12.7,75
		c-2.1,0-4-0.6-5.7-1.9v-3.8c1.6,2.1,3.5,3.1,5.7,3.1c0.9,0,1.7-0.3,2.4-0.8c0.6-0.5,0.9-1.2,0.9-2C16,68.3,15,67.1,13.2,65.9"/>
	<path fill="#FFFFFF" d="M21.9,74.7V53.7h6.7c2,0,3.6,0.5,4.8,1.6c1.2,1.1,1.8,2.5,1.8,4.4c0,1.2-0.3,2.3-0.9,3.3
		c-0.6,0.9-1.5,1.6-2.5,2.1c-1.1,0.4-2.6,0.6-4.6,0.6H25v9.1H21.9z M28.1,56.3H25v6.6h3.3c1.2,0,2.2-0.3,2.8-0.9
		c0.7-0.6,1-1.4,1-2.5C32.1,57.4,30.8,56.3,28.1,56.3"/>
	<path fill="#FFFFFF" d="M48.2,53.4c3.3,0,6,1,8.1,3.1c2.2,2.1,3.2,4.6,3.2,7.7c0,3.1-1.1,5.7-3.3,7.7c-2.2,2-4.9,3-8.3,3
		c-3.2,0-5.8-1-7.9-3c-2.1-2-3.2-4.6-3.2-7.6c0-3.1,1.1-5.7,3.2-7.8C42.2,54.4,44.9,53.4,48.2,53.4 M48.3,56.3
		c-2.4,0-4.4,0.8-5.9,2.3C40.8,60,40,61.9,40,64.3c0,2.3,0.8,4.2,2.3,5.7c1.6,1.5,3.5,2.3,5.8,2.3c2.3,0,4.3-0.8,5.9-2.3
		c1.6-1.5,2.4-3.4,2.4-5.7c0-2.2-0.8-4.1-2.4-5.6C52.5,57,50.6,56.3,48.3,56.3"/>
	<path fill="#FFFFFF" d="M63.3,74.7V53.7h5.3c2.1,0,3.8,0.5,5.1,1.6c1.3,1.1,1.9,2.5,1.9,4.3c0,1.2-0.3,2.3-0.9,3.2
		c-0.6,0.9-1.5,1.6-2.6,2c0.7,0.4,1.3,1,2,1.8c0.6,0.8,1.5,2.1,2.7,4c0.7,1.2,1.3,2.1,1.8,2.7l1.1,1.5H76l-0.9-1.4
		c0,0-0.1-0.1-0.2-0.3l-0.6-0.8l-0.9-1.5l-1-1.6c-0.6-0.9-1.2-1.6-1.7-2.1c-0.5-0.5-1-0.9-1.4-1.1c-0.4-0.2-1.1-0.3-2.1-0.3h-0.8
		v9.2H63.3z M67.3,56.3h-0.9v6.6h1.1c1.5,0,2.6-0.1,3.1-0.4c0.6-0.3,1-0.7,1.3-1.2c0.3-0.5,0.5-1.1,0.5-1.8c0-0.7-0.2-1.3-0.5-1.8
		c-0.4-0.5-0.8-0.9-1.5-1.1C69.8,56.4,68.7,56.3,67.3,56.3"/>
	<polygon fill="#FFFFFF" points="77.3,53.7 94.9,53.7 94.9,56.3 87.6,56.3 87.6,74.7 84.5,74.7 84.5,56.3 77.3,56.3 	"/>
	<path fill="#FFFFFF" d="M103,65.9l-2.3-1.4c-1.4-0.9-2.5-1.7-3.1-2.6c-0.6-0.8-0.9-1.8-0.9-2.9c0-1.7,0.6-3,1.7-4
		c1.1-1,2.6-1.6,4.5-1.6c1.8,0,3.4,0.5,4.8,1.5v3.4c-1.5-1.5-3.2-2.2-4.9-2.2c-1,0-1.8,0.2-2.4,0.7c-0.6,0.5-1,1-1,1.8
		c0,0.6,0.2,1.2,0.7,1.8c0.5,0.5,1.2,1.1,2.2,1.7l2.3,1.4c2.6,1.5,3.9,3.5,3.9,5.9c0,1.7-0.6,3.1-1.7,4.1c-1.1,1.1-2.6,1.6-4.4,1.6
		c-2.1,0-4-0.6-5.7-1.9v-3.8c1.6,2.1,3.5,3.1,5.7,3.1c0.9,0,1.7-0.3,2.4-0.8c0.6-0.5,0.9-1.2,0.9-2C105.7,68.3,104.8,67.1,103,65.9"
		/>
	<path fill="#FFFFFF" d="M124.1,53.6h2.1l9.4,21.2h-3.1l-2.8-6.2h-9l-2.6,6.2h-3.1L124.1,53.6z M128.5,65.8l-3.4-7.6l-3.1,7.6H128.5
		z"/>
	<polygon fill="#FFFFFF" points="162.3,53.7 165.3,53.7 156.8,74.8 156.1,74.8 149.3,57.7 142.3,74.8 141.6,74.8 133.2,53.7 
		136.2,53.7 142,68.2 147.8,53.7 150.7,53.7 156.6,68.2 	"/>
	<path fill="#FFFFFF" d="M171.9,53.6h2.1l9.4,21.2h-3.1l-2.8-6.2h-9l-2.6,6.2h-3.1L171.9,53.6z M176.3,65.8l-3.4-7.6l-3.2,7.6H176.3
		z"/>
	<path fill="#FFFFFF" d="M185.8,74.7V53.7h5.3c2.1,0,3.8,0.5,5.1,1.6c1.2,1.1,1.9,2.5,1.9,4.3c0,1.2-0.3,2.3-0.9,3.2
		c-0.6,0.9-1.5,1.6-2.6,2c0.7,0.4,1.3,1,2,1.8c0.6,0.8,1.5,2.1,2.7,4c0.7,1.2,1.3,2.1,1.8,2.7l1.1,1.5h-3.6l-0.9-1.4
		c0,0-0.1-0.1-0.2-0.3l-0.6-0.8l-0.9-1.5l-1-1.6c-0.6-0.9-1.2-1.6-1.7-2.1c-0.5-0.5-1-0.9-1.4-1.1c-0.4-0.2-1.1-0.3-2.1-0.3h-0.8
		v9.2H185.8z M189.8,56.3h-0.9v6.6h1.1c1.5,0,2.6-0.1,3.1-0.4c0.6-0.3,1-0.7,1.3-1.2c0.3-0.5,0.5-1.1,0.5-1.8c0-0.7-0.2-1.3-0.5-1.8
		c-0.4-0.5-0.8-0.9-1.5-1.1C192.3,56.4,191.2,56.3,189.8,56.3"/>
	<path fill="#FFFFFF" d="M204.4,74.7v-21h7.1c2.9,0,5.1,0.4,6.8,1.3c1.7,0.9,3,2.1,4,3.8c1,1.7,1.5,3.5,1.5,5.5c0,1.4-0.3,2.8-0.8,4
		c-0.5,1.3-1.3,2.4-2.3,3.4c-1,1-2.2,1.8-3.6,2.3c-0.8,0.3-1.5,0.5-2.2,0.6c-0.7,0.1-1.9,0.2-3.8,0.2H204.4z M211.2,56.4h-3.8V72
		h3.9c1.5,0,2.7-0.1,3.5-0.3c0.8-0.2,1.5-0.5,2.1-0.8c0.6-0.3,1.1-0.7,1.5-1.2c1.5-1.5,2.2-3.4,2.2-5.7c0-2.3-0.8-4.1-2.3-5.5
		c-0.6-0.5-1.2-1-1.9-1.3c-0.7-0.3-1.4-0.6-2.1-0.7C213.7,56.4,212.7,56.4,211.2,56.4"/>
	<path fill="#FFFFFF" d="M232.8,65.9l-2.3-1.4c-1.4-0.9-2.5-1.7-3.1-2.6c-0.6-0.8-0.9-1.8-0.9-2.9c0-1.7,0.6-3,1.7-4
		c1.1-1,2.6-1.6,4.5-1.6c1.8,0,3.4,0.5,4.8,1.5v3.4c-1.5-1.5-3.1-2.2-4.9-2.2c-1,0-1.8,0.2-2.4,0.7c-0.6,0.5-0.9,1-0.9,1.8
		c0,0.6,0.2,1.2,0.7,1.8c0.5,0.5,1.2,1.1,2.3,1.7l2.3,1.4c2.6,1.5,3.9,3.5,3.9,5.9c0,1.7-0.6,3.1-1.7,4.1c-1.1,1.1-2.6,1.6-4.4,1.6
		c-2.1,0-4-0.6-5.7-1.9v-3.8c1.6,2.1,3.5,3.1,5.7,3.1c0.9,0,1.7-0.3,2.4-0.8s0.9-1.2,0.9-2C235.5,68.3,234.6,67.1,232.8,65.9"/>
	<path fill="#FFFFFF" d="M254.3,71.8h8v2.9H249v-0.2l1.3-1.5c2-2.5,3.6-4.5,4.7-6.2c1.2-1.7,1.9-3,2.3-3.9c0.4-0.9,0.5-1.7,0.5-2.6
		c0-1.2-0.3-2.1-1-2.9c-0.7-0.7-1.6-1.1-2.7-1.1c-0.8,0-1.7,0.3-2.5,0.7c-0.8,0.5-1.6,1.2-2.2,2.1v-3.8c1.6-1.3,3.3-2,5.1-2
		c1.8,0,3.4,0.6,4.5,1.8c1.2,1.2,1.8,2.8,1.8,4.7c0,0.8-0.1,1.7-0.4,2.7c-0.3,1-0.8,2.1-1.6,3.3c-0.8,1.3-2,3-3.8,5.1L254.3,71.8z"
		/>
	<path fill="#FFFFFF" d="M271.2,53.4c1.9,0,3.5,1,4.8,3c1.3,2,1.9,4.6,1.9,7.7c0,3.2-0.6,5.8-1.9,7.8c-1.3,2-2.9,3-4.9,3
		c-2,0-3.7-1-4.9-2.9c-1.2-2-1.8-4.6-1.8-7.8c0-3.2,0.6-5.8,1.9-7.8C267.5,54.4,269.2,53.4,271.2,53.4 M271.2,56.3h-0.2
		c-1.2,0-2.1,0.7-2.7,2.1c-0.7,1.4-1,3.4-1,5.8c0,2.5,0.3,4.4,1,5.9c0.7,1.4,1.6,2.1,2.7,2.1s2.1-0.7,2.8-2.1c0.7-1.4,1-3.3,1-5.8
		c0-2.4-0.3-4.4-1-5.8C273.2,57,272.3,56.3,271.2,56.3"/>
	<rect x="285" y="53.7" fill="#FFFFFF" width="3" height="21.1"/>
	<path fill="#FFFFFF" d="M305.2,53.4h1.2v11.8h2.4v2.6h-2.4v6.9h-2.9v-6.9h-8.9v-1.3L305.2,53.4z M303.5,65.2v-6.1l-4.9,6.1H303.5z"
		/>
</g>
</svg>
